# generated by tools/art/gen_meshes.py
v 23.094091 -27.868530 15.125000
v 43.006573 -12.656644 29.592093
v 15.488356 -12.656644 38.533447
v -1.519258 -12.656645 15.124999
v 15.488356 -12.656646 -8.283451
v 43.006573 -12.656646 0.657906
v 30.699829 11.956845 38.533447
v 3.181611 11.956845 29.592091
v 3.181611 11.956843 0.657904
v 30.699829 11.956843 -8.283451
v 47.707439 11.956844 15.124998
v 23.094091 27.168732 15.124997
v -10.302123 -33.194717 -0.200381
v 13.464387 -15.038595 17.066795
v -19.379940 -15.038594 27.738735
v -39.679348 -15.038596 -0.200382
v -19.379940 -15.038597 -28.139502
v 13.464387 -15.038596 -17.467562
v -1.224308 14.338796 27.738733
v -34.068634 14.338795 17.066793
v -34.068634 14.338794 -17.467562
v -1.224308 14.338793 -28.139502
v 19.075102 14.338794 -0.200384
v -10.302123 32.494919 -0.200385
v -9.978439 -38.520905 30.598919
v 17.642097 -17.420544 50.666180
v -20.528334 -17.420544 63.068703
v -44.119541 -17.420546 30.598917
v -20.528334 -17.420546 -1.870866
v 17.642097 -17.420546 10.531656
v 0.571454 16.720749 63.068703
v -37.598980 16.720749 50.666180
v -37.598980 16.720747 10.531654
v 0.571454 16.720747 -1.870866
v 24.162663 16.720747 30.598915
v -9.978439 37.821106 30.598915
vt 0.731960 0.474349
vt 0.948807 0.632965
vt 0.649133 0.730997
vt 0.948807 0.632965
vt 0.731960 0.474349
vt 0.948807 0.315733
vt 0.731960 0.474349
vt 0.649133 0.730997
vt 0.463919 0.474349
vt 0.731960 0.474349
vt 0.463919 0.474349
vt 0.649133 0.217700
vt 0.731960 0.474349
vt 0.649133 0.217700
vt 0.948807 0.315733
vt 0.338795 0.632965
vt 0.338795 0.315733
vt 0.661205 0.474349
vt 0.649133 0.338795
vt 0.948807 0.338795
vt 0.814786 0.661205
vt 0.338795 0.474349
vt 0.338795 0.730997
vt 0.661205 0.632965
vt 0.338795 0.217700
vt 0.338795 0.474349
vt 0.661205 0.315733
vt 0.948807 0.338795
vt 0.649133 0.338795
vt 0.814786 0.661205
vt 0.338795 0.632965
vt 0.661205 0.474349
vt 0.661205 0.730997
vt 0.649133 0.338795
vt 0.814786 0.661205
vt 0.515112 0.661205
vt 0.338795 0.474349
vt 0.661205 0.632965
vt 0.661205 0.315733
vt 0.649133 0.338795
vt 0.515112 0.661205
vt 0.814786 0.661205
vt 0.338795 0.315733
vt 0.661205 0.217700
vt 0.661205 0.474349
vt 0.814786 0.730997
vt 1.000000 0.474349
vt 0.731960 0.474349
vt 0.515112 0.632965
vt 0.814786 0.730997
vt 0.731960 0.474349
vt 0.515112 0.315733
vt 0.515112 0.632965
vt 0.731960 0.474349
vt 0.814786 0.217700
vt 0.515112 0.315733
vt 0.731960 0.474349
vt 1.000000 0.474349
vt 0.814786 0.217700
vt 0.731960 0.474349
vt 0.368273 0.306322
vt 0.627092 0.495638
vt 0.269415 0.612645
vt 0.627092 0.495638
vt 0.368273 0.306322
vt 0.627092 0.117006
vt 0.368273 0.306322
vt 0.269415 0.612645
vt 0.048354 0.306322
vt 0.368273 0.306322
vt 0.048354 0.306322
vt 0.269415 0.000000
vt 0.368273 0.306322
vt 0.269415 0.000000
vt 0.627092 0.117006
vt 0.307594 0.495638
vt 0.307594 0.117006
vt 0.692406 0.306322
vt 0.269415 0.307594
vt 0.627092 0.307594
vt 0.467131 0.692406
vt 0.307594 0.306322
vt 0.307594 0.612645
vt 0.692406 0.495638
vt 0.307594 0.000000
vt 0.307594 0.306322
vt 0.692406 0.117006
vt 0.627092 0.307594
vt 0.269415 0.307594
vt 0.467131 0.692406
vt 0.307594 0.495638
vt 0.692406 0.306322
vt 0.692406 0.612645
vt 0.269415 0.307594
vt 0.467131 0.692406
vt 0.109455 0.692406
vt 0.307594 0.306322
vt 0.692406 0.495638
vt 0.692406 0.117006
vt 0.269415 0.307594
vt 0.109455 0.692406
vt 0.467131 0.692406
vt 0.307594 0.117006
vt 0.692406 0.000000
vt 0.692406 0.306322
vt 0.467131 0.612645
vt 0.688193 0.306322
vt 0.368273 0.306322
vt 0.109455 0.495638
vt 0.467131 0.612645
vt 0.368273 0.306322
vt 0.109455 0.117006
vt 0.109455 0.495638
vt 0.368273 0.306322
vt 0.467131 0.000000
vt 0.109455 0.117006
vt 0.368273 0.306322
vt 0.688193 0.306322
vt 0.467131 0.000000
vt 0.368273 0.306322
vt 0.371798 0.644004
vt 0.672587 0.864020
vt 0.256909 1.000000
vt 0.672587 0.864020
vt 0.371798 0.644004
vt 0.672587 0.423988
vt 0.371798 0.644004
vt 0.256909 1.000000
vt 0.000000 0.644004
vt 0.371798 0.644004
vt 0.000000 0.644004
vt 0.256909 0.288007
vt 0.371798 0.644004
vt 0.256909 0.288007
vt 0.672587 0.423988
vt 0.276393 0.864020
vt 0.276392 0.423988
vt 0.723608 0.644004
vt 0.256909 0.276393
vt 0.672587 0.276393
vt 0.486687 0.723608
vt 0.276392 0.644004
vt 0.276393 1.000000
vt 0.723608 0.864020
vt 0.276392 0.288007
vt 0.276392 0.644004
vt 0.723608 0.423988
vt 0.672587 0.276392
vt 0.256909 0.276392
vt 0.486687 0.723608
vt 0.276393 0.864020
vt 0.723608 0.644004
vt 0.723608 1.000000
vt 0.256909 0.276393
vt 0.486687 0.723608
vt 0.071009 0.723608
vt 0.276392 0.644004
vt 0.723608 0.864020
vt 0.723608 0.423988
vt 0.256909 0.276392
vt 0.071009 0.723608
vt 0.486687 0.723608
vt 0.276392 0.423988
vt 0.723608 0.288007
vt 0.723608 0.644004
vt 0.486687 1.000000
vt 0.743596 0.644004
vt 0.371798 0.644004
vt 0.071009 0.864020
vt 0.486687 1.000000
vt 0.371798 0.644004
vt 0.071009 0.423988
vt 0.071009 0.864020
vt 0.371798 0.644004
vt 0.486687 0.288007
vt 0.071009 0.423988
vt 0.371798 0.644004
vt 0.743596 0.644004
vt 0.486687 0.288007
vt 0.371798 0.644004
vn 0.000001 -1.000000 0.000000
vn 0.723607 -0.447214 0.525731
vn -0.276388 -0.447212 0.850653
vn 0.723607 -0.447214 0.525731
vn 0.000001 -1.000000 0.000000
vn 0.723607 -0.447214 -0.525731
vn 0.000001 -1.000000 0.000000
vn -0.276388 -0.447212 0.850653
vn -0.894428 -0.447212 0.000000
vn 0.000001 -1.000000 0.000000
vn -0.894428 -0.447212 0.000000
vn -0.276388 -0.447212 -0.850653
vn 0.000001 -1.000000 0.000000
vn -0.276388 -0.447212 -0.850653
vn 0.723607 -0.447214 -0.525731
vn 0.723607 -0.447214 0.525731
vn 0.723607 -0.447214 -0.525731
vn 0.894428 0.447212 -0.000000
vn -0.276388 -0.447212 0.850653
vn 0.723607 -0.447214 0.525731
vn 0.276388 0.447212 0.850653
vn -0.894428 -0.447212 0.000000
vn -0.276388 -0.447212 0.850653
vn -0.723607 0.447214 0.525731
vn -0.276388 -0.447212 -0.850653
vn -0.894428 -0.447212 0.000000
vn -0.723607 0.447214 -0.525731
vn 0.723607 -0.447214 -0.525731
vn -0.276388 -0.447212 -0.850653
vn 0.276388 0.447212 -0.850653
vn 0.723607 -0.447214 0.525731
vn 0.894428 0.447212 -0.000000
vn 0.276388 0.447212 0.850653
vn -0.276388 -0.447212 0.850653
vn 0.276388 0.447212 0.850653
vn -0.723607 0.447214 0.525731
vn -0.894428 -0.447212 0.000000
vn -0.723607 0.447214 0.525731
vn -0.723607 0.447214 -0.525731
vn -0.276388 -0.447212 -0.850653
vn -0.723607 0.447214 -0.525731
vn 0.276388 0.447212 -0.850653
vn 0.723607 -0.447214 -0.525731
vn 0.276388 0.447212 -0.850653
vn 0.894428 0.447212 -0.000000
vn 0.276388 0.447212 0.850653
vn 0.894428 0.447212 -0.000000
vn -0.000001 1.000000 -0.000000
vn -0.723607 0.447214 0.525731
vn 0.276388 0.447212 0.850653
vn -0.000001 1.000000 -0.000000
vn -0.723607 0.447214 -0.525731
vn -0.723607 0.447214 0.525731
vn -0.000001 1.000000 -0.000000
vn 0.276388 0.447212 -0.850653
vn -0.723607 0.447214 -0.525731
vn -0.000001 1.000000 -0.000000
vn 0.894428 0.447212 -0.000000
vn 0.276388 0.447212 -0.850653
vn -0.000001 1.000000 -0.000000
vn 0.000001 -1.000000 0.000000
vn 0.723607 -0.447214 0.525731
vn -0.276388 -0.447212 0.850653
vn 0.723607 -0.447214 0.525731
vn 0.000001 -1.000000 0.000000
vn 0.723607 -0.447214 -0.525731
vn 0.000001 -1.000000 0.000000
vn -0.276388 -0.447212 0.850653
vn -0.894428 -0.447211 0.000000
vn 0.000001 -1.000000 0.000000
vn -0.894428 -0.447211 0.000000
vn -0.276388 -0.447212 -0.850653
vn 0.000001 -1.000000 0.000000
vn -0.276388 -0.447212 -0.850653
vn 0.723607 -0.447214 -0.525731
vn 0.723607 -0.447214 0.525731
vn 0.723607 -0.447214 -0.525731
vn 0.894428 0.447211 -0.000000
vn -0.276388 -0.447212 0.850653
vn 0.723607 -0.447214 0.525731
vn 0.276388 0.447212 0.850653
vn -0.894428 -0.447211 0.000000
vn -0.276388 -0.447212 0.850653
vn -0.723607 0.447214 0.525731
vn -0.276388 -0.447212 -0.850653
vn -0.894428 -0.447211 0.000000
vn -0.723607 0.447214 -0.525731
vn 0.723607 -0.447214 -0.525731
vn -0.276388 -0.447212 -0.850653
vn 0.276388 0.447212 -0.850653
vn 0.723607 -0.447214 0.525731
vn 0.894428 0.447211 -0.000000
vn 0.276388 0.447212 0.850653
vn -0.276388 -0.447212 0.850653
vn 0.276388 0.447212 0.850653
vn -0.723607 0.447214 0.525731
vn -0.894428 -0.447211 0.000000
vn -0.723607 0.447214 0.525731
vn -0.723607 0.447214 -0.525731
vn -0.276388 -0.447212 -0.850653
vn -0.723607 0.447214 -0.525731
vn 0.276388 0.447212 -0.850653
vn 0.723607 -0.447214 -0.525731
vn 0.276388 0.447212 -0.850653
vn 0.894428 0.447211 -0.000000
vn 0.276388 0.447212 0.850653
vn 0.894428 0.447211 -0.000000
vn -0.000001 1.000000 -0.000000
vn -0.723607 0.447214 0.525731
vn 0.276388 0.447212 0.850653
vn -0.000001 1.000000 -0.000000
vn -0.723607 0.447214 -0.525731
vn -0.723607 0.447214 0.525731
vn -0.000001 1.000000 -0.000000
vn 0.276388 0.447212 -0.850653
vn -0.723607 0.447214 -0.525731
vn -0.000001 1.000000 -0.000000
vn 0.894428 0.447211 -0.000000
vn 0.276388 0.447212 -0.850653
vn -0.000001 1.000000 -0.000000
vn 0.000001 -1.000000 0.000000
vn 0.723607 -0.447214 0.525731
vn -0.276388 -0.447212 0.850653
vn 0.723607 -0.447214 0.525731
vn 0.000001 -1.000000 0.000000
vn 0.723607 -0.447214 -0.525731
vn 0.000001 -1.000000 0.000000
vn -0.276388 -0.447212 0.850653
vn -0.894428 -0.447212 0.000000
vn 0.000001 -1.000000 0.000000
vn -0.894428 -0.447212 0.000000
vn -0.276388 -0.447212 -0.850653
vn 0.000001 -1.000000 0.000000
vn -0.276388 -0.447212 -0.850653
vn 0.723607 -0.447214 -0.525731
vn 0.723607 -0.447214 0.525731
vn 0.723607 -0.447214 -0.525731
vn 0.894428 0.447211 -0.000000
vn -0.276388 -0.447212 0.850653
vn 0.723607 -0.447214 0.525731
vn 0.276388 0.447212 0.850653
vn -0.894428 -0.447212 0.000000
vn -0.276388 -0.447212 0.850653
vn -0.723607 0.447214 0.525731
vn -0.276388 -0.447212 -0.850653
vn -0.894428 -0.447212 0.000000
vn -0.723607 0.447214 -0.525731
vn 0.723607 -0.447214 -0.525731
vn -0.276388 -0.447212 -0.850653
vn 0.276388 0.447212 -0.850653
vn 0.723607 -0.447214 0.525731
vn 0.894428 0.447211 -0.000000
vn 0.276388 0.447212 0.850653
vn -0.276388 -0.447212 0.850653
vn 0.276388 0.447212 0.850653
vn -0.723607 0.447214 0.525731
vn -0.894428 -0.447212 0.000000
vn -0.723607 0.447214 0.525731
vn -0.723607 0.447214 -0.525731
vn -0.276388 -0.447212 -0.850653
vn -0.723607 0.447214 -0.525731
vn 0.276388 0.447212 -0.850653
vn 0.723607 -0.447214 -0.525731
vn 0.276388 0.447212 -0.850653
vn 0.894428 0.447211 -0.000000
vn 0.276388 0.447212 0.850653
vn 0.894428 0.447211 -0.000000
vn -0.000001 1.000000 -0.000000
vn -0.723607 0.447214 0.525731
vn 0.276388 0.447212 0.850653
vn -0.000001 1.000000 -0.000000
vn -0.723607 0.447214 -0.525731
vn -0.723607 0.447214 0.525731
vn -0.000001 1.000000 -0.000000
vn 0.276388 0.447212 -0.850653
vn -0.723607 0.447214 -0.525731
vn -0.000001 1.000000 -0.000000
vn 0.894428 0.447211 -0.000000
vn 0.276388 0.447212 -0.850653
vn -0.000001 1.000000 -0.000000
f 1/1/1 2/2/2 3/3/3
f 2/4/4 1/5/5 6/6/6
f 1/7/7 3/8/8 4/9/9
f 1/10/10 4/11/11 5/12/12
f 1/13/13 5/14/14 6/15/15
f 2/16/16 6/17/17 11/18/18
f 3/19/19 2/20/20 7/21/21
f 4/22/22 3/23/23 8/24/24
f 5/25/25 4/26/26 9/27/27
f 6/28/28 5/29/29 10/30/30
f 2/31/31 11/32/32 7/33/33
f 3/34/34 7/35/35 8/36/36
f 4/37/37 8/38/38 9/39/39
f 5/40/40 9/41/41 10/42/42
f 6/43/43 10/44/44 11/45/45
f 7/46/46 11/47/47 12/48/48
f 8/49/49 7/50/50 12/51/51
f 9/52/52 8/53/53 12/54/54
f 10/55/55 9/56/56 12/57/57
f 11/58/58 10/59/59 12/60/60
f 13/61/61 14/62/62 15/63/63
f 14/64/64 13/65/65 18/66/66
f 13/67/67 15/68/68 16/69/69
f 13/70/70 16/71/71 17/72/72
f 13/73/73 17/74/74 18/75/75
f 14/76/76 18/77/77 23/78/78
f 15/79/79 14/80/80 19/81/81
f 16/82/82 15/83/83 20/84/84
f 17/85/85 16/86/86 21/87/87
f 18/88/88 17/89/89 22/90/90
f 14/91/91 23/92/92 19/93/93
f 15/94/94 19/95/95 20/96/96
f 16/97/97 20/98/98 21/99/99
f 17/100/100 21/101/101 22/102/102
f 18/103/103 22/104/104 23/105/105
f 19/106/106 23/107/107 24/108/108
f 20/109/109 19/110/110 24/111/111
f 21/112/112 20/113/113 24/114/114
f 22/115/115 21/116/116 24/117/117
f 23/118/118 22/119/119 24/120/120
f 25/121/121 26/122/122 27/123/123
f 26/124/124 25/125/125 30/126/126
f 25/127/127 27/128/128 28/129/129
f 25/130/130 28/131/131 29/132/132
f 25/133/133 29/134/134 30/135/135
f 26/136/136 30/137/137 35/138/138
f 27/139/139 26/140/140 31/141/141
f 28/142/142 27/143/143 32/144/144
f 29/145/145 28/146/146 33/147/147
f 30/148/148 29/149/149 34/150/150
f 26/151/151 35/152/152 31/153/153
f 27/154/154 31/155/155 32/156/156
f 28/157/157 32/158/158 33/159/159
f 29/160/160 33/161/161 34/162/162
f 30/163/163 34/164/164 35/165/165
f 31/166/166 35/167/167 36/168/168
f 32/169/169 31/170/170 36/171/171
f 33/172/172 32/173/173 36/174/174
f 34/175/175 33/176/176 36/177/177
f 35/178/178 34/179/179 36/180/180
