# generated by tools/art/gen_meshes.py
v 367.023499 -491.122711 14.682052
v -363.562469 -491.122711 -19.056700
v -45.333794 -491.122711 14.682052
v -251.512436 -491.122711 14.682052
v 160.844849 -491.122711 14.682052
v -294.311737 -491.122711 69.272499
v -157.383820 -491.122711 -19.056700
v -432.813202 -491.122711 69.272499
v -475.612488 -491.122711 14.682052
v -363.562469 142.024002 29.770473
v -88.133102 -491.122711 69.272499
v 48.794823 -491.122711 -19.056700
v -226.634552 -491.122711 69.272499
v -269.433838 -491.122711 14.682052
v -157.383820 142.024002 29.770473
v 118.045547 -491.122711 69.272499
v 254.973465 -491.122711 -19.056700
v -20.455898 -491.122711 69.272499
v -63.255207 -491.122711 14.682052
v 48.794823 142.024002 29.770473
v 324.224213 -491.122711 69.272499
v 185.722748 -491.122711 69.272499
v 142.923447 -491.122711 14.682052
v 254.973465 142.024002 29.770473
vt 0.000000 0.381966
vt 1.000000 0.552786
vt 0.000000 1.000000
vt 0.132976 0.000000
vt 0.132976 1.000000
vt 0.265951 0.000000
vt 0.000000 0.381966
vt 1.000000 0.552786
vt 0.000000 1.000000
vt 0.000000 0.381966
vt 1.000000 0.552786
vt 0.000000 1.000000
vt 0.000000 0.381966
vt 1.000000 0.552786
vt 0.000000 1.000000
vt 0.215159 0.000000
vt 0.132976 1.000000
vt 0.050792 0.000000
vt 0.132976 0.000000
vt 0.265951 0.381966
vt 0.215159 1.000000
vt 0.050792 1.000000
vt 0.000000 0.381966
vt 0.000000 1.000000
vt 1.000000 0.552786
vt 0.000000 0.381966
vt 0.377659 0.000000
vt 0.377659 1.000000
vt 0.510634 0.000000
vt 0.459842 0.000000
vt 0.377659 1.000000
vt 0.295475 0.000000
vt 0.000000 0.000000
vt 0.132976 1.000000
vt 0.132976 0.000000
vt 0.510634 0.381966
vt 0.459842 1.000000
vt 0.295475 1.000000
vt 0.244683 0.381966
vt 0.377659 0.000000
vt 0.000000 1.000000
vt 1.000000 0.552786
vt 0.000000 0.381966
vt 0.622341 0.000000
vt 0.622341 1.000000
vt 0.755317 0.000000
vt 0.704525 0.000000
vt 0.622341 1.000000
vt 0.540158 0.000000
vt 0.244683 0.000000
vt 0.377659 1.000000
vt 0.377659 0.000000
vt 0.704525 1.000000
vt 0.540158 1.000000
vt 0.489366 0.381966
vt 0.622341 0.000000
vt 0.755317 0.381966
vt 0.000000 1.000000
vt 1.000000 0.552786
vt 0.000000 0.381966
vt 0.867024 0.000000
vt 0.867024 1.000000
vt 1.000000 0.000000
vt 0.949208 0.000000
vt 0.867024 1.000000
vt 0.784841 0.000000
vt 0.489366 0.000000
vt 0.622341 1.000000
vt 0.622341 0.000000
vt 0.949208 1.000000
vt 0.784841 1.000000
vt 0.734049 0.381966
vt 0.867024 0.000000
vt 1.000000 0.381966
vt 0.000000 1.000000
vt 1.000000 0.552786
vt 0.000000 0.381966
vt 0.734049 0.000000
vt 0.867024 1.000000
vt 0.867024 0.000000
vn 0.780935 0.123614 0.612258
vn 0.780935 0.123614 0.612258
vn 0.780935 0.123614 0.612258
vn 0.287535 0.073643 -0.954935
vn 0.287535 0.073643 -0.954935
vn 0.287535 0.073643 -0.954935
vn 0.780935 0.123614 0.612258
vn 0.780935 0.123614 0.612258
vn 0.780935 0.123614 0.612258
vn 0.780935 0.123614 0.612258
vn 0.780935 0.123614 0.612258
vn 0.780935 0.123614 0.612258
vn 0.780935 0.123614 0.612259
vn 0.780935 0.123614 0.612259
vn 0.780935 0.123614 0.612259
vn 0.000000 0.062269 0.998059
vn 0.000000 0.062269 0.998059
vn 0.000000 0.062269 0.998059
vn 0.000000 -1.000000 -0.000000
vn 0.000000 -1.000000 -0.000000
vn 0.000000 -1.000000 -0.000000
vn 0.000000 -1.000000 -0.000000
vn 0.000000 -1.000000 -0.000000
vn -0.780935 0.123614 0.612258
vn -0.780935 0.123614 0.612258
vn -0.780935 0.123614 0.612258
vn 0.287535 0.073643 -0.954935
vn 0.287535 0.073643 -0.954935
vn 0.287535 0.073643 -0.954935
vn 0.000000 0.062269 0.998059
vn 0.000000 0.062269 0.998059
vn 0.000000 0.062269 0.998059
vn -0.287535 0.073643 -0.954935
vn -0.287535 0.073643 -0.954935
vn -0.287535 0.073643 -0.954935
vn 0.000000 -1.000000 -0.000000
vn 0.000000 -1.000000 -0.000000
vn 0.000000 -1.000000 -0.000000
vn 0.000000 -1.000000 -0.000000
vn 0.000000 -1.000000 -0.000000
vn -0.780935 0.123614 0.612258
vn -0.780935 0.123614 0.612258
vn -0.780935 0.123614 0.612258
vn 0.287535 0.073643 -0.954935
vn 0.287535 0.073643 -0.954935
vn 0.287535 0.073643 -0.954935
vn 0.000000 0.062269 0.998059
vn 0.000000 0.062269 0.998059
vn 0.000000 0.062269 0.998059
vn -0.287535 0.073643 -0.954935
vn -0.287535 0.073643 -0.954935
vn -0.287535 0.073643 -0.954935
vn 0.000000 -1.000000 -0.000000
vn 0.000000 -1.000000 -0.000000
vn 0.000000 -1.000000 -0.000000
vn 0.000000 -1.000000 -0.000000
vn 0.000000 -1.000000 -0.000000
vn -0.780935 0.123614 0.612259
vn -0.780935 0.123614 0.612259
vn -0.780935 0.123614 0.612259
vn 0.287535 0.073643 -0.954935
vn 0.287535 0.073643 -0.954935
vn 0.287535 0.073643 -0.954935
vn 0.000000 0.062269 0.998059
vn 0.000000 0.062269 0.998059
vn 0.000000 0.062269 0.998059
vn -0.287535 0.073643 -0.954935
vn -0.287535 0.073643 -0.954935
vn -0.287535 0.073643 -0.954935
vn 0.000000 -1.000000 -0.000001
vn 0.000000 -1.000000 -0.000001
vn 0.000000 -1.000000 -0.000001
vn 0.000000 -1.000000 -0.000001
vn 0.000000 -1.000000 -0.000001
vn -0.780935 0.123614 0.612258
vn -0.780935 0.123614 0.612258
vn -0.780935 0.123614 0.612258
vn -0.287535 0.073643 -0.954935
vn -0.287535 0.073643 -0.954935
vn -0.287535 0.073643 -0.954935
f 5/1/1 20/2/2 16/3/3
f 2/4/4 10/5/5 4/6/6
f 4/7/7 10/8/8 6/9/9
f 1/10/10 24/11/11 21/12/12
f 3/13/13 15/14/14 11/15/15
f 6/16/16 10/17/17 8/18/18
f 2/19/19 4/20/20 6/21/21 8/22/22 9/23/23
f 8/24/24 10/25/25 9/26/26
f 7/27/27 15/28/28 3/29/29
f 11/30/30 15/31/31 13/32/32
f 9/33/33 10/34/34 2/35/35
f 3/36/36 11/37/37 13/38/38 14/39/39 7/40/40
f 13/41/41 15/42/42 14/43/43
f 12/44/44 20/45/45 5/46/46
f 16/47/47 20/48/48 18/49/49
f 14/50/50 15/51/51 7/52/52
f 16/53/53 18/54/54 19/55/55 12/56/56 5/57/57
f 18/58/58 20/59/59 19/60/60
f 17/61/61 24/62/62 1/63/63
f 21/64/64 24/65/65 22/66/66
f 19/67/67 20/68/68 12/69/69
f 21/70/70 22/71/71 23/72/72 17/73/73 1/74/74
f 22/75/75 24/76/76 23/77/77
f 23/78/78 24/79/79 17/80/80
