# generated by tools/art/gen_meshes.py
v -2.033227 7.539408 0.175700
v -2.033227 9.465300 0.175700
v -2.033227 7.539408 -0.251300
v -2.033227 9.465300 -0.251300
v 2.033327 7.539408 0.175700
v 2.033327 9.465300 0.175700
v 2.033327 7.539408 -0.251300
v 2.033327 9.465300 -0.251300
v -2.033227 -4.336926 0.175700
v -2.033227 -2.411034 0.175700
v -2.033227 -4.336926 -0.251300
v -2.033227 -2.411034 -0.251300
v 2.033327 -4.336926 0.175700
v 2.033327 -2.411034 0.175700
v 2.033327 -4.336926 -0.251300
v 2.033327 -2.411034 -0.251300
v -2.482900 -11.933500 0.175700
v -2.482900 9.465300 0.175700
v -2.482900 -11.933500 -0.251300
v -2.482900 9.465300 -0.251300
v -0.905795 -11.933500 0.175700
v -0.905795 9.465300 0.175700
v -0.905795 -11.933500 -0.251300
v -0.905795 9.465300 -0.251300
v -1.805141 -11.933500 0.175700
v -1.805141 9.465300 0.175700
v -1.805141 -11.933500 -0.251300
v -1.805141 9.465300 -0.251300
v -0.228036 -11.933500 0.175700
v -0.228036 9.465300 0.175700
v -0.228036 -11.933500 -0.251300
v -0.228036 9.465300 -0.251300
v -1.127382 -11.933500 0.175700
v -1.127382 9.465300 0.175700
v -1.127382 -11.933500 -0.251300
v -1.127382 9.465300 -0.251300
v 0.449723 -11.933500 0.175700
v 0.449723 9.465300 0.175700
v 0.449723 -11.933500 -0.251300
v 0.449723 9.465300 -0.251300
v -0.449623 -11.933500 0.175700
v -0.449623 9.465300 0.175700
v -0.449623 -11.933500 -0.251300
v -0.449623 9.465300 -0.251300
v 1.127482 -11.933500 0.175700
v 1.127482 9.465300 0.175700
v 1.127482 -11.933500 -0.251300
v 1.127482 9.465300 -0.251300
v 0.228136 -11.933500 0.175700
v 0.228136 9.465300 0.175700
v 0.228136 -11.933500 -0.251300
v 0.228136 9.465300 -0.251300
v 1.805241 -11.933500 0.175700
v 1.805241 9.465300 0.175700
v 1.805241 -11.933500 -0.251300
v 1.805241 9.465300 -0.251300
v 0.905895 -11.933500 0.175700
v 0.905895 9.465300 0.175700
v 0.905895 -11.933500 -0.251300
v 0.905895 9.465300 -0.251300
v 2.483000 -11.933500 0.175700
v 2.483000 9.465300 0.175700
v 2.483000 -11.933500 -0.251300
v 2.483000 9.465300 -0.251300
vt 0.910000 1.000000
vt 1.000000 1.000000
vt 1.000000 0.000000
vt 0.910000 0.000000
vt 0.090552 0.910000
vt 0.090552 1.000000
vt 0.909448 1.000000
vt 0.909448 0.910000
vt 0.910000 0.000000
vt 1.000000 0.000000
vt 1.000000 1.000000
vt 0.910000 1.000000
vt 0.909448 0.910000
vt 0.909448 1.000000
vt 0.090552 1.000000
vt 0.090552 0.910000
vt 0.090552 0.000000
vt 0.909448 0.000000
vt 0.909448 1.000000
vt 0.090552 1.000000
vt 0.909448 0.000000
vt 0.090552 0.000000
vt 0.090552 1.000000
vt 0.909448 1.000000
vt 0.355000 1.000000
vt 0.445000 1.000000
vt 0.445000 0.000000
vt 0.355000 0.000000
vt 0.090552 0.355000
vt 0.090552 0.445000
vt 0.909448 0.445000
vt 0.909448 0.355000
vt 0.355000 0.000000
vt 0.445000 0.000000
vt 0.445000 1.000000
vt 0.355000 1.000000
vt 0.909448 0.355000
vt 0.909448 0.445000
vt 0.090552 0.445000
vt 0.090552 0.355000
vt 0.090552 0.000000
vt 0.909448 0.000000
vt 0.909448 1.000000
vt 0.090552 1.000000
vt 0.909448 0.000000
vt 0.090552 0.000000
vt 0.090552 1.000000
vt 0.909448 1.000000
vt 0.000000 1.000000
vt 1.000000 1.000000
vt 1.000000 0.000000
vt 0.000000 0.000000
vt 0.000000 0.000000
vt 0.000000 1.000000
vt 0.317587 1.000000
vt 0.317587 0.000000
vt 0.000000 0.000000
vt 1.000000 0.000000
vt 1.000000 1.000000
vt 0.000000 1.000000
vt 0.317587 0.000000
vt 0.317587 1.000000
vt 0.000000 1.000000
vt 0.000000 0.000000
vt 0.000000 0.000000
vt 0.317587 0.000000
vt 0.317587 1.000000
vt 0.000000 1.000000
vt 0.317587 0.000000
vt 0.000000 0.000000
vt 0.000000 1.000000
vt 0.317587 1.000000
vt 0.000000 1.000000
vt 1.000000 1.000000
vt 1.000000 0.000000
vt 0.000000 0.000000
vt 0.136483 0.000000
vt 0.136483 1.000000
vt 0.454069 1.000000
vt 0.454069 0.000000
vt 0.000000 0.000000
vt 1.000000 0.000000
vt 1.000000 1.000000
vt 0.000000 1.000000
vt 0.454069 0.000000
vt 0.454069 1.000000
vt 0.136483 1.000000
vt 0.136483 0.000000
vt 0.136483 0.000000
vt 0.454069 0.000000
vt 0.454069 1.000000
vt 0.136483 1.000000
vt 0.454069 0.000000
vt 0.136483 0.000000
vt 0.136483 1.000000
vt 0.454069 1.000000
vt 0.000000 1.000000
vt 1.000000 1.000000
vt 1.000000 0.000000
vt 0.000000 0.000000
vt 0.272965 0.000000
vt 0.272965 1.000000
vt 0.590552 1.000000
vt 0.590552 0.000000
vt 0.000000 0.000000
vt 1.000000 0.000000
vt 1.000000 1.000000
vt 0.000000 1.000000
vt 0.590552 0.000000
vt 0.590552 1.000000
vt 0.272965 1.000000
vt 0.272965 0.000000
vt 0.272965 0.000000
vt 0.590552 0.000000
vt 0.590552 1.000000
vt 0.272965 1.000000
vt 0.590552 0.000000
vt 0.272965 0.000000
vt 0.272965 1.000000
vt 0.590552 1.000000
vt 0.000000 1.000000
vt 1.000000 1.000000
vt 1.000000 0.000000
vt 0.000000 0.000000
vt 0.409448 0.000000
vt 0.409448 1.000000
vt 0.727035 1.000000
vt 0.727035 0.000000
vt 0.000000 0.000000
vt 1.000000 0.000000
vt 1.000000 1.000000
vt 0.000000 1.000000
vt 0.727035 0.000000
vt 0.727035 1.000000
vt 0.409448 1.000000
vt 0.409448 0.000000
vt 0.409448 0.000000
vt 0.727035 0.000000
vt 0.727035 1.000000
vt 0.409448 1.000000
vt 0.727035 0.000000
vt 0.409448 0.000000
vt 0.409448 1.000000
vt 0.727035 1.000000
vt 0.000000 1.000000
vt 1.000000 1.000000
vt 1.000000 0.000000
vt 0.000000 0.000000
vt 0.545930 0.000000
vt 0.545930 1.000000
vt 0.863517 1.000000
vt 0.863517 0.000000
vt 0.000000 0.000000
vt 1.000000 0.000000
vt 1.000000 1.000000
vt 0.000000 1.000000
vt 0.863517 0.000000
vt 0.863517 1.000000
vt 0.545930 1.000000
vt 0.545930 0.000000
vt 0.545930 0.000000
vt 0.863517 0.000000
vt 0.863517 1.000000
vt 0.545930 1.000000
vt 0.863517 0.000000
vt 0.545930 0.000000
vt 0.545930 1.000000
vt 0.863517 1.000000
vt 0.000000 1.000000
vt 1.000000 1.000000
vt 1.000000 0.000000
vt 0.000000 0.000000
vt 0.682413 0.000000
vt 0.682413 1.000000
vt 1.000000 1.000000
vt 1.000000 0.000000
vt 0.000000 0.000000
vt 1.000000 0.000000
vt 1.000000 1.000000
vt 0.000000 1.000000
vt 1.000000 0.000000
vt 1.000000 1.000000
vt 0.682413 1.000000
vt 0.682413 0.000000
vt 0.682413 0.000000
vt 1.000000 0.000000
vt 1.000000 1.000000
vt 0.682413 1.000000
vt 1.000000 0.000000
vt 0.682413 0.000000
vt 0.682413 1.000000
vt 1.000000 1.000000
vn -1.000000 0.000000 0.000000
vn -1.000000 0.000000 0.000000
vn -1.000000 0.000000 0.000000
vn -1.000000 0.000000 0.000000
vn 0.000000 -0.000000 -1.000000
vn 0.000000 -0.000000 -1.000000
vn 0.000000 -0.000000 -1.000000
vn 0.000000 -0.000000 -1.000000
vn 1.000000 0.000000 0.000000
vn 1.000000 0.000000 0.000000
vn 1.000000 0.000000 0.000000
vn 1.000000 0.000000 0.000000
vn 0.000000 0.000000 1.000000
vn 0.000000 0.000000 1.000000
vn 0.000000 0.000000 1.000000
vn 0.000000 0.000000 1.000000
vn 0.000000 -1.000000 -0.000000
vn 0.000000 -1.000000 -0.000000
vn 0.000000 -1.000000 -0.000000
vn 0.000000 -1.000000 -0.000000
vn 0.000000 1.000000 0.000000
vn 0.000000 1.000000 0.000000
vn 0.000000 1.000000 0.000000
vn 0.000000 1.000000 0.000000
vn -1.000000 0.000000 0.000000
vn -1.000000 0.000000 0.000000
vn -1.000000 0.000000 0.000000
vn -1.000000 0.000000 0.000000
vn 0.000000 -0.000000 -1.000000
vn 0.000000 -0.000000 -1.000000
vn 0.000000 -0.000000 -1.000000
vn 0.000000 -0.000000 -1.000000
vn 1.000000 0.000000 0.000000
vn 1.000000 0.000000 0.000000
vn 1.000000 0.000000 0.000000
vn 1.000000 0.000000 0.000000
vn 0.000000 0.000000 1.000000
vn 0.000000 0.000000 1.000000
vn 0.000000 0.000000 1.000000
vn 0.000000 0.000000 1.000000
vn 0.000000 -1.000000 -0.000000
vn 0.000000 -1.000000 -0.000000
vn 0.000000 -1.000000 -0.000000
vn 0.000000 -1.000000 -0.000000
vn 0.000000 1.000000 0.000000
vn 0.000000 1.000000 0.000000
vn 0.000000 1.000000 0.000000
vn 0.000000 1.000000 0.000000
vn -1.000000 0.000000 0.000000
vn -1.000000 0.000000 0.000000
vn -1.000000 0.000000 0.000000
vn -1.000000 0.000000 0.000000
vn 0.000000 -0.000000 -1.000000
vn 0.000000 -0.000000 -1.000000
vn 0.000000 -0.000000 -1.000000
vn 0.000000 -0.000000 -1.000000
vn 1.000000 0.000000 0.000000
vn 1.000000 0.000000 0.000000
vn 1.000000 0.000000 0.000000
vn 1.000000 0.000000 0.000000
vn 0.000000 0.000000 1.000000
vn 0.000000 0.000000 1.000000
vn 0.000000 0.000000 1.000000
vn 0.000000 0.000000 1.000000
vn 0.000000 -1.000000 -0.000000
vn 0.000000 -1.000000 -0.000000
vn 0.000000 -1.000000 -0.000000
vn 0.000000 -1.000000 -0.000000
vn 0.000000 1.000000 0.000000
vn 0.000000 1.000000 0.000000
vn 0.000000 1.000000 0.000000
vn 0.000000 1.000000 0.000000
vn -1.000000 0.000000 0.000000
vn -1.000000 0.000000 0.000000
vn -1.000000 0.000000 0.000000
vn -1.000000 0.000000 0.000000
vn 0.000000 -0.000000 -1.000000
vn 0.000000 -0.000000 -1.000000
vn 0.000000 -0.000000 -1.000000
vn 0.000000 -0.000000 -1.000000
vn 1.000000 0.000000 0.000000
vn 1.000000 0.000000 0.000000
vn 1.000000 0.000000 0.000000
vn 1.000000 0.000000 0.000000
vn 0.000000 0.000000 1.000000
vn 0.000000 0.000000 1.000000
vn 0.000000 0.000000 1.000000
vn 0.000000 0.000000 1.000000
vn 0.000000 -1.000000 -0.000000
vn 0.000000 -1.000000 -0.000000
vn 0.000000 -1.000000 -0.000000
vn 0.000000 -1.000000 -0.000000
vn 0.000000 1.000000 0.000000
vn 0.000000 1.000000 0.000000
vn 0.000000 1.000000 0.000000
vn 0.000000 1.000000 0.000000
vn -1.000000 0.000000 0.000000
vn -1.000000 0.000000 0.000000
vn -1.000000 0.000000 0.000000
vn -1.000000 0.000000 0.000000
vn 0.000000 -0.000000 -1.000000
vn 0.000000 -0.000000 -1.000000
vn 0.000000 -0.000000 -1.000000
vn 0.000000 -0.000000 -1.000000
vn 1.000000 0.000000 0.000000
vn 1.000000 0.000000 0.000000
vn 1.000000 0.000000 0.000000
vn 1.000000 0.000000 0.000000
vn 0.000000 0.000000 1.000000
vn 0.000000 0.000000 1.000000
vn 0.000000 0.000000 1.000000
vn 0.000000 0.000000 1.000000
vn 0.000000 -1.000000 -0.000000
vn 0.000000 -1.000000 -0.000000
vn 0.000000 -1.000000 -0.000000
vn 0.000000 -1.000000 -0.000000
vn 0.000000 1.000000 0.000000
vn 0.000000 1.000000 0.000000
vn 0.000000 1.000000 0.000000
vn 0.000000 1.000000 0.000000
vn -1.000000 0.000000 0.000000
vn -1.000000 0.000000 0.000000
vn -1.000000 0.000000 0.000000
vn -1.000000 0.000000 0.000000
vn 0.000000 -0.000000 -1.000000
vn 0.000000 -0.000000 -1.000000
vn 0.000000 -0.000000 -1.000000
vn 0.000000 -0.000000 -1.000000
vn 1.000000 0.000000 0.000000
vn 1.000000 0.000000 0.000000
vn 1.000000 0.000000 0.000000
vn 1.000000 0.000000 0.000000
vn 0.000000 0.000000 1.000000
vn 0.000000 0.000000 1.000000
vn 0.000000 0.000000 1.000000
vn 0.000000 0.000000 1.000000
vn 0.000000 -1.000000 -0.000000
vn 0.000000 -1.000000 -0.000000
vn 0.000000 -1.000000 -0.000000
vn 0.000000 -1.000000 -0.000000
vn 0.000000 1.000000 0.000000
vn 0.000000 1.000000 0.000000
vn 0.000000 1.000000 0.000000
vn 0.000000 1.000000 0.000000
vn -1.000000 0.000000 0.000000
vn -1.000000 0.000000 0.000000
vn -1.000000 0.000000 0.000000
vn -1.000000 0.000000 0.000000
vn 0.000000 -0.000000 -1.000000
vn 0.000000 -0.000000 -1.000000
vn 0.000000 -0.000000 -1.000000
vn 0.000000 -0.000000 -1.000000
vn 1.000000 0.000000 0.000000
vn 1.000000 0.000000 0.000000
vn 1.000000 0.000000 0.000000
vn 1.000000 0.000000 0.000000
vn 0.000000 0.000000 1.000000
vn 0.000000 0.000000 1.000000
vn 0.000000 0.000000 1.000000
vn 0.000000 0.000000 1.000000
vn 0.000000 -1.000000 -0.000000
vn 0.000000 -1.000000 -0.000000
vn 0.000000 -1.000000 -0.000000
vn 0.000000 -1.000000 -0.000000
vn 0.000000 1.000000 0.000000
vn 0.000000 1.000000 0.000000
vn 0.000000 1.000000 0.000000
vn 0.000000 1.000000 0.000000
vn -1.000000 0.000000 0.000000
vn -1.000000 0.000000 0.000000
vn -1.000000 0.000000 0.000000
vn -1.000000 0.000000 0.000000
vn 0.000000 -0.000000 -1.000000
vn 0.000000 -0.000000 -1.000000
vn 0.000000 -0.000000 -1.000000
vn 0.000000 -0.000000 -1.000000
vn 1.000000 0.000000 0.000000
vn 1.000000 0.000000 0.000000
vn 1.000000 0.000000 0.000000
vn 1.000000 0.000000 0.000000
vn 0.000000 0.000000 1.000000
vn 0.000000 0.000000 1.000000
vn 0.000000 0.000000 1.000000
vn 0.000000 0.000000 1.000000
vn 0.000000 -1.000000 -0.000000
vn 0.000000 -1.000000 -0.000000
vn 0.000000 -1.000000 -0.000000
vn 0.000000 -1.000000 -0.000000
vn 0.000000 1.000000 0.000000
vn 0.000000 1.000000 0.000000
vn 0.000000 1.000000 0.000000
vn 0.000000 1.000000 0.000000
f 1/1/1 2/2/2 4/3/3 3/4/4
f 3/5/5 4/6/6 8/7/7 7/8/8
f 7/9/9 8/10/10 6/11/11 5/12/12
f 5/13/13 6/14/14 2/15/15 1/16/16
f 3/17/17 7/18/18 5/19/19 1/20/20
f 8/21/21 4/22/22 2/23/23 6/24/24
f 9/25/25 10/26/26 12/27/27 11/28/28
f 11/29/29 12/30/30 16/31/31 15/32/32
f 15/33/33 16/34/34 14/35/35 13/36/36
f 13/37/37 14/38/38 10/39/39 9/40/40
f 11/41/41 15/42/42 13/43/43 9/44/44
f 16/45/45 12/46/46 10/47/47 14/48/48
f 17/49/49 18/50/50 20/51/51 19/52/52
f 19/53/53 20/54/54 24/55/55 23/56/56
f 23/57/57 24/58/58 22/59/59 21/60/60
f 21/61/61 22/62/62 18/63/63 17/64/64
f 19/65/65 23/66/66 21/67/67 17/68/68
f 24/69/69 20/70/70 18/71/71 22/72/72
f 25/73/73 26/74/74 28/75/75 27/76/76
f 27/77/77 28/78/78 32/79/79 31/80/80
f 31/81/81 32/82/82 30/83/83 29/84/84
f 29/85/85 30/86/86 26/87/87 25/88/88
f 27/89/89 31/90/90 29/91/91 25/92/92
f 32/93/93 28/94/94 26/95/95 30/96/96
f 33/97/97 34/98/98 36/99/99 35/100/100
f 35/101/101 36/102/102 40/103/103 39/104/104
f 39/105/105 40/106/106 38/107/107 37/108/108
f 37/109/109 38/110/110 34/111/111 33/112/112
f 35/113/113 39/114/114 37/115/115 33/116/116
f 40/117/117 36/118/118 34/119/119 38/120/120
f 41/121/121 42/122/122 44/123/123 43/124/124
f 43/125/125 44/126/126 48/127/127 47/128/128
f 47/129/129 48/130/130 46/131/131 45/132/132
f 45/133/133 46/134/134 42/135/135 41/136/136
f 43/137/137 47/138/138 45/139/139 41/140/140
f 48/141/141 44/142/142 42/143/143 46/144/144
f 49/145/145 50/146/146 52/147/147 51/148/148
f 51/149/149 52/150/150 56/151/151 55/152/152
f 55/153/153 56/154/154 54/155/155 53/156/156
f 53/157/157 54/158/158 50/159/159 49/160/160
f 51/161/161 55/162/162 53/163/163 49/164/164
f 56/165/165 52/166/166 50/167/167 54/168/168
f 57/169/169 58/170/170 60/171/171 59/172/172
f 59/173/173 60/174/174 64/175/175 63/176/176
f 63/177/177 64/178/178 62/179/179 61/180/180
f 61/181/181 62/182/182 58/183/183 57/184/184
f 59/185/185 63/186/186 61/187/187 57/188/188
f 64/189/189 60/190/190 58/191/191 62/192/192
