# generated by tools/art/gen_meshes.py
v 0.000021 1000.000000 500.000092
v 0.000021 949.855774 388.739624
v 0.000021 563.662842 188.255157
v 0.000021 -132.232727 49.515678
v 0.000021 -554.958435 12.536150
v 0.000021 -1000.000427 0.000100
v 0.000021 -1000.000427 12.536150
v 0.000021 -1000.000366 49.515678
v 0.000021 -1000.000366 188.255188
v 0.000021 -1000.000305 388.739655
v 0.000021 -1000.000305 500.000122
v 57.592701 949.855774 392.530731
v 112.297440 801.937683 290.450348
v 161.371124 563.662842 198.877594
v 202.352966 246.979477 122.404533
v 233.188004 -132.232727 64.865570
v 252.330032 -554.958435 29.146088
v 258.819153 -1000.000427 17.037195
v 252.330032 -1000.000366 29.146088
v 233.188004 -1000.000366 64.865570
v 202.352966 -1000.000366 122.404533
v 161.371124 -1000.000366 198.877625
v 112.297440 -1000.000366 290.450348
v 57.592701 -1000.000305 392.530762
v 111.260536 949.855774 403.645691
v 216.941956 801.937683 312.122925
v 311.745056 563.662842 230.021057
v 390.915863 246.979599 161.457169
v 450.484619 -132.232727 109.869171
v 487.464142 -554.958435 77.843948
v 500.000214 -1000.000366 66.987411
v 487.464142 -1000.000366 77.843948
v 450.484619 -1000.000366 109.869171
v 390.915863 -1000.000366 161.457169
v 311.745056 -1000.000366 230.021088
v 216.941956 -1000.000366 312.122925
v 111.260536 -1000.000305 403.645721
v 157.346146 949.855774 421.327057
v 306.802246 801.937683 346.599030
v 440.874115 563.662842 279.563141
v 552.838501 246.979599 223.580978
v 637.081421 -132.232727 181.459534
v 689.378418 -554.958435 155.311066
v 707.107056 -1000.000366 146.446747
v 689.378418 -1000.000366 155.311066
v 637.081421 -1000.000366 181.459534
v 552.838501 -1000.000366 223.580978
v 440.874115 -1000.000366 279.563171
v 306.802246 -1000.000366 346.599030
v 157.346146 -1000.000305 421.327087
v 192.708878 949.855774 444.369873
v 375.754486 801.937683 391.529144
v 539.958252 563.662842 344.127655
v 677.086060 246.979599 304.542267
v 780.262146 -132.232727 274.757904
v 844.312622 -554.958374 256.268158
v 866.025635 -1000.000366 250.000153
v 844.312622 -1000.000366 256.268158
v 780.262146 -1000.000366 274.757904
v 677.086060 -1000.000366 304.542267
v 539.958252 -1000.000366 344.127655
v 375.754486 -1000.000305 391.529175
v 192.708878 -1000.000305 444.369873
v 214.938828 949.855774 471.203766
v 419.099670 801.937683 443.851410
v 602.245178 563.662842 419.314606
v 755.191406 246.979599 398.823700
v 870.269409 -132.232666 383.406189
v 941.708313 -554.958374 373.835205
v 965.926086 -1000.000305 370.590637
v 941.708313 -1000.000305 373.835205
v 870.269409 -1000.000305 383.406189
v 755.191406 -1000.000305 398.823700
v 602.245178 -1000.000305 419.314606
v 419.099670 -1000.000305 443.851410
v 214.938828 -1000.000305 471.203796
v 222.521042 949.855774 500.000092
v 433.883942 801.937683 500.000092
v 623.490051 563.662842 500.000122
v 781.831604 246.979599 500.000122
v 900.969116 -132.232666 500.000122
v 974.928223 -554.958374 500.000153
v 1000.000183 -1000.000305 500.000153
v 974.928223 -1000.000305 500.000153
v 900.969116 -1000.000305 500.000153
v 781.831604 -1000.000305 500.000122
v 623.490051 -1000.000305 500.000122
v 433.883942 -1000.000305 500.000122
v 222.521042 -1000.000305 500.000122
v 214.938828 949.855774 528.796448
v 419.099670 801.937683 556.148804
v 602.245178 563.662842 580.685669
v 755.191345 246.979599 601.176514
v 870.269348 -132.232666 616.594055
v 941.708313 -554.958313 626.165100
v 965.926025 -1000.000305 629.409668
v 941.708313 -1000.000305 626.165100
v 870.269348 -1000.000305 616.594116
v 755.191345 -1000.000305 601.176575
v 602.245178 -1000.000305 580.685669
v 419.099670 -1000.000305 556.148804
v 214.938828 -1000.000305 528.796448
v 192.708878 949.855774 555.630371
v 375.754517 801.937683 608.471008
v 539.958191 563.662842 655.872559
v 677.085999 246.979599 695.457947
v 780.262085 -132.232605 725.242310
v 844.312561 -554.958313 743.732117
v 866.025513 -1000.000244 750.000122
v 844.312561 -1000.000244 743.732117
v 780.262085 -1000.000244 725.242371
v 677.085999 -1000.000305 695.457947
v 539.958191 -1000.000305 655.872620
v 375.754517 -1000.000305 608.471069
v 192.708878 -1000.000305 555.630371
v 157.346146 949.855774 578.673157
v 306.802277 801.937683 653.401184
v 440.874023 563.662842 720.437073
v 552.838440 246.979599 776.419250
v 637.081360 -132.232605 818.540710
v 689.378296 -554.958313 844.689209
v 707.106873 -1000.000244 853.553467
v 689.378296 -1000.000244 844.689209
v 637.081360 -1000.000244 818.540710
v 552.838440 -1000.000244 776.419250
v 440.874023 -1000.000244 720.437073
v 306.802277 -1000.000305 653.401184
v 157.346146 -1000.000305 578.673157
v 111.260536 949.855774 596.354492
v 216.941986 801.937683 687.877258
v 311.744965 563.662842 769.979126
v 390.915802 246.979599 838.543030
v 450.484528 -132.232605 890.131104
v 487.464020 -554.958313 922.156250
v 500.000031 -1000.000244 933.012756
v 487.464020 -1000.000244 922.156250
v 450.484528 -1000.000244 890.131104
v 390.915802 -1000.000244 838.543030
v 311.744965 -1000.000244 769.979187
v 216.941986 -1000.000305 687.877258
v 111.260536 -1000.000305 596.354553
v 57.592701 949.855774 607.469482
v 112.297462 801.937683 709.549866
v 161.371048 563.662842 801.122559
v 202.352921 246.979721 877.595642
v 233.187912 -132.232605 935.134705
v 252.329941 -554.958252 970.854126
v 258.819031 -1000.000244 982.962952
v 252.329941 -1000.000244 970.854126
v 233.187912 -1000.000244 935.134705
v 202.352921 -1000.000244 877.595642
v 161.371048 -1000.000244 801.122620
v 112.297462 -1000.000305 709.549866
v 57.592701 -1000.000305 607.469482
v 0.000021 949.855774 611.260559
v 0.000066 801.937683 716.941956
v -0.000053 563.662842 811.744995
v 0.000036 246.979721 890.915771
v -0.000068 -132.232605 950.484558
v -0.000038 -554.958252 987.464050
v -0.000038 -1000.000244 1000.000000
v -0.000038 -1000.000244 987.464050
v -0.000068 -1000.000244 950.484558
v 0.000036 -1000.000244 890.915771
v -0.000053 -1000.000244 811.745056
v 0.000066 -1000.000244 716.941956
v 0.000021 -1000.000305 611.260620
v -57.592659 949.855774 607.469482
v -112.297340 801.937683 709.549866
v -161.371155 563.662842 801.122559
v -202.352844 246.979721 877.595642
v -233.188034 -132.232605 935.134644
v -252.330017 -554.958252 970.854126
v -258.819092 -1000.000244 982.962891
v -252.330017 -1000.000244 970.854126
v -233.188034 -1000.000244 935.134644
v -202.352844 -1000.000244 877.595642
v -161.371155 -1000.000244 801.122620
v -112.297340 -1000.000305 709.549866
v -57.592659 -1000.000305 607.469482
v -111.260490 949.855774 596.354492
v -216.941864 801.937683 687.877258
v -311.745087 563.662842 769.979126
v -390.915680 246.979599 838.542969
v -450.484619 -132.232605 890.131042
v -487.464111 -554.958313 922.156250
v -500.000031 -1000.000244 933.012695
v -487.464111 -1000.000244 922.156250
v -450.484619 -1000.000244 890.131042
v -390.915680 -1000.000244 838.542969
v -311.745087 -1000.000244 769.979126
v -216.941864 -1000.000305 687.877258
v -111.260490 -1000.000305 596.354553
v -157.346100 949.855774 578.673157
v -306.802155 801.937683 653.401184
v -440.874054 563.662842 720.437012
v -552.838318 246.979599 776.419189
v -637.081421 -132.232605 818.540649
v -689.378296 -554.958313 844.689148
v -707.106812 -1000.000244 853.553406
v -689.378296 -1000.000244 844.689148
v -637.081421 -1000.000244 818.540649
v -552.838318 -1000.000244 776.419189
v -440.874054 -1000.000244 720.437012
v -306.802155 -1000.000305 653.401184
v -157.346100 -1000.000305 578.673157
v -192.708832 949.855774 555.630371
v -375.754395 801.937683 608.471008
v -539.958191 563.662842 655.872498
v -677.085938 246.979599 695.457886
v -780.262146 -132.232605 725.242249
v -844.312500 -554.958313 743.731995
v -866.025391 -1000.000244 750.000000
v -844.312500 -1000.000244 743.731995
v -780.262146 -1000.000244 725.242249
v -677.085938 -1000.000305 695.457947
v -539.958191 -1000.000305 655.872559
v -375.754395 -1000.000305 608.471069
v -192.708832 -1000.000305 555.630371
v -214.938782 949.855774 528.796448
v -419.099548 801.937683 556.148804
v -602.245056 563.662842 580.685608
v -755.191162 246.979599 601.176514
v -870.269287 -132.232666 616.593994
v -941.708191 -554.958313 626.165039
v -965.925720 -1000.000305 629.409546
v -941.708191 -1000.000305 626.165039
v -870.269287 -1000.000305 616.593994
v -755.191162 -1000.000305 601.176514
v -602.245056 -1000.000305 580.685608
v -419.099548 -1000.000305 556.148804
v -214.938782 -1000.000305 528.796448
v -222.521011 949.855774 500.000092
v -433.883759 801.937683 500.000122
v -623.489929 563.662842 500.000061
v -781.831421 246.979599 500.000092
v -900.969055 -132.232666 500.000061
v -974.927979 -554.958374 500.000061
v -999.999817 -1000.000305 500.000061
v -974.927979 -1000.000305 500.000092
v -900.969055 -1000.000305 500.000061
v -781.831421 -1000.000305 500.000122
v -623.489929 -1000.000305 500.000092
v -433.883759 -1000.000305 500.000122
v -222.521011 -1000.000305 500.000122
v -214.938782 949.855774 471.203766
v -419.099518 801.937683 443.851440
v -602.245056 563.662842 419.314545
v -755.191162 246.979599 398.823700
v -870.269165 -132.232666 383.406097
v -941.708130 -554.958374 373.835144
v -965.925537 -1000.000305 370.590607
v -941.708130 -1000.000305 373.835144
v -870.269165 -1000.000305 383.406128
v -755.191162 -1000.000305 398.823730
v -602.245056 -1000.000305 419.314575
v -419.099518 -1000.000305 443.851440
v -214.938782 -1000.000305 471.203796
v -192.708832 949.855774 444.369873
v -375.754364 801.937683 391.529205
v -539.958130 563.662842 344.127625
v -677.085876 246.979599 304.542328
v -780.261902 -132.232727 274.757874
v -844.312378 -554.958374 256.268158
v -866.025146 -1000.000366 250.000198
v -844.312378 -1000.000366 256.268158
v -780.261902 -1000.000366 274.757874
v -677.085876 -1000.000366 304.542328
v -539.958130 -1000.000366 344.127655
v -375.754364 -1000.000305 391.529205
v -192.708832 -1000.000305 444.369873
v -157.346100 949.855774 421.327057
v -306.802124 801.937683 346.599091
v -440.873901 563.662842 279.563141
v -552.838257 246.979599 223.581070
v -637.081116 -132.232727 181.459534
v -689.378113 -554.958435 155.311096
v -707.106506 -1000.000366 146.446869
v -689.378113 -1000.000366 155.311096
v -637.081116 -1000.000366 181.459534
v -552.838257 -1000.000366 223.581070
v -440.873901 -1000.000366 279.563171
v -306.802124 -1000.000366 346.599091
v -157.346100 -1000.000305 421.327087
v -111.260490 949.855774 403.645691
v -216.941864 801.937683 312.122986
v -311.744873 563.662842 230.021088
v -390.915680 246.979599 161.457321
v -450.484283 -132.232727 109.869202
v -487.463867 -554.958435 77.844040
v -499.999786 -1000.000366 66.987617
v -487.463867 -1000.000366 77.844040
v -450.484283 -1000.000366 109.869202
v -390.915680 -1000.000366 161.457321
v -311.744873 -1000.000366 230.021118
v -216.941864 -1000.000366 312.123016
v -111.260490 -1000.000305 403.645721
v -57.592659 949.855774 392.530731
v -112.297371 801.937683 290.450409
v -161.370956 563.662842 198.877655
v -202.352859 246.979477 122.404709
v -233.187714 -132.232727 64.865631
v -252.329773 -554.958435 29.146206
v -258.818878 -1000.000427 17.037434
v -252.329773 -1000.000366 29.146206
v -233.187714 -1000.000366 64.865631
v -202.352859 -1000.000366 122.404709
v -161.370956 -1000.000366 198.877686
v -112.297371 -1000.000366 290.450439
v -57.592659 -1000.000305 392.530762
v 0.000006 801.937683 283.058319
v -0.000024 246.979477 109.084595
v -0.000024 -1000.000366 109.084595
v 0.000006 -1000.000366 283.058319
vt 0.500000 0.012536
vt 0.500000 0.000000
vt 0.629409 0.017037
vt 0.626165 0.029146
vt 0.500000 0.388740
vt 0.500000 0.500000
vt 0.528796 0.392531
vt 0.500000 0.049516
vt 0.500000 0.012536
vt 0.626165 0.029146
vt 0.616594 0.064865
vt 0.500000 0.900969
vt 0.500000 0.974928
vt 0.528796 0.974928
vt 0.556149 0.900969
vt 0.500000 0.109085
vt 0.500000 0.049516
vt 0.616594 0.064865
vt 0.601176 0.122404
vt 0.500000 0.781831
vt 0.500000 0.900969
vt 0.556149 0.900969
vt 0.580685 0.781831
vt 0.500000 0.188255
vt 0.500000 0.109085
vt 0.601176 0.122404
vt 0.580685 0.198878
vt 0.500000 0.623490
vt 0.500000 0.781831
vt 0.580685 0.781831
vt 0.601176 0.623490
vt 0.500000 0.283058
vt 0.500000 0.188255
vt 0.580685 0.198878
vt 0.556149 0.290450
vt 0.500000 0.433884
vt 0.500000 0.623490
vt 0.601176 0.623490
vt 0.616594 0.433884
vt 0.500000 0.388740
vt 0.500000 0.283058
vt 0.556149 0.290450
vt 0.528796 0.392531
vt 0.500000 0.222521
vt 0.500000 0.433884
vt 0.616594 0.433884
vt 0.626165 0.222521
vt 0.500000 0.500000
vt 0.500000 0.388740
vt 0.528796 0.392531
vt 0.500000 0.000000
vt 0.500000 0.222521
vt 0.626165 0.222521
vt 0.629409 0.000000
vt 0.616594 0.064865
vt 0.626165 0.029146
vt 0.743732 0.077844
vt 0.725242 0.109869
vt 0.556149 0.900969
vt 0.528796 0.974928
vt 0.555630 0.974928
vt 0.608471 0.900969
vt 0.601176 0.122404
vt 0.616594 0.064865
vt 0.725242 0.109869
vt 0.695458 0.161457
vt 0.580685 0.781831
vt 0.556149 0.900969
vt 0.608471 0.900969
vt 0.655872 0.781831
vt 0.580685 0.198878
vt 0.601176 0.122404
vt 0.695458 0.161457
vt 0.655872 0.230021
vt 0.601176 0.623490
vt 0.580685 0.781831
vt 0.655872 0.781831
vt 0.695458 0.623490
vt 0.556149 0.290450
vt 0.580685 0.198878
vt 0.655872 0.230021
vt 0.608471 0.312123
vt 0.616594 0.433884
vt 0.601176 0.623490
vt 0.695458 0.623490
vt 0.725242 0.433884
vt 0.528796 0.392531
vt 0.556149 0.290450
vt 0.608471 0.312123
vt 0.555630 0.403646
vt 0.626165 0.222521
vt 0.616594 0.433884
vt 0.725242 0.433884
vt 0.743732 0.222521
vt 0.500000 0.500000
vt 0.528796 0.392531
vt 0.555630 0.403646
vt 0.629409 0.000000
vt 0.626165 0.222521
vt 0.743732 0.222521
vt 0.750000 0.000000
vt 0.626165 0.029146
vt 0.629409 0.017037
vt 0.750000 0.066987
vt 0.743732 0.077844
vt 0.528796 0.392531
vt 0.500000 0.500000
vt 0.555630 0.403646
vt 0.608471 0.900969
vt 0.555630 0.974928
vt 0.578673 0.974928
vt 0.653401 0.900969
vt 0.695458 0.161457
vt 0.725242 0.109869
vt 0.818541 0.181459
vt 0.776419 0.223581
vt 0.655872 0.781831
vt 0.608471 0.900969
vt 0.653401 0.900969
vt 0.720437 0.781831
vt 0.655872 0.230021
vt 0.695458 0.161457
vt 0.776419 0.223581
vt 0.720437 0.279563
vt 0.695458 0.623490
vt 0.655872 0.781831
vt 0.720437 0.781831
vt 0.776419 0.623490
vt 0.608471 0.312123
vt 0.655872 0.230021
vt 0.720437 0.279563
vt 0.653401 0.346599
vt 0.725242 0.433884
vt 0.695458 0.623490
vt 0.776419 0.623490
vt 0.818541 0.433884
vt 0.555630 0.403646
vt 0.608471 0.312123
vt 0.653401 0.346599
vt 0.578673 0.421327
vt 0.743732 0.222521
vt 0.725242 0.433884
vt 0.818541 0.433884
vt 0.844689 0.222521
vt 0.500000 0.500000
vt 0.555630 0.403646
vt 0.578673 0.421327
vt 0.750000 0.000000
vt 0.743732 0.222521
vt 0.844689 0.222521
vt 0.853553 0.000000
vt 0.743732 0.077844
vt 0.750000 0.066987
vt 0.853553 0.146447
vt 0.844689 0.155311
vt 0.555630 0.403646
vt 0.500000 0.500000
vt 0.578673 0.421327
vt 0.725242 0.109869
vt 0.743732 0.077844
vt 0.844689 0.155311
vt 0.818541 0.181459
vt 0.776419 0.223581
vt 0.818541 0.181459
vt 0.890131 0.274758
vt 0.838543 0.304542
vt 0.720437 0.781831
vt 0.653401 0.900969
vt 0.687877 0.900969
vt 0.769979 0.781831
vt 0.720437 0.279563
vt 0.776419 0.223581
vt 0.838543 0.304542
vt 0.769979 0.344128
vt 0.776419 0.623490
vt 0.720437 0.781831
vt 0.769979 0.781831
vt 0.838543 0.623490
vt 0.653401 0.346599
vt 0.720437 0.279563
vt 0.769979 0.344128
vt 0.687877 0.391529
vt 0.818541 0.433884
vt 0.776419 0.623490
vt 0.838543 0.623490
vt 0.890131 0.433884
vt 0.578673 0.421327
vt 0.653401 0.346599
vt 0.687877 0.391529
vt 0.596354 0.444370
vt 0.844689 0.222521
vt 0.818541 0.433884
vt 0.890131 0.433884
vt 0.922156 0.222521
vt 0.500000 0.500000
vt 0.578673 0.421327
vt 0.596354 0.444370
vt 0.853553 0.000000
vt 0.844689 0.222521
vt 0.922156 0.222521
vt 0.933013 0.000000
vt 0.844689 0.155311
vt 0.853553 0.146447
vt 0.933013 0.250000
vt 0.922156 0.256268
vt 0.578673 0.421327
vt 0.500000 0.500000
vt 0.596354 0.444370
vt 0.818541 0.181459
vt 0.844689 0.155311
vt 0.922156 0.256268
vt 0.890131 0.274758
vt 0.653401 0.346599
vt 0.578673 0.421327
vt 0.596354 0.444370
vt 0.687877 0.391529
vt 0.769979 0.344128
vt 0.838543 0.304542
vt 0.877596 0.398824
vt 0.801122 0.419315
vt 0.623490 0.304542
vt 0.781831 0.344128
vt 0.781831 0.419315
vt 0.623490 0.398824
vt 0.687877 0.391529
vt 0.769979 0.344128
vt 0.801122 0.419315
vt 0.709550 0.443851
vt 0.433884 0.274758
vt 0.623490 0.304542
vt 0.623490 0.398824
vt 0.433884 0.383406
vt 0.596354 0.444370
vt 0.687877 0.391529
vt 0.709550 0.443851
vt 0.607469 0.471204
vt 0.222521 0.256268
vt 0.433884 0.274758
vt 0.433884 0.383406
vt 0.222521 0.373835
vt 0.500000 0.500000
vt 0.596354 0.444370
vt 0.607469 0.471204
vt 0.000000 0.250000
vt 0.222521 0.256268
vt 0.222521 0.373835
vt 0.000000 0.370591
vt 0.922156 0.256268
vt 0.933013 0.250000
vt 0.982963 0.370591
vt 0.970854 0.373835
vt 0.596354 0.444370
vt 0.500000 0.500000
vt 0.607469 0.471204
vt 0.890131 0.274758
vt 0.922156 0.256268
vt 0.970854 0.373835
vt 0.935135 0.383406
vt 0.687877 0.391529
vt 0.596354 0.444370
vt 0.607469 0.471204
vt 0.709550 0.443851
vt 0.838543 0.304542
vt 0.890131 0.274758
vt 0.935135 0.383406
vt 0.877596 0.398824
vt 0.781831 0.344128
vt 0.900969 0.391529
vt 0.900969 0.443851
vt 0.781831 0.419315
vt 0.623490 0.398824
vt 0.781831 0.419315
vt 0.781831 0.500000
vt 0.623490 0.500000
vt 0.709550 0.443851
vt 0.801122 0.419315
vt 0.811745 0.500000
vt 0.716942 0.500000
vt 0.433884 0.383406
vt 0.623490 0.398824
vt 0.623490 0.500000
vt 0.433884 0.500000
vt 0.607469 0.471204
vt 0.709550 0.443851
vt 0.716942 0.500000
vt 0.611260 0.500000
vt 0.222521 0.373835
vt 0.433884 0.383406
vt 0.433884 0.500000
vt 0.222521 0.500000
vt 0.500000 0.500000
vt 0.607469 0.471204
vt 0.611260 0.500000
vt 0.000000 0.370591
vt 0.222521 0.373835
vt 0.222521 0.500000
vt 0.000000 0.500000
vt 0.970854 0.373835
vt 0.982963 0.370591
vt 1.000000 0.500000
vt 0.987464 0.500000
vt 0.607469 0.471204
vt 0.500000 0.500000
vt 0.611260 0.500000
vt 0.935135 0.383406
vt 0.970854 0.373835
vt 0.987464 0.500000
vt 0.950484 0.500000
vt 0.709550 0.443851
vt 0.607469 0.471204
vt 0.611260 0.500000
vt 0.716942 0.500000
vt 0.877596 0.398824
vt 0.935135 0.383406
vt 0.950484 0.500000
vt 0.890916 0.500000
vt 0.781831 0.419315
vt 0.900969 0.443851
vt 0.900969 0.500000
vt 0.781831 0.500000
vt 0.801122 0.419315
vt 0.877596 0.398824
vt 0.890916 0.500000
vt 0.811745 0.500000
vt 0.716942 0.500000
vt 0.811745 0.500000
vt 0.801122 0.580686
vt 0.709550 0.556149
vt 0.433884 0.500000
vt 0.623490 0.500000
vt 0.623490 0.601176
vt 0.433884 0.616594
vt 0.611260 0.500000
vt 0.716942 0.500000
vt 0.709550 0.556149
vt 0.607469 0.528796
vt 0.222521 0.500000
vt 0.433884 0.500000
vt 0.433884 0.616594
vt 0.222521 0.626165
vt 0.500000 0.500000
vt 0.611260 0.500000
vt 0.607469 0.528796
vt 0.000000 0.500000
vt 0.222521 0.500000
vt 0.222521 0.626165
vt 0.000000 0.629410
vt 0.987464 0.500000
vt 1.000000 0.500000
vt 0.982963 0.629410
vt 0.970854 0.626165
vt 0.611260 0.500000
vt 0.500000 0.500000
vt 0.607469 0.528796
vt 0.950484 0.500000
vt 0.987464 0.500000
vt 0.970854 0.626165
vt 0.935135 0.616594
vt 0.716942 0.500000
vt 0.611260 0.500000
vt 0.607469 0.528796
vt 0.709550 0.556149
vt 0.890916 0.500000
vt 0.950484 0.500000
vt 0.935135 0.616594
vt 0.877596 0.601177
vt 0.781831 0.500000
vt 0.900969 0.500000
vt 0.900969 0.556149
vt 0.781831 0.580686
vt 0.811745 0.500000
vt 0.890916 0.500000
vt 0.877596 0.601177
vt 0.801122 0.580686
vt 0.623490 0.500000
vt 0.781831 0.500000
vt 0.781831 0.580686
vt 0.623490 0.601176
vt 0.433884 0.616594
vt 0.623490 0.601176
vt 0.623490 0.695458
vt 0.433884 0.725242
vt 0.607469 0.528796
vt 0.709550 0.556149
vt 0.687877 0.608471
vt 0.596354 0.555630
vt 0.222521 0.626165
vt 0.433884 0.616594
vt 0.433884 0.725242
vt 0.222521 0.743732
vt 0.500000 0.500000
vt 0.607469 0.528796
vt 0.596354 0.555630
vt 0.000000 0.629410
vt 0.222521 0.626165
vt 0.222521 0.743732
vt 0.000000 0.750000
vt 0.970854 0.626165
vt 0.982963 0.629410
vt 0.933013 0.750000
vt 0.922156 0.743732
vt 0.607469 0.528796
vt 0.500000 0.500000
vt 0.596354 0.555630
vt 0.935135 0.616594
vt 0.970854 0.626165
vt 0.922156 0.743732
vt 0.890131 0.725242
vt 0.709550 0.556149
vt 0.607469 0.528796
vt 0.596354 0.555630
vt 0.687877 0.608471
vt 0.877596 0.601177
vt 0.935135 0.616594
vt 0.890131 0.725242
vt 0.838543 0.695458
vt 0.781831 0.580686
vt 0.900969 0.556149
vt 0.900969 0.608471
vt 0.781831 0.655873
vt 0.801122 0.580686
vt 0.877596 0.601177
vt 0.838543 0.695458
vt 0.769979 0.655873
vt 0.623490 0.601176
vt 0.781831 0.580686
vt 0.781831 0.655873
vt 0.623490 0.695458
vt 0.709550 0.556149
vt 0.801122 0.580686
vt 0.769979 0.655873
vt 0.687877 0.608471
vt 0.596354 0.555630
vt 0.687877 0.608471
vt 0.653401 0.653401
vt 0.578673 0.578673
vt 0.922156 0.222521
vt 0.890131 0.433884
vt 0.818541 0.433884
vt 0.844689 0.222521
vt 0.500000 0.500000
vt 0.596354 0.555630
vt 0.578673 0.578673
vt 0.933013 0.000000
vt 0.922156 0.222521
vt 0.844689 0.222521
vt 0.853553 0.000000
vt 0.922156 0.743732
vt 0.933013 0.750000
vt 0.853553 0.853553
vt 0.844689 0.844689
vt 0.596354 0.555630
vt 0.500000 0.500000
vt 0.578673 0.578673
vt 0.890131 0.725242
vt 0.922156 0.743732
vt 0.844689 0.844689
vt 0.818541 0.818541
vt 0.687877 0.608471
vt 0.596354 0.555630
vt 0.578673 0.578673
vt 0.653401 0.653401
vt 0.838543 0.695458
vt 0.890131 0.725242
vt 0.818541 0.818541
vt 0.776419 0.776419
vt 0.769979 0.781831
vt 0.687877 0.900969
vt 0.653401 0.900969
vt 0.720437 0.781831
vt 0.769979 0.655873
vt 0.838543 0.695458
vt 0.776419 0.776419
vt 0.720437 0.720437
vt 0.838543 0.623490
vt 0.769979 0.781831
vt 0.720437 0.781831
vt 0.776419 0.623490
vt 0.687877 0.608471
vt 0.769979 0.655873
vt 0.720437 0.720437
vt 0.653401 0.653401
vt 0.890131 0.433884
vt 0.838543 0.623490
vt 0.776419 0.623490
vt 0.818541 0.433884
vt 0.500000 0.500000
vt 0.578673 0.578673
vt 0.555630 0.596355
vt 0.853553 0.000000
vt 0.844689 0.222521
vt 0.743732 0.222521
vt 0.750000 0.000000
vt 0.844689 0.844689
vt 0.853553 0.853553
vt 0.750000 0.933013
vt 0.743732 0.922156
vt 0.578673 0.578673
vt 0.500000 0.500000
vt 0.555630 0.596354
vt 0.818541 0.818541
vt 0.844689 0.844689
vt 0.743732 0.922156
vt 0.725242 0.890131
vt 0.653401 0.900969
vt 0.578673 0.974928
vt 0.555630 0.974928
vt 0.608471 0.900969
vt 0.776419 0.776419
vt 0.818541 0.818541
vt 0.725242 0.890131
vt 0.695458 0.838543
vt 0.720437 0.781831
vt 0.653401 0.900969
vt 0.608471 0.900969
vt 0.655872 0.781831
vt 0.720437 0.720437
vt 0.776419 0.776419
vt 0.695458 0.838543
vt 0.655872 0.769979
vt 0.776419 0.623490
vt 0.720437 0.781831
vt 0.655872 0.781831
vt 0.695458 0.623490
vt 0.653401 0.653401
vt 0.720437 0.720437
vt 0.655872 0.769979
vt 0.608471 0.687877
vt 0.818541 0.433884
vt 0.776419 0.623490
vt 0.695458 0.623490
vt 0.725242 0.433884
vt 0.578673 0.578673
vt 0.653401 0.653401
vt 0.608471 0.687877
vt 0.555630 0.596355
vt 0.844689 0.222521
vt 0.818541 0.433884
vt 0.725242 0.433884
vt 0.743732 0.222521
vt 0.750000 0.000000
vt 0.743732 0.222521
vt 0.626165 0.222521
vt 0.629409 0.000000
vt 0.743732 0.922156
vt 0.750000 0.933013
vt 0.629409 0.982963
vt 0.626165 0.970854
vt 0.555630 0.596354
vt 0.500000 0.500000
vt 0.528796 0.607469
vt 0.725242 0.890131
vt 0.743732 0.922156
vt 0.626165 0.970854
vt 0.616594 0.935135
vt 0.608471 0.900969
vt 0.555630 0.974928
vt 0.528796 0.974928
vt 0.556149 0.900969
vt 0.695458 0.838543
vt 0.725242 0.890131
vt 0.616594 0.935135
vt 0.601176 0.877596
vt 0.655872 0.781831
vt 0.608471 0.900969
vt 0.556149 0.900969
vt 0.580685 0.781831
vt 0.655872 0.769979
vt 0.695458 0.838543
vt 0.601176 0.877596
vt 0.580685 0.801123
vt 0.695458 0.623490
vt 0.655872 0.781831
vt 0.580685 0.781831
vt 0.601176 0.623490
vt 0.608471 0.687877
vt 0.655872 0.769979
vt 0.580685 0.801123
vt 0.556149 0.709550
vt 0.725242 0.433884
vt 0.695458 0.623490
vt 0.601176 0.623490
vt 0.616594 0.433884
vt 0.555630 0.596355
vt 0.608471 0.687877
vt 0.556149 0.709550
vt 0.528796 0.607469
vt 0.743732 0.222521
vt 0.725242 0.433884
vt 0.616594 0.433884
vt 0.626165 0.222521
vt 0.500000 0.500000
vt 0.555630 0.596355
vt 0.528796 0.607469
vt 0.626165 0.970854
vt 0.629409 0.982963
vt 0.500000 1.000000
vt 0.500000 0.987464
vt 0.528796 0.607469
vt 0.500000 0.500000
vt 0.500000 0.611261
vt 0.616594 0.935135
vt 0.626165 0.970854
vt 0.500000 0.987464
vt 0.500000 0.950485
vt 0.556149 0.900969
vt 0.528796 0.974928
vt 0.500000 0.974928
vt 0.500000 0.900969
vt 0.601176 0.877596
vt 0.616594 0.935135
vt 0.500000 0.950485
vt 0.500000 0.890916
vt 0.580685 0.781831
vt 0.556149 0.900969
vt 0.500000 0.900969
vt 0.500000 0.781831
vt 0.580685 0.801123
vt 0.601176 0.877596
vt 0.500000 0.890916
vt 0.500000 0.811745
vt 0.601176 0.623490
vt 0.580685 0.781831
vt 0.500000 0.781831
vt 0.500000 0.623490
vt 0.556149 0.709550
vt 0.580685 0.801123
vt 0.500000 0.811745
vt 0.500000 0.716942
vt 0.616594 0.433884
vt 0.601176 0.623490
vt 0.500000 0.623490
vt 0.500000 0.433884
vt 0.528796 0.607469
vt 0.556149 0.709550
vt 0.500000 0.716942
vt 0.500000 0.611261
vt 0.626165 0.222521
vt 0.616594 0.433884
vt 0.500000 0.433884
vt 0.500000 0.222521
vt 0.500000 0.500000
vt 0.528796 0.607469
vt 0.500000 0.611261
vt 0.629409 0.000000
vt 0.626165 0.222521
vt 0.500000 0.222521
vt 0.500000 0.000000
vt 0.500000 0.987464
vt 0.500000 1.000000
vt 0.370590 0.982963
vt 0.373835 0.970854
vt 0.500000 0.611261
vt 0.500000 0.500000
vt 0.471204 0.607469
vt 0.500000 0.950485
vt 0.500000 0.987464
vt 0.373835 0.970854
vt 0.383406 0.935135
vt 0.500000 0.900969
vt 0.500000 0.974928
vt 0.471204 0.974928
vt 0.443851 0.900969
vt 0.500000 0.890916
vt 0.500000 0.950485
vt 0.383406 0.935135
vt 0.398823 0.877596
vt 0.500000 0.781831
vt 0.500000 0.900969
vt 0.443851 0.900969
vt 0.419314 0.781831
vt 0.500000 0.811745
vt 0.500000 0.890916
vt 0.398823 0.877596
vt 0.419314 0.801123
vt 0.500000 0.623490
vt 0.500000 0.781831
vt 0.419314 0.781831
vt 0.398823 0.623490
vt 0.500000 0.716942
vt 0.500000 0.811745
vt 0.419314 0.801123
vt 0.443851 0.709550
vt 0.500000 0.433884
vt 0.500000 0.623490
vt 0.398823 0.623490
vt 0.383406 0.433884
vt 0.500000 0.611261
vt 0.500000 0.716942
vt 0.443851 0.709550
vt 0.471204 0.607469
vt 0.500000 0.222521
vt 0.500000 0.433884
vt 0.383406 0.433884
vt 0.373835 0.222521
vt 0.500000 0.500000
vt 0.500000 0.611261
vt 0.471204 0.607469
vt 0.500000 0.000000
vt 0.500000 0.222521
vt 0.373835 0.222521
vt 0.370590 0.000000
vt 0.383406 0.935135
vt 0.373835 0.970854
vt 0.256268 0.922156
vt 0.274758 0.890131
vt 0.443851 0.900969
vt 0.471204 0.974928
vt 0.444370 0.974928
vt 0.391529 0.900969
vt 0.398823 0.877596
vt 0.383406 0.935135
vt 0.274758 0.890131
vt 0.304542 0.838543
vt 0.419314 0.781831
vt 0.443851 0.900969
vt 0.391529 0.900969
vt 0.344127 0.781831
vt 0.419314 0.801123
vt 0.398823 0.877596
vt 0.304542 0.838543
vt 0.344127 0.769979
vt 0.398823 0.623490
vt 0.419314 0.781831
vt 0.344127 0.781831
vt 0.304542 0.623490
vt 0.443851 0.709550
vt 0.419314 0.801123
vt 0.344127 0.769979
vt 0.391529 0.687877
vt 0.383406 0.433884
vt 0.398823 0.623490
vt 0.304542 0.623490
vt 0.274758 0.433884
vt 0.471204 0.607469
vt 0.443851 0.709550
vt 0.391529 0.687877
vt 0.444370 0.596355
vt 0.373835 0.222521
vt 0.383406 0.433884
vt 0.274758 0.433884
vt 0.256268 0.222521
vt 0.500000 0.500000
vt 0.471204 0.607469
vt 0.444370 0.596355
vt 0.370590 0.000000
vt 0.373835 0.222521
vt 0.256268 0.222521
vt 0.250000 0.000000
vt 0.373835 0.970854
vt 0.370590 0.982963
vt 0.250000 0.933013
vt 0.256268 0.922156
vt 0.471204 0.607469
vt 0.500000 0.500000
vt 0.444370 0.596354
vt 0.391529 0.900969
vt 0.444370 0.974928
vt 0.421327 0.974928
vt 0.346599 0.900969
vt 0.304542 0.838543
vt 0.274758 0.890131
vt 0.181459 0.818541
vt 0.223581 0.776419
vt 0.344127 0.781831
vt 0.391529 0.900969
vt 0.346599 0.900969
vt 0.279563 0.781831
vt 0.344127 0.769979
vt 0.304542 0.838543
vt 0.223581 0.776419
vt 0.279563 0.720437
vt 0.304542 0.623490
vt 0.344127 0.781831
vt 0.279563 0.781831
vt 0.223581 0.623490
vt 0.391529 0.687877
vt 0.344127 0.769979
vt 0.279563 0.720437
vt 0.346599 0.653401
vt 0.274758 0.433884
vt 0.304542 0.623490
vt 0.223581 0.623490
vt 0.181459 0.433884
vt 0.444370 0.596355
vt 0.391529 0.687877
vt 0.346599 0.653401
vt 0.421327 0.578673
vt 0.256268 0.222521
vt 0.274758 0.433884
vt 0.181459 0.433884
vt 0.155311 0.222521
vt 0.500000 0.500000
vt 0.444370 0.596355
vt 0.421327 0.578673
vt 0.250000 0.000000
vt 0.256268 0.222521
vt 0.155311 0.222521
vt 0.146447 0.000000
vt 0.256268 0.922156
vt 0.250000 0.933013
vt 0.146447 0.853553
vt 0.155311 0.844689
vt 0.444370 0.596354
vt 0.500000 0.500000
vt 0.421327 0.578673
vt 0.274758 0.890131
vt 0.256268 0.922156
vt 0.155311 0.844689
vt 0.181459 0.818541
vt 0.223581 0.776419
vt 0.181459 0.818541
vt 0.109869 0.725242
vt 0.161457 0.695458
vt 0.279563 0.781831
vt 0.346599 0.900969
vt 0.312123 0.900969
vt 0.230021 0.781831
vt 0.279563 0.720437
vt 0.223581 0.776419
vt 0.161457 0.695458
vt 0.230021 0.655873
vt 0.223581 0.623490
vt 0.279563 0.781831
vt 0.230021 0.781831
vt 0.161457 0.623490
vt 0.346599 0.653401
vt 0.279563 0.720437
vt 0.230021 0.655873
vt 0.312123 0.608471
vt 0.181459 0.433884
vt 0.223581 0.623490
vt 0.161457 0.623490
vt 0.109869 0.433884
vt 0.421327 0.578673
vt 0.346599 0.653401
vt 0.312123 0.608471
vt 0.403645 0.555630
vt 0.155311 0.222521
vt 0.181459 0.433884
vt 0.109869 0.433884
vt 0.077844 0.222521
vt 0.500000 0.500000
vt 0.421327 0.578673
vt 0.403645 0.555630
vt 0.146447 0.000000
vt 0.155311 0.222521
vt 0.077844 0.222521
vt 0.066987 0.000000
vt 0.155311 0.844689
vt 0.146447 0.853553
vt 0.066987 0.750000
vt 0.077844 0.743732
vt 0.421327 0.578673
vt 0.500000 0.500000
vt 0.403645 0.555630
vt 0.181459 0.818541
vt 0.155311 0.844689
vt 0.077844 0.743732
vt 0.109869 0.725242
vt 0.346599 0.653401
vt 0.421327 0.578673
vt 0.403645 0.555630
vt 0.312123 0.608471
vt 0.781831 0.655872
vt 0.900969 0.608471
vt 0.900969 0.556149
vt 0.781831 0.580686
vt 0.230021 0.655873
vt 0.161457 0.695458
vt 0.122404 0.601176
vt 0.198877 0.580686
vt 0.623490 0.695458
vt 0.781831 0.655872
vt 0.781831 0.580686
vt 0.623490 0.601176
vt 0.312123 0.608471
vt 0.230021 0.655873
vt 0.198877 0.580686
vt 0.290450 0.556149
vt 0.433884 0.725242
vt 0.623490 0.695458
vt 0.623490 0.601176
vt 0.433884 0.616594
vt 0.403645 0.555630
vt 0.312123 0.608471
vt 0.290450 0.556149
vt 0.392531 0.528796
vt 0.222521 0.743732
vt 0.433884 0.725242
vt 0.433884 0.616594
vt 0.222521 0.626165
vt 0.500000 0.500000
vt 0.403645 0.555630
vt 0.392531 0.528796
vt 0.000000 0.750000
vt 0.222521 0.743732
vt 0.222521 0.626165
vt 0.000000 0.629410
vt 0.077844 0.743732
vt 0.066987 0.750000
vt 0.017037 0.629410
vt 0.029146 0.626165
vt 0.403645 0.555630
vt 0.500000 0.500000
vt 0.392531 0.528796
vt 0.109869 0.725242
vt 0.077844 0.743732
vt 0.029146 0.626165
vt 0.064865 0.616594
vt 0.312123 0.608471
vt 0.403645 0.555630
vt 0.392531 0.528796
vt 0.290450 0.556149
vt 0.161457 0.695458
vt 0.109869 0.725242
vt 0.064865 0.616594
vt 0.122404 0.601176
vt 0.198877 0.580686
vt 0.122404 0.601176
vt 0.109084 0.500000
vt 0.188255 0.500000
vt 0.623490 0.601176
vt 0.781831 0.580686
vt 0.781831 0.500000
vt 0.623490 0.500000
vt 0.290450 0.556149
vt 0.198877 0.580686
vt 0.188255 0.500000
vt 0.283058 0.500000
vt 0.433884 0.616594
vt 0.623490 0.601176
vt 0.623490 0.500000
vt 0.433884 0.500000
vt 0.392531 0.528796
vt 0.290450 0.556149
vt 0.283058 0.500000
vt 0.388739 0.500000
vt 0.222521 0.626165
vt 0.433884 0.616594
vt 0.433884 0.500000
vt 0.222521 0.500000
vt 0.500000 0.500000
vt 0.392531 0.528796
vt 0.388739 0.500000
vt 0.000000 0.629410
vt 0.222521 0.626165
vt 0.222521 0.500000
vt 0.000000 0.500000
vt 0.029146 0.626165
vt 0.017037 0.629410
vt 0.000000 0.500000
vt 0.012536 0.500000
vt 0.392531 0.528796
vt 0.500000 0.500000
vt 0.388739 0.500000
vt 0.064865 0.616594
vt 0.029146 0.626165
vt 0.012536 0.500000
vt 0.049515 0.500000
vt 0.290450 0.556149
vt 0.392531 0.528796
vt 0.388739 0.500000
vt 0.283058 0.500000
vt 0.122404 0.601176
vt 0.064865 0.616594
vt 0.049515 0.500000
vt 0.109084 0.500000
vt 0.781831 0.580686
vt 0.900969 0.556149
vt 0.900969 0.500000
vt 0.781831 0.500000
vt 0.283058 0.500000
vt 0.188255 0.500000
vt 0.198877 0.419315
vt 0.290450 0.443851
vt 0.433884 0.500000
vt 0.623490 0.500000
vt 0.623490 0.398824
vt 0.433884 0.383406
vt 0.388739 0.500000
vt 0.283058 0.500000
vt 0.290450 0.443851
vt 0.392531 0.471204
vt 0.222521 0.500000
vt 0.433884 0.500000
vt 0.433884 0.383406
vt 0.222521 0.373835
vt 0.500000 0.500000
vt 0.388739 0.500000
vt 0.392531 0.471204
vt 0.000000 0.500000
vt 0.222521 0.500000
vt 0.222521 0.373835
vt 0.000000 0.370591
vt 0.012536 0.500000
vt 0.000000 0.500000
vt 0.017037 0.370591
vt 0.029146 0.373835
vt 0.388739 0.500000
vt 0.500000 0.500000
vt 0.392531 0.471204
vt 0.049515 0.500000
vt 0.012536 0.500000
vt 0.029146 0.373835
vt 0.064865 0.383406
vt 0.283058 0.500000
vt 0.388739 0.500000
vt 0.392531 0.471204
vt 0.290450 0.443851
vt 0.109084 0.500000
vt 0.049515 0.500000
vt 0.064865 0.383406
vt 0.122404 0.398824
vt 0.781831 0.500000
vt 0.900969 0.500000
vt 0.900969 0.443851
vt 0.781831 0.419314
vt 0.188255 0.500000
vt 0.109084 0.500000
vt 0.122404 0.398824
vt 0.198877 0.419315
vt 0.623490 0.500000
vt 0.781831 0.500000
vt 0.781831 0.419314
vt 0.623490 0.398824
vt 0.433884 0.383406
vt 0.623490 0.398824
vt 0.623490 0.304542
vt 0.433884 0.274758
vt 0.392531 0.471204
vt 0.290450 0.443851
vt 0.312123 0.391529
vt 0.403645 0.444370
vt 0.222521 0.373835
vt 0.433884 0.383406
vt 0.433884 0.274758
vt 0.222521 0.256268
vt 0.500000 0.500000
vt 0.392531 0.471204
vt 0.403645 0.444370
vt 0.000000 0.370591
vt 0.222521 0.373835
vt 0.222521 0.256268
vt 0.000000 0.250000
vt 0.029146 0.373835
vt 0.017037 0.370591
vt 0.066987 0.250000
vt 0.077844 0.256268
vt 0.392531 0.471204
vt 0.500000 0.500000
vt 0.403645 0.444370
vt 0.064865 0.383406
vt 0.029146 0.373835
vt 0.077844 0.256268
vt 0.109869 0.274758
vt 0.290450 0.443851
vt 0.392531 0.471204
vt 0.403645 0.444370
vt 0.312123 0.391529
vt 0.122404 0.398824
vt 0.064865 0.383406
vt 0.109869 0.274758
vt 0.161457 0.304542
vt 0.781831 0.419314
vt 0.900969 0.443851
vt 0.900969 0.391529
vt 0.781831 0.344128
vt 0.198877 0.419315
vt 0.122404 0.398824
vt 0.161457 0.304542
vt 0.230021 0.344128
vt 0.623490 0.398824
vt 0.781831 0.419314
vt 0.781831 0.344128
vt 0.623490 0.304542
vt 0.290450 0.443851
vt 0.198877 0.419315
vt 0.230021 0.344128
vt 0.312123 0.391529
vt 0.403645 0.444370
vt 0.312123 0.391529
vt 0.346599 0.346599
vt 0.421327 0.421327
vt 0.077844 0.222521
vt 0.109869 0.433884
vt 0.181459 0.433884
vt 0.155311 0.222521
vt 0.500000 0.500000
vt 0.403645 0.444370
vt 0.421327 0.421327
vt 0.066987 0.000000
vt 0.077844 0.222521
vt 0.155311 0.222521
vt 0.146447 0.000000
vt 0.077844 0.256268
vt 0.066987 0.250000
vt 0.146447 0.146447
vt 0.155311 0.155311
vt 0.403645 0.444370
vt 0.500000 0.500000
vt 0.421327 0.421327
vt 0.109869 0.274758
vt 0.077844 0.256268
vt 0.155311 0.155311
vt 0.181459 0.181459
vt 0.312123 0.391529
vt 0.403645 0.444370
vt 0.421327 0.421327
vt 0.346599 0.346599
vt 0.161457 0.304542
vt 0.109869 0.274758
vt 0.181459 0.181459
vt 0.223581 0.223581
vt 0.230021 0.781831
vt 0.312123 0.900969
vt 0.346599 0.900969
vt 0.279563 0.781831
vt 0.230021 0.344128
vt 0.161457 0.304542
vt 0.223581 0.223581
vt 0.279563 0.279563
vt 0.161457 0.623490
vt 0.230021 0.781831
vt 0.279563 0.781831
vt 0.223581 0.623490
vt 0.312123 0.391529
vt 0.230021 0.344128
vt 0.279563 0.279563
vt 0.346599 0.346599
vt 0.109869 0.433884
vt 0.161457 0.623490
vt 0.223581 0.623490
vt 0.181459 0.433884
vt 0.155311 0.222521
vt 0.181459 0.433884
vt 0.274758 0.433884
vt 0.256268 0.222521
vt 0.500000 0.500000
vt 0.421327 0.421327
vt 0.444370 0.403646
vt 0.146447 0.000000
vt 0.155311 0.222521
vt 0.256268 0.222521
vt 0.250000 0.000000
vt 0.155311 0.155311
vt 0.146447 0.146447
vt 0.250000 0.066988
vt 0.256268 0.077844
vt 0.421327 0.421327
vt 0.500000 0.500000
vt 0.444370 0.403646
vt 0.181459 0.181459
vt 0.155311 0.155311
vt 0.256268 0.077844
vt 0.274758 0.109869
vt 0.346599 0.900969
vt 0.421327 0.974928
vt 0.444370 0.974928
vt 0.391529 0.900969
vt 0.223581 0.223581
vt 0.181459 0.181459
vt 0.274758 0.109869
vt 0.304542 0.161457
vt 0.279563 0.781831
vt 0.346599 0.900969
vt 0.391529 0.900969
vt 0.344127 0.781831
vt 0.279563 0.279563
vt 0.223581 0.223581
vt 0.304542 0.161457
vt 0.344127 0.230021
vt 0.223581 0.623490
vt 0.279563 0.781831
vt 0.344127 0.781831
vt 0.304542 0.623490
vt 0.346599 0.346599
vt 0.279563 0.279563
vt 0.344127 0.230021
vt 0.391529 0.312123
vt 0.181459 0.433884
vt 0.223581 0.623490
vt 0.304542 0.623490
vt 0.274758 0.433884
vt 0.421327 0.421327
vt 0.346599 0.346599
vt 0.391529 0.312123
vt 0.444370 0.403646
vt 0.500000 0.500000
vt 0.444370 0.403646
vt 0.471204 0.392531
vt 0.250000 0.000000
vt 0.256268 0.222521
vt 0.373835 0.222521
vt 0.370590 0.000000
vt 0.256268 0.077844
vt 0.250000 0.066988
vt 0.370590 0.017037
vt 0.373835 0.029146
vt 0.444370 0.403646
vt 0.500000 0.500000
vt 0.471204 0.392531
vt 0.274758 0.109869
vt 0.256268 0.077844
vt 0.373835 0.029146
vt 0.383406 0.064866
vt 0.391529 0.900969
vt 0.444370 0.974928
vt 0.471204 0.974928
vt 0.443851 0.900969
vt 0.304542 0.161457
vt 0.274758 0.109869
vt 0.383406 0.064866
vt 0.398823 0.122405
vt 0.344127 0.781831
vt 0.391529 0.900969
vt 0.443851 0.900969
vt 0.419314 0.781831
vt 0.344127 0.230021
vt 0.304542 0.161457
vt 0.398823 0.122405
vt 0.419314 0.198878
vt 0.304542 0.623490
vt 0.344127 0.781831
vt 0.419314 0.781831
vt 0.398823 0.623490
vt 0.391529 0.312123
vt 0.344127 0.230021
vt 0.419314 0.198878
vt 0.443851 0.290450
vt 0.274758 0.433884
vt 0.304542 0.623490
vt 0.398823 0.623490
vt 0.383406 0.433884
vt 0.444370 0.403646
vt 0.391529 0.312123
vt 0.443851 0.290450
vt 0.471204 0.392531
vt 0.256268 0.222521
vt 0.274758 0.433884
vt 0.383406 0.433884
vt 0.373835 0.222521
vt 0.373835 0.029146
vt 0.370590 0.017037
vt 0.500000 0.000000
vt 0.500000 0.012536
vt 0.471204 0.392531
vt 0.500000 0.500000
vt 0.500000 0.388740
vt 0.383406 0.064866
vt 0.373835 0.029146
vt 0.500000 0.012536
vt 0.500000 0.049516
vt 0.443851 0.900969
vt 0.471204 0.974928
vt 0.500000 0.974928
vt 0.500000 0.900969
vt 0.398823 0.122405
vt 0.383406 0.064866
vt 0.500000 0.049516
vt 0.500000 0.109085
vt 0.419314 0.781831
vt 0.443851 0.900969
vt 0.500000 0.900969
vt 0.500000 0.781831
vt 0.419314 0.198878
vt 0.398823 0.122405
vt 0.500000 0.109085
vt 0.500000 0.188255
vt 0.398823 0.623490
vt 0.419314 0.781831
vt 0.500000 0.781831
vt 0.500000 0.623490
vt 0.443851 0.290450
vt 0.419314 0.198878
vt 0.500000 0.188255
vt 0.500000 0.283058
vt 0.383406 0.433884
vt 0.398823 0.623490
vt 0.500000 0.623490
vt 0.500000 0.433884
vt 0.471204 0.392531
vt 0.443851 0.290450
vt 0.500000 0.283058
vt 0.500000 0.388740
vt 0.373835 0.222521
vt 0.383406 0.433884
vt 0.500000 0.433884
vt 0.500000 0.222521
vt 0.500000 0.500000
vt 0.471204 0.392531
vt 0.500000 0.388740
vt 0.370590 0.000000
vt 0.373835 0.222521
vt 0.500000 0.222521
vt 0.500000 0.000000
vn 0.000000 -1.000000 0.000002
vn -0.000000 -0.682422 -0.730958
vn 0.098838 -0.681368 -0.725237
vn -0.000000 -1.000000 0.000001
vn -0.000000 0.767885 -0.640588
vn -0.000000 1.000000 0.000000
vn 0.083557 0.774691 -0.626795
vn 0.000000 -1.000000 0.000000
vn 0.000000 -1.000000 0.000002
vn -0.000000 -1.000000 0.000001
vn 0.000000 -1.000000 0.000000
vn -0.000000 0.476897 -0.878959
vn -0.000000 0.767885 -0.640588
vn 0.083557 0.774691 -0.626795
vn 0.118203 0.486559 -0.865614
vn 0.000000 -1.000000 0.000000
vn 0.000000 -1.000000 0.000000
vn 0.000000 -1.000000 0.000000
vn 0.000000 -1.000000 0.000000
vn -0.000000 0.305984 -0.952037
vn -0.000000 0.476897 -0.878959
vn 0.118203 0.486559 -0.865614
vn 0.128497 0.313442 -0.940873
vn 0.000000 -1.000000 0.000000
vn 0.000000 -1.000000 0.000000
vn 0.000000 -1.000000 0.000000
vn 0.000000 -1.000000 0.000000
vn -0.000000 0.198694 -0.980061
vn -0.000000 0.305984 -0.952037
vn 0.128497 0.313442 -0.940873
vn 0.132344 0.203847 -0.970016
vn 0.000000 -1.000000 0.000000
vn 0.000000 -1.000000 0.000000
vn 0.000000 -1.000000 0.000000
vn -0.000000 -1.000000 0.000000
vn -0.000000 0.121064 -0.992645
vn -0.000000 0.198694 -0.980061
vn 0.132344 0.203847 -0.970016
vn 0.134047 0.124286 -0.983150
vn 0.000000 -1.000000 0.000000
vn 0.000000 -1.000000 0.000000
vn -0.000000 -1.000000 0.000000
vn -0.000000 -1.000000 0.000000
vn -0.000000 0.057606 -0.998339
vn -0.000000 0.121064 -0.992645
vn 0.134047 0.124286 -0.983150
vn 0.134813 0.059157 -0.989104
vn 0.000000 -1.000000 0.000000
vn 0.000000 -1.000000 0.000000
vn -0.000000 -1.000000 0.000000
vn -0.000000 -0.682422 -0.730958
vn -0.000000 0.057606 -0.998339
vn 0.134813 0.059157 -0.989104
vn 0.098838 -0.681368 -0.725237
vn 0.000000 -1.000000 0.000000
vn -0.000000 -1.000000 0.000001
vn -0.000000 -1.000000 0.000001
vn 0.000000 -1.000000 0.000000
vn 0.118203 0.486559 -0.865614
vn 0.083557 0.774691 -0.626795
vn 0.167225 0.794216 -0.584172
vn 0.241830 0.515806 -0.821865
vn 0.000000 -1.000000 0.000000
vn 0.000000 -1.000000 0.000000
vn 0.000000 -1.000000 0.000000
vn 0.000000 -1.000000 0.000000
vn 0.128497 0.313442 -0.940873
vn 0.118203 0.486559 -0.865614
vn 0.241830 0.515806 -0.821865
vn 0.266259 0.336734 -0.903170
vn 0.000000 -1.000000 0.000000
vn 0.000000 -1.000000 0.000000
vn 0.000000 -1.000000 0.000000
vn 0.000000 -1.000000 0.000000
vn 0.132344 0.203847 -0.970016
vn 0.128497 0.313442 -0.940873
vn 0.266259 0.336734 -0.903170
vn 0.275712 0.220145 -0.935692
vn -0.000000 -1.000000 0.000000
vn 0.000000 -1.000000 0.000000
vn 0.000000 -1.000000 0.000000
vn -0.000000 -1.000000 0.000000
vn 0.134047 0.124286 -0.983150
vn 0.132344 0.203847 -0.970016
vn 0.275712 0.220145 -0.935692
vn 0.279950 0.134537 -0.950541
vn -0.000000 -1.000000 0.000000
vn -0.000000 -1.000000 0.000000
vn -0.000000 -1.000000 0.000000
vn -0.000000 -1.000000 0.000000
vn 0.134813 0.059157 -0.989104
vn 0.134047 0.124286 -0.983150
vn 0.279950 0.134537 -0.950541
vn 0.281864 0.064103 -0.957310
vn 0.000000 -1.000000 0.000000
vn -0.000000 -1.000000 0.000000
vn -0.000000 -1.000000 0.000000
vn 0.098838 -0.681368 -0.725237
vn 0.134813 0.059157 -0.989104
vn 0.281864 0.064103 -0.957310
vn 0.207617 -0.677925 -0.705204
vn -0.000000 -1.000000 0.000001
vn 0.098838 -0.681368 -0.725237
vn 0.207617 -0.677925 -0.705204
vn -0.000000 -1.000000 0.000001
vn 0.083557 0.774691 -0.626795
vn -0.000000 1.000000 0.000000
vn 0.167225 0.794216 -0.584172
vn 0.241830 0.515806 -0.821865
vn 0.167225 0.794216 -0.584172
vn 0.250941 0.823924 -0.508112
vn 0.375020 0.564524 -0.735305
vn 0.000000 -1.000000 0.000000
vn 0.000000 -1.000000 0.000000
vn 0.000000 -1.000000 0.000000
vn 0.000000 -1.000000 0.000000
vn 0.266259 0.336734 -0.903170
vn 0.241830 0.515806 -0.821865
vn 0.375020 0.564524 -0.735305
vn 0.422225 0.378044 -0.823898
vn 0.000000 -1.000000 0.000000
vn 0.000000 -1.000000 0.000000
vn 0.000000 -1.000000 0.000000
vn 0.000000 -1.000000 0.000000
vn 0.275712 0.220145 -0.935692
vn 0.266259 0.336734 -0.903170
vn 0.422225 0.378044 -0.823898
vn 0.441797 0.249875 -0.861613
vn -0.000000 -1.000000 0.000000
vn 0.000000 -1.000000 0.000000
vn 0.000000 -1.000000 0.000000
vn 0.000000 -1.000000 0.000000
vn 0.279950 0.134537 -0.950541
vn 0.275712 0.220145 -0.935692
vn 0.441797 0.249875 -0.861613
vn 0.450831 0.153484 -0.879315
vn -0.000000 -1.000000 0.000000
vn -0.000000 -1.000000 0.000000
vn 0.000000 -1.000000 0.000000
vn -0.000000 -1.000000 0.000000
vn 0.281864 0.064103 -0.957310
vn 0.279950 0.134537 -0.950541
vn 0.450831 0.153484 -0.879315
vn 0.454964 0.073301 -0.887488
vn 0.000000 -1.000000 0.000000
vn -0.000000 -1.000000 0.000000
vn -0.000000 -1.000000 0.000000
vn 0.207617 -0.677925 -0.705204
vn 0.281864 0.064103 -0.957310
vn 0.454964 0.073301 -0.887488
vn 0.338230 -0.671006 -0.659812
vn -0.000000 -1.000000 0.000001
vn 0.207617 -0.677925 -0.705204
vn 0.338230 -0.671006 -0.659812
vn 0.000000 -1.000000 0.000000
vn 0.167225 0.794216 -0.584172
vn -0.000000 1.000000 0.000000
vn 0.250941 0.823924 -0.508112
vn 0.000000 -1.000000 0.000000
vn -0.000000 -1.000000 0.000001
vn 0.000000 -1.000000 0.000000
vn 0.000000 -1.000000 0.000000
vn 0.000000 -1.000000 0.000000
vn 0.000000 -1.000000 0.000000
vn 0.000000 -1.000000 0.000000
vn 0.000000 -1.000000 0.000000
vn 0.422225 0.378044 -0.823898
vn 0.375020 0.564524 -0.735305
vn 0.515565 0.628259 -0.582652
vn 0.599037 0.437301 -0.670763
vn 0.000000 -1.000000 0.000000
vn 0.000000 -1.000000 0.000000
vn 0.000000 -1.000000 0.000000
vn 0.000000 -1.000000 0.000000
vn 0.441797 0.249875 -0.861613
vn 0.422225 0.378044 -0.823898
vn 0.599037 0.437301 -0.670763
vn 0.637447 0.294590 -0.711954
vn 0.000000 -1.000000 0.000000
vn 0.000000 -1.000000 0.000000
vn 0.000000 -1.000000 0.000000
vn 0.000000 -1.000000 0.000000
vn 0.450831 0.153484 -0.879315
vn 0.441797 0.249875 -0.861613
vn 0.637447 0.294590 -0.711954
vn 0.656116 0.182663 -0.732220
vn -0.000000 -1.000000 0.000000
vn 0.000000 -1.000000 0.000000
vn 0.000000 -1.000000 0.000000
vn 0.000000 -1.000000 0.000000
vn 0.454964 0.073301 -0.887488
vn 0.450831 0.153484 -0.879315
vn 0.656116 0.182663 -0.732220
vn 0.664874 0.087625 -0.741798
vn 0.000000 -1.000000 0.000000
vn -0.000000 -1.000000 0.000000
vn 0.000000 -1.000000 0.000000
vn 0.338230 -0.671006 -0.659812
vn 0.454964 0.073301 -0.887488
vn 0.664874 0.087625 -0.741798
vn 0.502072 -0.658925 -0.560126
vn 0.000000 -1.000000 0.000000
vn 0.338230 -0.671006 -0.659812
vn 0.502072 -0.658925 -0.560126
vn 0.000000 -1.000000 0.000000
vn 0.250941 0.823924 -0.508112
vn -0.000000 1.000000 0.000000
vn 0.332123 0.858891 -0.389872
vn 0.000000 -1.000000 0.000000
vn 0.000000 -1.000000 0.000000
vn 0.000000 -1.000000 0.000000
vn 0.000000 -1.000000 0.000000
vn 0.375020 0.564524 -0.735305
vn 0.250941 0.823924 -0.508112
vn 0.332123 0.858891 -0.389872
vn 0.515565 0.628259 -0.582652
vn 0.000000 -1.000000 0.000000
vn 0.000000 -1.000000 0.000000
vn 0.000000 -1.000000 0.000000
vn 0.000000 -1.000000 0.000000
vn 0.637447 0.294590 -0.711954
vn 0.599037 0.437301 -0.670763
vn 0.769428 0.500602 -0.396709
vn 0.835133 0.345351 -0.428119
vn 0.000000 -1.000000 0.000000
vn 0.000000 -1.000000 0.000000
vn 0.000000 -1.000000 0.000000
vn -0.000000 -1.000000 0.000000
vn 0.656116 0.182663 -0.732220
vn 0.637447 0.294590 -0.711954
vn 0.835133 0.345351 -0.428119
vn 0.869142 0.216904 -0.444460
vn 0.000000 -1.000000 0.000000
vn 0.000000 -1.000000 0.000000
vn -0.000000 -1.000000 0.000000
vn 0.000000 -1.000000 0.000000
vn 0.664874 0.087625 -0.741798
vn 0.656116 0.182663 -0.732220
vn 0.869142 0.216904 -0.444460
vn 0.885638 0.104713 -0.452416
vn 0.000000 -1.000000 0.000000
vn 0.000000 -1.000000 0.000000
vn 0.000000 -1.000000 0.000000
vn 0.502072 -0.658925 -0.560126
vn 0.664874 0.087625 -0.741798
vn 0.885638 0.104713 -0.452416
vn 0.682565 -0.642340 -0.348575
vn 0.000000 -1.000000 0.000000
vn 0.502072 -0.658925 -0.560126
vn 0.682565 -0.642340 -0.348575
vn 0.000000 -1.000000 0.000000
vn 0.332123 0.858891 -0.389872
vn -0.000000 1.000000 0.000000
vn 0.400446 0.889787 -0.218911
vn 0.000000 -1.000000 0.000000
vn 0.000000 -1.000000 0.000000
vn 0.000000 -1.000000 0.000000
vn 0.000000 -1.000000 0.000000
vn 0.515565 0.628259 -0.582652
vn 0.332123 0.858891 -0.389872
vn 0.400446 0.889787 -0.218911
vn 0.641436 0.689845 -0.335668
vn 0.000000 -1.000000 0.000000
vn 0.000000 -1.000000 0.000000
vn 0.000000 -1.000000 0.000000
vn 0.000000 -1.000000 0.000000
vn 0.599037 0.437301 -0.670763
vn 0.515565 0.628259 -0.582652
vn 0.641436 0.689845 -0.335668
vn 0.769428 0.500602 -0.396709
vn 0.835133 0.345351 -0.428119
vn 0.769428 0.500602 -0.396709
vn 0.847795 0.530324 0.000000
vn 0.928933 0.370247 0.000000
vn -0.000000 -1.000000 0.000000
vn 0.000000 -1.000000 0.000000
vn 0.000000 -1.000000 0.000000
vn 0.000000 -1.000000 0.000000
vn 0.869142 0.216904 -0.444460
vn 0.835133 0.345351 -0.428119
vn 0.928933 0.370247 0.000000
vn 0.972204 0.234136 0.000000
vn 0.000000 -1.000000 0.000000
vn -0.000000 -1.000000 0.000000
vn 0.000000 -1.000000 0.000000
vn 0.000000 -1.000000 0.000000
vn 0.885638 0.104713 -0.452416
vn 0.869142 0.216904 -0.444460
vn 0.972204 0.234136 0.000000
vn 0.993546 0.113427 0.000000
vn 0.000000 -1.000000 0.000000
vn 0.000000 -1.000000 0.000000
vn 0.000000 -1.000000 0.000000
vn 0.682565 -0.642340 -0.348575
vn 0.885638 0.104713 -0.452416
vn 0.993546 0.113427 0.000000
vn 0.774222 -0.632914 0.000000
vn 0.000000 -1.000000 0.000000
vn 0.682565 -0.642340 -0.348575
vn 0.774222 -0.632914 0.000000
vn 0.000000 -1.000000 0.000000
vn 0.400446 0.889787 -0.218911
vn -0.000000 1.000000 0.000000
vn 0.430001 0.902829 -0.000000
vn 0.000000 -1.000000 0.000000
vn 0.000000 -1.000000 0.000000
vn 0.000000 -1.000000 0.000000
vn 0.000000 -1.000000 0.000000
vn 0.641436 0.689845 -0.335668
vn 0.400446 0.889787 -0.218911
vn 0.430001 0.902829 -0.000000
vn 0.697056 0.717017 -0.000000
vn 0.000000 -1.000000 0.000000
vn 0.000000 -1.000000 0.000000
vn 0.000000 -1.000000 0.000000
vn 0.000000 -1.000000 0.000000
vn 0.769428 0.500602 -0.396709
vn 0.641436 0.689845 -0.335668
vn 0.697056 0.717017 -0.000000
vn 0.847795 0.530324 0.000000
vn 0.000000 -1.000000 0.000000
vn 0.000000 -1.000000 0.000000
vn 0.000000 -1.000000 0.000000
vn 0.000000 -1.000000 0.000000
vn 0.000000 -1.000000 0.000000
vn 0.000000 -1.000000 0.000000
vn 0.000000 -1.000000 0.000000
vn 0.000000 -1.000000 0.000000
vn 0.972204 0.234136 0.000000
vn 0.928933 0.370247 0.000000
vn 0.835133 0.345351 0.428119
vn 0.869142 0.216904 0.444460
vn 0.000000 -1.000000 0.000000
vn 0.000000 -1.000000 0.000000
vn 0.000000 -1.000000 0.000000
vn 0.000000 -1.000000 0.000000
vn 0.993546 0.113427 0.000000
vn 0.972204 0.234136 0.000000
vn 0.869142 0.216904 0.444460
vn 0.885638 0.104713 0.452417
vn 0.000000 -1.000000 0.000000
vn 0.000000 -1.000000 0.000000
vn 0.000000 -1.000000 0.000000
vn 0.774222 -0.632914 0.000000
vn 0.993546 0.113427 0.000000
vn 0.885638 0.104713 0.452417
vn 0.682564 -0.642340 0.348575
vn 0.000000 -1.000000 0.000000
vn 0.774222 -0.632914 0.000000
vn 0.682564 -0.642340 0.348575
vn -0.000000 -1.000000 0.000000
vn 0.430001 0.902829 -0.000000
vn -0.000000 1.000000 0.000000
vn 0.400446 0.889787 0.218911
vn 0.000000 -1.000000 0.000000
vn 0.000000 -1.000000 0.000000
vn -0.000000 -1.000000 0.000000
vn -0.000000 -1.000000 0.000000
vn 0.697056 0.717017 -0.000000
vn 0.430001 0.902829 -0.000000
vn 0.400446 0.889787 0.218911
vn 0.641436 0.689845 0.335668
vn 0.000000 -1.000000 0.000000
vn 0.000000 -1.000000 0.000000
vn -0.000000 -1.000000 0.000000
vn 0.000000 -1.000000 0.000000
vn 0.847795 0.530324 0.000000
vn 0.697056 0.717017 -0.000000
vn 0.641436 0.689845 0.335668
vn 0.769428 0.500602 0.396709
vn 0.000000 -1.000000 0.000000
vn 0.000000 -1.000000 0.000000
vn 0.000000 -1.000000 0.000000
vn 0.000000 -1.000000 0.000000
vn 0.928933 0.370247 0.000000
vn 0.847795 0.530324 0.000000
vn 0.769428 0.500602 0.396709
vn 0.835133 0.345351 0.428119
vn 0.869142 0.216904 0.444460
vn 0.835133 0.345351 0.428119
vn 0.637447 0.294590 0.711954
vn 0.656116 0.182663 0.732220
vn 0.000000 -1.000000 0.000000
vn 0.000000 -1.000000 0.000000
vn -0.000000 -1.000000 0.000000
vn 0.000000 -1.000000 0.000000
vn 0.885638 0.104713 0.452417
vn 0.869142 0.216904 0.444460
vn 0.656116 0.182663 0.732220
vn 0.664874 0.087625 0.741798
vn 0.000000 -1.000000 0.000000
vn 0.000000 -1.000000 0.000000
vn 0.000000 -1.000000 0.000000
vn 0.682564 -0.642340 0.348575
vn 0.885638 0.104713 0.452417
vn 0.664874 0.087625 0.741798
vn 0.502072 -0.658925 0.560126
vn -0.000000 -1.000000 0.000000
vn 0.682564 -0.642340 0.348575
vn 0.502072 -0.658925 0.560126
vn -0.000000 -1.000000 0.000000
vn 0.400446 0.889787 0.218911
vn -0.000000 1.000000 0.000000
vn 0.332123 0.858891 0.389872
vn -0.000000 -1.000000 0.000000
vn -0.000000 -1.000000 0.000000
vn -0.000000 -1.000000 0.000000
vn 0.000000 -1.000000 0.000000
vn 0.641436 0.689845 0.335668
vn 0.400446 0.889787 0.218911
vn 0.332123 0.858891 0.389872
vn 0.515565 0.628259 0.582652
vn 0.000000 -1.000000 0.000000
vn -0.000000 -1.000000 0.000000
vn 0.000000 -1.000000 0.000000
vn 0.000000 -1.000000 0.000000
vn 0.769428 0.500602 0.396709
vn 0.641436 0.689845 0.335668
vn 0.515565 0.628259 0.582652
vn 0.599037 0.437300 0.670763
vn 0.000000 -1.000000 0.000000
vn 0.000000 -1.000000 0.000000
vn 0.000000 -1.000000 0.000000
vn -0.000000 -1.000000 0.000000
vn 0.835133 0.345351 0.428119
vn 0.769428 0.500602 0.396709
vn 0.599037 0.437300 0.670763
vn 0.637447 0.294590 0.711954
vn 0.000000 -1.000000 0.000000
vn 0.000000 -1.000000 0.000000
vn -0.000000 -1.000000 0.000000
vn -0.000000 -1.000000 0.000000
vn 0.000000 -1.000000 0.000000
vn -0.000000 -1.000000 0.000000
vn 0.000000 -1.000000 0.000000
vn 0.000000 -1.000000 0.000000
vn 0.664874 0.087625 0.741798
vn 0.656116 0.182663 0.732220
vn 0.450831 0.153484 0.879315
vn 0.454963 0.073301 0.887488
vn 0.000000 -1.000000 0.000000
vn 0.000000 -1.000000 0.000000
vn 0.000000 -1.000000 0.000000
vn 0.502072 -0.658925 0.560126
vn 0.664874 0.087625 0.741798
vn 0.454963 0.073301 0.887488
vn 0.338230 -0.671006 0.659812
vn -0.000000 -1.000000 0.000000
vn 0.502072 -0.658925 0.560126
vn 0.338230 -0.671006 0.659812
vn 0.000000 -1.000000 0.000000
vn 0.332123 0.858891 0.389872
vn -0.000000 1.000000 0.000000
vn 0.250941 0.823924 0.508112
vn 0.000000 -1.000000 0.000000
vn -0.000000 -1.000000 0.000000
vn 0.000000 -1.000000 0.000000
vn 0.000000 -1.000000 0.000000
vn 0.515565 0.628259 0.582652
vn 0.332123 0.858891 0.389872
vn 0.250941 0.823924 0.508112
vn 0.375020 0.564524 0.735305
vn 0.000000 -1.000000 0.000000
vn 0.000000 -1.000000 0.000000
vn 0.000000 -1.000000 0.000000
vn -0.000000 -1.000000 0.000000
vn 0.599037 0.437300 0.670763
vn 0.515565 0.628259 0.582652
vn 0.375020 0.564524 0.735305
vn 0.422225 0.378044 0.823898
vn -0.000000 -1.000000 0.000000
vn 0.000000 -1.000000 0.000000
vn -0.000000 -1.000000 0.000000
vn -0.000000 -1.000000 0.000000
vn 0.637447 0.294590 0.711954
vn 0.599037 0.437300 0.670763
vn 0.422225 0.378044 0.823898
vn 0.441797 0.249876 0.861613
vn -0.000000 -1.000000 0.000000
vn -0.000000 -1.000000 0.000000
vn -0.000000 -1.000000 0.000000
vn 0.000000 -1.000000 0.000000
vn 0.656116 0.182663 0.732220
vn 0.637447 0.294590 0.711954
vn 0.441797 0.249876 0.861613
vn 0.450831 0.153484 0.879315
vn 0.000000 -1.000000 0.000000
vn 0.000000 -1.000000 0.000000
vn 0.000000 -1.000000 0.000000
vn 0.338230 -0.671006 0.659812
vn 0.454963 0.073301 0.887488
vn 0.281864 0.064103 0.957311
vn 0.207617 -0.677925 0.705204
vn 0.000000 -1.000000 0.000000
vn 0.338230 -0.671006 0.659812
vn 0.207617 -0.677925 0.705204
vn 0.000000 -1.000000 0.000000
vn 0.250941 0.823924 0.508112
vn -0.000000 1.000000 0.000000
vn 0.167225 0.794216 0.584172
vn 0.000000 -1.000000 0.000000
vn 0.000000 -1.000000 0.000000
vn 0.000000 -1.000000 0.000000
vn 0.000000 -1.000000 0.000000
vn 0.375020 0.564524 0.735305
vn 0.250941 0.823924 0.508112
vn 0.167225 0.794216 0.584172
vn 0.241830 0.515806 0.821865
vn -0.000000 -1.000000 0.000000
vn 0.000000 -1.000000 0.000000
vn 0.000000 -1.000000 0.000000
vn 0.000000 -1.000000 0.000000
vn 0.422225 0.378044 0.823898
vn 0.375020 0.564524 0.735305
vn 0.241830 0.515806 0.821865
vn 0.266259 0.336734 0.903170
vn -0.000000 -1.000000 0.000000
vn -0.000000 -1.000000 0.000000
vn 0.000000 -1.000000 0.000000
vn 0.000000 -1.000000 0.000000
vn 0.441797 0.249876 0.861613
vn 0.422225 0.378044 0.823898
vn 0.266259 0.336734 0.903170
vn 0.275712 0.220145 0.935692
vn 0.000000 -1.000000 0.000000
vn -0.000000 -1.000000 0.000000
vn 0.000000 -1.000000 0.000000
vn 0.000000 -1.000000 0.000000
vn 0.450831 0.153484 0.879315
vn 0.441797 0.249876 0.861613
vn 0.275712 0.220145 0.935692
vn 0.279950 0.134537 0.950541
vn 0.000000 -1.000000 0.000000
vn 0.000000 -1.000000 0.000000
vn 0.000000 -1.000000 0.000000
vn 0.000000 -1.000000 0.000000
vn 0.454963 0.073301 0.887488
vn 0.450831 0.153484 0.879315
vn 0.279950 0.134537 0.950541
vn 0.281864 0.064103 0.957311
vn 0.207617 -0.677925 0.705204
vn 0.281864 0.064103 0.957311
vn 0.134813 0.059157 0.989104
vn 0.098838 -0.681367 0.725238
vn 0.000000 -1.000000 0.000000
vn 0.207617 -0.677925 0.705204
vn 0.098838 -0.681367 0.725238
vn 0.000000 -1.000000 0.000000
vn 0.167225 0.794216 0.584172
vn -0.000000 1.000000 0.000000
vn 0.083558 0.774691 0.626795
vn 0.000000 -1.000000 0.000000
vn 0.000000 -1.000000 0.000000
vn 0.000000 -1.000000 0.000000
vn 0.000000 -1.000000 0.000000
vn 0.241830 0.515806 0.821865
vn 0.167225 0.794216 0.584172
vn 0.083558 0.774691 0.626795
vn 0.118203 0.486559 0.865615
vn 0.000000 -1.000000 0.000000
vn 0.000000 -1.000000 0.000000
vn 0.000000 -1.000000 0.000000
vn 0.000000 -1.000000 0.000000
vn 0.266259 0.336734 0.903170
vn 0.241830 0.515806 0.821865
vn 0.118203 0.486559 0.865615
vn 0.128497 0.313442 0.940873
vn 0.000000 -1.000000 0.000000
vn 0.000000 -1.000000 0.000000
vn 0.000000 -1.000000 0.000000
vn 0.000000 -1.000000 0.000000
vn 0.275712 0.220145 0.935692
vn 0.266259 0.336734 0.903170
vn 0.128497 0.313442 0.940873
vn 0.132344 0.203847 0.970016
vn 0.000000 -1.000000 0.000000
vn 0.000000 -1.000000 0.000000
vn 0.000000 -1.000000 0.000000
vn -0.000000 -1.000000 0.000000
vn 0.279950 0.134537 0.950541
vn 0.275712 0.220145 0.935692
vn 0.132344 0.203847 0.970016
vn 0.134048 0.124286 0.983150
vn 0.000000 -1.000000 0.000000
vn 0.000000 -1.000000 0.000000
vn -0.000000 -1.000000 0.000000
vn -0.000000 -1.000000 0.000000
vn 0.281864 0.064103 0.957311
vn 0.279950 0.134537 0.950541
vn 0.134048 0.124286 0.983150
vn 0.134813 0.059157 0.989104
vn 0.000000 -1.000000 0.000000
vn 0.000000 -1.000000 0.000000
vn -0.000000 -1.000000 0.000000
vn 0.000000 -1.000000 0.000000
vn 0.098838 -0.681367 0.725238
vn -0.000000 -0.682422 0.730959
vn 0.000000 -1.000000 0.000000
vn 0.083558 0.774691 0.626795
vn -0.000000 1.000000 0.000000
vn -0.000000 0.767885 0.640588
vn 0.000000 -1.000000 0.000000
vn 0.000000 -1.000000 0.000000
vn 0.000000 -1.000000 0.000000
vn 0.000000 -1.000000 0.000000
vn 0.118203 0.486559 0.865615
vn 0.083558 0.774691 0.626795
vn -0.000000 0.767885 0.640588
vn 0.000000 0.476896 0.878959
vn 0.000000 -1.000000 0.000000
vn 0.000000 -1.000000 0.000000
vn 0.000000 -1.000000 0.000000
vn 0.000000 -1.000000 0.000000
vn 0.128497 0.313442 0.940873
vn 0.118203 0.486559 0.865615
vn 0.000000 0.476896 0.878959
vn -0.000000 0.305984 0.952037
vn 0.000000 -1.000000 0.000000
vn 0.000000 -1.000000 0.000000
vn 0.000000 -1.000000 0.000000
vn 0.000000 -1.000000 0.000000
vn 0.132344 0.203847 0.970016
vn 0.128497 0.313442 0.940873
vn -0.000000 0.305984 0.952037
vn -0.000000 0.198695 0.980061
vn -0.000000 -1.000000 0.000000
vn 0.000000 -1.000000 0.000000
vn 0.000000 -1.000000 0.000000
vn -0.000000 -1.000000 0.000000
vn 0.134048 0.124286 0.983150
vn 0.132344 0.203847 0.970016
vn -0.000000 0.198695 0.980061
vn -0.000000 0.121064 0.992645
vn -0.000000 -1.000000 0.000000
vn -0.000000 -1.000000 0.000000
vn -0.000000 -1.000000 0.000000
vn 0.000000 -1.000000 0.000000
vn 0.134813 0.059157 0.989104
vn 0.134048 0.124286 0.983150
vn -0.000000 0.121064 0.992645
vn -0.000000 0.057606 0.998339
vn 0.000000 -1.000000 0.000000
vn -0.000000 -1.000000 0.000000
vn 0.000000 -1.000000 0.000000
vn 0.098838 -0.681367 0.725238
vn 0.134813 0.059157 0.989104
vn -0.000000 0.057606 0.998339
vn -0.000000 -0.682422 0.730959
vn 0.000000 -1.000000 0.000000
vn -0.000000 -0.682422 0.730959
vn -0.098838 -0.681367 0.725238
vn 0.000000 -1.000000 0.000000
vn -0.000000 0.767885 0.640588
vn -0.000000 1.000000 0.000000
vn -0.083558 0.774691 0.626795
vn 0.000000 -1.000000 0.000000
vn 0.000000 -1.000000 0.000000
vn 0.000000 -1.000000 0.000000
vn 0.000000 -1.000000 0.000000
vn 0.000000 0.476896 0.878959
vn -0.000000 0.767885 0.640588
vn -0.083558 0.774691 0.626795
vn -0.118203 0.486559 0.865615
vn 0.000000 -1.000000 0.000000
vn 0.000000 -1.000000 0.000000
vn 0.000000 -1.000000 0.000000
vn 0.000000 -1.000000 0.000000
vn -0.000000 0.305984 0.952037
vn 0.000000 0.476896 0.878959
vn -0.118203 0.486559 0.865615
vn -0.128497 0.313442 0.940873
vn 0.000000 -1.000000 0.000000
vn 0.000000 -1.000000 0.000000
vn 0.000000 -1.000000 0.000000
vn -0.000000 -1.000000 0.000000
vn -0.000000 0.198695 0.980061
vn -0.000000 0.305984 0.952037
vn -0.128497 0.313442 0.940873
vn -0.132344 0.203847 0.970016
vn -0.000000 -1.000000 0.000000
vn 0.000000 -1.000000 0.000000
vn -0.000000 -1.000000 0.000000
vn 0.000000 -1.000000 0.000000
vn -0.000000 0.121064 0.992645
vn -0.000000 0.198695 0.980061
vn -0.132344 0.203847 0.970016
vn -0.134048 0.124286 0.983150
vn 0.000000 -1.000000 0.000000
vn -0.000000 -1.000000 0.000000
vn 0.000000 -1.000000 0.000000
vn 0.000000 -1.000000 0.000000
vn -0.000000 0.057606 0.998339
vn -0.000000 0.121064 0.992645
vn -0.134048 0.124286 0.983150
vn -0.134813 0.059157 0.989104
vn 0.000000 -1.000000 0.000000
vn 0.000000 -1.000000 0.000000
vn 0.000000 -1.000000 0.000000
vn -0.000000 -0.682422 0.730959
vn -0.000000 0.057606 0.998339
vn -0.134813 0.059157 0.989104
vn -0.098838 -0.681367 0.725238
vn 0.000000 -1.000000 0.000000
vn 0.000000 -1.000000 0.000000
vn 0.000000 -1.000000 0.000000
vn 0.000000 -1.000000 0.000000
vn -0.118203 0.486559 0.865615
vn -0.083558 0.774691 0.626795
vn -0.167225 0.794216 0.584171
vn -0.241830 0.515806 0.821865
vn 0.000000 -1.000000 0.000000
vn 0.000000 -1.000000 0.000000
vn 0.000000 -1.000000 0.000000
vn 0.000000 -1.000000 0.000000
vn -0.128497 0.313442 0.940873
vn -0.118203 0.486559 0.865615
vn -0.241830 0.515806 0.821865
vn -0.266259 0.336734 0.903170
vn -0.000000 -1.000000 0.000000
vn 0.000000 -1.000000 0.000000
vn 0.000000 -1.000000 0.000000
vn -0.000000 -1.000000 0.000000
vn -0.132344 0.203847 0.970016
vn -0.128497 0.313442 0.940873
vn -0.266259 0.336734 0.903170
vn -0.275712 0.220145 0.935692
vn 0.000000 -1.000000 0.000000
vn -0.000000 -1.000000 0.000000
vn -0.000000 -1.000000 0.000000
vn -0.000000 -1.000000 0.000000
vn -0.134048 0.124286 0.983150
vn -0.132344 0.203847 0.970016
vn -0.275712 0.220145 0.935692
vn -0.279950 0.134537 0.950541
vn 0.000000 -1.000000 0.000000
vn 0.000000 -1.000000 0.000000
vn -0.000000 -1.000000 0.000000
vn 0.000000 -1.000000 0.000000
vn -0.134813 0.059157 0.989104
vn -0.134048 0.124286 0.983150
vn -0.279950 0.134537 0.950541
vn -0.281864 0.064103 0.957310
vn 0.000000 -1.000000 0.000000
vn 0.000000 -1.000000 0.000000
vn 0.000000 -1.000000 0.000000
vn -0.098838 -0.681367 0.725238
vn -0.134813 0.059157 0.989104
vn -0.281864 0.064103 0.957310
vn -0.207617 -0.677925 0.705204
vn 0.000000 -1.000000 0.000000
vn -0.098838 -0.681367 0.725238
vn -0.207617 -0.677925 0.705204
vn 0.000000 -1.000000 0.000000
vn -0.083558 0.774691 0.626795
vn -0.000000 1.000000 0.000000
vn -0.167225 0.794216 0.584171
vn -0.241830 0.515806 0.821865
vn -0.167225 0.794216 0.584171
vn -0.250941 0.823924 0.508112
vn -0.375020 0.564524 0.735305
vn 0.000000 -1.000000 0.000000
vn 0.000000 -1.000000 0.000000
vn -0.000000 -1.000000 0.000000
vn 0.000000 -1.000000 0.000000
vn -0.266259 0.336734 0.903170
vn -0.241830 0.515806 0.821865
vn -0.375020 0.564524 0.735305
vn -0.422225 0.378044 0.823898
vn -0.000000 -1.000000 0.000000
vn 0.000000 -1.000000 0.000000
vn 0.000000 -1.000000 0.000000
vn 0.000000 -1.000000 0.000000
vn -0.275712 0.220145 0.935692
vn -0.266259 0.336734 0.903170
vn -0.422225 0.378044 0.823898
vn -0.441797 0.249876 0.861613
vn -0.000000 -1.000000 0.000000
vn -0.000000 -1.000000 0.000000
vn 0.000000 -1.000000 0.000000
vn -0.000000 -1.000000 0.000000
vn -0.279950 0.134537 0.950541
vn -0.275712 0.220145 0.935692
vn -0.441797 0.249876 0.861613
vn -0.450831 0.153484 0.879315
vn 0.000000 -1.000000 0.000000
vn -0.000000 -1.000000 0.000000
vn -0.000000 -1.000000 0.000000
vn 0.000000 -1.000000 0.000000
vn -0.281864 0.064103 0.957310
vn -0.279950 0.134537 0.950541
vn -0.450831 0.153484 0.879315
vn -0.454964 0.073301 0.887488
vn 0.000000 -1.000000 0.000000
vn 0.000000 -1.000000 0.000000
vn 0.000000 -1.000000 0.000000
vn -0.207617 -0.677925 0.705204
vn -0.281864 0.064103 0.957310
vn -0.454964 0.073301 0.887488
vn -0.338230 -0.671006 0.659812
vn 0.000000 -1.000000 0.000000
vn -0.207617 -0.677925 0.705204
vn -0.338230 -0.671006 0.659812
vn 0.000000 -1.000000 0.000000
vn -0.167225 0.794216 0.584171
vn -0.000000 1.000000 0.000000
vn -0.250941 0.823924 0.508112
vn 0.000000 -1.000000 0.000000
vn 0.000000 -1.000000 0.000000
vn 0.000000 -1.000000 0.000000
vn -0.000000 -1.000000 0.000000
vn 0.000000 -1.000000 0.000000
vn -0.000000 -1.000000 0.000000
vn -0.000000 -1.000000 0.000000
vn -0.000000 -1.000000 0.000000
vn -0.422225 0.378044 0.823898
vn -0.375020 0.564524 0.735305
vn -0.515565 0.628259 0.582652
vn -0.599037 0.437301 0.670763
vn 0.000000 -1.000000 0.000000
vn 0.000000 -1.000000 0.000000
vn -0.000000 -1.000000 0.000000
vn 0.000000 -1.000000 0.000000
vn -0.441797 0.249876 0.861613
vn -0.422225 0.378044 0.823898
vn -0.599037 0.437301 0.670763
vn -0.637447 0.294590 0.711954
vn -0.000000 -1.000000 0.000000
vn 0.000000 -1.000000 0.000000
vn 0.000000 -1.000000 0.000000
vn 0.000000 -1.000000 0.000000
vn -0.450831 0.153484 0.879315
vn -0.441797 0.249876 0.861613
vn -0.637447 0.294590 0.711954
vn -0.656116 0.182663 0.732220
vn 0.000000 -1.000000 0.000000
vn -0.000000 -1.000000 0.000000
vn 0.000000 -1.000000 0.000000
vn 0.000000 -1.000000 0.000000
vn -0.454964 0.073301 0.887488
vn -0.450831 0.153484 0.879315
vn -0.656116 0.182663 0.732220
vn -0.664874 0.087625 0.741798
vn 0.000000 -1.000000 0.000000
vn 0.000000 -1.000000 0.000000
vn 0.000000 -1.000000 0.000000
vn -0.338230 -0.671006 0.659812
vn -0.454964 0.073301 0.887488
vn -0.664874 0.087625 0.741798
vn -0.502072 -0.658925 0.560126
vn 0.000000 -1.000000 0.000000
vn -0.338230 -0.671006 0.659812
vn -0.502072 -0.658925 0.560126
vn 0.000000 -1.000000 0.000000
vn -0.250941 0.823924 0.508112
vn -0.000000 1.000000 0.000000
vn -0.332124 0.858891 0.389872
vn -0.000000 -1.000000 0.000000
vn 0.000000 -1.000000 0.000000
vn 0.000000 -1.000000 0.000000
vn -0.000000 -1.000000 0.000000
vn -0.375020 0.564524 0.735305
vn -0.250941 0.823924 0.508112
vn -0.332124 0.858891 0.389872
vn -0.515565 0.628259 0.582652
vn -0.599037 0.437301 0.670763
vn -0.515565 0.628259 0.582652
vn -0.641436 0.689845 0.335668
vn -0.769428 0.500602 0.396709
vn 0.000000 -1.000000 0.000000
vn -0.000000 -1.000000 0.000000
vn -0.000000 -1.000000 0.000000
vn 0.000000 -1.000000 0.000000
vn -0.637447 0.294590 0.711954
vn -0.599037 0.437301 0.670763
vn -0.769428 0.500602 0.396709
vn -0.835133 0.345351 0.428119
vn 0.000000 -1.000000 0.000000
vn 0.000000 -1.000000 0.000000
vn 0.000000 -1.000000 0.000000
vn 0.000000 -1.000000 0.000000
vn -0.656116 0.182663 0.732220
vn -0.637447 0.294590 0.711954
vn -0.835133 0.345351 0.428119
vn -0.869142 0.216904 0.444460
vn 0.000000 -1.000000 0.000000
vn 0.000000 -1.000000 0.000000
vn 0.000000 -1.000000 0.000000
vn 0.000000 -1.000000 0.000000
vn -0.664874 0.087625 0.741798
vn -0.656116 0.182663 0.732220
vn -0.869142 0.216904 0.444460
vn -0.885638 0.104713 0.452416
vn 0.000000 -1.000000 0.000000
vn 0.000000 -1.000000 0.000000
vn 0.000000 -1.000000 0.000000
vn -0.502072 -0.658925 0.560126
vn -0.664874 0.087625 0.741798
vn -0.885638 0.104713 0.452416
vn -0.682564 -0.642341 0.348575
vn 0.000000 -1.000000 0.000000
vn -0.502072 -0.658925 0.560126
vn -0.682564 -0.642341 0.348575
vn 0.000000 -1.000000 0.000000
vn -0.332124 0.858891 0.389872
vn -0.000000 1.000000 0.000000
vn -0.400446 0.889787 0.218911
vn -0.000000 -1.000000 0.000000
vn 0.000000 -1.000000 0.000000
vn 0.000000 -1.000000 0.000000
vn 0.000000 -1.000000 0.000000
vn -0.515565 0.628259 0.582652
vn -0.332124 0.858891 0.389872
vn -0.400446 0.889787 0.218911
vn -0.641436 0.689845 0.335668
vn -0.000000 -1.000000 0.000000
vn -0.000000 -1.000000 0.000000
vn 0.000000 -1.000000 0.000000
vn -0.000000 -1.000000 0.000000
vn 0.000000 -1.000000 0.000000
vn -0.000000 -1.000000 0.000000
vn 0.000000 -1.000000 0.000000
vn 0.000000 -1.000000 0.000000
vn -0.835133 0.345351 0.428119
vn -0.769428 0.500602 0.396709
vn -0.847795 0.530324 -0.000000
vn -0.928933 0.370247 -0.000000
vn 0.000000 -1.000000 0.000000
vn 0.000000 -1.000000 0.000000
vn 0.000000 -1.000000 0.000000
vn 0.000000 -1.000000 0.000000
vn -0.869142 0.216904 0.444460
vn -0.835133 0.345351 0.428119
vn -0.928933 0.370247 -0.000000
vn -0.972204 0.234136 -0.000000
vn 0.000000 -1.000000 0.000000
vn 0.000000 -1.000000 0.000000
vn 0.000000 -1.000000 0.000000
vn 0.000000 -1.000000 0.000000
vn -0.885638 0.104713 0.452416
vn -0.869142 0.216904 0.444460
vn -0.972204 0.234136 -0.000000
vn -0.993546 0.113427 -0.000000
vn 0.000000 -1.000000 0.000000
vn 0.000000 -1.000000 0.000000
vn 0.000000 -1.000000 0.000000
vn -0.682564 -0.642341 0.348575
vn -0.885638 0.104713 0.452416
vn -0.993546 0.113427 -0.000000
vn -0.774223 -0.632914 -0.000000
vn 0.000000 -1.000000 0.000000
vn -0.682564 -0.642341 0.348575
vn -0.774223 -0.632914 -0.000000
vn 0.000000 -1.000000 0.000000
vn -0.400446 0.889787 0.218911
vn -0.000000 1.000000 0.000000
vn -0.430001 0.902828 -0.000000
vn 0.000000 -1.000000 0.000000
vn 0.000000 -1.000000 0.000000
vn 0.000000 -1.000000 0.000000
vn 0.000000 -1.000000 0.000000
vn -0.641436 0.689845 0.335668
vn -0.400446 0.889787 0.218911
vn -0.430001 0.902828 -0.000000
vn -0.697056 0.717017 -0.000000
vn -0.000000 -1.000000 0.000000
vn 0.000000 -1.000000 0.000000
vn 0.000000 -1.000000 0.000000
vn 0.000000 -1.000000 0.000000
vn -0.769428 0.500602 0.396709
vn -0.641436 0.689845 0.335668
vn -0.697056 0.717017 -0.000000
vn -0.847795 0.530324 -0.000000
vn 0.000000 -1.000000 0.000000
vn 0.000000 -1.000000 0.000000
vn -0.000000 -1.000000 0.000000
vn 0.000000 -1.000000 0.000000
vn -0.972204 0.234136 -0.000000
vn -0.928933 0.370247 -0.000000
vn -0.835132 0.345351 -0.428120
vn -0.869142 0.216904 -0.444461
vn 0.000000 -1.000000 0.000000
vn 0.000000 -1.000000 0.000000
vn 0.000000 -1.000000 0.000000
vn 0.000000 -1.000000 0.000000
vn -0.993546 0.113427 -0.000000
vn -0.972204 0.234136 -0.000000
vn -0.869142 0.216904 -0.444461
vn -0.885638 0.104712 -0.452417
vn 0.000000 -1.000000 0.000000
vn 0.000000 -1.000000 0.000000
vn 0.000000 -1.000000 0.000000
vn -0.774223 -0.632914 -0.000000
vn -0.993546 0.113427 -0.000000
vn -0.885638 0.104712 -0.452417
vn -0.682564 -0.642341 -0.348575
vn 0.000000 -1.000000 0.000000
vn -0.774223 -0.632914 -0.000000
vn -0.682564 -0.642341 -0.348575
vn -0.000000 -1.000000 0.000000
vn -0.430001 0.902828 -0.000000
vn -0.000000 1.000000 0.000000
vn -0.400446 0.889787 -0.218911
vn 0.000000 -1.000000 0.000000
vn 0.000000 -1.000000 0.000000
vn -0.000000 -1.000000 0.000000
vn -0.000000 -1.000000 0.000000
vn -0.697056 0.717017 -0.000000
vn -0.430001 0.902828 -0.000000
vn -0.400446 0.889787 -0.218911
vn -0.641436 0.689845 -0.335668
vn 0.000000 -1.000000 0.000000
vn 0.000000 -1.000000 0.000000
vn -0.000000 -1.000000 0.000000
vn -0.000000 -1.000000 0.000000
vn -0.847795 0.530324 -0.000000
vn -0.697056 0.717017 -0.000000
vn -0.641436 0.689845 -0.335668
vn -0.769428 0.500602 -0.396709
vn 0.000000 -1.000000 0.000000
vn 0.000000 -1.000000 0.000000
vn -0.000000 -1.000000 0.000000
vn -0.000000 -1.000000 0.000000
vn -0.928933 0.370247 -0.000000
vn -0.847795 0.530324 -0.000000
vn -0.769428 0.500602 -0.396709
vn -0.835132 0.345351 -0.428120
vn -0.869142 0.216904 -0.444461
vn -0.835132 0.345351 -0.428120
vn -0.637447 0.294590 -0.711954
vn -0.656116 0.182663 -0.732220
vn 0.000000 -1.000000 0.000000
vn 0.000000 -1.000000 0.000000
vn -0.000000 -1.000000 0.000000
vn -0.000000 -1.000000 0.000000
vn -0.885638 0.104712 -0.452417
vn -0.869142 0.216904 -0.444461
vn -0.656116 0.182663 -0.732220
vn -0.664874 0.087625 -0.741798
vn 0.000000 -1.000000 0.000000
vn 0.000000 -1.000000 0.000000
vn -0.000000 -1.000000 0.000000
vn -0.682564 -0.642341 -0.348575
vn -0.885638 0.104712 -0.452417
vn -0.664874 0.087625 -0.741798
vn -0.502072 -0.658925 -0.560126
vn -0.000000 -1.000000 0.000000
vn -0.682564 -0.642341 -0.348575
vn -0.502072 -0.658925 -0.560126
vn -0.000000 -1.000000 0.000000
vn -0.400446 0.889787 -0.218911
vn -0.000000 1.000000 0.000000
vn -0.332123 0.858891 -0.389872
vn -0.000000 -1.000000 0.000000
vn -0.000000 -1.000000 0.000000
vn -0.000000 -1.000000 0.000000
vn -0.000000 -1.000000 0.000000
vn -0.641436 0.689845 -0.335668
vn -0.400446 0.889787 -0.218911
vn -0.332123 0.858891 -0.389872
vn -0.515565 0.628259 -0.582653
vn -0.000000 -1.000000 0.000000
vn -0.000000 -1.000000 0.000000
vn -0.000000 -1.000000 0.000000
vn -0.000000 -1.000000 0.000000
vn -0.769428 0.500602 -0.396709
vn -0.641436 0.689845 -0.335668
vn -0.515565 0.628259 -0.582653
vn -0.599037 0.437300 -0.670763
vn -0.000000 -1.000000 0.000000
vn -0.000000 -1.000000 0.000000
vn -0.000000 -1.000000 0.000000
vn -0.000000 -1.000000 0.000000
vn -0.835132 0.345351 -0.428120
vn -0.769428 0.500602 -0.396709
vn -0.599037 0.437300 -0.670763
vn -0.637447 0.294590 -0.711954
vn 0.000000 -1.000000 0.000000
vn -0.000000 -1.000000 0.000000
vn -0.000000 -1.000000 0.000000
vn -0.000000 -1.000000 0.000000
vn -0.000000 -1.000000 0.000000
vn -0.000000 -1.000000 0.000000
vn -0.000000 -1.000000 0.000000
vn 0.000000 -1.000000 0.000000
vn -0.664874 0.087625 -0.741798
vn -0.656116 0.182663 -0.732220
vn -0.450831 0.153484 -0.879315
vn -0.454963 0.073301 -0.887488
vn 0.000000 -1.000000 0.000000
vn -0.000000 -1.000000 0.000000
vn 0.000000 -1.000000 0.000000
vn -0.502072 -0.658925 -0.560126
vn -0.664874 0.087625 -0.741798
vn -0.454963 0.073301 -0.887488
vn -0.338230 -0.671006 -0.659812
vn -0.000000 -1.000000 0.000000
vn -0.502072 -0.658925 -0.560126
vn -0.338230 -0.671006 -0.659812
vn 0.000000 -1.000000 0.000000
vn -0.332123 0.858891 -0.389872
vn -0.000000 1.000000 0.000000
vn -0.250942 0.823924 -0.508112
vn -0.000000 -1.000000 0.000000
vn -0.000000 -1.000000 0.000000
vn 0.000000 -1.000000 0.000000
vn 0.000000 -1.000000 0.000000
vn -0.515565 0.628259 -0.582653
vn -0.332123 0.858891 -0.389872
vn -0.250942 0.823924 -0.508112
vn -0.375020 0.564524 -0.735305
vn -0.000000 -1.000000 0.000000
vn -0.000000 -1.000000 0.000000
vn 0.000000 -1.000000 0.000000
vn 0.000000 -1.000000 0.000000
vn -0.599037 0.437300 -0.670763
vn -0.515565 0.628259 -0.582653
vn -0.375020 0.564524 -0.735305
vn -0.422225 0.378044 -0.823899
vn -0.000000 -1.000000 0.000000
vn -0.000000 -1.000000 0.000000
vn 0.000000 -1.000000 0.000000
vn -0.000000 -1.000000 0.000000
vn -0.637447 0.294590 -0.711954
vn -0.599037 0.437300 -0.670763
vn -0.422225 0.378044 -0.823899
vn -0.441797 0.249875 -0.861614
vn -0.000000 -1.000000 0.000000
vn -0.000000 -1.000000 0.000000
vn -0.000000 -1.000000 0.000000
vn -0.000000 -1.000000 0.000000
vn -0.656116 0.182663 -0.732220
vn -0.637447 0.294590 -0.711954
vn -0.441797 0.249875 -0.861614
vn -0.450831 0.153484 -0.879315
vn -0.454963 0.073301 -0.887488
vn -0.450831 0.153484 -0.879315
vn -0.279950 0.134537 -0.950541
vn -0.281864 0.064103 -0.957310
vn 0.000000 -1.000000 0.000000
vn 0.000000 -1.000000 0.000000
vn 0.000000 -1.000000 0.000000
vn -0.338230 -0.671006 -0.659812
vn -0.454963 0.073301 -0.887488
vn -0.281864 0.064103 -0.957310
vn -0.207617 -0.677925 -0.705204
vn 0.000000 -1.000000 0.000000
vn -0.338230 -0.671006 -0.659812
vn -0.207617 -0.677925 -0.705204
vn 0.000000 -1.000000 0.000001
vn -0.250942 0.823924 -0.508112
vn -0.000000 1.000000 0.000000
vn -0.167225 0.794216 -0.584172
vn 0.000000 -1.000000 0.000000
vn 0.000000 -1.000000 0.000000
vn 0.000000 -1.000000 0.000001
vn 0.000000 -1.000000 0.000000
vn -0.375020 0.564524 -0.735305
vn -0.250942 0.823924 -0.508112
vn -0.167225 0.794216 -0.584172
vn -0.241830 0.515806 -0.821865
vn 0.000000 -1.000000 0.000000
vn 0.000000 -1.000000 0.000000
vn 0.000000 -1.000000 0.000000
vn 0.000000 -1.000000 0.000000
vn -0.422225 0.378044 -0.823899
vn -0.375020 0.564524 -0.735305
vn -0.241830 0.515806 -0.821865
vn -0.266259 0.336734 -0.903170
vn -0.000000 -1.000000 0.000000
vn 0.000000 -1.000000 0.000000
vn 0.000000 -1.000000 0.000000
vn 0.000000 -1.000000 0.000000
vn -0.441797 0.249875 -0.861614
vn -0.422225 0.378044 -0.823899
vn -0.266259 0.336734 -0.903170
vn -0.275712 0.220145 -0.935692
vn -0.000000 -1.000000 0.000000
vn -0.000000 -1.000000 0.000000
vn 0.000000 -1.000000 0.000000
vn 0.000000 -1.000000 0.000000
vn -0.450831 0.153484 -0.879315
vn -0.441797 0.249875 -0.861614
vn -0.275712 0.220145 -0.935692
vn -0.279950 0.134537 -0.950541
vn 0.000000 -1.000000 0.000000
vn -0.000000 -1.000000 0.000000
vn 0.000000 -1.000000 0.000000
vn 0.000000 -1.000000 0.000000
vn 0.000000 -1.000000 0.000000
vn 0.000000 -1.000000 0.000000
vn 0.000000 -1.000000 0.000000
vn -0.207617 -0.677925 -0.705204
vn -0.281864 0.064103 -0.957310
vn -0.134813 0.059157 -0.989104
vn -0.098838 -0.681368 -0.725237
vn 0.000000 -1.000000 0.000001
vn -0.207617 -0.677925 -0.705204
vn -0.098838 -0.681368 -0.725237
vn 0.000000 -1.000000 0.000001
vn -0.167225 0.794216 -0.584172
vn -0.000000 1.000000 0.000000
vn -0.083558 0.774691 -0.626795
vn 0.000000 -1.000000 0.000000
vn 0.000000 -1.000000 0.000001
vn 0.000000 -1.000000 0.000001
vn -0.000000 -1.000000 0.000000
vn -0.241830 0.515806 -0.821865
vn -0.167225 0.794216 -0.584172
vn -0.083558 0.774691 -0.626795
vn -0.118203 0.486559 -0.865614
vn 0.000000 -1.000000 0.000000
vn 0.000000 -1.000000 0.000000
vn -0.000000 -1.000000 0.000000
vn 0.000000 -1.000000 0.000000
vn -0.266259 0.336734 -0.903170
vn -0.241830 0.515806 -0.821865
vn -0.118203 0.486559 -0.865614
vn -0.128497 0.313442 -0.940873
vn 0.000000 -1.000000 0.000000
vn 0.000000 -1.000000 0.000000
vn 0.000000 -1.000000 0.000000
vn 0.000000 -1.000000 0.000000
vn -0.275712 0.220145 -0.935692
vn -0.266259 0.336734 -0.903170
vn -0.128497 0.313442 -0.940873
vn -0.132344 0.203847 -0.970016
vn 0.000000 -1.000000 0.000000
vn 0.000000 -1.000000 0.000000
vn 0.000000 -1.000000 0.000000
vn 0.000000 -1.000000 0.000000
vn -0.279950 0.134537 -0.950541
vn -0.275712 0.220145 -0.935692
vn -0.132344 0.203847 -0.970016
vn -0.134048 0.124286 -0.983150
vn 0.000000 -1.000000 0.000000
vn 0.000000 -1.000000 0.000000
vn 0.000000 -1.000000 0.000000
vn 0.000000 -1.000000 0.000000
vn -0.281864 0.064103 -0.957310
vn -0.279950 0.134537 -0.950541
vn -0.134048 0.124286 -0.983150
vn -0.134813 0.059157 -0.989104
vn 0.000000 -1.000000 0.000001
vn -0.098838 -0.681368 -0.725237
vn -0.000000 -0.682422 -0.730958
vn 0.000000 -1.000000 0.000002
vn -0.083558 0.774691 -0.626795
vn -0.000000 1.000000 0.000000
vn -0.000000 0.767885 -0.640588
vn -0.000000 -1.000000 0.000000
vn 0.000000 -1.000000 0.000001
vn 0.000000 -1.000000 0.000002
vn 0.000000 -1.000000 0.000000
vn -0.118203 0.486559 -0.865614
vn -0.083558 0.774691 -0.626795
vn -0.000000 0.767885 -0.640588
vn -0.000000 0.476897 -0.878959
vn 0.000000 -1.000000 0.000000
vn -0.000000 -1.000000 0.000000
vn 0.000000 -1.000000 0.000000
vn 0.000000 -1.000000 0.000000
vn -0.128497 0.313442 -0.940873
vn -0.118203 0.486559 -0.865614
vn -0.000000 0.476897 -0.878959
vn -0.000000 0.305984 -0.952037
vn 0.000000 -1.000000 0.000000
vn 0.000000 -1.000000 0.000000
vn 0.000000 -1.000000 0.000000
vn 0.000000 -1.000000 0.000000
vn -0.132344 0.203847 -0.970016
vn -0.128497 0.313442 -0.940873
vn -0.000000 0.305984 -0.952037
vn -0.000000 0.198694 -0.980061
vn 0.000000 -1.000000 0.000000
vn 0.000000 -1.000000 0.000000
vn 0.000000 -1.000000 0.000000
vn 0.000000 -1.000000 0.000000
vn -0.134048 0.124286 -0.983150
vn -0.132344 0.203847 -0.970016
vn -0.000000 0.198694 -0.980061
vn -0.000000 0.121064 -0.992645
vn 0.000000 -1.000000 0.000000
vn 0.000000 -1.000000 0.000000
vn 0.000000 -1.000000 0.000000
vn 0.000000 -1.000000 0.000000
vn -0.134813 0.059157 -0.989104
vn -0.134048 0.124286 -0.983150
vn -0.000000 0.121064 -0.992645
vn -0.000000 0.057606 -0.998339
vn 0.000000 -1.000000 0.000000
vn 0.000000 -1.000000 0.000000
vn 0.000000 -1.000000 0.000000
vn -0.098838 -0.681368 -0.725237
vn -0.134813 0.059157 -0.989104
vn -0.000000 0.057606 -0.998339
vn -0.000000 -0.682422 -0.730958
f 7/1/1 6/2/2 18/3/3 19/4/4
f 2/5/5 1/6/6 12/7/7
f 8/8/8 7/9/9 19/10/10 20/11/11
f 311/12/12 2/13/13 12/14/14 13/15/15
f 313/16/16 8/17/17 20/18/18 21/19/19
f 3/20/20 311/21/21 13/22/22 14/23/23
f 9/24/24 313/25/25 21/26/26 22/27/27
f 312/28/28 3/29/29 14/30/30 15/31/31
f 314/32/32 9/33/33 22/34/34 23/35/35
f 4/36/36 312/37/37 15/38/38 16/39/39
f 10/40/40 314/41/41 23/42/42 24/43/43
f 5/44/44 4/45/45 16/46/46 17/47/47
f 11/48/48 10/49/49 24/50/50
f 6/51/51 5/52/52 17/53/53 18/54/54
f 20/55/55 19/56/56 32/57/57 33/58/58
f 13/59/59 12/60/60 25/61/61 26/62/62
f 21/63/63 20/64/64 33/65/65 34/66/66
f 14/67/67 13/68/68 26/69/69 27/70/70
f 22/71/71 21/72/72 34/73/73 35/74/74
f 15/75/75 14/76/76 27/77/77 28/78/78
f 23/79/79 22/80/80 35/81/81 36/82/82
f 16/83/83 15/84/84 28/85/85 29/86/86
f 24/87/87 23/88/88 36/89/89 37/90/90
f 17/91/91 16/92/92 29/93/93 30/94/94
f 11/95/95 24/96/96 37/97/97
f 18/98/98 17/99/99 30/100/100 31/101/101
f 19/102/102 18/103/103 31/104/104 32/105/105
f 12/106/106 1/107/107 25/108/108
f 26/109/109 25/110/110 38/111/111 39/112/112
f 34/113/113 33/114/114 46/115/115 47/116/116
f 27/117/117 26/118/118 39/119/119 40/120/120
f 35/121/121 34/122/122 47/123/123 48/124/124
f 28/125/125 27/126/126 40/127/127 41/128/128
f 36/129/129 35/130/130 48/131/131 49/132/132
f 29/133/133 28/134/134 41/135/135 42/136/136
f 37/137/137 36/138/138 49/139/139 50/140/140
f 30/141/141 29/142/142 42/143/143 43/144/144
f 11/145/145 37/146/146 50/147/147
f 31/148/148 30/149/149 43/150/150 44/151/151
f 32/152/152 31/153/153 44/154/154 45/155/155
f 25/156/156 1/157/157 38/158/158
f 33/159/159 32/160/160 45/161/161 46/162/162
f 47/163/163 46/164/164 59/165/165 60/166/166
f 40/167/167 39/168/168 52/169/169 53/170/170
f 48/171/171 47/172/172 60/173/173 61/174/174
f 41/175/175 40/176/176 53/177/177 54/178/178
f 49/179/179 48/180/180 61/181/181 62/182/182
f 42/183/183 41/184/184 54/185/185 55/186/186
f 50/187/187 49/188/188 62/189/189 63/190/190
f 43/191/191 42/192/192 55/193/193 56/194/194
f 11/195/195 50/196/196 63/197/197
f 44/198/198 43/199/199 56/200/200 57/201/201
f 45/202/202 44/203/203 57/204/204 58/205/205
f 38/206/206 1/207/207 51/208/208
f 46/209/209 45/210/210 58/211/211 59/212/212
f 39/213/213 38/214/214 51/215/215 52/216/216
f 61/217/217 60/218/218 73/219/219 74/220/220
f 54/221/221 53/222/222 66/223/223 67/224/224
f 62/225/225 61/226/226 74/227/227 75/228/228
f 55/229/229 54/230/230 67/231/231 68/232/232
f 63/233/233 62/234/234 75/235/235 76/236/236
f 56/237/237 55/238/238 68/239/239 69/240/240
f 11/241/241 63/242/242 76/243/243
f 57/244/244 56/245/245 69/246/246 70/247/247
f 58/248/248 57/249/249 70/250/250 71/251/251
f 51/252/252 1/253/253 64/254/254
f 59/255/255 58/256/256 71/257/257 72/258/258
f 52/259/259 51/260/260 64/261/261 65/262/262
f 60/263/263 59/264/264 72/265/265 73/266/266
f 53/267/267 52/268/268 65/269/269 66/270/270
f 67/271/271 66/272/272 79/273/273 80/274/274
f 75/275/275 74/276/276 87/277/277 88/278/278
f 68/279/279 67/280/280 80/281/281 81/282/282
f 76/283/283 75/284/284 88/285/285 89/286/286
f 69/287/287 68/288/288 81/289/289 82/290/290
f 11/291/291 76/292/292 89/293/293
f 70/294/294 69/295/295 82/296/296 83/297/297
f 71/298/298 70/299/299 83/300/300 84/301/301
f 64/302/302 1/303/303 77/304/304
f 72/305/305 71/306/306 84/307/307 85/308/308
f 65/309/309 64/310/310 77/311/311 78/312/312
f 73/313/313 72/314/314 85/315/315 86/316/316
f 66/317/317 65/318/318 78/319/319 79/320/320
f 74/321/321 73/322/322 86/323/323 87/324/324
f 88/325/325 87/326/326 100/327/327 101/328/328
f 81/329/329 80/330/330 93/331/331 94/332/332
f 89/333/333 88/334/334 101/335/335 102/336/336
f 82/337/337 81/338/338 94/339/339 95/340/340
f 11/341/341 89/342/342 102/343/343
f 83/344/344 82/345/345 95/346/346 96/347/347
f 84/348/348 83/349/349 96/350/350 97/351/351
f 77/352/352 1/353/353 90/354/354
f 85/355/355 84/356/356 97/357/357 98/358/358
f 78/359/359 77/360/360 90/361/361 91/362/362
f 86/363/363 85/364/364 98/365/365 99/366/366
f 79/367/367 78/368/368 91/369/369 92/370/370
f 87/371/371 86/372/372 99/373/373 100/374/374
f 80/375/375 79/376/376 92/377/377 93/378/378
f 94/379/379 93/380/380 106/381/381 107/382/382
f 102/383/383 101/384/384 114/385/385 115/386/386
f 95/387/387 94/388/388 107/389/389 108/390/390
f 11/391/391 102/392/392 115/393/393
f 96/394/394 95/395/395 108/396/396 109/397/397
f 97/398/398 96/399/399 109/400/400 110/401/401
f 90/402/402 1/403/403 103/404/404
f 98/405/405 97/406/406 110/407/407 111/408/408
f 91/409/409 90/410/410 103/411/411 104/412/412
f 99/413/413 98/414/414 111/415/415 112/416/416
f 92/417/417 91/418/418 104/419/419 105/420/420
f 100/421/421 99/422/422 112/423/423 113/424/424
f 93/425/425 92/426/426 105/427/427 106/428/428
f 101/429/429 100/430/430 113/431/431 114/432/432
f 115/433/433 114/434/434 127/435/435 128/436/436
f 108/437/437 107/438/438 120/439/439 121/440/440
f 11/441/441 115/442/442 128/443/443
f 109/444/444 108/445/445 121/446/446 122/447/447
f 110/448/448 109/449/449 122/450/450 123/451/451
f 103/452/452 1/453/453 116/454/454
f 111/455/455 110/456/456 123/457/457 124/458/458
f 104/459/459 103/460/460 116/461/461 117/462/462
f 112/463/463 111/464/464 124/465/465 125/466/466
f 105/467/467 104/468/468 117/469/469 118/470/470
f 113/471/471 112/472/472 125/473/473 126/474/474
f 106/475/475 105/476/476 118/477/477 119/478/478
f 114/479/479 113/480/480 126/481/481 127/482/482
f 107/483/483 106/484/484 119/485/485 120/486/486
f 11/487/487 128/488/488 141/489/489
f 122/490/490 121/491/491 134/492/492 135/493/493
f 123/494/494 122/495/495 135/496/496 136/497/497
f 116/498/498 1/499/499 129/500/500
f 124/501/501 123/502/502 136/503/503 137/504/504
f 117/505/505 116/506/506 129/507/507 130/508/508
f 125/509/509 124/510/510 137/511/511 138/512/512
f 118/513/513 117/514/514 130/515/515 131/516/516
f 126/517/517 125/518/518 138/519/519 139/520/520
f 119/521/521 118/522/522 131/523/523 132/524/524
f 127/525/525 126/526/526 139/527/527 140/528/528
f 120/529/529 119/530/530 132/531/531 133/532/532
f 128/533/533 127/534/534 140/535/535 141/536/536
f 121/537/537 120/538/538 133/539/539 134/540/540
f 135/541/541 134/542/542 147/543/543 148/544/544
f 136/545/545 135/546/546 148/547/547 149/548/548
f 129/549/549 1/550/550 142/551/551
f 137/552/552 136/553/553 149/554/554 150/555/555
f 130/556/556 129/557/557 142/558/558 143/559/559
f 138/560/560 137/561/561 150/562/562 151/563/563
f 131/564/564 130/565/565 143/566/566 144/567/567
f 139/568/568 138/569/569 151/570/570 152/571/571
f 132/572/572 131/573/573 144/574/574 145/575/575
f 140/576/576 139/577/577 152/578/578 153/579/579
f 133/580/580 132/581/581 145/582/582 146/583/583
f 141/584/584 140/585/585 153/586/586 154/587/587
f 134/588/588 133/589/589 146/590/590 147/591/591
f 11/592/592 141/593/593 154/594/594
f 149/595/595 148/596/596 161/597/597 162/598/598
f 142/599/599 1/600/600 155/601/601
f 150/602/602 149/603/603 162/604/604 163/605/605
f 143/606/606 142/607/607 155/608/608 156/609/609
f 151/610/610 150/611/611 163/612/612 164/613/613
f 144/614/614 143/615/615 156/616/616 157/617/617
f 152/618/618 151/619/619 164/620/620 165/621/621
f 145/622/622 144/623/623 157/624/624 158/625/625
f 153/626/626 152/627/627 165/628/628 166/629/629
f 146/630/630 145/631/631 158/632/632 159/633/633
f 154/634/634 153/635/635 166/636/636 167/637/637
f 147/638/638 146/639/639 159/640/640 160/641/641
f 11/642/642 154/643/643 167/644/644
f 148/645/645 147/646/646 160/647/647 161/648/648
f 162/649/649 161/650/650 174/651/651 175/652/652
f 155/653/653 1/654/654 168/655/655
f 163/656/656 162/657/657 175/658/658 176/659/659
f 156/660/660 155/661/661 168/662/662 169/663/663
f 164/664/664 163/665/665 176/666/666 177/667/667
f 157/668/668 156/669/669 169/670/670 170/671/671
f 165/672/672 164/673/673 177/674/674 178/675/675
f 158/676/676 157/677/677 170/678/678 171/679/679
f 166/680/680 165/681/681 178/682/682 179/683/683
f 159/684/684 158/685/685 171/686/686 172/687/687
f 167/688/688 166/689/689 179/690/690 180/691/691
f 160/692/692 159/693/693 172/694/694 173/695/695
f 11/696/696 167/697/697 180/698/698
f 161/699/699 160/700/700 173/701/701 174/702/702
f 176/703/703 175/704/704 188/705/705 189/706/706
f 169/707/707 168/708/708 181/709/709 182/710/710
f 177/711/711 176/712/712 189/713/713 190/714/714
f 170/715/715 169/716/716 182/717/717 183/718/718
f 178/719/719 177/720/720 190/721/721 191/722/722
f 171/723/723 170/724/724 183/725/725 184/726/726
f 179/727/727 178/728/728 191/729/729 192/730/730
f 172/731/731 171/732/732 184/733/733 185/734/734
f 180/735/735 179/736/736 192/737/737 193/738/738
f 173/739/739 172/740/740 185/741/741 186/742/742
f 11/743/743 180/744/744 193/745/745
f 174/746/746 173/747/747 186/748/748 187/749/749
f 175/750/750 174/751/751 187/752/752 188/753/753
f 168/754/754 1/755/755 181/756/756
f 182/757/757 181/758/758 194/759/759 195/760/760
f 190/761/761 189/762/762 202/763/763 203/764/764
f 183/765/765 182/766/766 195/767/767 196/768/768
f 191/769/769 190/770/770 203/771/771 204/772/772
f 184/773/773 183/774/774 196/775/775 197/776/776
f 192/777/777 191/778/778 204/779/779 205/780/780
f 185/781/781 184/782/782 197/783/783 198/784/784
f 193/785/785 192/786/786 205/787/787 206/788/788
f 186/789/789 185/790/790 198/791/791 199/792/792
f 11/793/793 193/794/794 206/795/795
f 187/796/796 186/797/797 199/798/798 200/799/799
f 188/800/800 187/801/801 200/802/802 201/803/803
f 181/804/804 1/805/805 194/806/806
f 189/807/807 188/808/808 201/809/809 202/810/810
f 203/811/811 202/812/812 215/813/813 216/814/814
f 196/815/815 195/816/816 208/817/817 209/818/818
f 204/819/819 203/820/820 216/821/821 217/822/822
f 197/823/823 196/824/824 209/825/825 210/826/826
f 205/827/827 204/828/828 217/829/829 218/830/830
f 198/831/831 197/832/832 210/833/833 211/834/834
f 206/835/835 205/836/836 218/837/837 219/838/838
f 199/839/839 198/840/840 211/841/841 212/842/842
f 11/843/843 206/844/844 219/845/845
f 200/846/846 199/847/847 212/848/848 213/849/849
f 201/850/850 200/851/851 213/852/852 214/853/853
f 194/854/854 1/855/855 207/856/856
f 202/857/857 201/858/858 214/859/859 215/860/860
f 195/861/861 194/862/862 207/863/863 208/864/864
f 209/865/865 208/866/866 221/867/867 222/868/868
f 217/869/869 216/870/870 229/871/871 230/872/872
f 210/873/873 209/874/874 222/875/875 223/876/876
f 218/877/877 217/878/878 230/879/879 231/880/880
f 211/881/881 210/882/882 223/883/883 224/884/884
f 219/885/885 218/886/886 231/887/887 232/888/888
f 212/889/889 211/890/890 224/891/891 225/892/892
f 11/893/893 219/894/894 232/895/895
f 213/896/896 212/897/897 225/898/898 226/899/899
f 214/900/900 213/901/901 226/902/902 227/903/903
f 207/904/904 1/905/905 220/906/906
f 215/907/907 214/908/908 227/909/909 228/910/910
f 208/911/911 207/912/912 220/913/913 221/914/914
f 216/915/915 215/916/916 228/917/917 229/918/918
f 230/919/919 229/920/920 242/921/921 243/922/922
f 223/923/923 222/924/924 235/925/925 236/926/926
f 231/927/927 230/928/928 243/929/929 244/930/930
f 224/931/931 223/932/932 236/933/933 237/934/934
f 232/935/935 231/936/936 244/937/937 245/938/938
f 225/939/939 224/940/940 237/941/941 238/942/942
f 11/943/943 232/944/944 245/945/945
f 226/946/946 225/947/947 238/948/948 239/949/949
f 227/950/950 226/951/951 239/952/952 240/953/953
f 220/954/954 1/955/955 233/956/956
f 228/957/957 227/958/958 240/959/959 241/960/960
f 221/961/961 220/962/962 233/963/963 234/964/964
f 229/965/965 228/966/966 241/967/967 242/968/968
f 222/969/969 221/970/970 234/971/971 235/972/972
f 244/973/973 243/974/974 256/975/975 257/976/976
f 237/977/977 236/978/978 249/979/979 250/980/980
f 245/981/981 244/982/982 257/983/983 258/984/984
f 238/985/985 237/986/986 250/987/987 251/988/988
f 11/989/989 245/990/990 258/991/991
f 239/992/992 238/993/993 251/994/994 252/995/995
f 240/996/996 239/997/997 252/998/998 253/999/999
f 233/1000/1000 1/1001/1001 246/1002/1002
f 241/1003/1003 240/1004/1004 253/1005/1005 254/1006/1006
f 234/1007/1007 233/1008/1008 246/1009/1009 247/1010/1010
f 242/1011/1011 241/1012/1012 254/1013/1013 255/1014/1014
f 235/1015/1015 234/1016/1016 247/1017/1017 248/1018/1018
f 243/1019/1019 242/1020/1020 255/1021/1021 256/1022/1022
f 236/1023/1023 235/1024/1024 248/1025/1025 249/1026/1026
f 250/1027/1027 249/1028/1028 262/1029/1029 263/1030/1030
f 258/1031/1031 257/1032/1032 270/1033/1033 271/1034/1034
f 251/1035/1035 250/1036/1036 263/1037/1037 264/1038/1038
f 11/1039/1039 258/1040/1040 271/1041/1041
f 252/1042/1042 251/1043/1043 264/1044/1044 265/1045/1045
f 253/1046/1046 252/1047/1047 265/1048/1048 266/1049/1049
f 246/1050/1050 1/1051/1051 259/1052/1052
f 254/1053/1053 253/1054/1054 266/1055/1055 267/1056/1056
f 247/1057/1057 246/1058/1058 259/1059/1059 260/1060/1060
f 255/1061/1061 254/1062/1062 267/1063/1063 268/1064/1064
f 248/1065/1065 247/1066/1066 260/1067/1067 261/1068/1068
f 256/1069/1069 255/1070/1070 268/1071/1071 269/1072/1072
f 249/1073/1073 248/1074/1074 261/1075/1075 262/1076/1076
f 257/1077/1077 256/1078/1078 269/1079/1079 270/1080/1080
f 271/1081/1081 270/1082/1082 283/1083/1083 284/1084/1084
f 264/1085/1085 263/1086/1086 276/1087/1087 277/1088/1088
f 11/1089/1089 271/1090/1090 284/1091/1091
f 265/1092/1092 264/1093/1093 277/1094/1094 278/1095/1095
f 266/1096/1096 265/1097/1097 278/1098/1098 279/1099/1099
f 259/1100/1100 1/1101/1101 272/1102/1102
f 267/1103/1103 266/1104/1104 279/1105/1105 280/1106/1106
f 260/1107/1107 259/1108/1108 272/1109/1109 273/1110/1110
f 268/1111/1111 267/1112/1112 280/1113/1113 281/1114/1114
f 261/1115/1115 260/1116/1116 273/1117/1117 274/1118/1118
f 269/1119/1119 268/1120/1120 281/1121/1121 282/1122/1122
f 262/1123/1123 261/1124/1124 274/1125/1125 275/1126/1126
f 270/1127/1127 269/1128/1128 282/1129/1129 283/1130/1130
f 263/1131/1131 262/1132/1132 275/1133/1133 276/1134/1134
f 277/1135/1135 276/1136/1136 289/1137/1137 290/1138/1138
f 11/1139/1139 284/1140/1140 297/1141/1141
f 278/1142/1142 277/1143/1143 290/1144/1144 291/1145/1145
f 279/1146/1146 278/1147/1147 291/1148/1148 292/1149/1149
f 272/1150/1150 1/1151/1151 285/1152/1152
f 280/1153/1153 279/1154/1154 292/1155/1155 293/1156/1156
f 273/1157/1157 272/1158/1158 285/1159/1159 286/1160/1160
f 281/1161/1161 280/1162/1162 293/1163/1163 294/1164/1164
f 274/1165/1165 273/1166/1166 286/1167/1167 287/1168/1168
f 282/1169/1169 281/1170/1170 294/1171/1171 295/1172/1172
f 275/1173/1173 274/1174/1174 287/1175/1175 288/1176/1176
f 283/1177/1177 282/1178/1178 295/1179/1179 296/1180/1180
f 276/1181/1181 275/1182/1182 288/1183/1183 289/1184/1184
f 284/1185/1185 283/1186/1186 296/1187/1187 297/1188/1188
f 11/1189/1189 297/1190/1190 310/1191/1191
f 291/1192/1192 290/1193/1193 303/1194/1194 304/1195/1195
f 292/1196/1196 291/1197/1197 304/1198/1198 305/1199/1199
f 285/1200/1200 1/1201/1201 298/1202/1202
f 293/1203/1203 292/1204/1204 305/1205/1205 306/1206/1206
f 286/1207/1207 285/1208/1208 298/1209/1209 299/1210/1210
f 294/1211/1211 293/1212/1212 306/1213/1213 307/1214/1214
f 287/1215/1215 286/1216/1216 299/1217/1217 300/1218/1218
f 295/1219/1219 294/1220/1220 307/1221/1221 308/1222/1222
f 288/1223/1223 287/1224/1224 300/1225/1225 301/1226/1226
f 296/1227/1227 295/1228/1228 308/1229/1229 309/1230/1230
f 289/1231/1231 288/1232/1232 301/1233/1233 302/1234/1234
f 297/1235/1235 296/1236/1236 309/1237/1237 310/1238/1238
f 290/1239/1239 289/1240/1240 302/1241/1241 303/1242/1242
f 305/1243/1243 304/1244/1244 6/1245/1245 7/1246/1246
f 298/1247/1247 1/1248/1248 2/1249/1249
f 306/1250/1250 305/1251/1251 7/1252/1252 8/1253/1253
f 299/1254/1254 298/1255/1255 2/1256/1256 311/1257/1257
f 307/1258/1258 306/1259/1259 8/1260/1260 313/1261/1261
f 300/1262/1262 299/1263/1263 311/1264/1264 3/1265/1265
f 308/1266/1266 307/1267/1267 313/1268/1268 9/1269/1269
f 301/1270/1270 300/1271/1271 3/1272/1272 312/1273/1273
f 309/1274/1274 308/1275/1275 9/1276/1276 314/1277/1277
f 302/1278/1278 301/1279/1279 312/1280/1280 4/1281/1281
f 310/1282/1282 309/1283/1283 314/1284/1284 10/1285/1285
f 303/1286/1286 302/1287/1287 4/1288/1288 5/1289/1289
f 11/1290/1290 310/1291/1291 10/1292/1292
f 304/1293/1293 303/1294/1294 5/1295/1295 6/1296/1296
