# generated by tools/art/gen_meshes.py
v 5.953850 -35.626099 -156.473587
v 5.953850 -6.782802 -156.473602
v 13.124025 -35.626099 -140.983429
v 13.124025 -6.782802 -140.983444
v 18.372957 -35.626099 -98.663521
v 18.372957 -6.782801 -98.663528
v 20.294201 -35.626099 -40.853443
v 20.294201 -6.782801 -40.853455
v 18.372957 -35.626099 16.956625
v 18.372957 -6.782801 16.956617
v 13.124025 -35.626099 59.276539
v 13.124025 -6.782800 59.276524
v 5.953850 -35.626099 74.766701
v 5.953850 -6.782800 74.766685
v -1.216325 -35.626099 59.276539
v -1.216325 -6.782800 59.276524
v -6.465257 -35.626099 16.956625
v -6.465257 -6.782801 16.956617
v -8.386500 -35.626099 -40.853443
v -8.386500 -6.782801 -40.853455
v -6.465257 -35.626099 -98.663521
v -6.465257 -6.782801 -98.663528
v -1.216325 -35.626099 -140.983429
v -1.216325 -6.782802 -140.983444
vt 0.000000 0.000000
vt 1.000000 0.000000
vt 1.000000 0.066987
vt 0.000000 0.066987
vt 0.000000 0.066987
vt 1.000000 0.066987
vt 1.000000 0.250000
vt 0.000000 0.250000
vt 0.000000 0.250000
vt 1.000000 0.250000
vt 1.000000 0.500000
vt 0.000000 0.500000
vt 0.000000 0.500000
vt 1.000000 0.500000
vt 1.000000 0.750000
vt 0.000000 0.750000
vt 0.000000 0.750000
vt 1.000000 0.750000
vt 1.000000 0.933013
vt 0.000000 0.933013
vt 0.000000 0.933013
vt 1.000000 0.933013
vt 1.000000 1.000000
vt 0.000000 1.000000
vt 0.000000 1.000000
vt 1.000000 1.000000
vt 1.000000 0.933013
vt 0.000000 0.933013
vt 0.000000 0.933013
vt 1.000000 0.933013
vt 1.000000 0.750000
vt 0.000000 0.750000
vt 0.000000 0.750000
vt 1.000000 0.750000
vt 1.000000 0.500000
vt 0.000000 0.500000
vt 0.000000 0.500000
vt 1.000000 0.500000
vt 1.000000 0.250000
vt 0.000000 0.250000
vt 0.750000 0.066987
vt 0.500000 0.000000
vt 0.250000 0.066987
vt 0.066987 0.250000
vt 0.000000 0.500000
vt 0.066987 0.750000
vt 0.250000 0.933013
vt 0.500000 1.000000
vt 0.750000 0.933013
vt 0.933013 0.750000
vt 1.000000 0.500000
vt 0.933013 0.250000
vt 0.000000 0.250000
vt 1.000000 0.250000
vt 1.000000 0.066987
vt 0.000000 0.066987
vt 0.000000 0.066987
vt 1.000000 0.066987
vt 1.000000 0.000000
vt 0.000000 0.000000
vt 0.500000 0.000000
vt 0.750000 0.066987
vt 0.933013 0.250000
vt 1.000000 0.500000
vt 0.933013 0.750000
vt 0.750000 0.933013
vt 0.500000 1.000000
vt 0.250000 0.933013
vt 0.066987 0.750000
vt 0.000000 0.500000
vt 0.066987 0.250000
vt 0.250000 0.066987
vn 0.000000 -0.549114 -0.835748
vn 0.000000 0.549114 -0.835748
vn 0.710322 0.673947 -0.203071
vn 0.710322 -0.673948 -0.203071
vn 0.710322 -0.673948 -0.203071
vn 0.710322 0.673947 -0.203071
vn 0.714773 0.697104 -0.056089
vn 0.714773 -0.697104 -0.056089
vn 0.714773 -0.697104 -0.056089
vn 0.714773 0.697104 -0.056089
vn 0.714428 0.699708 -0.000000
vn 0.714428 -0.699709 0.000000
vn 0.714428 -0.699709 0.000000
vn 0.714428 0.699708 -0.000000
vn 0.714773 0.697104 0.056089
vn 0.714773 -0.697104 0.056089
vn 0.714773 -0.697104 0.056089
vn 0.714773 0.697104 0.056089
vn 0.710322 0.673948 0.203071
vn 0.710322 -0.673947 0.203071
vn 0.710322 -0.673947 0.203071
vn 0.710322 0.673948 0.203071
vn 0.000000 0.549114 0.835747
vn 0.000000 -0.549114 0.835748
vn 0.000000 -0.549114 0.835748
vn 0.000000 0.549114 0.835747
vn -0.710322 0.673948 0.203071
vn -0.710322 -0.673947 0.203071
vn -0.710322 -0.673947 0.203071
vn -0.710322 0.673948 0.203071
vn -0.714773 0.697104 0.056089
vn -0.714773 -0.697104 0.056089
vn -0.714773 -0.697104 0.056089
vn -0.714773 0.697104 0.056089
vn -0.714428 0.699708 -0.000000
vn -0.714428 -0.699709 0.000000
vn -0.714428 -0.699709 0.000000
vn -0.714428 0.699708 -0.000000
vn -0.714773 0.697104 -0.056089
vn -0.714773 -0.697104 -0.056089
vn 0.710322 0.673947 -0.203071
vn 0.000000 0.549114 -0.835748
vn -0.710322 0.673947 -0.203071
vn -0.714773 0.697104 -0.056089
vn -0.714428 0.699708 -0.000000
vn -0.714773 0.697104 0.056089
vn -0.710322 0.673948 0.203071
vn 0.000000 0.549114 0.835747
vn 0.710322 0.673948 0.203071
vn 0.714773 0.697104 0.056089
vn 0.714428 0.699708 -0.000000
vn 0.714773 0.697104 -0.056089
vn -0.714773 -0.697104 -0.056089
vn -0.714773 0.697104 -0.056089
vn -0.710322 0.673947 -0.203071
vn -0.710322 -0.673948 -0.203071
vn -0.710322 -0.673948 -0.203071
vn -0.710322 0.673947 -0.203071
vn 0.000000 0.549114 -0.835748
vn 0.000000 -0.549114 -0.835748
vn 0.000000 -0.549114 -0.835748
vn 0.710322 -0.673948 -0.203071
vn 0.714773 -0.697104 -0.056089
vn 0.714428 -0.699709 0.000000
vn 0.714773 -0.697104 0.056089
vn 0.710322 -0.673947 0.203071
vn 0.000000 -0.549114 0.835748
vn -0.710322 -0.673947 0.203071
vn -0.714773 -0.697104 0.056089
vn -0.714428 -0.699709 0.000000
vn -0.714773 -0.697104 -0.056089
vn -0.710322 -0.673948 -0.203071
f 1/1/1 2/2/2 4/3/3 3/4/4
f 3/5/5 4/6/6 6/7/7 5/8/8
f 5/9/9 6/10/10 8/11/11 7/12/12
f 7/13/13 8/14/14 10/15/15 9/16/16
f 9/17/17 10/18/18 12/19/19 11/20/20
f 11/21/21 12/22/22 14/23/23 13/24/24
f 13/25/25 14/26/26 16/27/27 15/28/28
f 15/29/29 16/30/30 18/31/31 17/32/32
f 17/33/33 18/34/34 20/35/35 19/36/36
f 19/37/37 20/38/38 22/39/39 21/40/40
f 4/41/41 2/42/42 24/43/43 22/44/44 20/45/45 18/46/46 16/47/47 14/48/48 12/49/49 10/50/50 8/51/51 6/52/52
f 21/53/53 22/54/54 24/55/55 23/56/56
f 23/57/57 24/58/58 2/59/59 1/60/60
f 1/61/61 3/62/62 5/63/63 7/64/64 9/65/65 11/66/66 13/67/67 15/68/68 17/69/69 19/70/70 21/71/71 23/72/72
