# generated by tools/art/gen_meshes.py
v -3207.365479 -11780.273438 5864.930176
v -3207.365479 -6035.158691 5864.929688
v -3207.365479 -11780.273438 5049.435547
v -3207.365479 -6035.158691 5049.435059
v -2709.892822 -11780.273438 5864.930176
v -2709.892822 -6035.158691 5864.929688
v -2709.892822 -11780.273438 5049.435547
v -2709.892822 -6035.158691 5049.435059
v -3207.365479 -11780.273438 4369.856445
v -3207.365479 2828.731934 4369.855957
v -3207.365479 -11780.273438 3554.362061
v -3207.365479 2828.731934 3554.361572
v -2709.892822 -11780.273438 4369.856445
v -2709.892822 2828.731934 4369.855957
v -2709.892822 -11780.273438 3554.362061
v -2709.892822 2828.731934 3554.361572
v -3207.365479 -11780.273438 2874.783447
v -3207.365479 -125.898293 2874.782959
v -3207.365479 -11780.273438 2059.288818
v -3207.365479 -125.898293 2059.288330
v -2709.892822 -11780.273438 2874.783447
v -2709.892822 -125.898293 2874.782959
v -2709.892822 -11780.273438 2059.288818
v -2709.892822 -125.898293 2059.288330
v -2295.332031 -11780.272461 5864.930176
v -2295.332031 -3080.528564 5864.929688
v -2295.332031 -11780.272461 5049.435547
v -2295.332031 -3080.528564 5049.435059
v -1797.859131 -11780.272461 5864.930176
v -1797.859131 -3080.528564 5864.929688
v -1797.859131 -11780.272461 5049.435547
v -1797.859131 -3080.528564 5049.435059
v -2295.332031 -11780.273438 4369.856445
v -2295.332031 -6035.158691 4369.856445
v -2295.332031 -11780.273438 3554.362061
v -2295.332031 -6035.158691 3554.361816
v -1797.859131 -11780.273438 4369.856445
v -1797.859131 -6035.158691 4369.856445
v -1797.859131 -11780.273438 3554.362061
v -1797.859131 -6035.158691 3554.361816
v -2295.332031 -11780.273438 2874.783447
v -2295.332031 2828.731934 2874.782715
v -2295.332031 -11780.273438 2059.288818
v -2295.332031 2828.731934 2059.288086
v -1797.859131 -11780.273438 2874.783447
v -1797.859131 2828.731934 2874.782715
v -1797.859131 -11780.273438 2059.288818
v -1797.859131 2828.731934 2059.288086
v -1383.298584 -11780.273438 5864.930176
v -1383.298584 -125.898293 5864.929688
v -1383.298584 -11780.273438 5049.435547
v -1383.298584 -125.898293 5049.435059
v -885.825806 -11780.273438 5864.930176
v -885.825806 -125.898293 5864.929688
v -885.825806 -11780.273438 5049.435547
v -885.825806 -125.898293 5049.435059
v -1383.298584 -11780.272461 4369.856445
v -1383.298584 -3080.528564 4369.856445
v -1383.298584 -11780.272461 3554.362061
v -1383.298584 -3080.528809 3554.361816
v -885.825806 -11780.272461 4369.856445
v -885.825806 -3080.528564 4369.856445
v -885.825806 -11780.272461 3554.362061
v -885.825806 -3080.528809 3554.361816
v -1383.298584 -11780.273438 2874.783447
v -1383.298584 -6035.158691 2874.783203
v -1383.298584 -11780.273438 2059.288818
v -1383.298584 -6035.158691 2059.288574
v -885.825806 -11780.273438 2874.783447
v -885.825806 -6035.158691 2874.783203
v -885.825806 -11780.273438 2059.288818
v -885.825806 -6035.158691 2059.288574
v -471.265106 -11780.273438 5864.930176
v -471.265106 2828.731934 5864.929688
v -471.265106 -11780.273438 5049.435547
v -471.265106 2828.731934 5049.435059
v 26.207663 -11780.273438 5864.930176
v 26.207663 2828.731934 5864.929688
v 26.207663 -11780.273438 5049.435547
v 26.207663 2828.731934 5049.435059
v -471.265106 -11780.273438 4369.856445
v -471.265106 -125.898293 4369.855957
v -471.265106 -11780.273438 3554.362061
v -471.265106 -125.898293 3554.361572
v 26.207663 -11780.273438 4369.856445
v 26.207663 -125.898293 4369.855957
v 26.207663 -11780.273438 3554.362061
v 26.207663 -125.898293 3554.361572
v -471.265106 -11780.272461 2874.783447
v -471.265106 -3080.528809 2874.782959
v -471.265106 -11780.272461 2059.288818
v -471.265106 -3080.528809 2059.288330
v 26.207663 -11780.272461 2874.783447
v 26.207663 -3080.528809 2874.782959
v 26.207663 -11780.272461 2059.288818
v 26.207663 -3080.528809 2059.288330
v 440.768280 -11780.273438 5864.930176
v 440.768280 -6035.158691 5864.929688
v 440.768280 -11780.273438 5049.435547
v 440.768280 -6035.158691 5049.435059
v 938.241150 -11780.273438 5864.930176
v 938.241150 -6035.158691 5864.929688
v 938.241150 -11780.273438 5049.435547
v 938.241150 -6035.158691 5049.435059
v 440.768280 -11780.273438 4369.856445
v 440.768280 2828.731934 4369.855957
v 440.768280 -11780.273438 3554.362061
v 440.768280 2828.731934 3554.361572
v 938.241150 -11780.273438 4369.856445
v 938.241150 2828.731934 4369.855957
v 938.241150 -11780.273438 3554.362061
v 938.241150 2828.731934 3554.361572
v 440.768280 -11780.273438 2874.783447
v 440.768280 -125.898293 2874.782959
v 440.768280 -11780.273438 2059.288818
v 440.768280 -125.898293 2059.288330
v 938.241150 -11780.273438 2874.783447
v 938.241150 -125.898293 2874.782959
v 938.241150 -11780.273438 2059.288818
v 938.241150 -125.898293 2059.288330
v 1352.802002 -11780.272461 5864.930176
v 1352.802002 -3080.528564 5864.929688
v 1352.802002 -11780.272461 5049.435547
v 1352.802002 -3080.528564 5049.435059
v 1850.274658 -11780.272461 5864.930176
v 1850.274658 -3080.528564 5864.929688
v 1850.274658 -11780.272461 5049.435547
v 1850.274658 -3080.528564 5049.435059
v 1352.802002 -11780.273438 4369.856445
v 1352.802002 -6035.158691 4369.856445
v 1352.802002 -11780.273438 3554.362061
v 1352.802002 -6035.158691 3554.361816
v 1850.274658 -11780.273438 4369.856445
v 1850.274658 -6035.158691 4369.856445
v 1850.274658 -11780.273438 3554.362061
v 1850.274658 -6035.158691 3554.361816
v 1352.802002 -11780.273438 2874.783447
v 1352.802002 2828.731934 2874.782715
v 1352.802002 -11780.273438 2059.288818
v 1352.802002 2828.731934 2059.288086
v 1850.274658 -11780.273438 2874.783447
v 1850.274658 2828.731934 2874.782715
v 1850.274658 -11780.273438 2059.288818
v 1850.274658 2828.731934 2059.288086
vt 0.000000 1.000000
vt 0.393258 1.000000
vt 0.393258 0.785714
vt 0.000000 0.785714
vt 0.000000 0.000000
vt 0.000000 0.393258
vt 0.098361 0.393258
vt 0.098361 0.000000
vt 0.000000 0.785714
vt 0.393258 0.785714
vt 0.393258 1.000000
vt 0.000000 1.000000
vt 0.098361 0.000000
vt 0.098361 0.393258
vt 0.000000 0.393258
vt 0.000000 0.000000
vt 0.000000 0.785714
vt 0.098361 0.785714
vt 0.098361 1.000000
vt 0.000000 1.000000
vt 0.098361 0.785714
vt 0.000000 0.785714
vt 0.000000 1.000000
vt 0.098361 1.000000
vt 0.000000 0.607143
vt 1.000000 0.607143
vt 1.000000 0.392857
vt 0.000000 0.392857
vt 0.000000 0.000000
vt 0.000000 1.000000
vt 0.098361 1.000000
vt 0.098361 0.000000
vt 0.000000 0.392857
vt 1.000000 0.392857
vt 1.000000 0.607143
vt 0.000000 0.607143
vt 0.098361 0.000000
vt 0.098361 1.000000
vt 0.000000 1.000000
vt 0.000000 0.000000
vt 0.000000 0.392857
vt 0.098361 0.392857
vt 0.098361 0.607143
vt 0.000000 0.607143
vt 0.098361 0.392857
vt 0.000000 0.392857
vt 0.000000 0.607143
vt 0.098361 0.607143
vt 0.000000 0.214286
vt 0.797753 0.214286
vt 0.797753 0.000000
vt 0.000000 0.000000
vt 0.000000 0.000000
vt 0.000000 0.797753
vt 0.098361 0.797753
vt 0.098361 0.000000
vt 0.000000 0.000000
vt 0.797753 0.000000
vt 0.797753 0.214286
vt 0.000000 0.214286
vt 0.098361 0.000000
vt 0.098361 0.797753
vt 0.000000 0.797753
vt 0.000000 0.000000
vt 0.000000 0.000000
vt 0.098361 0.000000
vt 0.098361 0.214286
vt 0.000000 0.214286
vt 0.098361 0.000000
vt 0.000000 0.000000
vt 0.000000 0.214286
vt 0.098361 0.214286
vt 0.000000 1.000000
vt 0.595506 1.000000
vt 0.595506 0.785714
vt 0.000000 0.785714
vt 0.180328 0.000000
vt 0.180328 0.595506
vt 0.278689 0.595506
vt 0.278689 0.000000
vt 0.000000 0.785714
vt 0.595506 0.785714
vt 0.595506 1.000000
vt 0.000000 1.000000
vt 0.278689 0.000000
vt 0.278689 0.595506
vt 0.180328 0.595506
vt 0.180328 0.000000
vt 0.180328 0.785714
vt 0.278689 0.785714
vt 0.278689 1.000000
vt 0.180328 1.000000
vt 0.278689 0.785714
vt 0.180328 0.785714
vt 0.180328 1.000000
vt 0.278689 1.000000
vt 0.000000 0.607143
vt 0.393258 0.607143
vt 0.393258 0.392857
vt 0.000000 0.392857
vt 0.180328 0.000000
vt 0.180328 0.393258
vt 0.278689 0.393258
vt 0.278689 0.000000
vt 0.000000 0.392857
vt 0.393258 0.392857
vt 0.393258 0.607143
vt 0.000000 0.607143
vt 0.278689 0.000000
vt 0.278689 0.393258
vt 0.180328 0.393258
vt 0.180328 0.000000
vt 0.180328 0.392857
vt 0.278689 0.392857
vt 0.278689 0.607143
vt 0.180328 0.607143
vt 0.278689 0.392857
vt 0.180328 0.392857
vt 0.180328 0.607143
vt 0.278689 0.607143
vt 0.000000 0.214286
vt 1.000000 0.214286
vt 1.000000 0.000000
vt 0.000000 0.000000
vt 0.180328 0.000000
vt 0.180328 1.000000
vt 0.278689 1.000000
vt 0.278689 0.000000
vt 0.000000 0.000000
vt 1.000000 0.000000
vt 1.000000 0.214286
vt 0.000000 0.214286
vt 0.278689 0.000000
vt 0.278689 1.000000
vt 0.180328 1.000000
vt 0.180328 0.000000
vt 0.180328 0.000000
vt 0.278689 0.000000
vt 0.278689 0.214286
vt 0.180328 0.214286
vt 0.278689 0.000000
vt 0.180328 0.000000
vt 0.180328 0.214286
vt 0.278689 0.214286
vt 0.000000 1.000000
vt 0.797753 1.000000
vt 0.797753 0.785714
vt 0.000000 0.785714
vt 0.360656 0.000000
vt 0.360656 0.797753
vt 0.459016 0.797753
vt 0.459016 0.000000
vt 0.000000 0.785714
vt 0.797753 0.785714
vt 0.797753 1.000000
vt 0.000000 1.000000
vt 0.459016 0.000000
vt 0.459016 0.797753
vt 0.360656 0.797753
vt 0.360656 0.000000
vt 0.360656 0.785714
vt 0.459016 0.785714
vt 0.459016 1.000000
vt 0.360656 1.000000
vt 0.459016 0.785714
vt 0.360656 0.785714
vt 0.360656 1.000000
vt 0.459016 1.000000
vt 0.000000 0.607143
vt 0.595506 0.607143
vt 0.595506 0.392857
vt 0.000000 0.392857
vt 0.360656 0.000000
vt 0.360656 0.595506
vt 0.459016 0.595506
vt 0.459016 0.000000
vt 0.000000 0.392857
vt 0.595506 0.392857
vt 0.595506 0.607143
vt 0.000000 0.607143
vt 0.459016 0.000000
vt 0.459016 0.595506
vt 0.360656 0.595506
vt 0.360656 0.000000
vt 0.360656 0.392857
vt 0.459016 0.392857
vt 0.459016 0.607143
vt 0.360656 0.607143
vt 0.459016 0.392857
vt 0.360656 0.392857
vt 0.360656 0.607143
vt 0.459016 0.607143
vt 0.000000 0.214286
vt 0.393258 0.214286
vt 0.393258 0.000000
vt 0.000000 0.000000
vt 0.360656 0.000000
vt 0.360656 0.393258
vt 0.459016 0.393258
vt 0.459016 0.000000
vt 0.000000 0.000000
vt 0.393258 0.000000
vt 0.393258 0.214286
vt 0.000000 0.214286
vt 0.459016 0.000000
vt 0.459016 0.393258
vt 0.360656 0.393258
vt 0.360656 0.000000
vt 0.360656 0.000000
vt 0.459016 0.000000
vt 0.459016 0.214286
vt 0.360656 0.214286
vt 0.459016 0.000000
vt 0.360656 0.000000
vt 0.360656 0.214286
vt 0.459016 0.214286
vt 0.000000 1.000000
vt 1.000000 1.000000
vt 1.000000 0.785714
vt 0.000000 0.785714
vt 0.540984 0.000000
vt 0.540984 1.000000
vt 0.639344 1.000000
vt 0.639344 0.000000
vt 0.000000 0.785714
vt 1.000000 0.785714
vt 1.000000 1.000000
vt 0.000000 1.000000
vt 0.639344 0.000000
vt 0.639344 1.000000
vt 0.540984 1.000000
vt 0.540984 0.000000
vt 0.540984 0.785714
vt 0.639344 0.785714
vt 0.639344 1.000000
vt 0.540984 1.000000
vt 0.639344 0.785714
vt 0.540984 0.785714
vt 0.540984 1.000000
vt 0.639344 1.000000
vt 0.000000 0.607143
vt 0.797753 0.607143
vt 0.797753 0.392857
vt 0.000000 0.392857
vt 0.540984 0.000000
vt 0.540984 0.797753
vt 0.639344 0.797753
vt 0.639344 0.000000
vt 0.000000 0.392857
vt 0.797753 0.392857
vt 0.797753 0.607143
vt 0.000000 0.607143
vt 0.639344 0.000000
vt 0.639344 0.797753
vt 0.540984 0.797753
vt 0.540984 0.000000
vt 0.540984 0.392857
vt 0.639344 0.392857
vt 0.639344 0.607143
vt 0.540984 0.607143
vt 0.639344 0.392857
vt 0.540984 0.392857
vt 0.540984 0.607143
vt 0.639344 0.607143
vt 0.000000 0.214286
vt 0.595506 0.214286
vt 0.595506 0.000000
vt 0.000000 0.000000
vt 0.540984 0.000000
vt 0.540984 0.595506
vt 0.639344 0.595506
vt 0.639344 0.000000
vt 0.000000 0.000000
vt 0.595506 0.000000
vt 0.595506 0.214286
vt 0.000000 0.214286
vt 0.639344 0.000000
vt 0.639344 0.595506
vt 0.540984 0.595506
vt 0.540984 0.000000
vt 0.540984 0.000000
vt 0.639344 0.000000
vt 0.639344 0.214286
vt 0.540984 0.214286
vt 0.639344 0.000000
vt 0.540984 0.000000
vt 0.540984 0.214286
vt 0.639344 0.214286
vt 0.000000 1.000000
vt 0.393258 1.000000
vt 0.393258 0.785714
vt 0.000000 0.785714
vt 0.721311 0.000000
vt 0.721311 0.393258
vt 0.819672 0.393258
vt 0.819672 0.000000
vt 0.000000 0.785714
vt 0.393258 0.785714
vt 0.393258 1.000000
vt 0.000000 1.000000
vt 0.819672 0.000000
vt 0.819672 0.393258
vt 0.721311 0.393258
vt 0.721311 0.000000
vt 0.721311 0.785714
vt 0.819672 0.785714
vt 0.819672 1.000000
vt 0.721311 1.000000
vt 0.819672 0.785714
vt 0.721311 0.785714
vt 0.721311 1.000000
vt 0.819672 1.000000
vt 0.000000 0.607143
vt 1.000000 0.607143
vt 1.000000 0.392857
vt 0.000000 0.392857
vt 0.721311 0.000000
vt 0.721311 1.000000
vt 0.819672 1.000000
vt 0.819672 0.000000
vt 0.000000 0.392857
vt 1.000000 0.392857
vt 1.000000 0.607143
vt 0.000000 0.607143
vt 0.819672 0.000000
vt 0.819672 1.000000
vt 0.721311 1.000000
vt 0.721311 0.000000
vt 0.721311 0.392857
vt 0.819672 0.392857
vt 0.819672 0.607143
vt 0.721311 0.607143
vt 0.819672 0.392857
vt 0.721311 0.392857
vt 0.721311 0.607143
vt 0.819672 0.607143
vt 0.000000 0.214286
vt 0.797753 0.214286
vt 0.797753 0.000000
vt 0.000000 0.000000
vt 0.721311 0.000000
vt 0.721311 0.797753
vt 0.819672 0.797753
vt 0.819672 0.000000
vt 0.000000 0.000000
vt 0.797753 0.000000
vt 0.797753 0.214286
vt 0.000000 0.214286
vt 0.819672 0.000000
vt 0.819672 0.797753
vt 0.721311 0.797753
vt 0.721311 0.000000
vt 0.721311 0.000000
vt 0.819672 0.000000
vt 0.819672 0.214286
vt 0.721311 0.214286
vt 0.819672 0.000000
vt 0.721311 0.000000
vt 0.721311 0.214286
vt 0.819672 0.214286
vt 0.000000 1.000000
vt 0.595506 1.000000
vt 0.595506 0.785714
vt 0.000000 0.785714
vt 0.901639 0.000000
vt 0.901639 0.595506
vt 1.000000 0.595506
vt 1.000000 0.000000
vt 0.000000 0.785714
vt 0.595506 0.785714
vt 0.595506 1.000000
vt 0.000000 1.000000
vt 1.000000 0.000000
vt 1.000000 0.595506
vt 0.901639 0.595506
vt 0.901639 0.000000
vt 0.901639 0.785714
vt 1.000000 0.785714
vt 1.000000 1.000000
vt 0.901639 1.000000
vt 1.000000 0.785714
vt 0.901639 0.785714
vt 0.901639 1.000000
vt 1.000000 1.000000
vt 0.000000 0.607143
vt 0.393258 0.607143
vt 0.393258 0.392857
vt 0.000000 0.392857
vt 0.901639 0.000000
vt 0.901639 0.393258
vt 1.000000 0.393258
vt 1.000000 0.000000
vt 0.000000 0.392857
vt 0.393258 0.392857
vt 0.393258 0.607143
vt 0.000000 0.607143
vt 1.000000 0.000000
vt 1.000000 0.393258
vt 0.901639 0.393258
vt 0.901639 0.000000
vt 0.901639 0.392857
vt 1.000000 0.392857
vt 1.000000 0.607143
vt 0.901639 0.607143
vt 1.000000 0.392857
vt 0.901639 0.392857
vt 0.901639 0.607143
vt 1.000000 0.607143
vt 0.000000 0.214286
vt 1.000000 0.214286
vt 1.000000 0.000000
vt 0.000000 0.000000
vt 0.901639 0.000000
vt 0.901639 1.000000
vt 1.000000 1.000000
vt 1.000000 0.000000
vt 0.000000 0.000000
vt 1.000000 0.000000
vt 1.000000 0.214286
vt 0.000000 0.214286
vt 1.000000 0.000000
vt 1.000000 1.000000
vt 0.901639 1.000000
vt 0.901639 0.000000
vt 0.901639 0.000000
vt 1.000000 0.000000
vt 1.000000 0.214286
vt 0.901639 0.214286
vt 1.000000 0.000000
vt 0.901639 0.000000
vt 0.901639 0.214286
vt 1.000000 0.214286
vn -1.000000 0.000000 0.000000
vn -1.000000 0.000000 0.000000
vn -1.000000 0.000000 0.000000
vn -1.000000 0.000000 0.000000
vn 0.000000 -0.000000 -1.000000
vn 0.000000 -0.000000 -1.000000
vn 0.000000 -0.000000 -1.000000
vn 0.000000 -0.000000 -1.000000
vn 1.000000 0.000000 0.000000
vn 1.000000 0.000000 0.000000
vn 1.000000 0.000000 0.000000
vn 1.000000 0.000000 0.000000
vn 0.000000 0.000000 1.000000
vn 0.000000 0.000000 1.000000
vn 0.000000 0.000000 1.000000
vn 0.000000 0.000000 1.000000
vn 0.000000 -1.000000 -0.000000
vn 0.000000 -1.000000 -0.000000
vn 0.000000 -1.000000 -0.000000
vn 0.000000 -1.000000 -0.000000
vn 0.000000 1.000000 0.000000
vn 0.000000 1.000000 0.000000
vn 0.000000 1.000000 0.000000
vn 0.000000 1.000000 0.000000
vn -1.000000 0.000000 0.000000
vn -1.000000 0.000000 0.000000
vn -1.000000 0.000000 0.000000
vn -1.000000 0.000000 0.000000
vn 0.000000 -0.000000 -1.000000
vn 0.000000 -0.000000 -1.000000
vn 0.000000 -0.000000 -1.000000
vn 0.000000 -0.000000 -1.000000
vn 1.000000 0.000000 0.000000
vn 1.000000 0.000000 0.000000
vn 1.000000 0.000000 0.000000
vn 1.000000 0.000000 0.000000
vn 0.000000 0.000000 1.000000
vn 0.000000 0.000000 1.000000
vn 0.000000 0.000000 1.000000
vn 0.000000 0.000000 1.000000
vn 0.000000 -1.000000 -0.000000
vn 0.000000 -1.000000 -0.000000
vn 0.000000 -1.000000 -0.000000
vn 0.000000 -1.000000 -0.000000
vn 0.000000 1.000000 0.000000
vn 0.000000 1.000000 0.000000
vn 0.000000 1.000000 0.000000
vn 0.000000 1.000000 0.000000
vn -1.000000 0.000000 0.000000
vn -1.000000 0.000000 0.000000
vn -1.000000 0.000000 0.000000
vn -1.000000 0.000000 0.000000
vn 0.000000 -0.000000 -1.000000
vn 0.000000 -0.000000 -1.000000
vn 0.000000 -0.000000 -1.000000
vn 0.000000 -0.000000 -1.000000
vn 1.000000 0.000000 0.000000
vn 1.000000 0.000000 0.000000
vn 1.000000 0.000000 0.000000
vn 1.000000 0.000000 0.000000
vn 0.000000 0.000000 1.000000
vn 0.000000 0.000000 1.000000
vn 0.000000 0.000000 1.000000
vn 0.000000 0.000000 1.000000
vn 0.000000 -1.000000 -0.000000
vn 0.000000 -1.000000 -0.000000
vn 0.000000 -1.000000 -0.000000
vn 0.000000 -1.000000 -0.000000
vn 0.000000 1.000000 0.000000
vn 0.000000 1.000000 0.000000
vn 0.000000 1.000000 0.000000
vn 0.000000 1.000000 0.000000
vn -1.000000 0.000000 0.000000
vn -1.000000 0.000000 0.000000
vn -1.000000 0.000000 0.000000
vn -1.000000 0.000000 0.000000
vn 0.000000 -0.000000 -1.000000
vn 0.000000 -0.000000 -1.000000
vn 0.000000 -0.000000 -1.000000
vn 0.000000 -0.000000 -1.000000
vn 1.000000 0.000000 0.000000
vn 1.000000 0.000000 0.000000
vn 1.000000 0.000000 0.000000
vn 1.000000 0.000000 0.000000
vn 0.000000 0.000000 1.000000
vn 0.000000 0.000000 1.000000
vn 0.000000 0.000000 1.000000
vn 0.000000 0.000000 1.000000
vn 0.000000 -1.000000 -0.000000
vn 0.000000 -1.000000 -0.000000
vn 0.000000 -1.000000 -0.000000
vn 0.000000 -1.000000 -0.000000
vn 0.000000 1.000000 0.000000
vn 0.000000 1.000000 0.000000
vn 0.000000 1.000000 0.000000
vn 0.000000 1.000000 0.000000
vn -1.000000 0.000000 0.000000
vn -1.000000 0.000000 0.000000
vn -1.000000 0.000000 0.000000
vn -1.000000 0.000000 0.000000
vn 0.000000 -0.000000 -1.000000
vn 0.000000 -0.000000 -1.000000
vn 0.000000 -0.000000 -1.000000
vn 0.000000 -0.000000 -1.000000
vn 1.000000 0.000000 0.000000
vn 1.000000 0.000000 0.000000
vn 1.000000 0.000000 0.000000
vn 1.000000 0.000000 0.000000
vn -0.000000 0.000000 1.000000
vn -0.000000 0.000000 1.000000
vn -0.000000 0.000000 1.000000
vn -0.000000 0.000000 1.000000
vn 0.000000 -1.000000 -0.000000
vn 0.000000 -1.000000 -0.000000
vn 0.000000 -1.000000 -0.000000
vn 0.000000 -1.000000 -0.000000
vn 0.000000 1.000000 0.000000
vn 0.000000 1.000000 0.000000
vn 0.000000 1.000000 0.000000
vn 0.000000 1.000000 0.000000
vn -1.000000 0.000000 0.000000
vn -1.000000 0.000000 0.000000
vn -1.000000 0.000000 0.000000
vn -1.000000 0.000000 0.000000
vn 0.000000 -0.000000 -1.000000
vn 0.000000 -0.000000 -1.000000
vn 0.000000 -0.000000 -1.000000
vn 0.000000 -0.000000 -1.000000
vn 1.000000 0.000000 0.000000
vn 1.000000 0.000000 0.000000
vn 1.000000 0.000000 0.000000
vn 1.000000 0.000000 0.000000
vn 0.000000 0.000000 1.000000
vn 0.000000 0.000000 1.000000
vn 0.000000 0.000000 1.000000
vn 0.000000 0.000000 1.000000
vn 0.000000 -1.000000 -0.000000
vn 0.000000 -1.000000 -0.000000
vn 0.000000 -1.000000 -0.000000
vn 0.000000 -1.000000 -0.000000
vn 0.000000 1.000000 0.000000
vn 0.000000 1.000000 0.000000
vn 0.000000 1.000000 0.000000
vn 0.000000 1.000000 0.000000
vn -1.000000 0.000000 0.000000
vn -1.000000 0.000000 0.000000
vn -1.000000 0.000000 0.000000
vn -1.000000 0.000000 0.000000
vn 0.000000 -0.000000 -1.000000
vn 0.000000 -0.000000 -1.000000
vn 0.000000 -0.000000 -1.000000
vn 0.000000 -0.000000 -1.000000
vn 1.000000 0.000000 0.000000
vn 1.000000 0.000000 0.000000
vn 1.000000 0.000000 0.000000
vn 1.000000 0.000000 0.000000
vn 0.000000 0.000000 1.000000
vn 0.000000 0.000000 1.000000
vn 0.000000 0.000000 1.000000
vn 0.000000 0.000000 1.000000
vn 0.000000 -1.000000 -0.000000
vn 0.000000 -1.000000 -0.000000
vn 0.000000 -1.000000 -0.000000
vn 0.000000 -1.000000 -0.000000
vn 0.000000 1.000000 0.000000
vn 0.000000 1.000000 0.000000
vn 0.000000 1.000000 0.000000
vn 0.000000 1.000000 0.000000
vn -1.000000 0.000000 0.000000
vn -1.000000 0.000000 0.000000
vn -1.000000 0.000000 0.000000
vn -1.000000 0.000000 0.000000
vn 0.000000 -0.000000 -1.000000
vn 0.000000 -0.000000 -1.000000
vn 0.000000 -0.000000 -1.000000
vn 0.000000 -0.000000 -1.000000
vn 1.000000 0.000000 0.000000
vn 1.000000 0.000000 0.000000
vn 1.000000 0.000000 0.000000
vn 1.000000 0.000000 0.000000
vn -0.000000 0.000000 1.000000
vn -0.000000 0.000000 1.000000
vn -0.000000 0.000000 1.000000
vn -0.000000 0.000000 1.000000
vn 0.000000 -1.000000 -0.000000
vn 0.000000 -1.000000 -0.000000
vn 0.000000 -1.000000 -0.000000
vn 0.000000 -1.000000 -0.000000
vn 0.000000 1.000000 -0.000000
vn 0.000000 1.000000 -0.000000
vn 0.000000 1.000000 -0.000000
vn 0.000000 1.000000 -0.000000
vn -1.000000 0.000000 0.000000
vn -1.000000 0.000000 0.000000
vn -1.000000 0.000000 0.000000
vn -1.000000 0.000000 0.000000
vn 0.000000 -0.000000 -1.000000
vn 0.000000 -0.000000 -1.000000
vn 0.000000 -0.000000 -1.000000
vn 0.000000 -0.000000 -1.000000
vn 1.000000 0.000000 0.000000
vn 1.000000 0.000000 0.000000
vn 1.000000 0.000000 0.000000
vn 1.000000 0.000000 0.000000
vn 0.000000 0.000000 1.000000
vn 0.000000 0.000000 1.000000
vn 0.000000 0.000000 1.000000
vn 0.000000 0.000000 1.000000
vn 0.000000 -1.000000 -0.000000
vn 0.000000 -1.000000 -0.000000
vn 0.000000 -1.000000 -0.000000
vn 0.000000 -1.000000 -0.000000
vn 0.000000 1.000000 0.000000
vn 0.000000 1.000000 0.000000
vn 0.000000 1.000000 0.000000
vn 0.000000 1.000000 0.000000
vn -1.000000 0.000000 0.000000
vn -1.000000 0.000000 0.000000
vn -1.000000 0.000000 0.000000
vn -1.000000 0.000000 0.000000
vn 0.000000 -0.000000 -1.000000
vn 0.000000 -0.000000 -1.000000
vn 0.000000 -0.000000 -1.000000
vn 0.000000 -0.000000 -1.000000
vn 1.000000 0.000000 0.000000
vn 1.000000 0.000000 0.000000
vn 1.000000 0.000000 0.000000
vn 1.000000 0.000000 0.000000
vn 0.000000 0.000000 1.000000
vn 0.000000 0.000000 1.000000
vn 0.000000 0.000000 1.000000
vn 0.000000 0.000000 1.000000
vn 0.000000 -1.000000 -0.000000
vn 0.000000 -1.000000 -0.000000
vn 0.000000 -1.000000 -0.000000
vn 0.000000 -1.000000 -0.000000
vn 0.000000 1.000000 0.000000
vn 0.000000 1.000000 0.000000
vn 0.000000 1.000000 0.000000
vn 0.000000 1.000000 0.000000
vn -1.000000 0.000000 0.000000
vn -1.000000 0.000000 0.000000
vn -1.000000 0.000000 0.000000
vn -1.000000 0.000000 0.000000
vn 0.000000 -0.000000 -1.000000
vn 0.000000 -0.000000 -1.000000
vn 0.000000 -0.000000 -1.000000
vn 0.000000 -0.000000 -1.000000
vn 1.000000 0.000000 0.000000
vn 1.000000 0.000000 0.000000
vn 1.000000 0.000000 0.000000
vn 1.000000 0.000000 0.000000
vn 0.000000 0.000000 1.000000
vn 0.000000 0.000000 1.000000
vn 0.000000 0.000000 1.000000
vn 0.000000 0.000000 1.000000
vn 0.000000 -1.000000 -0.000000
vn 0.000000 -1.000000 -0.000000
vn 0.000000 -1.000000 -0.000000
vn 0.000000 -1.000000 -0.000000
vn 0.000000 1.000000 0.000000
vn 0.000000 1.000000 0.000000
vn 0.000000 1.000000 0.000000
vn 0.000000 1.000000 0.000000
vn -1.000000 0.000000 0.000000
vn -1.000000 0.000000 0.000000
vn -1.000000 0.000000 0.000000
vn -1.000000 0.000000 0.000000
vn 0.000000 -0.000000 -1.000000
vn 0.000000 -0.000000 -1.000000
vn 0.000000 -0.000000 -1.000000
vn 0.000000 -0.000000 -1.000000
vn 1.000000 0.000000 0.000000
vn 1.000000 0.000000 0.000000
vn 1.000000 0.000000 0.000000
vn 1.000000 0.000000 0.000000
vn 0.000000 0.000000 1.000000
vn 0.000000 0.000000 1.000000
vn 0.000000 0.000000 1.000000
vn 0.000000 0.000000 1.000000
vn 0.000000 -1.000000 -0.000000
vn 0.000000 -1.000000 -0.000000
vn 0.000000 -1.000000 -0.000000
vn 0.000000 -1.000000 -0.000000
vn 0.000000 1.000000 0.000000
vn 0.000000 1.000000 0.000000
vn 0.000000 1.000000 0.000000
vn 0.000000 1.000000 0.000000
vn -1.000000 0.000000 0.000000
vn -1.000000 0.000000 0.000000
vn -1.000000 0.000000 0.000000
vn -1.000000 0.000000 0.000000
vn 0.000000 -0.000000 -1.000000
vn 0.000000 -0.000000 -1.000000
vn 0.000000 -0.000000 -1.000000
vn 0.000000 -0.000000 -1.000000
vn 1.000000 0.000000 0.000000
vn 1.000000 0.000000 0.000000
vn 1.000000 0.000000 0.000000
vn 1.000000 0.000000 0.000000
vn 0.000000 0.000000 1.000000
vn 0.000000 0.000000 1.000000
vn 0.000000 0.000000 1.000000
vn 0.000000 0.000000 1.000000
vn 0.000000 -1.000000 -0.000000
vn 0.000000 -1.000000 -0.000000
vn 0.000000 -1.000000 -0.000000
vn 0.000000 -1.000000 -0.000000
vn 0.000000 1.000000 0.000000
vn 0.000000 1.000000 0.000000
vn 0.000000 1.000000 0.000000
vn 0.000000 1.000000 0.000000
vn -1.000000 0.000000 0.000000
vn -1.000000 0.000000 0.000000
vn -1.000000 0.000000 0.000000
vn -1.000000 0.000000 0.000000
vn 0.000000 -0.000000 -1.000000
vn 0.000000 -0.000000 -1.000000
vn 0.000000 -0.000000 -1.000000
vn 0.000000 -0.000000 -1.000000
vn 1.000000 0.000000 0.000000
vn 1.000000 0.000000 0.000000
vn 1.000000 0.000000 0.000000
vn 1.000000 0.000000 0.000000
vn 0.000000 0.000000 1.000000
vn 0.000000 0.000000 1.000000
vn 0.000000 0.000000 1.000000
vn 0.000000 0.000000 1.000000
vn 0.000000 -1.000000 -0.000000
vn 0.000000 -1.000000 -0.000000
vn 0.000000 -1.000000 -0.000000
vn 0.000000 -1.000000 -0.000000
vn 0.000000 1.000000 0.000000
vn 0.000000 1.000000 0.000000
vn 0.000000 1.000000 0.000000
vn 0.000000 1.000000 0.000000
vn -1.000000 0.000000 0.000000
vn -1.000000 0.000000 0.000000
vn -1.000000 0.000000 0.000000
vn -1.000000 0.000000 0.000000
vn 0.000000 -0.000000 -1.000000
vn 0.000000 -0.000000 -1.000000
vn 0.000000 -0.000000 -1.000000
vn 0.000000 -0.000000 -1.000000
vn 1.000000 0.000000 0.000000
vn 1.000000 0.000000 0.000000
vn 1.000000 0.000000 0.000000
vn 1.000000 0.000000 0.000000
vn 0.000000 0.000000 1.000000
vn 0.000000 0.000000 1.000000
vn 0.000000 0.000000 1.000000
vn 0.000000 0.000000 1.000000
vn 0.000000 -1.000000 -0.000000
vn 0.000000 -1.000000 -0.000000
vn 0.000000 -1.000000 -0.000000
vn 0.000000 -1.000000 -0.000000
vn 0.000000 1.000000 0.000000
vn 0.000000 1.000000 0.000000
vn 0.000000 1.000000 0.000000
vn 0.000000 1.000000 0.000000
vn -1.000000 0.000000 0.000000
vn -1.000000 0.000000 0.000000
vn -1.000000 0.000000 0.000000
vn -1.000000 0.000000 0.000000
vn 0.000000 -0.000000 -1.000000
vn 0.000000 -0.000000 -1.000000
vn 0.000000 -0.000000 -1.000000
vn 0.000000 -0.000000 -1.000000
vn 1.000000 0.000000 0.000000
vn 1.000000 0.000000 0.000000
vn 1.000000 0.000000 0.000000
vn 1.000000 0.000000 0.000000
vn 0.000000 0.000000 1.000000
vn 0.000000 0.000000 1.000000
vn 0.000000 0.000000 1.000000
vn 0.000000 0.000000 1.000000
vn 0.000000 -1.000000 -0.000000
vn 0.000000 -1.000000 -0.000000
vn 0.000000 -1.000000 -0.000000
vn 0.000000 -1.000000 -0.000000
vn 0.000000 1.000000 0.000000
vn 0.000000 1.000000 0.000000
vn 0.000000 1.000000 0.000000
vn 0.000000 1.000000 0.000000
vn -1.000000 0.000000 0.000000
vn -1.000000 0.000000 0.000000
vn -1.000000 0.000000 0.000000
vn -1.000000 0.000000 0.000000
vn 0.000000 -0.000000 -1.000000
vn 0.000000 -0.000000 -1.000000
vn 0.000000 -0.000000 -1.000000
vn 0.000000 -0.000000 -1.000000
vn 1.000000 0.000000 0.000000
vn 1.000000 0.000000 0.000000
vn 1.000000 0.000000 0.000000
vn 1.000000 0.000000 0.000000
vn -0.000000 0.000000 1.000000
vn -0.000000 0.000000 1.000000
vn -0.000000 0.000000 1.000000
vn -0.000000 0.000000 1.000000
vn 0.000000 -1.000000 -0.000000
vn 0.000000 -1.000000 -0.000000
vn 0.000000 -1.000000 -0.000000
vn 0.000000 -1.000000 -0.000000
vn 0.000000 1.000000 0.000000
vn 0.000000 1.000000 0.000000
vn 0.000000 1.000000 0.000000
vn 0.000000 1.000000 0.000000
vn -1.000000 0.000000 0.000000
vn -1.000000 0.000000 0.000000
vn -1.000000 0.000000 0.000000
vn -1.000000 0.000000 0.000000
vn 0.000000 -0.000000 -1.000000
vn 0.000000 -0.000000 -1.000000
vn 0.000000 -0.000000 -1.000000
vn 0.000000 -0.000000 -1.000000
vn 1.000000 0.000000 0.000000
vn 1.000000 0.000000 0.000000
vn 1.000000 0.000000 0.000000
vn 1.000000 0.000000 0.000000
vn 0.000000 0.000000 1.000000
vn 0.000000 0.000000 1.000000
vn 0.000000 0.000000 1.000000
vn 0.000000 0.000000 1.000000
vn 0.000000 -1.000000 -0.000000
vn 0.000000 -1.000000 -0.000000
vn 0.000000 -1.000000 -0.000000
vn 0.000000 -1.000000 -0.000000
vn 0.000000 1.000000 0.000000
vn 0.000000 1.000000 0.000000
vn 0.000000 1.000000 0.000000
vn 0.000000 1.000000 0.000000
f 1/1/1 2/2/2 4/3/3 3/4/4
f 3/5/5 4/6/6 8/7/7 7/8/8
f 7/9/9 8/10/10 6/11/11 5/12/12
f 5/13/13 6/14/14 2/15/15 1/16/16
f 3/17/17 7/18/18 5/19/19 1/20/20
f 8/21/21 4/22/22 2/23/23 6/24/24
f 9/25/25 10/26/26 12/27/27 11/28/28
f 11/29/29 12/30/30 16/31/31 15/32/32
f 15/33/33 16/34/34 14/35/35 13/36/36
f 13/37/37 14/38/38 10/39/39 9/40/40
f 11/41/41 15/42/42 13/43/43 9/44/44
f 16/45/45 12/46/46 10/47/47 14/48/48
f 17/49/49 18/50/50 20/51/51 19/52/52
f 19/53/53 20/54/54 24/55/55 23/56/56
f 23/57/57 24/58/58 22/59/59 21/60/60
f 21/61/61 22/62/62 18/63/63 17/64/64
f 19/65/65 23/66/66 21/67/67 17/68/68
f 24/69/69 20/70/70 18/71/71 22/72/72
f 25/73/73 26/74/74 28/75/75 27/76/76
f 27/77/77 28/78/78 32/79/79 31/80/80
f 31/81/81 32/82/82 30/83/83 29/84/84
f 29/85/85 30/86/86 26/87/87 25/88/88
f 27/89/89 31/90/90 29/91/91 25/92/92
f 32/93/93 28/94/94 26/95/95 30/96/96
f 33/97/97 34/98/98 36/99/99 35/100/100
f 35/101/101 36/102/102 40/103/103 39/104/104
f 39/105/105 40/106/106 38/107/107 37/108/108
f 37/109/109 38/110/110 34/111/111 33/112/112
f 35/113/113 39/114/114 37/115/115 33/116/116
f 40/117/117 36/118/118 34/119/119 38/120/120
f 41/121/121 42/122/122 44/123/123 43/124/124
f 43/125/125 44/126/126 48/127/127 47/128/128
f 47/129/129 48/130/130 46/131/131 45/132/132
f 45/133/133 46/134/134 42/135/135 41/136/136
f 43/137/137 47/138/138 45/139/139 41/140/140
f 48/141/141 44/142/142 42/143/143 46/144/144
f 49/145/145 50/146/146 52/147/147 51/148/148
f 51/149/149 52/150/150 56/151/151 55/152/152
f 55/153/153 56/154/154 54/155/155 53/156/156
f 53/157/157 54/158/158 50/159/159 49/160/160
f 51/161/161 55/162/162 53/163/163 49/164/164
f 56/165/165 52/166/166 50/167/167 54/168/168
f 57/169/169 58/170/170 60/171/171 59/172/172
f 59/173/173 60/174/174 64/175/175 63/176/176
f 63/177/177 64/178/178 62/179/179 61/180/180
f 61/181/181 62/182/182 58/183/183 57/184/184
f 59/185/185 63/186/186 61/187/187 57/188/188
f 64/189/189 60/190/190 58/191/191 62/192/192
f 65/193/193 66/194/194 68/195/195 67/196/196
f 67/197/197 68/198/198 72/199/199 71/200/200
f 71/201/201 72/202/202 70/203/203 69/204/204
f 69/205/205 70/206/206 66/207/207 65/208/208
f 67/209/209 71/210/210 69/211/211 65/212/212
f 72/213/213 68/214/214 66/215/215 70/216/216
f 73/217/217 74/218/218 76/219/219 75/220/220
f 75/221/221 76/222/222 80/223/223 79/224/224
f 79/225/225 80/226/226 78/227/227 77/228/228
f 77/229/229 78/230/230 74/231/231 73/232/232
f 75/233/233 79/234/234 77/235/235 73/236/236
f 80/237/237 76/238/238 74/239/239 78/240/240
f 81/241/241 82/242/242 84/243/243 83/244/244
f 83/245/245 84/246/246 88/247/247 87/248/248
f 87/249/249 88/250/250 86/251/251 85/252/252
f 85/253/253 86/254/254 82/255/255 81/256/256
f 83/257/257 87/258/258 85/259/259 81/260/260
f 88/261/261 84/262/262 82/263/263 86/264/264
f 89/265/265 90/266/266 92/267/267 91/268/268
f 91/269/269 92/270/270 96/271/271 95/272/272
f 95/273/273 96/274/274 94/275/275 93/276/276
f 93/277/277 94/278/278 90/279/279 89/280/280
f 91/281/281 95/282/282 93/283/283 89/284/284
f 96/285/285 92/286/286 90/287/287 94/288/288
f 97/289/289 98/290/290 100/291/291 99/292/292
f 99/293/293 100/294/294 104/295/295 103/296/296
f 103/297/297 104/298/298 102/299/299 101/300/300
f 101/301/301 102/302/302 98/303/303 97/304/304
f 99/305/305 103/306/306 101/307/307 97/308/308
f 104/309/309 100/310/310 98/311/311 102/312/312
f 105/313/313 106/314/314 108/315/315 107/316/316
f 107/317/317 108/318/318 112/319/319 111/320/320
f 111/321/321 112/322/322 110/323/323 109/324/324
f 109/325/325 110/326/326 106/327/327 105/328/328
f 107/329/329 111/330/330 109/331/331 105/332/332
f 112/333/333 108/334/334 106/335/335 110/336/336
f 113/337/337 114/338/338 116/339/339 115/340/340
f 115/341/341 116/342/342 120/343/343 119/344/344
f 119/345/345 120/346/346 118/347/347 117/348/348
f 117/349/349 118/350/350 114/351/351 113/352/352
f 115/353/353 119/354/354 117/355/355 113/356/356
f 120/357/357 116/358/358 114/359/359 118/360/360
f 121/361/361 122/362/362 124/363/363 123/364/364
f 123/365/365 124/366/366 128/367/367 127/368/368
f 127/369/369 128/370/370 126/371/371 125/372/372
f 125/373/373 126/374/374 122/375/375 121/376/376
f 123/377/377 127/378/378 125/379/379 121/380/380
f 128/381/381 124/382/382 122/383/383 126/384/384
f 129/385/385 130/386/386 132/387/387 131/388/388
f 131/389/389 132/390/390 136/391/391 135/392/392
f 135/393/393 136/394/394 134/395/395 133/396/396
f 133/397/397 134/398/398 130/399/399 129/400/400
f 131/401/401 135/402/402 133/403/403 129/404/404
f 136/405/405 132/406/406 130/407/407 134/408/408
f 137/409/409 138/410/410 140/411/411 139/412/412
f 139/413/413 140/414/414 144/415/415 143/416/416
f 143/417/417 144/418/418 142/419/419 141/420/420
f 141/421/421 142/422/422 138/423/423 137/424/424
f 139/425/425 143/426/426 141/427/427 137/428/428
f 144/429/429 140/430/430 138/431/431 142/432/432
