# generated by tools/art/gen_meshes.py
v -8.393400 8.674539 0.368622
v -8.393400 4.753874 0.368622
v -2.249700 -1.127122 -0.737244
v -2.249700 5.734040 -0.737244
v -1.728390 -1.127122 -0.521310
v -1.728390 5.734040 -0.521310
v -1.512456 -1.127122 0.000000
v -1.512456 5.734040 -0.000000
v -1.728390 -1.127122 0.521310
v -1.728390 5.734040 0.521310
v -2.249700 -1.127122 0.737244
v -2.249700 5.734040 0.737244
v -2.771010 -1.127122 0.521310
v -2.771010 5.734040 0.521310
v -2.986944 -1.127122 0.000000
v -2.986944 5.734040 -0.000000
v -2.771010 -1.127122 -0.521310
v -2.771010 5.734040 -0.521310
v -8.393400 4.753874 -0.368622
v -8.393400 8.674539 -0.368622
v 3.894000 4.753874 0.368622
v 3.894000 8.674539 0.368622
v 3.894000 4.753874 -0.368622
v 3.894000 8.674539 -0.368622
v -6.673164 8.674539 0.368622
v -6.673164 12.595202 0.368622
v -6.673164 8.674539 -0.368622
v -6.673164 12.595202 -0.368622
v 2.173764 8.674539 0.368622
v 2.173764 12.595202 0.368622
v 2.173764 8.674539 -0.368622
v 2.173764 12.595202 -0.368622
v -4.830054 11.941758 0.368622
v -4.830054 15.862422 0.368621
v -4.830054 11.941758 -0.368622
v -4.830054 15.862422 -0.368623
v 0.330654 11.941758 0.368622
v 0.330654 15.862422 0.368621
v 0.330654 11.941758 -0.368622
v 0.330654 15.862422 -0.368623
vt 0.290000 0.769231
vt 0.290000 1.000000
vt 0.710000 1.000000
vt 0.710000 0.769231
vt 0.576923 0.750000
vt 0.807692 0.750000
vt 0.807692 0.250000
vt 0.576923 0.250000
vt 0.500000 0.000000
vt 0.500000 0.403846
vt 0.542426 0.403846
vt 0.542426 0.000000
vt 0.769231 0.250000
vt 1.000000 0.250000
vt 1.000000 0.750000
vt 0.769231 0.750000
vt 1.000000 0.250000
vt 0.000000 0.250000
vt 0.000000 0.750000
vt 1.000000 0.750000
vt 0.000000 0.146447
vt 0.403846 0.146447
vt 0.403846 0.500000
vt 0.000000 0.500000
vt 0.860000 0.250000
vt 0.140000 0.250000
vt 0.140000 0.750000
vt 0.860000 0.750000
vt 0.000000 0.250000
vt 1.000000 0.250000
vt 1.000000 0.750000
vt 0.000000 0.750000
vt 0.000000 0.500000
vt 0.403846 0.500000
vt 0.403846 0.853553
vt 0.000000 0.853553
vt 0.140000 0.250000
vt 0.860000 0.250000
vt 0.860000 0.750000
vt 0.140000 0.750000
vt 1.000000 0.346154
vt 1.000000 0.576923
vt 0.000000 0.576923
vt 0.000000 0.346154
vt 0.542426 0.000000
vt 0.542426 0.403846
vt 0.500000 0.403846
vt 0.500000 0.000000
vt 0.860000 0.576923
vt 0.860000 0.807692
vt 0.140000 0.807692
vt 0.140000 0.576923
vt 0.346154 0.250000
vt 0.576923 0.250000
vt 0.576923 0.750000
vt 0.346154 0.750000
vt 0.500000 0.000000
vt 0.500000 0.403846
vt 0.457574 0.403846
vt 0.457574 0.000000
vt 0.576923 0.250000
vt 0.807692 0.250000
vt 0.807692 0.750000
vt 0.576923 0.750000
vt 0.000000 0.346154
vt 0.000000 0.576923
vt 1.000000 0.576923
vt 1.000000 0.346154
vt 0.000000 0.853553
vt 0.403846 0.853553
vt 0.403846 0.500000
vt 0.000000 0.500000
vt 0.542426 0.146447
vt 0.500000 0.000000
vt 0.457574 0.146447
vt 0.440000 0.500000
vt 0.457574 0.853553
vt 0.500000 1.000000
vt 0.542426 0.853553
vt 0.560000 0.500000
vt 0.346154 0.750000
vt 0.576923 0.750000
vt 0.576923 0.250000
vt 0.346154 0.250000
vt 0.000000 0.500000
vt 0.403846 0.500000
vt 0.403846 0.146447
vt 0.000000 0.146447
vt 0.769231 0.750000
vt 1.000000 0.750000
vt 1.000000 0.250000
vt 0.769231 0.250000
vt 0.140000 0.576923
vt 0.140000 0.807692
vt 0.860000 0.807692
vt 0.860000 0.576923
vt 0.457574 0.000000
vt 0.457574 0.403846
vt 0.500000 0.403846
vt 0.500000 0.000000
vt 0.500000 0.000000
vt 0.542426 0.146447
vt 0.560000 0.500000
vt 0.542426 0.853553
vt 0.500000 1.000000
vt 0.457574 0.853553
vt 0.440000 0.500000
vt 0.457574 0.146447
vt 0.710000 0.769231
vt 0.710000 1.000000
vt 0.290000 1.000000
vt 0.290000 0.769231
vt 0.290000 0.250000
vt 0.710000 0.250000
vt 0.710000 0.750000
vt 0.290000 0.750000
vt 0.710000 0.250000
vt 0.290000 0.250000
vt 0.290000 0.750000
vt 0.710000 0.750000
vn 0.000000 -0.000000 -1.000000
vn 0.000000 -0.000000 -1.000000
vn 0.000000 -0.000000 -1.000000
vn 0.000000 -0.000000 -1.000000
vn -1.000000 0.000000 0.000000
vn -1.000000 0.000000 0.000000
vn -1.000000 0.000000 0.000000
vn -1.000000 0.000000 0.000000
vn 0.382683 -0.000000 -0.923880
vn 0.382683 -0.000000 -0.923880
vn 0.382683 -0.000000 -0.923880
vn 0.382683 -0.000000 -0.923880
vn 1.000000 0.000000 0.000000
vn 1.000000 0.000000 0.000000
vn 1.000000 0.000000 0.000000
vn 1.000000 0.000000 0.000000
vn 0.000000 1.000000 0.000000
vn 0.000000 1.000000 0.000000
vn 0.000000 1.000000 0.000000
vn 0.000000 1.000000 0.000000
vn 0.923880 -0.000000 -0.382684
vn 0.923880 -0.000000 -0.382684
vn 0.923880 -0.000000 -0.382684
vn 0.923880 -0.000000 -0.382684
vn 0.000000 1.000000 0.000000
vn 0.000000 1.000000 0.000000
vn 0.000000 1.000000 0.000000
vn 0.000000 1.000000 0.000000
vn 0.000000 -1.000000 -0.000000
vn 0.000000 -1.000000 -0.000000
vn 0.000000 -1.000000 -0.000000
vn 0.000000 -1.000000 -0.000000
vn 0.923880 0.000000 0.382683
vn 0.923880 0.000000 0.382683
vn 0.923880 0.000000 0.382683
vn 0.923880 0.000000 0.382683
vn 0.000000 -1.000000 -0.000000
vn 0.000000 -1.000000 -0.000000
vn 0.000000 -1.000000 -0.000000
vn 0.000000 -1.000000 -0.000000
vn 0.000000 0.000000 1.000000
vn 0.000000 0.000000 1.000000
vn 0.000000 0.000000 1.000000
vn 0.000000 0.000000 1.000000
vn 0.382683 0.000000 0.923880
vn 0.382683 0.000000 0.923880
vn 0.382683 0.000000 0.923880
vn 0.382683 0.000000 0.923880
vn 0.000000 0.000000 1.000000
vn 0.000000 0.000000 1.000000
vn 0.000000 0.000000 1.000000
vn 0.000000 0.000000 1.000000
vn 1.000000 0.000000 0.000000
vn 1.000000 0.000000 0.000000
vn 1.000000 0.000000 0.000000
vn 1.000000 0.000000 0.000000
vn -0.382684 0.000000 0.923880
vn -0.382684 0.000000 0.923880
vn -0.382684 0.000000 0.923880
vn -0.382684 0.000000 0.923880
vn 1.000000 0.000000 0.000000
vn 1.000000 0.000000 0.000000
vn 1.000000 0.000000 0.000000
vn 1.000000 0.000000 0.000000
vn 0.000000 -0.000000 -1.000000
vn 0.000000 -0.000000 -1.000000
vn 0.000000 -0.000000 -1.000000
vn 0.000000 -0.000000 -1.000000
vn -0.923880 0.000000 0.382683
vn -0.923880 0.000000 0.382683
vn -0.923880 0.000000 0.382683
vn -0.923880 0.000000 0.382683
vn 0.000000 1.000000 0.000000
vn 0.000000 1.000000 0.000000
vn 0.000000 1.000000 0.000000
vn 0.000000 1.000000 0.000000
vn 0.000000 1.000000 0.000000
vn 0.000000 1.000000 0.000000
vn 0.000000 1.000000 0.000000
vn 0.000000 1.000000 0.000000
vn -1.000000 0.000000 0.000000
vn -1.000000 0.000000 0.000000
vn -1.000000 0.000000 0.000000
vn -1.000000 0.000000 0.000000
vn -0.923880 -0.000000 -0.382684
vn -0.923880 -0.000000 -0.382684
vn -0.923880 -0.000000 -0.382684
vn -0.923880 -0.000000 -0.382684
vn -1.000000 0.000000 0.000000
vn -1.000000 0.000000 0.000000
vn -1.000000 0.000000 0.000000
vn -1.000000 0.000000 0.000000
vn 0.000000 -0.000000 -1.000000
vn 0.000000 -0.000000 -1.000000
vn 0.000000 -0.000000 -1.000000
vn 0.000000 -0.000000 -1.000000
vn -0.382684 -0.000000 -0.923880
vn -0.382684 -0.000000 -0.923880
vn -0.382684 -0.000000 -0.923880
vn -0.382684 -0.000000 -0.923880
vn 0.000000 -1.000000 0.000000
vn 0.000000 -1.000000 0.000000
vn 0.000000 -1.000000 0.000000
vn 0.000000 -1.000000 0.000000
vn 0.000000 -1.000000 0.000000
vn 0.000000 -1.000000 0.000000
vn 0.000000 -1.000000 0.000000
vn 0.000000 -1.000000 0.000000
vn 0.000000 0.000000 1.000000
vn 0.000000 0.000000 1.000000
vn 0.000000 0.000000 1.000000
vn 0.000000 0.000000 1.000000
vn 0.000000 -1.000000 -0.000000
vn 0.000000 -1.000000 -0.000000
vn 0.000000 -1.000000 -0.000000
vn 0.000000 -1.000000 -0.000000
vn 0.000000 1.000000 0.000000
vn 0.000000 1.000000 0.000000
vn 0.000000 1.000000 0.000000
vn 0.000000 1.000000 0.000000
f 35/1/1 36/2/2 40/3/3 39/4/4
f 25/5/5 26/6/6 28/7/7 27/8/8
f 3/9/9 4/10/10 6/11/11 5/12/12
f 39/13/13 40/14/14 38/15/15 37/16/16
f 24/17/17 20/18/18 1/19/19 22/20/20
f 5/21/21 6/22/22 8/23/23 7/24/24
f 32/25/25 28/26/26 26/27/27 30/28/28
f 19/29/29 23/30/30 21/31/31 2/32/32
f 7/33/33 8/34/34 10/35/35 9/36/36
f 27/37/37 31/38/38 29/39/39 25/40/40
f 21/41/41 22/42/42 1/43/43 2/44/44
f 9/45/45 10/46/46 12/47/47 11/48/48
f 29/49/49 30/50/50 26/51/51 25/52/52
f 23/53/53 24/54/54 22/55/55 21/56/56
f 11/57/57 12/58/58 14/59/59 13/60/60
f 31/61/61 32/62/62 30/63/63 29/64/64
f 19/65/65 20/66/66 24/67/67 23/68/68
f 13/69/69 14/70/70 16/71/71 15/72/72
f 6/73/73 4/74/74 18/75/75 16/76/76 14/77/77 12/78/78 10/79/79 8/80/80
f 2/81/81 1/82/82 20/83/83 19/84/84
f 15/85/85 16/86/86 18/87/87 17/88/88
f 33/89/89 34/90/90 36/91/91 35/92/92
f 27/93/93 28/94/94 32/95/95 31/96/96
f 17/97/97 18/98/98 4/99/99 3/100/100
f 3/101/101 5/102/102 7/103/103 9/104/104 11/105/105 13/106/106 15/107/107 17/108/108
f 37/109/109 38/110/110 34/111/111 33/112/112
f 35/113/113 39/114/114 37/115/115 33/116/116
f 40/117/117 36/118/118 34/119/119 38/120/120
