# generated by tools/art/gen_meshes.py
v -0.061200 0.216976 0.015000
v -0.061200 0.374424 0.015000
v -0.061200 0.216976 -0.015000
v -0.061200 0.374424 -0.015000
v 0.061200 0.216976 0.015000
v 0.061200 0.374424 0.015000
v 0.061200 0.216976 -0.015000
v 0.061200 0.374424 -0.015000
v 0.000000 0.359425 -0.061200
v 0.000000 0.389424 -0.061200
v 0.030600 0.359425 -0.053001
v 0.030600 0.389424 -0.053001
v 0.053001 0.359425 -0.030600
v 0.053001 0.389424 -0.030600
v 0.061200 0.359425 0.000000
v 0.061200 0.389424 0.000000
v 0.053001 0.359425 0.030600
v 0.053001 0.389424 0.030600
v 0.030600 0.359425 0.053001
v 0.030600 0.389424 0.053001
v 0.000000 0.359425 0.061200
v 0.000000 0.389424 0.061200
v -0.030600 0.359425 0.053001
v -0.030600 0.389424 0.053001
v -0.053001 0.359425 0.030600
v -0.053001 0.389424 0.030600
v -0.061200 0.359425 0.000000
v -0.061200 0.389424 0.000000
v -0.053001 0.359425 -0.030600
v -0.053001 0.389424 -0.030600
v -0.030600 0.359425 -0.053001
v -0.030600 0.389424 -0.053001
vt 0.000000 0.622547
vt 0.913019 0.622547
vt 0.913019 0.377453
vt 0.000000 0.377453
vt 0.000000 0.000000
vt 0.000000 0.913019
vt 1.000000 0.913019
vt 1.000000 0.000000
vt 0.000000 0.377453
vt 0.913019 0.377453
vt 0.913019 0.622547
vt 0.000000 0.622547
vt 1.000000 0.000000
vt 1.000000 0.913019
vt 0.000000 0.913019
vt 0.000000 0.000000
vt 0.000000 0.377453
vt 1.000000 0.377453
vt 1.000000 0.622547
vt 0.000000 0.622547
vt 1.000000 0.377453
vt 0.000000 0.377453
vt 0.000000 0.622547
vt 1.000000 0.622547
vt 0.500000 0.826038
vt 0.500000 1.000000
vt 0.750000 1.000000
vt 0.750000 0.826038
vt 0.826038 0.066987
vt 1.000000 0.066987
vt 1.000000 0.250000
vt 0.826038 0.250000
vt 0.826038 0.250000
vt 1.000000 0.250000
vt 1.000000 0.500000
vt 0.826038 0.500000
vt 0.826038 0.500000
vt 1.000000 0.500000
vt 1.000000 0.750000
vt 0.826038 0.750000
vt 0.826038 0.750000
vt 1.000000 0.750000
vt 1.000000 0.933013
vt 0.826038 0.933013
vt 0.750000 0.826038
vt 0.750000 1.000000
vt 0.500000 1.000000
vt 0.500000 0.826038
vt 0.500000 0.826038
vt 0.500000 1.000000
vt 0.250000 1.000000
vt 0.250000 0.826038
vt 0.826038 0.933013
vt 1.000000 0.933013
vt 1.000000 0.750000
vt 0.826038 0.750000
vt 0.826038 0.750000
vt 1.000000 0.750000
vt 1.000000 0.500000
vt 0.826038 0.500000
vt 0.826038 0.500000
vt 1.000000 0.500000
vt 1.000000 0.250000
vt 0.826038 0.250000
vt 0.750000 0.066987
vt 0.500000 0.000000
vt 0.250000 0.066987
vt 0.066987 0.250000
vt 0.000000 0.500000
vt 0.066987 0.750000
vt 0.250000 0.933013
vt 0.500000 1.000000
vt 0.750000 0.933013
vt 0.933013 0.750000
vt 1.000000 0.500000
vt 0.933013 0.250000
vt 0.826038 0.250000
vt 1.000000 0.250000
vt 1.000000 0.066987
vt 0.826038 0.066987
vt 0.250000 0.826038
vt 0.250000 1.000000
vt 0.500000 1.000000
vt 0.500000 0.826038
vt 0.500000 0.000000
vt 0.750000 0.066987
vt 0.933013 0.250000
vt 1.000000 0.500000
vt 0.933013 0.750000
vt 0.750000 0.933013
vt 0.500000 1.000000
vt 0.250000 0.933013
vt 0.066987 0.750000
vt 0.000000 0.500000
vt 0.066987 0.250000
vt 0.250000 0.066987
vn -1.000000 0.000000 0.000000
vn -1.000000 0.000000 0.000000
vn -1.000000 0.000000 0.000000
vn -1.000000 0.000000 0.000000
vn 0.000000 -0.000000 -1.000000
vn 0.000000 -0.000000 -1.000000
vn 0.000000 -0.000000 -1.000000
vn 0.000000 -0.000000 -1.000000
vn 1.000000 0.000000 0.000000
vn 1.000000 0.000000 0.000000
vn 1.000000 0.000000 0.000000
vn 1.000000 0.000000 0.000000
vn 0.000000 0.000000 1.000000
vn 0.000000 0.000000 1.000000
vn 0.000000 0.000000 1.000000
vn 0.000000 0.000000 1.000000
vn 0.000000 -1.000000 -0.000000
vn 0.000000 -1.000000 -0.000000
vn 0.000000 -1.000000 -0.000000
vn 0.000000 -1.000000 -0.000000
vn 0.000000 1.000000 0.000000
vn 0.000000 1.000000 0.000000
vn 0.000000 1.000000 0.000000
vn 0.000000 1.000000 0.000000
vn 0.258819 0.000000 -0.965926
vn 0.258819 0.000000 -0.965926
vn 0.258819 0.000000 -0.965926
vn 0.258819 0.000000 -0.965926
vn 0.707107 0.000000 -0.707107
vn 0.707107 0.000000 -0.707107
vn 0.707107 0.000000 -0.707107
vn 0.707107 0.000000 -0.707107
vn 0.965926 -0.000000 -0.258819
vn 0.965926 -0.000000 -0.258819
vn 0.965926 -0.000000 -0.258819
vn 0.965926 -0.000000 -0.258819
vn 0.965926 0.000000 0.258819
vn 0.965926 0.000000 0.258819
vn 0.965926 0.000000 0.258819
vn 0.965926 0.000000 0.258819
vn 0.707107 0.000000 0.707107
vn 0.707107 0.000000 0.707107
vn 0.707107 0.000000 0.707107
vn 0.707107 0.000000 0.707107
vn 0.258819 0.000000 0.965926
vn 0.258819 0.000000 0.965926
vn 0.258819 0.000000 0.965926
vn 0.258819 0.000000 0.965926
vn -0.258819 0.000000 0.965926
vn -0.258819 0.000000 0.965926
vn -0.258819 0.000000 0.965926
vn -0.258819 0.000000 0.965926
vn -0.707107 0.000000 0.707107
vn -0.707107 0.000000 0.707107
vn -0.707107 0.000000 0.707107
vn -0.707107 0.000000 0.707107
vn -0.965926 0.000000 0.258819
vn -0.965926 0.000000 0.258819
vn -0.965926 0.000000 0.258819
vn -0.965926 0.000000 0.258819
vn -0.965926 -0.000000 -0.258819
vn -0.965926 -0.000000 -0.258819
vn -0.965926 -0.000000 -0.258819
vn -0.965926 -0.000000 -0.258819
vn 0.000000 1.000000 -0.000000
vn 0.000000 1.000000 -0.000000
vn 0.000000 1.000000 -0.000000
vn 0.000000 1.000000 -0.000000
vn 0.000000 1.000000 -0.000000
vn 0.000000 1.000000 -0.000000
vn 0.000000 1.000000 -0.000000
vn 0.000000 1.000000 -0.000000
vn 0.000000 1.000000 -0.000000
vn 0.000000 1.000000 -0.000000
vn 0.000000 1.000000 -0.000000
vn 0.000000 1.000000 -0.000000
vn -0.707107 0.000000 -0.707107
vn -0.707107 0.000000 -0.707107
vn -0.707107 0.000000 -0.707107
vn -0.707107 0.000000 -0.707107
vn -0.258819 0.000000 -0.965926
vn -0.258819 0.000000 -0.965926
vn -0.258819 0.000000 -0.965926
vn -0.258819 0.000000 -0.965926
vn 0.000000 -1.000000 0.000000
vn 0.000000 -1.000000 0.000000
vn 0.000000 -1.000000 0.000000
vn 0.000000 -1.000000 0.000000
vn 0.000000 -1.000000 0.000000
vn 0.000000 -1.000000 0.000000
vn 0.000000 -1.000000 0.000000
vn 0.000000 -1.000000 0.000000
vn 0.000000 -1.000000 0.000000
vn 0.000000 -1.000000 0.000000
vn 0.000000 -1.000000 0.000000
vn 0.000000 -1.000000 0.000000
f 1/1/1 2/2/2 4/3/3 3/4/4
f 3/5/5 4/6/6 8/7/7 7/8/8
f 7/9/9 8/10/10 6/11/11 5/12/12
f 5/13/13 6/14/14 2/15/15 1/16/16
f 3/17/17 7/18/18 5/19/19 1/20/20
f 8/21/21 4/22/22 2/23/23 6/24/24
f 9/25/25 10/26/26 12/27/27 11/28/28
f 11/29/29 12/30/30 14/31/31 13/32/32
f 13/33/33 14/34/34 16/35/35 15/36/36
f 15/37/37 16/38/38 18/39/39 17/40/40
f 17/41/41 18/42/42 20/43/43 19/44/44
f 19/45/45 20/46/46 22/47/47 21/48/48
f 21/49/49 22/50/50 24/51/51 23/52/52
f 23/53/53 24/54/54 26/55/55 25/56/56
f 25/57/57 26/58/58 28/59/59 27/60/60
f 27/61/61 28/62/62 30/63/63 29/64/64
f 12/65/65 10/66/66 32/67/67 30/68/68 28/69/69 26/70/70 24/71/71 22/72/72 20/73/73 18/74/74 16/75/75 14/76/76
f 29/77/77 30/78/78 32/79/79 31/80/80
f 31/81/81 32/82/82 10/83/83 9/84/84
f 9/85/85 11/86/86 13/87/87 15/88/88 17/89/89 19/90/90 21/91/91 23/92/92 25/93/93 27/94/94 29/95/95 31/96/96
