# generated by tools/art/gen_meshes.py
v 3.462250 -0.701202 5.928338
v -4.076250 0.064926 5.181363
v -4.076250 3.202220 5.181363
v -3.812154 0.064926 5.290755
v -3.812154 3.202220 5.290754
v -3.702762 0.064926 5.554850
v -3.702762 3.202220 5.554850
v -3.812154 0.064926 5.818945
v -3.812154 3.202220 5.818945
v -4.076250 0.064926 5.928338
v -4.076250 3.202220 5.928338
v -4.340345 0.064926 5.818945
v -4.340345 3.202220 5.818945
v -4.449738 0.064926 5.554850
v -4.449738 3.202220 5.554850
v -4.340345 0.064926 5.290755
v -4.340345 3.202220 5.290754
v -4.076250 2.903430 2.442455
v 3.726345 3.079639 5.818945
v -2.246830 2.903430 3.036870
v 3.726345 -0.701202 5.818946
v -1.116186 2.903430 4.593067
v 3.835737 3.079639 5.554850
v -1.116186 2.903430 6.516633
v 3.835737 -0.701202 5.554850
v -2.246830 2.903430 8.072830
v 3.726345 3.079639 5.290754
v -4.076250 2.903430 8.667245
v 3.726345 -0.701202 5.290755
v -5.905670 2.903430 8.072830
v 3.462250 3.079639 5.181363
v -7.036314 2.903430 6.516633
v 3.462250 -0.701202 5.181363
v -7.036314 2.903430 4.593067
v -5.905670 2.903430 3.036870
v -4.076250 7.534674 5.554850
v 3.462250 3.079639 5.928338
v 3.198154 -0.701202 5.818946
v 3.198154 3.079639 5.818945
v 3.088763 -0.701202 5.554850
v 3.088763 3.079639 5.554850
v 3.198154 -0.701202 5.290755
v 3.198154 3.079639 5.290754
v 3.462250 2.719559 2.442455
v 5.291670 2.719559 3.036870
v 6.422314 2.719559 4.593067
v 6.422314 2.719559 6.516633
v 5.291670 2.719559 8.072830
v 3.462250 2.719559 8.667245
v 1.632830 2.719559 8.072830
v 0.502186 2.719559 6.516633
v 0.502186 2.719559 4.593067
v 1.632830 2.719559 3.036870
v 3.462250 8.300802 5.554850
vt 0.219938 0.085106
vt 0.219938 0.433617
vt 0.239561 0.433617
vt 0.239561 0.085106
vt 0.355867 0.400426
vt 0.219938 0.914894
vt 0.219938 0.400426
vt 0.400425 0.095491
vt 0.914894 0.500000
vt 0.400425 0.345492
vt 0.085106 0.457574
vt 0.433617 0.457574
vt 0.433617 0.500000
vt 0.085106 0.500000
vt 0.400426 0.654509
vt 0.914894 0.500000
vt 0.400426 0.904508
vt 0.380000 0.345492
vt 1.000000 0.500000
vt 0.380000 0.654509
vt 0.085106 0.500000
vt 0.433617 0.500000
vt 0.433617 0.542426
vt 0.085106 0.542426
vt 0.780062 0.000000
vt 0.780062 0.420000
vt 0.760439 0.420000
vt 0.760439 0.000000
vt 0.239561 0.085106
vt 0.239561 0.433617
vt 0.219938 0.433617
vt 0.219938 0.085106
vt 0.000000 0.457574
vt 0.420000 0.457574
vt 0.420000 0.500000
vt 0.000000 0.500000
vt 0.219938 0.400425
vt 0.219938 0.914894
vt 0.355867 0.400425
vt 0.219938 0.085106
vt 0.219938 0.433617
vt 0.200315 0.433617
vt 0.200315 0.085106
vt 0.400425 0.345492
vt 0.914894 0.500000
vt 0.400426 0.654509
vt 0.000000 0.542426
vt 0.420000 0.542426
vt 0.420000 0.500000
vt 0.000000 0.500000
vt 0.085106 0.542426
vt 0.433617 0.542426
vt 0.433617 0.500000
vt 0.085106 0.500000
vt 0.239561 0.457574
vt 0.219938 0.440000
vt 0.200315 0.457574
vt 0.192187 0.500000
vt 0.200315 0.542426
vt 0.219938 0.560000
vt 0.239561 0.542426
vt 0.247689 0.500000
vt 0.000000 0.500000
vt 0.420000 0.500000
vt 0.420000 0.542426
vt 0.000000 0.542426
vt 0.085106 0.500000
vt 0.433617 0.500000
vt 0.433617 0.457574
vt 0.085106 0.457574
vt 0.200315 0.085106
vt 0.200315 0.433617
vt 0.219938 0.433617
vt 0.219938 0.085106
vt 0.219938 0.440000
vt 0.239561 0.457574
vt 0.247689 0.500000
vt 0.239561 0.542426
vt 0.219938 0.560000
vt 0.200315 0.542426
vt 0.192187 0.500000
vt 0.200315 0.457574
vt 0.780062 0.380000
vt 0.780062 1.000000
vt 0.915991 0.380000
vt 0.219938 0.400426
vt 0.219938 0.914894
vt 0.084009 0.400426
vt 0.780062 0.000000
vt 0.780062 0.420000
vt 0.799685 0.420000
vt 0.799685 0.000000
vt 0.799685 0.000000
vt 0.799685 0.420000
vt 0.780062 0.420000
vt 0.780062 0.000000
vt 0.400426 0.904508
vt 0.914894 0.500000
vt 0.400426 0.654509
vt 0.400426 0.654509
vt 0.914894 0.500000
vt 0.400425 0.345492
vt 0.439876 0.345492
vt 0.439876 0.654509
vt 0.355867 0.904508
vt 0.219938 1.000000
vt 0.084009 0.904508
vt 0.000000 0.654509
vt 0.000000 0.345492
vt 0.084009 0.095491
vt 0.219938 0.000000
vt 0.355867 0.095491
vt 0.400425 0.345492
vt 0.914894 0.500000
vt 0.400425 0.095491
vt 0.380000 0.654509
vt 1.000000 0.500000
vt 0.380000 0.904508
vt 0.084009 0.400425
vt 0.219938 0.914894
vt 0.219938 0.400425
vt 0.807813 0.500000
vt 0.799685 0.542426
vt 0.780062 0.560000
vt 0.760439 0.542426
vt 0.752311 0.500000
vt 0.760439 0.457574
vt 0.780062 0.440000
vt 0.799685 0.457574
vt 0.000000 0.500000
vt 0.420000 0.500000
vt 0.420000 0.457574
vt 0.000000 0.457574
vt 0.380000 0.095491
vt 1.000000 0.500000
vt 0.380000 0.345492
vt 0.915991 0.380000
vt 0.780062 1.000000
vt 0.780062 0.380000
vt 0.760439 0.000000
vt 0.760439 0.420000
vt 0.780062 0.420000
vt 0.780062 0.000000
vt 0.760439 0.542426
vt 0.780062 0.560000
vt 0.799685 0.542426
vt 0.807813 0.500000
vt 0.799685 0.457574
vt 0.780062 0.440000
vt 0.760439 0.457574
vt 0.752311 0.500000
vt 0.780062 0.380000
vt 0.780062 1.000000
vt 0.644133 0.380000
vt 0.380000 0.904508
vt 1.000000 0.500000
vt 0.380000 0.654509
vt 0.380000 0.654509
vt 1.000000 0.500000
vt 0.380000 0.345492
vt 1.000000 0.654509
vt 0.915991 0.904508
vt 0.780062 1.000000
vt 0.644133 0.904508
vt 0.560124 0.654509
vt 0.560124 0.345492
vt 0.644133 0.095491
vt 0.780062 0.000000
vt 0.915991 0.095491
vt 1.000000 0.345492
vt 0.380000 0.345492
vt 1.000000 0.500000
vt 0.380000 0.095491
vt 0.644133 0.380000
vt 0.780062 1.000000
vt 0.780062 0.380000
vn 0.382683 -0.000000 -0.923880
vn 0.382683 -0.000000 -0.923880
vn 0.382683 -0.000000 -0.923880
vn 0.382683 -0.000000 -0.923880
vn 0.260377 0.538546 0.801356
vn 0.260377 0.538546 0.801356
vn 0.260377 0.538546 0.801356
vn 0.681675 0.538546 -0.495266
vn 0.681675 0.538546 -0.495266
vn 0.681675 0.538546 -0.495266
vn 0.923880 -0.000000 -0.382683
vn 0.923880 -0.000000 -0.382683
vn 0.923880 -0.000000 -0.382683
vn 0.923880 -0.000000 -0.382683
vn 0.681674 0.538546 0.495266
vn 0.681674 0.538546 0.495266
vn 0.681674 0.538546 0.495266
vn 0.883442 0.468541 0.000000
vn 0.883442 0.468541 0.000000
vn 0.883442 0.468541 0.000000
vn 0.923880 0.000000 0.382684
vn 0.923880 0.000000 0.382684
vn 0.923880 0.000000 0.382684
vn 0.923880 0.000000 0.382684
vn -0.382683 0.000000 0.923880
vn -0.382683 0.000000 0.923880
vn -0.382683 0.000000 0.923880
vn -0.382683 0.000000 0.923880
vn 0.382684 0.000000 0.923879
vn 0.382684 0.000000 0.923879
vn 0.382684 0.000000 0.923879
vn 0.382684 0.000000 0.923879
vn 0.923879 -0.000000 -0.382684
vn 0.923879 -0.000000 -0.382684
vn 0.923879 -0.000000 -0.382684
vn 0.923879 -0.000000 -0.382684
vn 0.260376 0.538546 -0.801357
vn 0.260376 0.538546 -0.801357
vn 0.260376 0.538546 -0.801357
vn -0.382684 0.000000 0.923879
vn -0.382684 0.000000 0.923879
vn -0.382684 0.000000 0.923879
vn -0.382684 0.000000 0.923879
vn 0.842596 0.538546 0.000000
vn 0.842596 0.538546 0.000000
vn 0.842596 0.538546 0.000000
vn -0.923880 0.000000 0.382683
vn -0.923880 0.000000 0.382683
vn -0.923880 0.000000 0.382683
vn -0.923880 0.000000 0.382683
vn -0.923879 0.000000 0.382684
vn -0.923879 0.000000 0.382684
vn -0.923879 0.000000 0.382684
vn -0.923879 0.000000 0.382684
vn 0.000000 1.000000 0.000000
vn 0.000000 1.000000 0.000000
vn 0.000000 1.000000 0.000000
vn 0.000000 1.000000 0.000000
vn 0.000000 1.000000 0.000000
vn 0.000000 1.000000 0.000000
vn 0.000000 1.000000 0.000000
vn 0.000000 1.000000 0.000000
vn 0.923879 0.000000 0.382684
vn 0.923879 0.000000 0.382684
vn 0.923879 0.000000 0.382684
vn 0.923879 0.000000 0.382684
vn -0.923879 -0.000000 -0.382684
vn -0.923879 -0.000000 -0.382684
vn -0.923879 -0.000000 -0.382684
vn -0.923879 -0.000000 -0.382684
vn -0.382684 -0.000000 -0.923880
vn -0.382684 -0.000000 -0.923880
vn -0.382684 -0.000000 -0.923880
vn -0.382684 -0.000000 -0.923880
vn 0.000000 -1.000000 -0.000000
vn 0.000000 -1.000000 -0.000000
vn 0.000000 -1.000000 -0.000000
vn 0.000000 -1.000000 -0.000000
vn 0.000000 -1.000000 -0.000000
vn 0.000000 -1.000000 -0.000000
vn 0.000000 -1.000000 -0.000000
vn 0.000000 -1.000000 -0.000000
vn 0.272998 0.468541 -0.840203
vn 0.272998 0.468541 -0.840203
vn 0.272998 0.468541 -0.840203
vn -0.260377 0.538546 0.801356
vn -0.260377 0.538546 0.801356
vn -0.260377 0.538546 0.801356
vn 0.382684 -0.000000 -0.923879
vn 0.382684 -0.000000 -0.923879
vn 0.382684 -0.000000 -0.923879
vn 0.382684 -0.000000 -0.923879
vn 0.382684 0.000000 0.923879
vn 0.382684 0.000000 0.923879
vn 0.382684 0.000000 0.923879
vn 0.382684 0.000000 0.923879
vn -0.681674 0.538546 0.495266
vn -0.681674 0.538546 0.495266
vn -0.681674 0.538546 0.495266
vn -0.842596 0.538546 0.000000
vn -0.842596 0.538546 0.000000
vn -0.842596 0.538546 0.000000
vn 0.000000 -1.000000 0.000000
vn 0.000000 -1.000000 0.000000
vn 0.000000 -1.000000 0.000000
vn 0.000000 -1.000000 0.000000
vn 0.000000 -1.000000 0.000000
vn 0.000000 -1.000000 0.000000
vn 0.000000 -1.000000 0.000000
vn 0.000000 -1.000000 0.000000
vn 0.000000 -1.000000 0.000000
vn 0.000000 -1.000000 0.000000
vn -0.681675 0.538546 -0.495266
vn -0.681675 0.538546 -0.495266
vn -0.681675 0.538546 -0.495266
vn 0.714719 0.468541 0.519274
vn 0.714719 0.468541 0.519274
vn 0.714719 0.468541 0.519274
vn -0.260376 0.538546 -0.801357
vn -0.260376 0.538546 -0.801357
vn -0.260376 0.538546 -0.801357
vn 0.000000 -1.000000 -0.000000
vn 0.000000 -1.000000 -0.000000
vn 0.000000 -1.000000 -0.000000
vn 0.000000 -1.000000 -0.000000
vn 0.000000 -1.000000 -0.000000
vn 0.000000 -1.000000 -0.000000
vn 0.000000 -1.000000 -0.000000
vn 0.000000 -1.000000 -0.000000
vn -0.923880 -0.000000 -0.382683
vn -0.923880 -0.000000 -0.382683
vn -0.923880 -0.000000 -0.382683
vn -0.923880 -0.000000 -0.382683
vn 0.714719 0.468541 -0.519274
vn 0.714719 0.468541 -0.519274
vn 0.714719 0.468541 -0.519274
vn 0.272999 0.468541 0.840203
vn 0.272999 0.468541 0.840203
vn 0.272999 0.468541 0.840203
vn -0.382683 -0.000000 -0.923880
vn -0.382683 -0.000000 -0.923880
vn -0.382683 -0.000000 -0.923880
vn -0.382683 -0.000000 -0.923880
vn 0.000000 1.000000 -0.000000
vn 0.000000 1.000000 -0.000000
vn 0.000000 1.000000 -0.000000
vn 0.000000 1.000000 -0.000000
vn 0.000000 1.000000 -0.000000
vn 0.000000 1.000000 -0.000000
vn 0.000000 1.000000 -0.000000
vn 0.000000 1.000000 -0.000000
vn -0.272998 0.468541 0.840203
vn -0.272998 0.468541 0.840203
vn -0.272998 0.468541 0.840203
vn -0.714719 0.468541 0.519274
vn -0.714719 0.468541 0.519274
vn -0.714719 0.468541 0.519274
vn -0.883442 0.468541 0.000000
vn -0.883442 0.468541 0.000000
vn -0.883442 0.468541 0.000000
vn 0.000000 -1.000000 0.000000
vn 0.000000 -1.000000 0.000000
vn 0.000000 -1.000000 0.000000
vn 0.000000 -1.000000 0.000000
vn 0.000000 -1.000000 0.000000
vn 0.000000 -1.000000 0.000000
vn 0.000000 -1.000000 0.000000
vn 0.000000 -1.000000 0.000000
vn 0.000000 -1.000000 0.000000
vn 0.000000 -1.000000 0.000000
vn -0.714719 0.468541 -0.519274
vn -0.714719 0.468541 -0.519274
vn -0.714719 0.468541 -0.519274
vn -0.272998 0.468541 -0.840203
vn -0.272998 0.468541 -0.840203
vn -0.272998 0.468541 -0.840203
f 2/1/1 3/2/2 5/3/3 4/4/4
f 26/5/5 36/6/6 28/7/7
f 20/8/8 36/9/9 22/10/10
f 4/11/11 5/12/12 7/13/13 6/14/14
f 24/15/15 36/16/16 26/17/17
f 46/18/18 54/19/19 47/20/20
f 6/21/21 7/22/22 9/23/23 8/24/24
f 1/25/25 37/26/26 39/27/27 38/28/28
f 8/29/29 9/30/30 11/31/31 10/32/32
f 29/33/33 27/34/34 23/35/35 25/36/36
f 18/37/37 36/38/38 20/39/39
f 10/40/40 11/41/41 13/42/42 12/43/43
f 22/44/44 36/45/45 24/46/46
f 38/47/47 39/48/48 41/49/49 40/50/50
f 12/51/51 13/52/52 15/53/53 14/54/54
f 5/55/55 3/56/56 17/57/57 15/58/58 13/59/59 11/60/60 9/61/61 7/62/62
f 25/63/63 23/64/64 19/65/65 21/66/66
f 14/67/67 15/68/68 17/69/69 16/70/70
f 16/71/71 17/72/72 3/73/73 2/74/74
f 2/75/75 4/76/76 6/77/77 8/78/78 10/79/79 12/80/80 14/81/81 16/82/82
f 44/83/83 54/84/84 45/85/85
f 28/86/86 36/87/87 30/88/88
f 33/89/89 31/90/90 27/91/91 29/92/92
f 21/93/93 19/94/94 37/95/95 1/96/96
f 30/97/97 36/98/98 32/99/99
f 32/100/100 36/101/101 34/102/102
f 22/103/103 24/104/104 26/105/105 28/106/106 30/107/107 32/108/108 34/109/109 35/110/110 18/111/111 20/112/112
f 34/113/113 36/114/114 35/115/115
f 47/116/116 54/117/117 48/118/118
f 35/119/119 36/120/120 18/121/121
f 25/122/122 21/123/123 1/124/124 38/125/125 40/126/126 42/127/127 33/128/128 29/129/129
f 40/130/130 41/131/131 43/132/132 42/133/133
f 45/134/134 54/135/135 46/136/136
f 48/137/137 54/138/138 49/139/139
f 42/140/140 43/141/141 31/142/142 33/143/143
f 39/144/144 37/145/145 19/146/146 23/147/147 27/148/148 31/149/149 43/150/150 41/151/151
f 49/152/152 54/153/153 50/154/154
f 50/155/155 54/156/156 51/157/157
f 51/158/158 54/159/159 52/160/160
f 47/161/161 48/162/162 49/163/163 50/164/164 51/165/165 52/166/166 53/167/167 44/168/168 45/169/169 46/170/170
f 52/171/171 54/172/172 53/173/173
f 53/174/174 54/175/175 44/176/176
