# generated by tools/art/gen_meshes.py
v -0.026400 -1.667900 -0.658686
v -0.026400 2.771920 -0.658686
v 0.318976 -1.667900 -0.515626
v 0.318976 2.771920 -0.515626
v 0.462036 -1.667900 -0.170250
v 0.462036 2.771920 -0.170250
v 0.318976 -1.667900 0.175127
v 0.318976 2.771920 0.175126
v -0.026400 -1.667900 0.318186
v -0.026400 2.771920 0.318186
v -0.371776 -1.667900 0.175127
v -0.371776 2.771920 0.175126
v -0.514836 -1.667900 -0.170250
v -0.514836 2.771920 -0.170250
v -0.371776 -1.667900 -0.515626
v -0.371776 2.771920 -0.515626
v -0.026400 2.349080 -4.240550
v 2.366062 2.349080 -3.463192
v 3.844686 2.349080 -1.428042
v 3.844686 2.349080 1.087542
v 2.366062 2.349080 3.122692
v -0.026400 2.349080 3.900050
v -2.418862 2.349080 3.122692
v -3.897486 2.349080 1.087542
v -3.897486 2.349080 -1.428042
v -2.418862 2.349080 -3.463192
v -0.026400 8.903100 -0.170250
vt 0.500000 0.000000
vt 0.500000 0.420000
vt 0.544610 0.420000
vt 0.544610 0.000000
vt 0.809017 0.380000
vt 0.500000 1.000000
vt 0.500000 0.380000
vt 0.380000 0.095491
vt 1.000000 0.500000
vt 0.380000 0.345491
vt 0.000000 0.457574
vt 0.420000 0.457574
vt 0.420000 0.500000
vt 0.000000 0.500000
vt 0.380000 0.654508
vt 1.000000 0.500000
vt 0.380000 0.904509
vt 0.000000 0.500000
vt 0.420000 0.500000
vt 0.420000 0.542426
vt 0.000000 0.542426
vt 0.544610 0.000000
vt 0.544610 0.420000
vt 0.500000 0.420000
vt 0.500000 0.000000
vt 0.500000 0.380000
vt 0.500000 1.000000
vt 0.809017 0.380000
vt 0.500000 0.000000
vt 0.500000 0.420000
vt 0.455390 0.420000
vt 0.455390 0.000000
vt 0.380000 0.345491
vt 1.000000 0.500000
vt 0.380000 0.654508
vt 0.000000 0.542426
vt 0.420000 0.542426
vt 0.420000 0.500000
vt 0.000000 0.500000
vt 0.544610 0.457574
vt 0.500000 0.440000
vt 0.455390 0.457574
vt 0.436912 0.500000
vt 0.455390 0.542426
vt 0.500000 0.560000
vt 0.544610 0.542426
vt 0.563088 0.500000
vt 0.000000 0.500000
vt 0.420000 0.500000
vt 0.420000 0.457574
vt 0.000000 0.457574
vt 0.455390 0.000000
vt 0.455390 0.420000
vt 0.500000 0.420000
vt 0.500000 0.000000
vt 0.500000 0.440000
vt 0.544610 0.457574
vt 0.563088 0.500000
vt 0.544610 0.542426
vt 0.500000 0.560000
vt 0.455390 0.542426
vt 0.436912 0.500000
vt 0.455390 0.457574
vt 0.500000 0.380000
vt 0.500000 1.000000
vt 0.190983 0.380000
vt 0.380000 0.904509
vt 1.000000 0.500000
vt 0.380000 0.654508
vt 0.380000 0.654508
vt 1.000000 0.500000
vt 0.380000 0.345491
vt 1.000000 0.345491
vt 1.000000 0.654508
vt 0.809017 0.904509
vt 0.500000 1.000000
vt 0.190983 0.904509
vt 0.000000 0.654508
vt 0.000000 0.345491
vt 0.190983 0.095491
vt 0.500000 0.000000
vt 0.809017 0.095491
vt 0.380000 0.345491
vt 1.000000 0.500000
vt 0.380000 0.095491
vt 0.190983 0.380000
vt 0.500000 1.000000
vt 0.500000 0.380000
vn 0.382684 -0.000000 -0.923880
vn 0.382684 -0.000000 -0.923880
vn 0.382684 -0.000000 -0.923880
vn 0.382684 -0.000000 -0.923880
vn 0.266072 0.508559 0.818885
vn 0.266072 0.508559 0.818885
vn 0.266072 0.508559 0.818885
vn 0.696585 0.508559 -0.506099
vn 0.696585 0.508559 -0.506099
vn 0.696585 0.508559 -0.506099
vn 0.923880 -0.000000 -0.382684
vn 0.923880 -0.000000 -0.382684
vn 0.923880 -0.000000 -0.382684
vn 0.923880 -0.000000 -0.382684
vn 0.696585 0.508559 0.506099
vn 0.696585 0.508559 0.506099
vn 0.696585 0.508559 0.506099
vn 0.923880 0.000000 0.382684
vn 0.923880 0.000000 0.382684
vn 0.923880 0.000000 0.382684
vn 0.923880 0.000000 0.382684
vn 0.382683 0.000000 0.923880
vn 0.382683 0.000000 0.923880
vn 0.382683 0.000000 0.923880
vn 0.382683 0.000000 0.923880
vn 0.266072 0.508559 -0.818885
vn 0.266072 0.508559 -0.818885
vn 0.266072 0.508559 -0.818885
vn -0.382683 0.000000 0.923880
vn -0.382683 0.000000 0.923880
vn -0.382683 0.000000 0.923880
vn -0.382683 0.000000 0.923880
vn 0.861027 0.508559 0.000000
vn 0.861027 0.508559 0.000000
vn 0.861027 0.508559 0.000000
vn -0.923880 0.000000 0.382684
vn -0.923880 0.000000 0.382684
vn -0.923880 0.000000 0.382684
vn -0.923880 0.000000 0.382684
vn 0.000000 1.000000 0.000000
vn 0.000000 1.000000 0.000000
vn 0.000000 1.000000 0.000000
vn 0.000000 1.000000 0.000000
vn 0.000000 1.000000 0.000000
vn 0.000000 1.000000 0.000000
vn 0.000000 1.000000 0.000000
vn 0.000000 1.000000 0.000000
vn -0.923880 -0.000000 -0.382684
vn -0.923880 -0.000000 -0.382684
vn -0.923880 -0.000000 -0.382684
vn -0.923880 -0.000000 -0.382684
vn -0.382684 -0.000000 -0.923880
vn -0.382684 -0.000000 -0.923880
vn -0.382684 -0.000000 -0.923880
vn -0.382684 -0.000000 -0.923880
vn 0.000000 -1.000000 0.000000
vn 0.000000 -1.000000 0.000000
vn 0.000000 -1.000000 0.000000
vn 0.000000 -1.000000 0.000000
vn 0.000000 -1.000000 0.000000
vn 0.000000 -1.000000 0.000000
vn 0.000000 -1.000000 0.000000
vn 0.000000 -1.000000 0.000000
vn -0.266072 0.508559 0.818885
vn -0.266072 0.508559 0.818885
vn -0.266072 0.508559 0.818885
vn -0.696585 0.508559 0.506099
vn -0.696585 0.508559 0.506099
vn -0.696585 0.508559 0.506099
vn -0.861027 0.508559 0.000000
vn -0.861027 0.508559 0.000000
vn -0.861027 0.508559 0.000000
vn 0.000000 -1.000000 0.000000
vn 0.000000 -1.000000 0.000000
vn 0.000000 -1.000000 0.000000
vn 0.000000 -1.000000 0.000000
vn 0.000000 -1.000000 0.000000
vn 0.000000 -1.000000 0.000000
vn 0.000000 -1.000000 0.000000
vn 0.000000 -1.000000 0.000000
vn 0.000000 -1.000000 0.000000
vn 0.000000 -1.000000 0.000000
vn -0.696585 0.508559 -0.506099
vn -0.696585 0.508559 -0.506099
vn -0.696585 0.508559 -0.506099
vn -0.266072 0.508559 -0.818885
vn -0.266072 0.508559 -0.818885
vn -0.266072 0.508559 -0.818885
f 1/1/1 2/2/2 4/3/3 3/4/4
f 21/5/5 27/6/6 22/7/7
f 18/8/8 27/9/9 19/10/10
f 3/11/11 4/12/12 6/13/13 5/14/14
f 20/15/15 27/16/16 21/17/17
f 5/18/18 6/19/19 8/20/20 7/21/21
f 7/22/22 8/23/23 10/24/24 9/25/25
f 17/26/26 27/27/27 18/28/28
f 9/29/29 10/30/30 12/31/31 11/32/32
f 19/33/33 27/34/34 20/35/35
f 11/36/36 12/37/37 14/38/38 13/39/39
f 4/40/40 2/41/41 16/42/42 14/43/43 12/44/44 10/45/45 8/46/46 6/47/47
f 13/48/48 14/49/49 16/50/50 15/51/51
f 15/52/52 16/53/53 2/54/54 1/55/55
f 1/56/56 3/57/57 5/58/58 7/59/59 9/60/60 11/61/61 13/62/62 15/63/63
f 22/64/64 27/65/65 23/66/66
f 23/67/67 27/68/68 24/69/69
f 24/70/70 27/71/71 25/72/72
f 19/73/73 20/74/74 21/75/75 22/76/76 23/77/77 24/78/78 25/79/79 26/80/80 17/81/81 18/82/82
f 25/83/83 27/84/84 26/85/85
f 26/86/86 27/87/87 17/88/88
