# generated by tools/art/gen_meshes.py
v 3.806750 -0.880134 29.442421
v -4.247750 0.120842 28.475880
v -4.247750 4.219839 28.475880
v -3.906026 0.120842 28.617426
v -3.906026 4.219839 28.617426
v -3.764480 0.120842 28.959150
v -3.764480 4.219839 28.959150
v -3.906026 0.120842 29.300873
v -3.906026 4.219839 29.300873
v -4.247750 0.120842 29.442421
v -4.247750 4.219839 29.442421
v -4.589473 0.120842 29.300873
v -4.589473 4.219839 29.300873
v -4.731020 0.120842 28.959150
v -4.731020 4.219839 28.959150
v -4.589473 0.120842 28.617426
v -4.589473 4.219839 28.617426
v -4.247750 3.829458 24.931900
v 4.148473 4.059682 29.300873
v -1.880592 3.829458 25.701036
v 4.148473 -0.880134 29.300873
v -0.417608 3.829458 27.714661
v 4.290020 4.059682 28.959150
v -0.417608 3.829458 30.203638
v 4.290020 -0.880134 28.959150
v -1.880592 3.829458 32.217262
v 4.148473 4.059682 28.617426
v -4.247750 3.829458 32.986401
v 4.148473 -0.880134 28.617426
v -6.614908 3.829458 32.217262
v 3.806750 4.059682 28.475880
v -8.077892 3.829458 30.203638
v 3.806750 -0.880134 28.475880
v -8.077892 3.829458 27.714661
v -6.614908 3.829458 25.701036
v -4.247750 9.880358 28.959150
v 3.806750 4.059682 29.442421
v 3.465026 -0.880134 29.300873
v 3.465026 4.059682 29.300873
v 3.323480 -0.880134 28.959150
v 3.323480 4.059682 28.959150
v 3.465026 -0.880134 28.617426
v 3.465026 4.059682 28.617426
v 3.806750 3.589224 24.931900
v 6.173908 3.589224 25.701036
v 7.636892 3.589224 27.714661
v 7.636892 3.589224 30.203638
v 6.173908 3.589224 32.217262
v 3.806750 3.589224 32.986401
v 1.439592 3.589224 32.217262
v -0.023392 3.589224 30.203638
v -0.023392 3.589224 27.714661
v 1.439592 3.589224 25.701036
v 3.806750 10.881334 28.959150
vt 0.243729 0.085106
vt 0.243729 0.433617
vt 0.265474 0.433617
vt 0.265474 0.085106
vt 0.394361 0.400426
vt 0.243729 0.914894
vt 0.243729 0.400426
vt 0.400426 0.095492
vt 0.914894 0.500000
vt 0.400426 0.345491
vt 0.085106 0.457573
vt 0.433617 0.457573
vt 0.433617 0.500000
vt 0.085106 0.500000
vt 0.400426 0.654508
vt 0.914894 0.500000
vt 0.400426 0.904508
vt 0.380000 0.345491
vt 1.000000 0.500000
vt 0.380000 0.654508
vt 0.085106 0.500000
vt 0.433617 0.500000
vt 0.433617 0.542426
vt 0.085106 0.542426
vt 0.756271 0.000000
vt 0.756271 0.420000
vt 0.734526 0.420000
vt 0.734526 0.000000
vt 0.265474 0.085106
vt 0.265474 0.433617
vt 0.243729 0.433617
vt 0.243729 0.085106
vt 0.000000 0.457573
vt 0.420000 0.457573
vt 0.420000 0.500000
vt 0.000000 0.500000
vt 0.243729 0.400426
vt 0.243729 0.914894
vt 0.394361 0.400426
vt 0.243729 0.085106
vt 0.243729 0.433617
vt 0.221983 0.433617
vt 0.221983 0.085106
vt 0.400426 0.345491
vt 0.914894 0.500000
vt 0.400426 0.654508
vt 0.000000 0.542426
vt 0.420000 0.542426
vt 0.420000 0.500000
vt 0.000000 0.500000
vt 0.085106 0.542426
vt 0.433617 0.542426
vt 0.433617 0.500000
vt 0.085106 0.500000
vt 0.265474 0.457573
vt 0.243729 0.440000
vt 0.221983 0.457573
vt 0.212976 0.500000
vt 0.221983 0.542426
vt 0.243729 0.560000
vt 0.265474 0.542426
vt 0.274481 0.500000
vt 0.000000 0.500000
vt 0.420000 0.500000
vt 0.420000 0.542426
vt 0.000000 0.542426
vt 0.085106 0.500000
vt 0.433617 0.500000
vt 0.433617 0.457573
vt 0.085106 0.457573
vt 0.221983 0.085106
vt 0.221983 0.433617
vt 0.243729 0.433617
vt 0.243729 0.085106
vt 0.243729 0.440000
vt 0.265474 0.457573
vt 0.274481 0.500000
vt 0.265474 0.542426
vt 0.243729 0.560000
vt 0.221983 0.542426
vt 0.212976 0.500000
vt 0.221983 0.457573
vt 0.756271 0.380000
vt 0.756271 1.000000
vt 0.906904 0.380000
vt 0.243729 0.400426
vt 0.243729 0.914894
vt 0.093096 0.400426
vt 0.756271 0.000000
vt 0.756271 0.420000
vt 0.778017 0.420000
vt 0.778017 0.000000
vt 0.778017 0.000000
vt 0.778017 0.420000
vt 0.756271 0.420000
vt 0.756271 0.000000
vt 0.400426 0.904508
vt 0.914894 0.500000
vt 0.400426 0.654508
vt 0.400426 0.654508
vt 0.914894 0.500000
vt 0.400426 0.345491
vt 0.487457 0.345491
vt 0.487457 0.654508
vt 0.394361 0.904508
vt 0.243729 1.000000
vt 0.093096 0.904508
vt 0.000000 0.654508
vt 0.000000 0.345491
vt 0.093096 0.095492
vt 0.243729 0.000000
vt 0.394361 0.095492
vt 0.400426 0.345491
vt 0.914894 0.500000
vt 0.400426 0.095492
vt 0.380000 0.654508
vt 1.000000 0.500000
vt 0.380000 0.904508
vt 0.093096 0.400426
vt 0.243729 0.914894
vt 0.243729 0.400426
vt 0.787024 0.500000
vt 0.778017 0.542426
vt 0.756271 0.560000
vt 0.734526 0.542426
vt 0.725519 0.500000
vt 0.734526 0.457573
vt 0.756271 0.440000
vt 0.778017 0.457573
vt 0.000000 0.500000
vt 0.420000 0.500000
vt 0.420000 0.457573
vt 0.000000 0.457573
vt 0.380000 0.095492
vt 1.000000 0.500000
vt 0.380000 0.345491
vt 0.906904 0.380000
vt 0.756271 1.000000
vt 0.756271 0.380000
vt 0.734526 0.000000
vt 0.734526 0.420000
vt 0.756271 0.420000
vt 0.756271 0.000000
vt 0.734526 0.542426
vt 0.756271 0.560000
vt 0.778017 0.542426
vt 0.787024 0.500000
vt 0.778017 0.457573
vt 0.756271 0.440000
vt 0.734526 0.457573
vt 0.725519 0.500000
vt 0.756271 0.380000
vt 0.756271 1.000000
vt 0.605639 0.380000
vt 0.380000 0.904508
vt 1.000000 0.500000
vt 0.380000 0.654508
vt 0.380000 0.654508
vt 1.000000 0.500000
vt 0.380000 0.345491
vt 1.000000 0.654508
vt 0.906904 0.904508
vt 0.756271 1.000000
vt 0.605639 0.904508
vt 0.512543 0.654508
vt 0.512543 0.345491
vt 0.605639 0.095492
vt 0.756271 0.000000
vt 0.906904 0.095492
vt 1.000000 0.345491
vt 0.380000 0.345491
vt 1.000000 0.500000
vt 0.380000 0.095492
vt 0.605639 0.380000
vt 0.756271 1.000000
vt 0.756271 0.380000
vn 0.382683 0.000000 -0.923880
vn 0.382683 0.000000 -0.923880
vn 0.382683 0.000000 -0.923880
vn 0.382683 0.000000 -0.923880
vn 0.261105 0.534843 0.803596
vn 0.261105 0.534843 0.803596
vn 0.261105 0.534843 0.803596
vn 0.683580 0.534843 -0.496650
vn 0.683580 0.534843 -0.496650
vn 0.683580 0.534843 -0.496650
vn 0.923880 0.000000 -0.382683
vn 0.923880 0.000000 -0.382683
vn 0.923880 0.000000 -0.382683
vn 0.923880 0.000000 -0.382683
vn 0.683580 0.534843 0.496650
vn 0.683580 0.534843 0.496650
vn 0.683580 0.534843 0.496650
vn 0.885309 0.465004 0.000000
vn 0.885309 0.465004 0.000000
vn 0.885309 0.465004 0.000000
vn 0.923879 0.000000 0.382684
vn 0.923879 0.000000 0.382684
vn 0.923879 0.000000 0.382684
vn 0.923879 0.000000 0.382684
vn -0.382687 0.000000 0.923878
vn -0.382687 0.000000 0.923878
vn -0.382687 0.000000 0.923878
vn -0.382687 0.000000 0.923878
vn 0.382687 0.000000 0.923878
vn 0.382687 0.000000 0.923878
vn 0.382687 0.000000 0.923878
vn 0.382687 0.000000 0.923878
vn 0.923880 0.000000 -0.382683
vn 0.923880 0.000000 -0.382683
vn 0.923880 0.000000 -0.382683
vn 0.923880 0.000000 -0.382683
vn 0.261104 0.534843 -0.803596
vn 0.261104 0.534843 -0.803596
vn 0.261104 0.534843 -0.803596
vn -0.382687 0.000000 0.923878
vn -0.382687 0.000000 0.923878
vn -0.382687 0.000000 0.923878
vn -0.382687 0.000000 0.923878
vn 0.844951 0.534843 0.000000
vn 0.844951 0.534843 0.000000
vn 0.844951 0.534843 0.000000
vn -0.923879 0.000000 0.382684
vn -0.923879 0.000000 0.382684
vn -0.923879 0.000000 0.382684
vn -0.923879 0.000000 0.382684
vn -0.923879 0.000000 0.382685
vn -0.923879 0.000000 0.382685
vn -0.923879 0.000000 0.382685
vn -0.923879 0.000000 0.382685
vn 0.000000 1.000000 0.000000
vn 0.000000 1.000000 0.000000
vn 0.000000 1.000000 0.000000
vn 0.000000 1.000000 0.000000
vn 0.000000 1.000000 0.000000
vn 0.000000 1.000000 0.000000
vn 0.000000 1.000000 0.000000
vn 0.000000 1.000000 0.000000
vn 0.923879 0.000000 0.382685
vn 0.923879 0.000000 0.382685
vn 0.923879 0.000000 0.382685
vn 0.923879 0.000000 0.382685
vn -0.923880 0.000000 -0.382683
vn -0.923880 0.000000 -0.382683
vn -0.923880 0.000000 -0.382683
vn -0.923880 0.000000 -0.382683
vn -0.382683 0.000000 -0.923880
vn -0.382683 0.000000 -0.923880
vn -0.382683 0.000000 -0.923880
vn -0.382683 0.000000 -0.923880
vn 0.000000 -1.000000 -0.000000
vn 0.000000 -1.000000 -0.000000
vn 0.000000 -1.000000 -0.000000
vn 0.000000 -1.000000 -0.000000
vn 0.000000 -1.000000 -0.000000
vn 0.000000 -1.000000 -0.000000
vn 0.000000 -1.000000 -0.000000
vn 0.000000 -1.000000 -0.000000
vn 0.273575 0.465004 -0.841979
vn 0.273575 0.465004 -0.841979
vn 0.273575 0.465004 -0.841979
vn -0.261105 0.534843 0.803596
vn -0.261105 0.534843 0.803596
vn -0.261105 0.534843 0.803596
vn 0.382683 0.000000 -0.923880
vn 0.382683 0.000000 -0.923880
vn 0.382683 0.000000 -0.923880
vn 0.382683 0.000000 -0.923880
vn 0.382687 0.000000 0.923878
vn 0.382687 0.000000 0.923878
vn 0.382687 0.000000 0.923878
vn 0.382687 0.000000 0.923878
vn -0.683580 0.534843 0.496650
vn -0.683580 0.534843 0.496650
vn -0.683580 0.534843 0.496650
vn -0.844951 0.534843 0.000000
vn -0.844951 0.534843 0.000000
vn -0.844951 0.534843 0.000000
vn 0.000000 -1.000000 0.000000
vn 0.000000 -1.000000 0.000000
vn 0.000000 -1.000000 0.000000
vn 0.000000 -1.000000 0.000000
vn 0.000000 -1.000000 0.000000
vn 0.000000 -1.000000 0.000000
vn 0.000000 -1.000000 0.000000
vn 0.000000 -1.000000 0.000000
vn 0.000000 -1.000000 0.000000
vn 0.000000 -1.000000 0.000000
vn -0.683580 0.534843 -0.496650
vn -0.683580 0.534843 -0.496650
vn -0.683580 0.534843 -0.496650
vn 0.716230 0.465004 0.520372
vn 0.716230 0.465004 0.520372
vn 0.716230 0.465004 0.520372
vn -0.261104 0.534843 -0.803596
vn -0.261104 0.534843 -0.803596
vn -0.261104 0.534843 -0.803596
vn 0.000000 -1.000000 0.000000
vn 0.000000 -1.000000 0.000000
vn 0.000000 -1.000000 0.000000
vn 0.000000 -1.000000 0.000000
vn 0.000000 -1.000000 0.000000
vn 0.000000 -1.000000 0.000000
vn 0.000000 -1.000000 0.000000
vn 0.000000 -1.000000 0.000000
vn -0.923880 0.000000 -0.382683
vn -0.923880 0.000000 -0.382683
vn -0.923880 0.000000 -0.382683
vn -0.923880 0.000000 -0.382683
vn 0.716230 0.465004 -0.520372
vn 0.716230 0.465004 -0.520372
vn 0.716230 0.465004 -0.520372
vn 0.273576 0.465004 0.841978
vn 0.273576 0.465004 0.841978
vn 0.273576 0.465004 0.841978
vn -0.382683 0.000000 -0.923880
vn -0.382683 0.000000 -0.923880
vn -0.382683 0.000000 -0.923880
vn -0.382683 0.000000 -0.923880
vn 0.000000 1.000000 -0.000000
vn 0.000000 1.000000 -0.000000
vn 0.000000 1.000000 -0.000000
vn 0.000000 1.000000 -0.000000
vn 0.000000 1.000000 -0.000000
vn 0.000000 1.000000 -0.000000
vn 0.000000 1.000000 -0.000000
vn 0.000000 1.000000 -0.000000
vn -0.273576 0.465004 0.841978
vn -0.273576 0.465004 0.841978
vn -0.273576 0.465004 0.841978
vn -0.716230 0.465004 0.520372
vn -0.716230 0.465004 0.520372
vn -0.716230 0.465004 0.520372
vn -0.885309 0.465004 0.000000
vn -0.885309 0.465004 0.000000
vn -0.885309 0.465004 0.000000
vn 0.000000 -1.000000 0.000000
vn 0.000000 -1.000000 0.000000
vn 0.000000 -1.000000 0.000000
vn 0.000000 -1.000000 0.000000
vn 0.000000 -1.000000 0.000000
vn 0.000000 -1.000000 0.000000
vn 0.000000 -1.000000 0.000000
vn 0.000000 -1.000000 0.000000
vn 0.000000 -1.000000 0.000000
vn 0.000000 -1.000000 0.000000
vn -0.716230 0.465004 -0.520372
vn -0.716230 0.465004 -0.520372
vn -0.716230 0.465004 -0.520372
vn -0.273575 0.465004 -0.841979
vn -0.273575 0.465004 -0.841979
vn -0.273575 0.465004 -0.841979
f 2/1/1 3/2/2 5/3/3 4/4/4
f 26/5/5 36/6/6 28/7/7
f 20/8/8 36/9/9 22/10/10
f 4/11/11 5/12/12 7/13/13 6/14/14
f 24/15/15 36/16/16 26/17/17
f 46/18/18 54/19/19 47/20/20
f 6/21/21 7/22/22 9/23/23 8/24/24
f 1/25/25 37/26/26 39/27/27 38/28/28
f 8/29/29 9/30/30 11/31/31 10/32/32
f 29/33/33 27/34/34 23/35/35 25/36/36
f 18/37/37 36/38/38 20/39/39
f 10/40/40 11/41/41 13/42/42 12/43/43
f 22/44/44 36/45/45 24/46/46
f 38/47/47 39/48/48 41/49/49 40/50/50
f 12/51/51 13/52/52 15/53/53 14/54/54
f 5/55/55 3/56/56 17/57/57 15/58/58 13/59/59 11/60/60 9/61/61 7/62/62
f 25/63/63 23/64/64 19/65/65 21/66/66
f 14/67/67 15/68/68 17/69/69 16/70/70
f 16/71/71 17/72/72 3/73/73 2/74/74
f 2/75/75 4/76/76 6/77/77 8/78/78 10/79/79 12/80/80 14/81/81 16/82/82
f 44/83/83 54/84/84 45/85/85
f 28/86/86 36/87/87 30/88/88
f 33/89/89 31/90/90 27/91/91 29/92/92
f 21/93/93 19/94/94 37/95/95 1/96/96
f 30/97/97 36/98/98 32/99/99
f 32/100/100 36/101/101 34/102/102
f 22/103/103 24/104/104 26/105/105 28/106/106 30/107/107 32/108/108 34/109/109 35/110/110 18/111/111 20/112/112
f 34/113/113 36/114/114 35/115/115
f 47/116/116 54/117/117 48/118/118
f 35/119/119 36/120/120 18/121/121
f 25/122/122 21/123/123 1/124/124 38/125/125 40/126/126 42/127/127 33/128/128 29/129/129
f 40/130/130 41/131/131 43/132/132 42/133/133
f 45/134/134 54/135/135 46/136/136
f 48/137/137 54/138/138 49/139/139
f 42/140/140 43/141/141 31/142/142 33/143/143
f 39/144/144 37/145/145 19/146/146 23/147/147 27/148/148 31/149/149 43/150/150 41/151/151
f 49/152/152 54/153/153 50/154/154
f 50/155/155 54/156/156 51/157/157
f 51/158/158 54/159/159 52/160/160
f 47/161/161 48/162/162 49/163/163 50/164/164 51/165/165 52/166/166 53/167/167 44/168/168 45/169/169 46/170/170
f 52/171/171 54/172/172 53/173/173
f 53/174/174 54/175/175 44/176/176
