# generated by tools/art/gen_meshes.py
v 4.485350 -0.250000 -0.500000
v 4.485350 4.250000 -0.500000
v 8.367675 -0.250000 -0.433013
v 8.367675 4.250000 -0.433013
v 11.209734 -0.250000 -0.250000
v 11.209734 4.250000 -0.250000
v 12.250000 -0.250000 0.000000
v 12.250000 4.250000 -0.000000
v 11.209734 -0.250000 0.250000
v 11.209734 4.250000 0.250000
v 8.367675 -0.250000 0.433013
v 8.367675 4.250000 0.433013
v 4.485350 -0.250000 0.500000
v 4.485350 4.250000 0.500000
v 0.603025 -0.250000 0.433013
v 0.603025 4.250000 0.433013
v -2.239034 -0.250000 0.250000
v -2.239034 4.250000 0.250000
v -3.279300 -0.250000 0.000000
v -3.279300 4.250000 -0.000000
v -2.239034 -0.250000 -0.250000
v -2.239034 4.250000 -0.250000
v 0.603025 -0.250000 -0.433013
v 0.603025 4.250000 -0.433013
vt 0.500000 0.000000
vt 0.500000 1.000000
vt 0.750000 1.000000
vt 0.750000 0.000000
vt 0.750000 0.000000
vt 0.750000 1.000000
vt 0.933013 1.000000
vt 0.933013 0.000000
vt 0.933013 0.000000
vt 0.933013 1.000000
vt 1.000000 1.000000
vt 1.000000 0.000000
vt 1.000000 0.000000
vt 1.000000 1.000000
vt 0.933013 1.000000
vt 0.933013 0.000000
vt 0.933013 0.000000
vt 0.933013 1.000000
vt 0.750000 1.000000
vt 0.750000 0.000000
vt 0.750000 0.000000
vt 0.750000 1.000000
vt 0.500000 1.000000
vt 0.500000 0.000000
vt 0.500000 0.000000
vt 0.500000 1.000000
vt 0.250000 1.000000
vt 0.250000 0.000000
vt 0.250000 0.000000
vt 0.250000 1.000000
vt 0.066987 1.000000
vt 0.066987 0.000000
vt 0.066987 0.000000
vt 0.066987 1.000000
vt 0.000000 1.000000
vt 0.000000 0.000000
vt 0.000000 0.000000
vt 0.000000 1.000000
vt 0.066987 1.000000
vt 0.066987 0.000000
vt 0.750000 0.066987
vt 0.500000 0.000000
vt 0.250000 0.066987
vt 0.066987 0.250000
vt 0.000000 0.500000
vt 0.066987 0.750000
vt 0.250000 0.933013
vt 0.500000 1.000000
vt 0.750000 0.933013
vt 0.933013 0.750000
vt 1.000000 0.500000
vt 0.933013 0.250000
vt 0.066987 0.000000
vt 0.066987 1.000000
vt 0.250000 1.000000
vt 0.250000 0.000000
vt 0.250000 0.000000
vt 0.250000 1.000000
vt 0.500000 1.000000
vt 0.500000 0.000000
vt 0.500000 0.000000
vt 0.750000 0.066987
vt 0.933013 0.250000
vt 1.000000 0.500000
vt 0.933013 0.750000
vt 0.750000 0.933013
vt 0.500000 1.000000
vt 0.250000 0.933013
vt 0.066987 0.750000
vt 0.000000 0.500000
vt 0.066987 0.250000
vt 0.250000 0.066987
vn 0.000000 -0.703245 -0.710947
vn 0.000000 0.703246 -0.710947
vn 0.029040 0.701851 -0.711731
vn 0.029040 -0.701851 -0.711731
vn 0.029040 -0.701851 -0.711731
vn 0.029040 0.701851 -0.711731
vn 0.108458 0.688328 -0.717245
vn 0.108458 -0.688328 -0.717245
vn 0.108458 -0.688328 -0.717245
vn 0.108458 0.688328 -0.717245
vn 0.841299 0.540570 0.000000
vn 0.841299 -0.540570 -0.000000
vn 0.841299 -0.540570 -0.000000
vn 0.841299 0.540570 0.000000
vn 0.108458 0.688328 0.717245
vn 0.108458 -0.688328 0.717245
vn 0.108458 -0.688328 0.717245
vn 0.108458 0.688328 0.717245
vn 0.029040 0.701851 0.711731
vn 0.029040 -0.701851 0.711731
vn 0.029040 -0.701851 0.711731
vn 0.029040 0.701851 0.711731
vn 0.000000 0.703245 0.710947
vn 0.000000 -0.703245 0.710947
vn 0.000000 -0.703245 0.710947
vn 0.000000 0.703245 0.710947
vn -0.029040 0.701852 0.711731
vn -0.029040 -0.701851 0.711731
vn -0.029040 -0.701851 0.711731
vn -0.029040 0.701852 0.711731
vn -0.108458 0.688328 0.717245
vn -0.108458 -0.688328 0.717245
vn -0.108458 -0.688328 0.717245
vn -0.108458 0.688328 0.717245
vn -0.841299 0.540570 0.000000
vn -0.841299 -0.540570 -0.000000
vn -0.841299 -0.540570 -0.000000
vn -0.841299 0.540570 0.000000
vn -0.108458 0.688328 -0.717245
vn -0.108458 -0.688328 -0.717245
vn 0.029040 0.701851 -0.711731
vn 0.000000 0.703246 -0.710947
vn -0.029040 0.701852 -0.711731
vn -0.108458 0.688328 -0.717245
vn -0.841299 0.540570 0.000000
vn -0.108458 0.688328 0.717245
vn -0.029040 0.701852 0.711731
vn 0.000000 0.703245 0.710947
vn 0.029040 0.701851 0.711731
vn 0.108458 0.688328 0.717245
vn 0.841299 0.540570 0.000000
vn 0.108458 0.688328 -0.717245
vn -0.108458 -0.688328 -0.717245
vn -0.108458 0.688328 -0.717245
vn -0.029040 0.701852 -0.711731
vn -0.029040 -0.701852 -0.711731
vn -0.029040 -0.701852 -0.711731
vn -0.029040 0.701852 -0.711731
vn 0.000000 0.703246 -0.710947
vn 0.000000 -0.703245 -0.710947
vn 0.000000 -0.703245 -0.710947
vn 0.029040 -0.701851 -0.711731
vn 0.108458 -0.688328 -0.717245
vn 0.841299 -0.540570 -0.000000
vn 0.108458 -0.688328 0.717245
vn 0.029040 -0.701851 0.711731
vn 0.000000 -0.703245 0.710947
vn -0.029040 -0.701851 0.711731
vn -0.108458 -0.688328 0.717245
vn -0.841299 -0.540570 -0.000000
vn -0.108458 -0.688328 -0.717245
vn -0.029040 -0.701852 -0.711731
f 1/1/1 2/2/2 4/3/3 3/4/4
f 3/5/5 4/6/6 6/7/7 5/8/8
f 5/9/9 6/10/10 8/11/11 7/12/12
f 7/13/13 8/14/14 10/15/15 9/16/16
f 9/17/17 10/18/18 12/19/19 11/20/20
f 11/21/21 12/22/22 14/23/23 13/24/24
f 13/25/25 14/26/26 16/27/27 15/28/28
f 15/29/29 16/30/30 18/31/31 17/32/32
f 17/33/33 18/34/34 20/35/35 19/36/36
f 19/37/37 20/38/38 22/39/39 21/40/40
f 4/41/41 2/42/42 24/43/43 22/44/44 20/45/45 18/46/46 16/47/47 14/48/48 12/49/49 10/50/50 8/51/51 6/52/52
f 21/53/53 22/54/54 24/55/55 23/56/56
f 23/57/57 24/58/58 2/59/59 1/60/60
f 1/61/61 3/62/62 5/63/63 7/64/64 9/65/65 11/66/66 13/67/67 15/68/68 17/69/69 19/70/70 21/71/71 23/72/72
