# generated by tools/art/gen_meshes.py
v -0.060877 0.040400 0.000000
v 0.060877 0.040400 -0.000000
v -0.060877 -0.037287 0.017732
v 0.060877 -0.037287 0.017732
v -0.060877 -0.099587 0.067414
v 0.060877 -0.099587 0.067414
v -0.060877 -0.134161 0.139208
v 0.060877 -0.134161 0.139208
v -0.060877 -0.134161 0.218892
v 0.060877 -0.134161 0.218892
v -0.060877 -0.099587 0.290686
v 0.060877 -0.099587 0.290686
v -0.060877 -0.037287 0.340368
v 0.060877 -0.037287 0.340368
v -0.060877 0.040400 0.358100
v 0.060877 0.040400 0.358100
v -0.060877 0.118087 0.340368
v 0.060877 0.118087 0.340368
v -0.060877 0.180387 0.290686
v 0.060877 0.180387 0.290686
v -0.060877 0.214961 0.218892
v 0.060877 0.214961 0.218892
v -0.060877 0.214961 0.139208
v 0.060877 0.214961 0.139208
v -0.060877 0.180387 0.067414
v 0.060877 0.180387 0.067414
v -0.060877 0.118087 0.017732
v 0.060877 0.118087 0.017732
v -0.060877 0.040400 -0.358100
v 0.060877 0.040400 -0.358100
v -0.060877 -0.037287 -0.340368
v 0.060877 -0.037287 -0.340368
v -0.060877 -0.099587 -0.290686
v 0.060877 -0.099587 -0.290686
v -0.060877 -0.134161 -0.218892
v 0.060877 -0.134161 -0.218892
v -0.060877 -0.134161 -0.139208
v 0.060877 -0.134161 -0.139208
v -0.060877 -0.099587 -0.067414
v 0.060877 -0.099587 -0.067414
v -0.060877 -0.037287 -0.017732
v 0.060877 -0.037287 -0.017732
v -0.060877 0.040400 0.000000
v 0.060877 0.040400 -0.000000
v -0.060877 0.118087 -0.017732
v 0.060877 0.118087 -0.017732
v -0.060877 0.180387 -0.067414
v 0.060877 0.180387 -0.067414
v -0.060877 0.214961 -0.139208
v 0.060877 0.214961 -0.139208
v -0.060877 0.214961 -0.218892
v 0.060877 0.214961 -0.218892
v -0.060877 0.180387 -0.290686
v 0.060877 0.180387 -0.290686
v -0.060877 0.118087 -0.340368
v 0.060877 0.118087 -0.340368
vt 0.000000 0.500000
vt 1.000000 0.500000
vt 1.000000 0.277479
vt 0.000000 0.277479
vt 0.000000 0.722521
vt 1.000000 0.722521
vt 1.000000 0.900969
vt 0.000000 0.900969
vt 0.000000 0.194370
vt 1.000000 0.194370
vt 1.000000 0.305630
vt 0.000000 0.305630
vt 0.000000 0.277479
vt 1.000000 0.277479
vt 1.000000 0.099031
vt 0.000000 0.099031
vt 0.000000 0.500000
vt 1.000000 0.500000
vt 1.000000 0.722521
vt 0.000000 0.722521
vt 0.000000 0.594128
vt 1.000000 0.594128
vt 1.000000 0.694370
vt 0.000000 0.694370
vt 0.000000 0.694370
vt 1.000000 0.694370
vt 1.000000 0.805630
vt 0.000000 0.805630
vt 0.000000 0.094128
vt 1.000000 0.094128
vt 1.000000 0.194370
vt 0.000000 0.194370
vt 0.000000 0.805630
vt 1.000000 0.805630
vt 1.000000 0.905872
vt 0.000000 0.905872
vt 0.000000 0.277479
vt 1.000000 0.277479
vt 1.000000 0.500000
vt 0.000000 0.500000
vt 0.000000 0.099031
vt 1.000000 0.099031
vt 1.000000 0.277479
vt 0.000000 0.277479
vt 0.000000 0.277479
vt 1.000000 0.277479
vt 1.000000 0.500000
vt 0.000000 0.500000
vt 0.000000 0.277479
vt 1.000000 0.277479
vt 1.000000 0.099031
vt 0.000000 0.099031
vt 0.000000 0.500000
vt 1.000000 0.500000
vt 1.000000 0.722521
vt 0.000000 0.722521
vt 0.000000 0.099031
vt 1.000000 0.099031
vt 1.000000 0.277479
vt 0.000000 0.277479
vt 0.000000 0.722521
vt 1.000000 0.722521
vt 1.000000 0.900969
vt 0.000000 0.900969
vt 0.000000 0.905872
vt 1.000000 0.905872
vt 1.000000 0.805630
vt 0.000000 0.805630
vt 0.000000 0.500000
vt 1.000000 0.500000
vt 1.000000 0.277479
vt 0.000000 0.277479
vt 0.000000 0.805630
vt 1.000000 0.805630
vt 1.000000 0.694370
vt 0.000000 0.694370
vt 0.000000 0.305630
vt 1.000000 0.305630
vt 1.000000 0.405872
vt 0.000000 0.405872
vt 0.000000 0.694370
vt 1.000000 0.694370
vt 1.000000 0.594128
vt 0.000000 0.594128
vt 0.277479 0.524758
vt 0.500000 0.500000
vt 0.722521 0.524758
vt 0.900969 0.594128
vt 1.000000 0.694370
vt 1.000000 0.805630
vt 0.900969 0.905872
vt 0.722521 0.975242
vt 0.500000 1.000000
vt 0.277479 0.975242
vt 0.099031 0.905872
vt 0.000000 0.805630
vt 0.000000 0.694370
vt 0.099031 0.594128
vt 0.000000 0.900969
vt 1.000000 0.900969
vt 1.000000 0.722521
vt 0.000000 0.722521
vt 0.000000 0.722521
vt 1.000000 0.722521
vt 1.000000 0.500000
vt 0.000000 0.500000
vt 0.500000 0.500000
vt 0.277479 0.524758
vt 0.099031 0.594128
vt 0.000000 0.694370
vt 0.000000 0.805630
vt 0.099031 0.905872
vt 0.277479 0.975242
vt 0.500000 1.000000
vt 0.722521 0.975242
vt 0.900969 0.905872
vt 1.000000 0.805630
vt 1.000000 0.694370
vt 0.900969 0.594128
vt 0.722521 0.524758
vt 0.000000 0.405872
vt 1.000000 0.405872
vt 1.000000 0.305630
vt 0.000000 0.305630
vt 0.000000 0.305630
vt 1.000000 0.305630
vt 1.000000 0.194370
vt 0.000000 0.194370
vt 0.000000 0.194370
vt 1.000000 0.194370
vt 1.000000 0.094128
vt 0.000000 0.094128
vt 0.000000 0.305630
vt 0.099031 0.405872
vt 0.277479 0.475242
vt 0.500000 0.500000
vt 0.722521 0.475242
vt 0.900969 0.405872
vt 1.000000 0.305630
vt 1.000000 0.194370
vt 0.900969 0.094128
vt 0.722521 0.024758
vt 0.500000 0.000000
vt 0.277479 0.024758
vt 0.099031 0.094128
vt 0.000000 0.194370
vt 0.000000 0.900969
vt 1.000000 0.900969
vt 1.000000 0.722521
vt 0.000000 0.722521
vt 0.000000 0.722521
vt 1.000000 0.722521
vt 1.000000 0.500000
vt 0.000000 0.500000
vt 0.900969 0.405872
vt 0.722521 0.475242
vt 0.500000 0.500000
vt 0.277479 0.475242
vt 0.099031 0.405872
vt 0.000000 0.305630
vt 0.000000 0.194370
vt 0.099031 0.094128
vt 0.277479 0.024758
vt 0.500000 0.000000
vt 0.722521 0.024758
vt 0.900969 0.094128
vt 1.000000 0.194370
vt 1.000000 0.305630
vn -0.660286 -0.000000 -0.751014
vn 0.660286 0.000000 -0.751014
vn 0.660286 -0.325853 -0.676641
vn -0.660286 -0.325853 -0.676641
vn -0.660286 0.325853 0.676641
vn 0.660286 0.325853 0.676641
vn 0.660286 0.587167 0.468250
vn -0.660286 0.587167 0.468250
vn -0.660286 -0.732185 -0.167116
vn 0.660286 -0.732185 -0.167116
vn 0.660286 -0.732185 0.167116
vn -0.660286 -0.732185 0.167116
vn -0.660286 -0.325853 -0.676641
vn 0.660286 -0.325853 -0.676641
vn 0.660286 -0.587167 -0.468250
vn -0.660286 -0.587167 -0.468250
vn -0.660286 -0.000000 0.751014
vn 0.660286 0.000000 0.751014
vn 0.660286 0.325853 0.676641
vn -0.660286 0.325853 0.676641
vn -0.660286 -0.587167 -0.468250
vn 0.660286 -0.587167 -0.468250
vn 0.660286 -0.732185 -0.167116
vn -0.660286 -0.732185 -0.167116
vn -0.660286 -0.732185 -0.167116
vn 0.660286 -0.732185 -0.167116
vn 0.660286 -0.732185 0.167116
vn -0.660286 -0.732185 0.167116
vn -0.660286 -0.587167 -0.468250
vn 0.660286 -0.587167 -0.468250
vn 0.660286 -0.732185 -0.167116
vn -0.660286 -0.732185 -0.167116
vn -0.660286 -0.732185 0.167116
vn 0.660286 -0.732185 0.167116
vn 0.660286 -0.587167 0.468250
vn -0.660286 -0.587167 0.468250
vn -0.660286 -0.325853 0.676641
vn 0.660286 -0.325853 0.676641
vn 0.660286 0.000000 0.751014
vn -0.660286 -0.000000 0.751014
vn -0.660286 -0.587167 0.468250
vn 0.660286 -0.587167 0.468250
vn 0.660286 -0.325853 0.676640
vn -0.660286 -0.325853 0.676641
vn -0.660286 -0.325853 0.676641
vn 0.660286 -0.325853 0.676640
vn 0.660286 0.000000 0.751014
vn -0.660286 -0.000000 0.751014
vn -0.660286 -0.325853 -0.676641
vn 0.660286 -0.325853 -0.676641
vn 0.660286 -0.587167 -0.468250
vn -0.660286 -0.587167 -0.468250
vn -0.660286 -0.000000 0.751014
vn 0.660286 0.000000 0.751014
vn 0.660286 0.325853 0.676641
vn -0.660286 0.325853 0.676641
vn -0.660286 -0.587167 0.468250
vn 0.660286 -0.587167 0.468250
vn 0.660286 -0.325853 0.676641
vn -0.660286 -0.325853 0.676641
vn -0.660286 0.325853 0.676641
vn 0.660286 0.325853 0.676641
vn 0.660286 0.587167 0.468250
vn -0.660286 0.587167 0.468250
vn -0.660286 0.587167 0.468250
vn 0.660286 0.587167 0.468250
vn 0.660286 0.732185 0.167116
vn -0.660286 0.732185 0.167116
vn -0.660286 -0.000000 -0.751014
vn 0.660286 0.000000 -0.751014
vn 0.660286 -0.325853 -0.676641
vn -0.660286 -0.325853 -0.676641
vn -0.660286 0.732185 0.167116
vn 0.660286 0.732185 0.167116
vn 0.660286 0.732185 -0.167117
vn -0.660286 0.732185 -0.167117
vn -0.660286 -0.732185 0.167116
vn 0.660286 -0.732185 0.167116
vn 0.660286 -0.587167 0.468250
vn -0.660286 -0.587167 0.468250
vn -0.660286 0.732185 -0.167117
vn 0.660286 0.732185 -0.167117
vn 0.660286 0.587167 -0.468250
vn -0.660286 0.587167 -0.468250
vn 0.660286 -0.325853 -0.676641
vn 0.660286 0.000000 -0.751014
vn 0.660286 0.325853 -0.676641
vn 0.660286 0.587167 -0.468250
vn 0.660286 0.732185 -0.167117
vn 0.660286 0.732185 0.167116
vn 0.660286 0.587167 0.468250
vn 0.660286 0.325853 0.676641
vn 0.660286 0.000000 0.751014
vn 0.660286 -0.325853 0.676640
vn 0.660286 -0.587167 0.468250
vn 0.660286 -0.732185 0.167116
vn 0.660286 -0.732185 -0.167116
vn 0.660286 -0.587167 -0.468250
vn -0.660286 0.587167 -0.468250
vn 0.660286 0.587167 -0.468250
vn 0.660286 0.325853 -0.676641
vn -0.660286 0.325853 -0.676641
vn -0.660286 0.325853 -0.676641
vn 0.660286 0.325853 -0.676641
vn 0.660286 0.000000 -0.751014
vn -0.660286 -0.000000 -0.751014
vn -0.660286 -0.000000 -0.751014
vn -0.660286 -0.325853 -0.676641
vn -0.660286 -0.587167 -0.468250
vn -0.660286 -0.732185 -0.167116
vn -0.660286 -0.732185 0.167116
vn -0.660286 -0.587167 0.468250
vn -0.660286 -0.325853 0.676641
vn -0.660286 -0.000000 0.751014
vn -0.660286 0.325853 0.676641
vn -0.660286 0.587167 0.468250
vn -0.660286 0.732185 0.167116
vn -0.660286 0.732185 -0.167117
vn -0.660286 0.587167 -0.468250
vn -0.660286 0.325853 -0.676641
vn -0.660286 0.587167 0.468250
vn 0.660286 0.587167 0.468250
vn 0.660286 0.732185 0.167116
vn -0.660286 0.732185 0.167116
vn -0.660286 0.732185 0.167116
vn 0.660286 0.732185 0.167116
vn 0.660286 0.732185 -0.167116
vn -0.660286 0.732185 -0.167116
vn -0.660286 0.732185 -0.167116
vn 0.660286 0.732185 -0.167116
vn 0.660286 0.587167 -0.468250
vn -0.660286 0.587167 -0.468250
vn -0.660286 -0.732185 0.167116
vn -0.660286 -0.587167 0.468250
vn -0.660286 -0.325853 0.676641
vn -0.660286 -0.000000 0.751014
vn -0.660286 0.325853 0.676641
vn -0.660286 0.587167 0.468250
vn -0.660286 0.732185 0.167116
vn -0.660286 0.732185 -0.167116
vn -0.660286 0.587167 -0.468250
vn -0.660286 0.325853 -0.676641
vn -0.660286 -0.000000 -0.751014
vn -0.660286 -0.325853 -0.676641
vn -0.660286 -0.587167 -0.468250
vn -0.660286 -0.732185 -0.167116
vn -0.660286 0.587167 -0.468250
vn 0.660286 0.587167 -0.468250
vn 0.660286 0.325853 -0.676640
vn -0.660286 0.325853 -0.676641
vn -0.660286 0.325853 -0.676641
vn 0.660286 0.325853 -0.676640
vn 0.660286 0.000000 -0.751014
vn -0.660286 -0.000000 -0.751014
vn 0.660286 0.587167 0.468250
vn 0.660286 0.325853 0.676641
vn 0.660286 0.000000 0.751014
vn 0.660286 -0.325853 0.676641
vn 0.660286 -0.587167 0.468250
vn 0.660286 -0.732185 0.167116
vn 0.660286 -0.732185 -0.167116
vn 0.660286 -0.587167 -0.468250
vn 0.660286 -0.325853 -0.676641
vn 0.660286 0.000000 -0.751014
vn 0.660286 0.325853 -0.676640
vn 0.660286 0.587167 -0.468250
vn 0.660286 0.732185 -0.167116
vn 0.660286 0.732185 0.167116
f 1/1/1 2/2/2 4/3/3 3/4/4
f 45/5/5 46/6/6 48/7/7 47/8/8
f 35/9/9 36/10/10 38/11/11 37/12/12
f 3/13/13 4/14/14 6/15/15 5/16/16
f 43/17/17 44/18/18 46/19/19 45/20/20
f 5/21/21 6/22/22 8/23/23 7/24/24
f 7/25/25 8/26/26 10/27/27 9/28/28
f 33/29/29 34/30/30 36/31/31 35/32/32
f 9/33/33 10/34/34 12/35/35 11/36/36
f 41/37/37 42/38/38 44/39/39 43/40/40
f 11/41/41 12/42/42 14/43/43 13/44/44
f 13/45/45 14/46/46 16/47/47 15/48/48
f 31/49/49 32/50/50 34/51/51 33/52/52
f 15/53/53 16/54/54 18/55/55 17/56/56
f 39/57/57 40/58/58 42/59/59 41/60/60
f 17/61/61 18/62/62 20/63/63 19/64/64
f 19/65/65 20/66/66 22/67/67 21/68/68
f 29/69/69 30/70/70 32/71/71 31/72/72
f 21/73/73 22/74/74 24/75/75 23/76/76
f 37/77/77 38/78/78 40/79/79 39/80/80
f 23/81/81 24/82/82 26/83/83 25/84/84
f 4/85/85 2/86/86 28/87/87 26/88/88 24/89/89 22/90/90 20/91/91 18/92/92 16/93/93 14/94/94 12/95/95 10/96/96 8/97/97 6/98/98
f 25/99/99 26/100/100 28/101/101 27/102/102
f 27/103/103 28/104/104 2/105/105 1/106/106
f 1/107/107 3/108/108 5/109/109 7/110/110 9/111/111 11/112/112 13/113/113 15/114/114 17/115/115 19/116/116 21/117/117 23/118/118 25/119/119 27/120/120
f 47/121/121 48/122/122 50/123/123 49/124/124
f 49/125/125 50/126/126 52/127/127 51/128/128
f 51/129/129 52/130/130 54/131/131 53/132/132
f 37/133/133 39/134/134 41/135/135 43/136/136 45/137/137 47/138/138 49/139/139 51/140/140 53/141/141 55/142/142 29/143/143 31/144/144 33/145/145 35/146/146
f 53/147/147 54/148/148 56/149/149 55/150/150
f 55/151/151 56/152/152 30/153/153 29/154/154
f 48/155/155 46/156/156 44/157/157 42/158/158 40/159/159 38/160/160 36/161/161 34/162/162 32/163/163 30/164/164 56/165/165 54/166/166 52/167/167 50/168/168
