# generated by tools/art/gen_meshes.py
v -0.973426 0.418581 2.088963
v -0.973426 0.916864 2.088963
v -0.973426 0.418580 -2.097463
v -0.973426 0.916864 -2.097463
v 0.973426 0.418581 2.088963
v 0.973426 0.916864 2.088963
v 0.973426 0.418580 -2.097463
v 0.973426 0.916864 -2.097463
v -0.603524 0.905000 1.133366
v -0.603524 1.284644 1.133366
v -0.603524 0.905000 -1.141866
v -0.603524 1.284644 -1.141866
v 0.603524 0.905000 1.133366
v 0.603524 1.284644 1.133366
v 0.603524 0.905000 -1.141866
v 0.603524 1.284644 -1.141866
v -1.051300 0.406717 1.052428
v -0.739804 0.406717 1.052428
v -1.051300 0.252486 1.093754
v -0.739804 0.252486 1.093754
v -1.051300 0.139582 1.206658
v -0.739804 0.139582 1.206658
v -1.051300 0.098256 1.360889
v -0.739804 0.098256 1.360889
v -1.051300 0.139582 1.515119
v -0.739804 0.139582 1.515119
v -1.051300 0.252486 1.628024
v -0.739804 0.252486 1.628024
v -1.051300 0.406717 1.669350
v -0.739804 0.406717 1.669350
v -1.051300 0.560947 1.628024
v -0.739804 0.560947 1.628024
v -1.051300 0.673852 1.515119
v -0.739804 0.673852 1.515119
v -1.051300 0.715178 1.360889
v -0.739804 0.715178 1.360889
v -1.051300 0.673852 1.206658
v -0.739804 0.673852 1.206658
v -1.051300 0.560947 1.093754
v -0.739804 0.560947 1.093754
v -1.051300 0.406717 -1.677850
v -0.739804 0.406717 -1.677850
v -1.051300 0.252486 -1.636524
v -0.739804 0.252486 -1.636524
v -1.051300 0.139581 -1.523619
v -0.739804 0.139581 -1.523619
v -1.051300 0.098255 -1.369389
v -0.739804 0.098255 -1.369389
v -1.051300 0.139581 -1.215158
v -0.739804 0.139581 -1.215158
v -1.051300 0.252486 -1.102254
v -0.739804 0.252486 -1.102254
v -1.051300 0.406717 -1.060928
v -0.739804 0.406717 -1.060928
v -1.051300 0.560947 -1.102254
v -0.739804 0.560947 -1.102254
v -1.051300 0.673852 -1.215158
v -0.739804 0.673852 -1.215158
v -1.051300 0.715178 -1.369389
v -0.739804 0.715178 -1.369389
v -1.051300 0.673852 -1.523619
v -0.739804 0.673852 -1.523619
v -1.051300 0.560947 -1.636524
v -0.739804 0.560947 -1.636524
v 0.739804 0.406717 1.052428
v 1.051300 0.406717 1.052428
v 0.739804 0.252486 1.093754
v 1.051300 0.252486 1.093754
v 0.739804 0.139582 1.206658
v 1.051300 0.139582 1.206658
v 0.739804 0.098256 1.360889
v 1.051300 0.098256 1.360889
v 0.739804 0.139582 1.515119
v 1.051300 0.139582 1.515119
v 0.739804 0.252486 1.628024
v 1.051300 0.252486 1.628024
v 0.739804 0.406717 1.669350
v 1.051300 0.406717 1.669350
v 0.739804 0.560947 1.628024
v 1.051300 0.560947 1.628024
v 0.739804 0.673852 1.515119
v 1.051300 0.673852 1.515119
v 0.739804 0.715178 1.360889
v 1.051300 0.715178 1.360889
v 0.739804 0.673852 1.206658
v 1.051300 0.673852 1.206658
v 0.739804 0.560947 1.093754
v 1.051300 0.560947 1.093754
v 0.739804 0.406717 -1.677850
v 1.051300 0.406717 -1.677850
v 0.739804 0.252486 -1.636524
v 1.051300 0.252486 -1.636524
v 0.739804 0.139581 -1.523619
v 1.051300 0.139581 -1.523619
v 0.739804 0.098255 -1.369389
v 1.051300 0.098255 -1.369389
v 0.739804 0.139581 -1.215158
v 1.051300 0.139581 -1.215158
v 0.739804 0.252486 -1.102254
v 1.051300 0.252486 -1.102254
v 0.739804 0.406717 -1.060928
v 1.051300 0.406717 -1.060928
v 0.739804 0.560947 -1.102254
v 1.051300 0.560947 -1.102254
v 0.739804 0.673852 -1.215158
v 1.051300 0.673852 -1.215158
v 0.739804 0.715178 -1.369389
v 1.051300 0.715178 -1.369389
v 0.739804 0.673852 -1.523619
v 1.051300 0.673852 -1.523619
v 0.739804 0.560947 -1.636524
v 1.051300 0.560947 -1.636524
vt 0.270000 1.000000
vt 0.690000 1.000000
vt 0.690000 0.000000
vt 0.270000 0.000000
vt 0.037037 0.270000
vt 0.037037 0.690000
vt 0.962963 0.690000
vt 0.962963 0.270000
vt 0.270000 0.000000
vt 0.690000 0.000000
vt 0.690000 1.000000
vt 0.270000 1.000000
vt 0.962963 0.270000
vt 0.962963 0.690000
vt 0.037037 0.690000
vt 0.037037 0.270000
vt 0.037037 0.000000
vt 0.962963 0.000000
vt 0.962963 1.000000
vt 0.037037 1.000000
vt 0.962963 0.000000
vt 0.037037 0.000000
vt 0.037037 1.000000
vt 0.962963 1.000000
vt 0.680000 0.771739
vt 1.000000 0.771739
vt 1.000000 0.228261
vt 0.680000 0.228261
vt 0.212963 0.680000
vt 0.212963 1.000000
vt 0.787037 1.000000
vt 0.787037 0.680000
vt 0.680000 0.228261
vt 1.000000 0.228261
vt 1.000000 0.771739
vt 0.680000 0.771739
vt 0.787037 0.680000
vt 0.787037 1.000000
vt 0.212963 1.000000
vt 0.212963 0.680000
vt 0.212963 0.228261
vt 0.787037 0.228261
vt 0.787037 0.771739
vt 0.212963 0.771739
vt 0.787037 0.228261
vt 0.212963 0.228261
vt 0.212963 0.771739
vt 0.787037 0.771739
vt 0.851852 0.034833
vt 1.000000 0.034833
vt 1.000000 0.130000
vt 0.851852 0.130000
vt 0.000000 0.260000
vt 0.148148 0.260000
vt 0.148148 0.130000
vt 0.000000 0.130000
vt 0.851852 0.173913
vt 1.000000 0.173913
vt 1.000000 0.210754
vt 0.851852 0.210754
vt 0.000000 0.130000
vt 0.148148 0.130000
vt 0.148148 0.034833
vt 0.000000 0.034833
vt 0.851852 0.260000
vt 1.000000 0.260000
vt 1.000000 0.390000
vt 0.851852 0.390000
vt 0.000000 0.137072
vt 0.148148 0.137072
vt 0.148148 0.173913
vt 0.000000 0.173913
vt 0.000000 0.789246
vt 0.148148 0.789246
vt 0.148148 0.826087
vt 0.000000 0.826087
vt 0.851852 0.130000
vt 1.000000 0.130000
vt 1.000000 0.034833
vt 0.851852 0.034833
vt 0.851852 0.789246
vt 1.000000 0.789246
vt 1.000000 0.826087
vt 0.851852 0.826087
vt 0.000000 0.826087
vt 0.148148 0.826087
vt 0.148148 0.862928
vt 0.000000 0.862928
vt 0.000000 0.130000
vt 0.148148 0.130000
vt 0.148148 0.260000
vt 0.000000 0.260000
vt 0.000000 0.034833
vt 0.148148 0.034833
vt 0.148148 0.130000
vt 0.000000 0.130000
vt 0.851852 0.130000
vt 1.000000 0.130000
vt 1.000000 0.034833
vt 0.851852 0.034833
vt 0.000000 0.130000
vt 0.148148 0.130000
vt 0.148148 0.034833
vt 0.000000 0.034833
vt 0.000000 0.130000
vt 0.148148 0.130000
vt 0.148148 0.260000
vt 0.000000 0.260000
vt 0.000000 0.260000
vt 0.148148 0.260000
vt 0.148148 0.390000
vt 0.000000 0.390000
vt 0.000000 0.034833
vt 0.148148 0.034833
vt 0.148148 0.130000
vt 0.000000 0.130000
vt 0.851852 0.034833
vt 1.000000 0.034833
vt 1.000000 0.130000
vt 0.851852 0.130000
vt 0.000000 0.390000
vt 0.148148 0.390000
vt 0.148148 0.485167
vt 0.000000 0.485167
vt 0.851852 0.137072
vt 1.000000 0.137072
vt 1.000000 0.173913
vt 0.851852 0.173913
vt 0.000000 0.260000
vt 0.148148 0.260000
vt 0.148148 0.130000
vt 0.000000 0.130000
vt 0.000000 0.862928
vt 0.148148 0.862928
vt 0.148148 0.826087
vt 0.000000 0.826087
vt 0.851852 0.130000
vt 1.000000 0.130000
vt 1.000000 0.260000
vt 0.851852 0.260000
vt 0.000000 0.826087
vt 0.148148 0.826087
vt 0.148148 0.789246
vt 0.000000 0.789246
vt 0.130000 0.762277
vt 0.260000 0.752406
vt 0.390000 0.762277
vt 0.485167 0.789246
vt 0.520000 0.826087
vt 0.485167 0.862928
vt 0.390000 0.889897
vt 0.260000 0.899768
vt 0.130000 0.889897
vt 0.034833 0.862928
vt 0.000000 0.826087
vt 0.034833 0.789246
vt 0.000000 0.485167
vt 0.148148 0.485167
vt 0.148148 0.390000
vt 0.000000 0.390000
vt 0.000000 0.260000
vt 0.148148 0.260000
vt 0.148148 0.390000
vt 0.000000 0.390000
vt 0.000000 0.173913
vt 0.148148 0.173913
vt 0.148148 0.210754
vt 0.000000 0.210754
vt 0.000000 0.390000
vt 0.148148 0.390000
vt 0.148148 0.260000
vt 0.000000 0.260000
vt 0.260000 0.752406
vt 0.130000 0.762277
vt 0.034833 0.789246
vt 0.000000 0.826087
vt 0.034833 0.862928
vt 0.130000 0.889897
vt 0.260000 0.899768
vt 0.390000 0.889897
vt 0.485167 0.862928
vt 0.520000 0.826087
vt 0.485167 0.789246
vt 0.390000 0.762277
vt 0.000000 0.390000
vt 0.148148 0.390000
vt 0.148148 0.485167
vt 0.000000 0.485167
vt 0.851852 0.130000
vt 1.000000 0.130000
vt 1.000000 0.260000
vt 0.851852 0.260000
vt 0.851852 0.260000
vt 1.000000 0.260000
vt 1.000000 0.130000
vt 0.851852 0.130000
vt 0.000000 0.210754
vt 0.148148 0.210754
vt 0.148148 0.173913
vt 0.000000 0.173913
vt 0.000000 0.173913
vt 0.148148 0.173913
vt 0.148148 0.137072
vt 0.000000 0.137072
vt 0.034833 0.210754
vt 0.000000 0.173913
vt 0.034833 0.137072
vt 0.130000 0.110103
vt 0.260000 0.100232
vt 0.390000 0.110103
vt 0.485167 0.137072
vt 0.520000 0.173913
vt 0.485167 0.210754
vt 0.390000 0.237723
vt 0.260000 0.247594
vt 0.130000 0.237723
vt 0.000000 0.485167
vt 0.148148 0.485167
vt 0.148148 0.390000
vt 0.000000 0.390000
vt 0.851852 0.260000
vt 1.000000 0.260000
vt 1.000000 0.390000
vt 0.851852 0.390000
vt 0.851852 0.826087
vt 1.000000 0.826087
vt 1.000000 0.862928
vt 0.851852 0.862928
vt 0.000000 0.390000
vt 0.148148 0.390000
vt 0.148148 0.260000
vt 0.000000 0.260000
vt 0.390000 0.237723
vt 0.485167 0.210754
vt 0.520000 0.173913
vt 0.485167 0.137072
vt 0.390000 0.110103
vt 0.260000 0.100232
vt 0.130000 0.110103
vt 0.034833 0.137072
vt 0.000000 0.173913
vt 0.034833 0.210754
vt 0.130000 0.237723
vt 0.260000 0.247594
vt 0.851852 0.390000
vt 1.000000 0.390000
vt 1.000000 0.485167
vt 0.851852 0.485167
vt 0.851852 0.260000
vt 1.000000 0.260000
vt 1.000000 0.130000
vt 0.851852 0.130000
vt 0.851852 0.862928
vt 1.000000 0.862928
vt 1.000000 0.826087
vt 0.851852 0.826087
vt 0.851852 0.826087
vt 1.000000 0.826087
vt 1.000000 0.789246
vt 0.851852 0.789246
vt 0.130000 0.762277
vt 0.034833 0.789246
vt 0.000000 0.826087
vt 0.034833 0.862928
vt 0.130000 0.889897
vt 0.260000 0.899768
vt 0.390000 0.889897
vt 0.485167 0.862928
vt 0.520000 0.826087
vt 0.485167 0.789246
vt 0.390000 0.762277
vt 0.260000 0.752406
vt 0.851852 0.485167
vt 1.000000 0.485167
vt 1.000000 0.390000
vt 0.851852 0.390000
vt 0.851852 0.390000
vt 1.000000 0.390000
vt 1.000000 0.260000
vt 0.851852 0.260000
vt 0.000000 0.826087
vt 0.034833 0.789246
vt 0.130000 0.762277
vt 0.260000 0.752406
vt 0.390000 0.762277
vt 0.485167 0.789246
vt 0.520000 0.826087
vt 0.485167 0.862928
vt 0.390000 0.889897
vt 0.260000 0.899768
vt 0.130000 0.889897
vt 0.034833 0.862928
vt 0.851852 0.390000
vt 1.000000 0.390000
vt 1.000000 0.485167
vt 0.851852 0.485167
vt 0.851852 0.210754
vt 1.000000 0.210754
vt 1.000000 0.173913
vt 0.851852 0.173913
vt 0.851852 0.173913
vt 1.000000 0.173913
vt 1.000000 0.137072
vt 0.851852 0.137072
vt 0.130000 0.237723
vt 0.260000 0.247594
vt 0.390000 0.237723
vt 0.485167 0.210754
vt 0.520000 0.173913
vt 0.485167 0.137072
vt 0.390000 0.110103
vt 0.260000 0.100232
vt 0.130000 0.110103
vt 0.034833 0.137072
vt 0.000000 0.173913
vt 0.034833 0.210754
vt 0.851852 0.485167
vt 1.000000 0.485167
vt 1.000000 0.390000
vt 0.851852 0.390000
vt 0.851852 0.390000
vt 1.000000 0.390000
vt 1.000000 0.260000
vt 0.851852 0.260000
vt 0.390000 0.237723
vt 0.260000 0.247594
vt 0.130000 0.237723
vt 0.034833 0.210754
vt 0.000000 0.173913
vt 0.034833 0.137072
vt 0.130000 0.110103
vt 0.260000 0.100232
vt 0.390000 0.110103
vt 0.485167 0.137072
vt 0.520000 0.173913
vt 0.485167 0.210754
vn -1.000000 0.000000 0.000000
vn -1.000000 0.000000 0.000000
vn -1.000000 0.000000 0.000000
vn -1.000000 0.000000 0.000000
vn -0.000000 0.000000 -1.000000
vn -0.000000 0.000000 -1.000000
vn -0.000000 0.000000 -1.000000
vn -0.000000 0.000000 -1.000000
vn 1.000000 0.000000 0.000000
vn 1.000000 0.000000 0.000000
vn 1.000000 0.000000 0.000000
vn 1.000000 0.000000 0.000000
vn -0.000000 0.000000 1.000000
vn -0.000000 0.000000 1.000000
vn -0.000000 0.000000 1.000000
vn -0.000000 0.000000 1.000000
vn 0.000000 -1.000000 0.000000
vn 0.000000 -1.000000 0.000000
vn 0.000000 -1.000000 0.000000
vn 0.000000 -1.000000 0.000000
vn 0.000000 1.000000 -0.000000
vn 0.000000 1.000000 -0.000000
vn 0.000000 1.000000 -0.000000
vn 0.000000 1.000000 -0.000000
vn -1.000000 0.000000 0.000000
vn -1.000000 0.000000 0.000000
vn -1.000000 0.000000 0.000000
vn -1.000000 0.000000 0.000000
vn -0.000000 0.000000 -1.000000
vn -0.000000 0.000000 -1.000000
vn -0.000000 0.000000 -1.000000
vn -0.000000 0.000000 -1.000000
vn 1.000000 0.000000 0.000000
vn 1.000000 0.000000 0.000000
vn 1.000000 0.000000 0.000000
vn 1.000000 0.000000 0.000000
vn -0.000000 0.000000 1.000000
vn -0.000000 0.000000 1.000000
vn -0.000000 0.000000 1.000000
vn -0.000000 0.000000 1.000000
vn 0.000000 -1.000000 0.000000
vn 0.000000 -1.000000 0.000000
vn 0.000000 -1.000000 0.000000
vn 0.000000 -1.000000 0.000000
vn 0.000000 1.000000 -0.000000
vn 0.000000 1.000000 -0.000000
vn 0.000000 1.000000 -0.000000
vn 0.000000 1.000000 -0.000000
vn 0.000000 -0.707107 0.707107
vn 0.000000 -0.707107 0.707107
vn 0.000000 -0.707107 0.707107
vn 0.000000 -0.707107 0.707107
vn 0.000000 -0.258820 -0.965926
vn 0.000000 -0.258820 -0.965926
vn 0.000000 -0.258820 -0.965926
vn 0.000000 -0.258820 -0.965926
vn 0.000000 -0.965926 0.258819
vn 0.000000 -0.965926 0.258819
vn 0.000000 -0.965926 0.258819
vn 0.000000 -0.965926 0.258819
vn 0.000000 -0.707107 -0.707107
vn 0.000000 -0.707107 -0.707107
vn 0.000000 -0.707107 -0.707107
vn 0.000000 -0.707107 -0.707107
vn -0.000000 0.258820 0.965926
vn -0.000000 0.258820 0.965926
vn -0.000000 0.258820 0.965926
vn -0.000000 0.258820 0.965926
vn 0.000000 -0.965926 -0.258819
vn 0.000000 -0.965926 -0.258819
vn 0.000000 -0.965926 -0.258819
vn 0.000000 -0.965926 -0.258819
vn 0.000000 -0.965926 -0.258819
vn 0.000000 -0.965926 -0.258819
vn 0.000000 -0.965926 -0.258819
vn 0.000000 -0.965926 -0.258819
vn 0.000000 -0.707107 -0.707107
vn 0.000000 -0.707107 -0.707107
vn 0.000000 -0.707107 -0.707107
vn 0.000000 -0.707107 -0.707107
vn 0.000000 -0.965926 -0.258819
vn 0.000000 -0.965926 -0.258819
vn 0.000000 -0.965926 -0.258819
vn 0.000000 -0.965926 -0.258819
vn 0.000000 -0.965926 0.258819
vn 0.000000 -0.965926 0.258819
vn 0.000000 -0.965926 0.258819
vn 0.000000 -0.965926 0.258819
vn 0.000000 -0.258820 0.965926
vn 0.000000 -0.258820 0.965926
vn 0.000000 -0.258820 0.965926
vn 0.000000 -0.258820 0.965926
vn 0.000000 -0.707107 0.707107
vn 0.000000 -0.707107 0.707107
vn 0.000000 -0.707107 0.707107
vn 0.000000 -0.707107 0.707107
vn 0.000000 -0.707107 -0.707107
vn 0.000000 -0.707107 -0.707107
vn 0.000000 -0.707107 -0.707107
vn 0.000000 -0.707107 -0.707107
vn 0.000000 -0.707107 -0.707107
vn 0.000000 -0.707107 -0.707107
vn 0.000000 -0.707107 -0.707107
vn 0.000000 -0.707107 -0.707107
vn 0.000000 -0.258820 0.965926
vn 0.000000 -0.258820 0.965926
vn 0.000000 -0.258820 0.965926
vn 0.000000 -0.258820 0.965926
vn -0.000000 0.258820 0.965926
vn -0.000000 0.258820 0.965926
vn -0.000000 0.258820 0.965926
vn -0.000000 0.258820 0.965926
vn 0.000000 -0.707107 0.707107
vn 0.000000 -0.707107 0.707107
vn 0.000000 -0.707107 0.707107
vn 0.000000 -0.707107 0.707107
vn 0.000000 -0.707107 0.707107
vn 0.000000 -0.707107 0.707107
vn 0.000000 -0.707107 0.707107
vn 0.000000 -0.707107 0.707107
vn -0.000000 0.707107 0.707107
vn -0.000000 0.707107 0.707107
vn -0.000000 0.707107 0.707107
vn -0.000000 0.707107 0.707107
vn 0.000000 -0.965926 -0.258819
vn 0.000000 -0.965926 -0.258819
vn 0.000000 -0.965926 -0.258819
vn 0.000000 -0.965926 -0.258819
vn 0.000000 -0.258820 -0.965926
vn 0.000000 -0.258820 -0.965926
vn 0.000000 -0.258820 -0.965926
vn 0.000000 -0.258820 -0.965926
vn 0.000000 0.965926 0.258819
vn 0.000000 0.965926 0.258819
vn 0.000000 0.965926 0.258819
vn 0.000000 0.965926 0.258819
vn 0.000000 -0.258820 0.965926
vn 0.000000 -0.258820 0.965926
vn 0.000000 -0.258820 0.965926
vn 0.000000 -0.258820 0.965926
vn 0.000000 0.965926 -0.258819
vn 0.000000 0.965926 -0.258819
vn 0.000000 0.965926 -0.258819
vn 0.000000 0.965926 -0.258819
vn 1.000000 -0.000000 0.000000
vn 1.000000 -0.000000 0.000000
vn 1.000000 -0.000000 0.000000
vn 1.000000 -0.000000 0.000000
vn 1.000000 -0.000000 0.000000
vn 1.000000 -0.000000 0.000000
vn 1.000000 -0.000000 0.000000
vn 1.000000 -0.000000 0.000000
vn 1.000000 -0.000000 0.000000
vn 1.000000 -0.000000 0.000000
vn 1.000000 -0.000000 0.000000
vn 1.000000 -0.000000 0.000000
vn 0.000000 0.707107 -0.707107
vn 0.000000 0.707107 -0.707107
vn 0.000000 0.707107 -0.707107
vn 0.000000 0.707107 -0.707107
vn -0.000000 0.258820 0.965926
vn -0.000000 0.258820 0.965926
vn -0.000000 0.258820 0.965926
vn -0.000000 0.258820 0.965926
vn 0.000000 -0.965926 0.258819
vn 0.000000 -0.965926 0.258819
vn 0.000000 -0.965926 0.258819
vn 0.000000 -0.965926 0.258819
vn 0.000000 0.258820 -0.965926
vn 0.000000 0.258820 -0.965926
vn 0.000000 0.258820 -0.965926
vn 0.000000 0.258820 -0.965926
vn -1.000000 -0.000000 0.000000
vn -1.000000 -0.000000 0.000000
vn -1.000000 -0.000000 0.000000
vn -1.000000 -0.000000 0.000000
vn -1.000000 -0.000000 0.000000
vn -1.000000 -0.000000 0.000000
vn -1.000000 -0.000000 0.000000
vn -1.000000 -0.000000 0.000000
vn -1.000000 -0.000000 0.000000
vn -1.000000 -0.000000 0.000000
vn -1.000000 -0.000000 0.000000
vn -1.000000 -0.000000 0.000000
vn -0.000000 0.707107 0.707107
vn -0.000000 0.707107 0.707107
vn -0.000000 0.707107 0.707107
vn -0.000000 0.707107 0.707107
vn 0.000000 -0.258820 0.965926
vn 0.000000 -0.258820 0.965926
vn 0.000000 -0.258820 0.965926
vn 0.000000 -0.258820 0.965926
vn 0.000000 -0.258820 -0.965926
vn 0.000000 -0.258820 -0.965926
vn 0.000000 -0.258820 -0.965926
vn 0.000000 -0.258820 -0.965926
vn 0.000000 0.965926 0.258819
vn 0.000000 0.965926 0.258819
vn 0.000000 0.965926 0.258819
vn 0.000000 0.965926 0.258819
vn 0.000000 0.965926 -0.258819
vn 0.000000 0.965926 -0.258819
vn 0.000000 0.965926 -0.258819
vn 0.000000 0.965926 -0.258819
vn 1.000000 0.000000 0.000000
vn 1.000000 0.000000 0.000000
vn 1.000000 0.000000 0.000000
vn 1.000000 0.000000 0.000000
vn 1.000000 0.000000 0.000000
vn 1.000000 0.000000 0.000000
vn 1.000000 0.000000 0.000000
vn 1.000000 0.000000 0.000000
vn 1.000000 0.000000 0.000000
vn 1.000000 0.000000 0.000000
vn 1.000000 0.000000 0.000000
vn 1.000000 0.000000 0.000000
vn 0.000000 0.707107 -0.707107
vn 0.000000 0.707107 -0.707107
vn 0.000000 0.707107 -0.707107
vn 0.000000 0.707107 -0.707107
vn -0.000000 0.258820 0.965926
vn -0.000000 0.258820 0.965926
vn -0.000000 0.258820 0.965926
vn -0.000000 0.258820 0.965926
vn 0.000000 -0.965926 0.258819
vn 0.000000 -0.965926 0.258819
vn 0.000000 -0.965926 0.258819
vn 0.000000 -0.965926 0.258819
vn 0.000000 0.258820 -0.965926
vn 0.000000 0.258820 -0.965926
vn 0.000000 0.258820 -0.965926
vn 0.000000 0.258820 -0.965926
vn -1.000000 -0.000000 0.000000
vn -1.000000 -0.000000 0.000000
vn -1.000000 -0.000000 0.000000
vn -1.000000 -0.000000 0.000000
vn -1.000000 -0.000000 0.000000
vn -1.000000 -0.000000 0.000000
vn -1.000000 -0.000000 0.000000
vn -1.000000 -0.000000 0.000000
vn -1.000000 -0.000000 0.000000
vn -1.000000 -0.000000 0.000000
vn -1.000000 -0.000000 0.000000
vn -1.000000 -0.000000 0.000000
vn -0.000000 0.707107 0.707107
vn -0.000000 0.707107 0.707107
vn -0.000000 0.707107 0.707107
vn -0.000000 0.707107 0.707107
vn 0.000000 -0.258820 -0.965926
vn 0.000000 -0.258820 -0.965926
vn 0.000000 -0.258820 -0.965926
vn 0.000000 -0.258820 -0.965926
vn 0.000000 0.965926 0.258819
vn 0.000000 0.965926 0.258819
vn 0.000000 0.965926 0.258819
vn 0.000000 0.965926 0.258819
vn 0.000000 0.965926 -0.258819
vn 0.000000 0.965926 -0.258819
vn 0.000000 0.965926 -0.258819
vn 0.000000 0.965926 -0.258819
vn -1.000000 0.000000 0.000000
vn -1.000000 0.000000 0.000000
vn -1.000000 0.000000 0.000000
vn -1.000000 0.000000 0.000000
vn -1.000000 0.000000 0.000000
vn -1.000000 0.000000 0.000000
vn -1.000000 0.000000 0.000000
vn -1.000000 0.000000 0.000000
vn -1.000000 0.000000 0.000000
vn -1.000000 0.000000 0.000000
vn -1.000000 0.000000 0.000000
vn -1.000000 0.000000 0.000000
vn 0.000000 0.707107 -0.707107
vn 0.000000 0.707107 -0.707107
vn 0.000000 0.707107 -0.707107
vn 0.000000 0.707107 -0.707107
vn 0.000000 0.258820 -0.965926
vn 0.000000 0.258820 -0.965926
vn 0.000000 0.258820 -0.965926
vn 0.000000 0.258820 -0.965926
vn 1.000000 0.000000 0.000000
vn 1.000000 0.000000 0.000000
vn 1.000000 0.000000 0.000000
vn 1.000000 0.000000 0.000000
vn 1.000000 0.000000 0.000000
vn 1.000000 0.000000 0.000000
vn 1.000000 0.000000 0.000000
vn 1.000000 0.000000 0.000000
vn 1.000000 0.000000 0.000000
vn 1.000000 0.000000 0.000000
vn 1.000000 0.000000 0.000000
vn 1.000000 0.000000 0.000000
vn -0.000000 0.707107 0.707107
vn -0.000000 0.707107 0.707107
vn -0.000000 0.707107 0.707107
vn -0.000000 0.707107 0.707107
vn 0.000000 0.965926 0.258819
vn 0.000000 0.965926 0.258819
vn 0.000000 0.965926 0.258819
vn 0.000000 0.965926 0.258819
vn 0.000000 0.965926 -0.258819
vn 0.000000 0.965926 -0.258819
vn 0.000000 0.965926 -0.258819
vn 0.000000 0.965926 -0.258819
vn -1.000000 -0.000000 0.000000
vn -1.000000 -0.000000 0.000000
vn -1.000000 -0.000000 0.000000
vn -1.000000 -0.000000 0.000000
vn -1.000000 -0.000000 0.000000
vn -1.000000 -0.000000 0.000000
vn -1.000000 -0.000000 0.000000
vn -1.000000 -0.000000 0.000000
vn -1.000000 -0.000000 0.000000
vn -1.000000 -0.000000 0.000000
vn -1.000000 -0.000000 0.000000
vn -1.000000 -0.000000 0.000000
vn 0.000000 0.707107 -0.707107
vn 0.000000 0.707107 -0.707107
vn 0.000000 0.707107 -0.707107
vn 0.000000 0.707107 -0.707107
vn 0.000000 0.258820 -0.965926
vn 0.000000 0.258820 -0.965926
vn 0.000000 0.258820 -0.965926
vn 0.000000 0.258820 -0.965926
vn 1.000000 0.000000 0.000000
vn 1.000000 0.000000 0.000000
vn 1.000000 0.000000 0.000000
vn 1.000000 0.000000 0.000000
vn 1.000000 0.000000 0.000000
vn 1.000000 0.000000 0.000000
vn 1.000000 0.000000 0.000000
vn 1.000000 0.000000 0.000000
vn 1.000000 0.000000 0.000000
vn 1.000000 0.000000 0.000000
vn 1.000000 0.000000 0.000000
vn 1.000000 0.000000 0.000000
f 1/1/1 2/2/2 4/3/3 3/4/4
f 3/5/5 4/6/6 8/7/7 7/8/8
f 7/9/9 8/10/10 6/11/11 5/12/12
f 5/13/13 6/14/14 2/15/15 1/16/16
f 3/17/17 7/18/18 5/19/19 1/20/20
f 8/21/21 4/22/22 2/23/23 6/24/24
f 9/25/25 10/26/26 12/27/27 11/28/28
f 11/29/29 12/30/30 16/31/31 15/32/32
f 15/33/33 16/34/34 14/35/35 13/36/36
f 13/37/37 14/38/38 10/39/39 9/40/40
f 11/41/41 15/42/42 13/43/43 9/44/44
f 16/45/45 12/46/46 10/47/47 14/48/48
f 73/49/49 74/50/50 76/51/51 75/52/52
f 17/53/53 18/54/54 20/55/55 19/56/56
f 95/57/57 96/58/58 98/59/59 97/60/60
f 19/61/61 20/62/62 22/63/63 21/64/64
f 101/65/65 102/66/66 104/67/67 103/68/68
f 45/69/69 46/70/70 48/71/71 47/72/72
f 21/73/73 22/74/74 24/75/75 23/76/76
f 91/77/77 92/78/78 94/79/79 93/80/80
f 69/81/81 70/82/82 72/83/83 71/84/84
f 23/85/85 24/86/86 26/87/87 25/88/88
f 51/89/89 52/90/90 54/91/91 53/92/92
f 25/93/93 26/94/94 28/95/95 27/96/96
f 67/97/97 68/98/98 70/99/99 69/100/100
f 43/101/101 44/102/102 46/103/103 45/104/104
f 27/105/105 28/106/106 30/107/107 29/108/108
f 29/109/109 30/110/110 32/111/111 31/112/112
f 49/113/113 50/114/114 52/115/115 51/116/116
f 97/117/117 98/118/118 100/119/119 99/120/120
f 31/121/121 32/122/122 34/123/123 33/124/124
f 93/125/125 94/126/126 96/127/127 95/128/128
f 41/129/129 42/130/130 44/131/131 43/132/132
f 33/133/133 34/134/134 36/135/135 35/136/136
f 75/137/137 76/138/138 78/139/139 77/140/140
f 35/141/141 36/142/142 38/143/143 37/144/144
f 20/145/145 18/146/146 40/147/147 38/148/148 36/149/149 34/150/150 32/151/151 30/152/152 28/153/153 26/154/154 24/155/155 22/156/156
f 37/157/157 38/158/158 40/159/159 39/160/160
f 53/161/161 54/162/162 56/163/163 55/164/164
f 47/165/165 48/166/166 50/167/167 49/168/168
f 39/169/169 40/170/170 18/171/171 17/172/172
f 17/173/173 19/174/174 21/175/175 23/176/176 25/177/177 27/178/178 29/179/179 31/180/180 33/181/181 35/182/182 37/183/183 39/184/184
f 55/185/185 56/186/186 58/187/187 57/188/188
f 99/189/189 100/190/190 102/191/191 101/192/192
f 65/193/193 66/194/194 68/195/195 67/196/196
f 57/197/197 58/198/198 60/199/199 59/200/200
f 59/201/201 60/202/202 62/203/203 61/204/204
f 50/205/205 48/206/206 46/207/207 44/208/208 42/209/209 64/210/210 62/211/211 60/212/212 58/213/213 56/214/214 54/215/215 52/216/216
f 61/217/217 62/218/218 64/219/219 63/220/220
f 77/221/221 78/222/222 80/223/223 79/224/224
f 71/225/225 72/226/226 74/227/227 73/228/228
f 63/229/229 64/230/230 42/231/231 41/232/232
f 55/233/233 57/234/234 59/235/235 61/236/236 63/237/237 41/238/238 43/239/239 45/240/240 47/241/241 49/242/242 51/243/243 53/244/244
f 79/245/245 80/246/246 82/247/247 81/248/248
f 89/249/249 90/250/250 92/251/251 91/252/252
f 81/253/253 82/254/254 84/255/255 83/256/256
f 83/257/257 84/258/258 86/259/259 85/260/260
f 67/261/261 69/262/262 71/263/263 73/264/264 75/265/265 77/266/266 79/267/267 81/268/268 83/269/269 85/270/270 87/271/271 65/272/272
f 85/273/273 86/274/274 88/275/275 87/276/276
f 87/277/277 88/278/278 66/279/279 65/280/280
f 72/281/281 70/282/282 68/283/283 66/284/284 88/285/285 86/286/286 84/287/287 82/288/288 80/289/289 78/290/290 76/291/291 74/292/292
f 103/293/293 104/294/294 106/295/295 105/296/296
f 105/297/297 106/298/298 108/299/299 107/300/300
f 107/301/301 108/302/302 110/303/303 109/304/304
f 99/305/305 101/306/306 103/307/307 105/308/308 107/309/309 109/310/310 111/311/311 89/312/312 91/313/313 93/314/314 95/315/315 97/316/316
f 109/317/317 110/318/318 112/319/319 111/320/320
f 111/321/321 112/322/322 90/323/323 89/324/324
f 104/325/325 102/326/326 100/327/327 98/328/328 96/329/329 94/330/330 92/331/331 90/332/332 112/333/333 110/334/334 108/335/335 106/336/336
