# generated by tools/art/gen_meshes.py
v 0.000000 -1.075000 -3.746200
v 1.157640 -1.075000 -3.562848
v 2.201961 -1.075000 -3.030740
v 3.030740 -1.075000 -2.201961
v 3.562848 -1.075000 -1.157640
v 3.746200 -1.075000 0.000000
v 3.562848 -1.075000 1.157640
v 3.030740 -1.075000 2.201961
v 2.201961 -1.074999 3.030740
v 1.157640 -1.074999 3.562848
v 0.000000 -1.074999 3.746200
v -1.157640 -1.074999 3.562848
v -2.201961 -1.074999 3.030740
v -3.030740 -1.075000 2.201961
v -3.562848 -1.075000 1.157640
v -3.746200 -1.075000 0.000000
v -3.562848 -1.075000 -1.157640
v -3.030740 -1.075000 -2.201961
v -2.201961 -1.075000 -3.030740
v -1.157640 -1.075000 -3.562848
v 0.000000 29.693001 -0.000000
vt 0.500000 0.000000
vt 0.500000 1.000000
vt 0.654508 0.000000
vt 0.654508 0.000000
vt 0.500000 1.000000
vt 0.793893 0.000000
vt 0.000000 0.095492
vt 1.000000 0.500000
vt 0.000000 0.206107
vt 0.000000 0.206107
vt 1.000000 0.500000
vt 0.000000 0.345492
vt 0.000000 0.345492
vt 1.000000 0.500000
vt 0.000000 0.500000
vt 0.000000 0.500000
vt 1.000000 0.500000
vt 0.000000 0.654508
vt 0.000000 0.654508
vt 1.000000 0.500000
vt 0.000000 0.793893
vt 0.000000 0.793893
vt 1.000000 0.500000
vt 0.000000 0.904509
vt 0.793893 0.000000
vt 0.500000 1.000000
vt 0.654508 0.000000
vt 0.654508 0.000000
vt 0.500000 1.000000
vt 0.500000 0.000000
vt 0.500000 0.000000
vt 0.500000 1.000000
vt 0.345492 0.000000
vt 0.345492 0.000000
vt 0.500000 1.000000
vt 0.206107 0.000000
vt 0.000000 0.904509
vt 1.000000 0.500000
vt 0.000000 0.793893
vt 0.000000 0.793893
vt 1.000000 0.500000
vt 0.000000 0.654508
vt 0.000000 0.654508
vt 1.000000 0.500000
vt 0.000000 0.500000
vt 0.000000 0.500000
vt 1.000000 0.500000
vt 0.000000 0.345492
vt 0.000000 0.345492
vt 1.000000 0.500000
vt 0.000000 0.206107
vt 0.000000 0.206107
vt 1.000000 0.500000
vt 0.000000 0.095492
vt 0.500000 0.000000
vt 0.654508 0.024472
vt 0.793893 0.095492
vt 0.904508 0.206107
vt 0.975528 0.345492
vt 1.000000 0.500000
vt 0.975528 0.654508
vt 0.904508 0.793893
vt 0.793893 0.904509
vt 0.654508 0.975528
vt 0.500000 1.000000
vt 0.345492 0.975528
vt 0.206107 0.904509
vt 0.095492 0.793893
vt 0.024472 0.654508
vt 0.000000 0.500000
vt 0.024472 0.345492
vt 0.095492 0.206107
vt 0.206107 0.095492
vt 0.345492 0.024472
vt 0.206107 0.000000
vt 0.500000 1.000000
vt 0.345492 0.000000
vt 0.345492 0.000000
vt 0.500000 1.000000
vt 0.500000 0.000000
vn 0.000000 -0.628111 -0.778124
vn 0.000000 1.000000 0.000024
vn 0.240454 -0.628111 -0.740040
vn 0.240454 -0.628111 -0.740040
vn 0.000000 1.000000 0.000024
vn 0.457370 -0.628111 -0.629515
vn 0.457370 -0.628111 -0.629515
vn 0.000000 1.000000 0.000024
vn 0.629516 -0.628111 -0.457370
vn 0.629516 -0.628111 -0.457370
vn 0.000000 1.000000 0.000024
vn 0.740040 -0.628111 -0.240453
vn 0.740040 -0.628111 -0.240453
vn 0.000000 1.000000 0.000024
vn 0.778124 -0.628111 0.000000
vn 0.778124 -0.628111 0.000000
vn 0.000000 1.000000 0.000024
vn 0.740040 -0.628111 0.240454
vn 0.740040 -0.628111 0.240454
vn 0.000000 1.000000 0.000024
vn 0.629516 -0.628111 0.457370
vn 0.629516 -0.628111 0.457370
vn 0.000000 1.000000 0.000024
vn 0.457370 -0.628111 0.629516
vn 0.457370 -0.628111 0.629516
vn 0.000000 1.000000 0.000024
vn 0.240453 -0.628111 0.740040
vn 0.240453 -0.628111 0.740040
vn 0.000000 1.000000 0.000024
vn 0.000000 -0.628111 0.778124
vn 0.000000 -0.628111 0.778124
vn 0.000000 1.000000 0.000024
vn -0.240453 -0.628111 0.740040
vn -0.240453 -0.628111 0.740040
vn 0.000000 1.000000 0.000024
vn -0.457370 -0.628111 0.629516
vn -0.457370 -0.628111 0.629516
vn 0.000000 1.000000 0.000024
vn -0.629516 -0.628111 0.457370
vn -0.629516 -0.628111 0.457370
vn 0.000000 1.000000 0.000024
vn -0.740040 -0.628111 0.240454
vn -0.740040 -0.628111 0.240454
vn 0.000000 1.000000 0.000024
vn -0.778124 -0.628111 0.000000
vn -0.778124 -0.628111 0.000000
vn 0.000000 1.000000 0.000024
vn -0.740040 -0.628111 -0.240453
vn -0.740040 -0.628111 -0.240453
vn 0.000000 1.000000 0.000024
vn -0.629516 -0.628111 -0.457370
vn -0.629516 -0.628111 -0.457370
vn 0.000000 1.000000 0.000024
vn -0.457370 -0.628111 -0.629515
vn 0.000000 -0.628111 -0.778124
vn 0.240454 -0.628111 -0.740040
vn 0.457370 -0.628111 -0.629515
vn 0.629516 -0.628111 -0.457370
vn 0.740040 -0.628111 -0.240453
vn 0.778124 -0.628111 0.000000
vn 0.740040 -0.628111 0.240454
vn 0.629516 -0.628111 0.457370
vn 0.457370 -0.628111 0.629516
vn 0.240453 -0.628111 0.740040
vn 0.000000 -0.628111 0.778124
vn -0.240453 -0.628111 0.740040
vn -0.457370 -0.628111 0.629516
vn -0.629516 -0.628111 0.457370
vn -0.740040 -0.628111 0.240454
vn -0.778124 -0.628111 0.000000
vn -0.740040 -0.628111 -0.240453
vn -0.629516 -0.628111 -0.457370
vn -0.457370 -0.628111 -0.629515
vn -0.240454 -0.628111 -0.740040
vn -0.457370 -0.628111 -0.629515
vn 0.000000 1.000000 0.000024
vn -0.240454 -0.628111 -0.740040
vn -0.240454 -0.628111 -0.740040
vn 0.000000 1.000000 0.000024
vn 0.000000 -0.628111 -0.778124
f 1/1/1 21/2/2 2/3/3
f 2/4/4 21/5/5 3/6/6
f 3/7/7 21/8/8 4/9/9
f 4/10/10 21/11/11 5/12/12
f 5/13/13 21/14/14 6/15/15
f 6/16/16 21/17/17 7/18/18
f 7/19/19 21/20/20 8/21/21
f 8/22/22 21/23/23 9/24/24
f 9/25/25 21/26/26 10/27/27
f 10/28/28 21/29/29 11/30/30
f 11/31/31 21/32/32 12/33/33
f 12/34/34 21/35/35 13/36/36
f 13/37/37 21/38/38 14/39/39
f 14/40/40 21/41/41 15/42/42
f 15/43/43 21/44/44 16/45/45
f 16/46/46 21/47/47 17/48/48
f 17/49/49 21/50/50 18/51/51
f 18/52/52 21/53/53 19/54/54
f 1/55/55 2/56/56 3/57/57 4/58/58 5/59/59 6/60/60 7/61/61 8/62/62 9/63/63 10/64/64 11/65/65 12/66/66 13/67/67 14/68/68 15/69/69 16/70/70 17/71/71 18/72/72 19/73/73 20/74/74
f 19/75/75 21/76/76 20/77/77
f 20/78/78 21/79/79 1/80/80
