# generated by tools/art/gen_meshes.py
v -0.250000 -0.049996 21.904499
v -0.250000 0.040039 21.904499
v -0.250000 -0.050000 -99.980003
v -0.250000 0.040035 -99.980003
v 2.050000 -0.049996 21.904499
v 2.050000 0.040039 21.904499
v 2.050000 -0.050000 -99.980003
v 2.050000 0.040035 -99.980003
v -0.250000 -0.039035 21.904499
v -0.250000 0.051000 21.904499
v -0.250000 -0.039039 -99.980003
v -0.250000 0.050996 -99.980003
v 2.050000 -0.039035 21.904499
v 2.050000 0.051000 21.904499
v 2.050000 -0.039039 -99.980003
v 2.050000 0.050996 -99.980003
v 1.935000 0.051000 21.904499
v 1.935000 -0.049996 21.904499
v 1.935000 0.050996 -99.980003
v 1.935000 -0.050000 -99.980003
v 2.050000 0.051000 21.904499
v 2.050000 -0.049996 21.904499
v 2.050000 0.050996 -99.980003
v 2.050000 -0.050000 -99.980003
v -0.250000 0.051000 21.904499
v -0.250000 -0.049996 21.904499
v -0.250000 0.050996 -99.980003
v -0.250000 -0.050000 -99.980003
v -0.135000 0.051000 21.904499
v -0.135000 -0.049996 21.904499
v -0.135000 0.050996 -99.980003
v -0.135000 -0.050000 -99.980003
v 0.284750 0.050999 3.621827
v 0.284750 -0.049996 3.621827
v 0.284750 0.050996 -81.697327
v 0.284750 -0.049999 -81.697327
v 0.365250 0.050999 3.621827
v 0.365250 -0.049996 3.621827
v 0.365250 0.050996 -81.697327
v 0.365250 -0.049999 -81.697327
v 0.859750 0.050999 3.621827
v 0.859750 -0.049996 3.621827
v 0.859750 0.050996 -81.697327
v 0.859750 -0.049999 -81.697327
v 0.940250 0.050999 3.621827
v 0.940250 -0.049996 3.621827
v 0.940250 0.050996 -81.697327
v 0.940250 -0.049999 -81.697327
v 1.434750 0.050999 3.621827
v 1.434750 -0.049996 3.621827
v 1.434750 0.050996 -81.697327
v 1.434750 -0.049999 -81.697327
v 1.515250 0.050999 3.621827
v 1.515250 -0.049996 3.621827
v 1.515250 0.050996 -81.697327
v 1.515250 -0.049999 -81.697327
vt 0.000041 1.000000
vt 0.891477 1.000000
vt 0.891436 0.000000
vt 0.000000 0.000000
vt 0.000000 0.000000
vt 0.000000 0.891436
vt 1.000000 0.891436
vt 1.000000 0.000000
vt 0.000000 0.000000
vt 0.891436 0.000000
vt 0.891477 1.000000
vt 0.000041 1.000000
vt 1.000000 0.000041
vt 1.000000 0.891477
vt 0.000000 0.891477
vt 0.000000 0.000041
vt 0.000000 0.000000
vt 1.000000 0.000000
vt 1.000000 1.000000
vt 0.000000 1.000000
vt 1.000000 0.000000
vt 0.000000 0.000000
vt 0.000000 1.000000
vt 1.000000 1.000000
vt 0.108564 1.000000
vt 1.000000 1.000000
vt 0.999959 0.000000
vt 0.108523 0.000000
vt 0.000000 0.108523
vt 0.000000 0.999959
vt 1.000000 0.999959
vt 1.000000 0.108523
vt 0.108523 0.000000
vt 0.999959 0.000000
vt 1.000000 1.000000
vt 0.108564 1.000000
vt 1.000000 0.108564
vt 1.000000 1.000000
vt 0.000000 1.000000
vt 0.000000 0.108564
vt 0.000000 0.000000
vt 1.000000 0.000000
vt 1.000000 1.000000
vt 0.000000 1.000000
vt 1.000000 0.000000
vt 0.000000 0.000000
vt 0.000000 1.000000
vt 1.000000 1.000000
vt 1.000000 1.000000
vt 0.999959 0.000000
vt 0.000000 0.000000
vt 0.000041 1.000000
vt 0.950000 0.999959
vt 1.000000 0.999959
vt 1.000000 0.000000
vt 0.950000 0.000000
vt 0.999959 0.000000
vt 1.000000 1.000000
vt 0.000041 1.000000
vt 0.000000 0.000000
vt 1.000000 1.000000
vt 0.950000 1.000000
vt 0.950000 0.000041
vt 1.000000 0.000041
vt 0.950000 0.000000
vt 0.950000 1.000000
vt 1.000000 1.000000
vt 1.000000 0.000000
vt 1.000000 0.000000
vt 1.000000 1.000000
vt 0.950000 1.000000
vt 0.950000 0.000000
vt 1.000000 1.000000
vt 0.999959 0.000000
vt 0.000000 0.000000
vt 0.000041 1.000000
vt 0.000000 0.999959
vt 0.050000 0.999959
vt 0.050000 0.000000
vt 0.000000 0.000000
vt 0.999959 0.000000
vt 1.000000 1.000000
vt 0.000041 1.000000
vt 0.000000 0.000000
vt 0.050000 1.000000
vt 0.000000 1.000000
vt 0.000000 0.000041
vt 0.050000 0.000041
vt 0.000000 0.000000
vt 0.000000 1.000000
vt 0.050000 1.000000
vt 0.050000 0.000000
vt 0.050000 0.000000
vt 0.050000 1.000000
vt 0.000000 1.000000
vt 0.000000 0.000000
vt 0.999994 0.850000
vt 0.999965 0.150000
vt 0.000006 0.150000
vt 0.000035 0.850000
vt 0.232500 0.999965
vt 0.267500 0.999965
vt 0.267500 0.000006
vt 0.232500 0.000006
vt 0.999965 0.150000
vt 0.999994 0.850000
vt 0.000035 0.850000
vt 0.000006 0.150000
vt 0.267500 0.999994
vt 0.232500 0.999994
vt 0.232500 0.000035
vt 0.267500 0.000035
vt 0.232500 0.150000
vt 0.232500 0.850000
vt 0.267500 0.850000
vt 0.267500 0.150000
vt 0.267500 0.150000
vt 0.267500 0.850000
vt 0.232500 0.850000
vt 0.232500 0.150000
vt 0.999994 0.850000
vt 0.999965 0.150000
vt 0.000006 0.150000
vt 0.000035 0.850000
vt 0.482500 0.999965
vt 0.517500 0.999965
vt 0.517500 0.000006
vt 0.482500 0.000006
vt 0.999965 0.150000
vt 0.999994 0.850000
vt 0.000035 0.850000
vt 0.000006 0.150000
vt 0.517500 0.999994
vt 0.482500 0.999994
vt 0.482500 0.000035
vt 0.517500 0.000035
vt 0.482500 0.150000
vt 0.482500 0.850000
vt 0.517500 0.850000
vt 0.517500 0.150000
vt 0.517500 0.150000
vt 0.517500 0.850000
vt 0.482500 0.850000
vt 0.482500 0.150000
vt 0.999994 0.850000
vt 0.999965 0.150000
vt 0.000006 0.150000
vt 0.000035 0.850000
vt 0.732500 0.999965
vt 0.767500 0.999965
vt 0.767500 0.000006
vt 0.732500 0.000006
vt 0.999965 0.150000
vt 0.999994 0.850000
vt 0.000035 0.850000
vt 0.000006 0.150000
vt 0.767500 0.999994
vt 0.732500 0.999994
vt 0.732500 0.000035
vt 0.767500 0.000035
vt 0.732500 0.150000
vt 0.732500 0.850000
vt 0.767500 0.850000
vt 0.767500 0.150000
vt 0.767500 0.150000
vt 0.767500 0.850000
vt 0.732500 0.850000
vt 0.732500 0.150000
vn -1.000000 0.000000 0.000000
vn -1.000000 0.000000 0.000000
vn -1.000000 0.000000 0.000000
vn -1.000000 0.000000 0.000000
vn -0.000000 0.000000 -1.000000
vn -0.000000 0.000000 -1.000000
vn -0.000000 0.000000 -1.000000
vn -0.000000 0.000000 -1.000000
vn 1.000000 0.000000 0.000000
vn 1.000000 0.000000 0.000000
vn 1.000000 0.000000 0.000000
vn 1.000000 0.000000 0.000000
vn -0.000000 0.000000 1.000000
vn -0.000000 0.000000 1.000000
vn -0.000000 0.000000 1.000000
vn -0.000000 0.000000 1.000000
vn 0.000000 -1.000000 0.000000
vn 0.000000 -1.000000 0.000000
vn 0.000000 -1.000000 0.000000
vn 0.000000 -1.000000 0.000000
vn 0.000000 1.000000 -0.000000
vn 0.000000 1.000000 -0.000000
vn 0.000000 1.000000 -0.000000
vn 0.000000 1.000000 -0.000000
vn -1.000000 0.000000 0.000000
vn -1.000000 0.000000 0.000000
vn -1.000000 0.000000 0.000000
vn -1.000000 0.000000 0.000000
vn -0.000000 0.000000 -1.000000
vn -0.000000 0.000000 -1.000000
vn -0.000000 0.000000 -1.000000
vn -0.000000 0.000000 -1.000000
vn 1.000000 0.000000 0.000000
vn 1.000000 0.000000 0.000000
vn 1.000000 0.000000 0.000000
vn 1.000000 0.000000 0.000000
vn -0.000000 0.000000 1.000000
vn -0.000000 0.000000 1.000000
vn -0.000000 0.000000 1.000000
vn -0.000000 0.000000 1.000000
vn 0.000000 -1.000000 0.000000
vn 0.000000 -1.000000 0.000000
vn 0.000000 -1.000000 0.000000
vn 0.000000 -1.000000 0.000000
vn 0.000000 1.000000 -0.000000
vn 0.000000 1.000000 -0.000000
vn 0.000000 1.000000 -0.000000
vn 0.000000 1.000000 -0.000000
vn -1.000000 0.000000 0.000000
vn -1.000000 0.000000 0.000000
vn -1.000000 0.000000 0.000000
vn -1.000000 0.000000 0.000000
vn 0.000000 0.000000 -1.000000
vn 0.000000 0.000000 -1.000000
vn 0.000000 0.000000 -1.000000
vn 0.000000 0.000000 -1.000000
vn 1.000000 -0.000000 0.000000
vn 1.000000 -0.000000 0.000000
vn 1.000000 -0.000000 0.000000
vn 1.000000 -0.000000 0.000000
vn 0.000000 -0.000000 1.000000
vn 0.000000 -0.000000 1.000000
vn 0.000000 -0.000000 1.000000
vn 0.000000 -0.000000 1.000000
vn 0.000000 1.000000 -0.000000
vn 0.000000 1.000000 -0.000000
vn 0.000000 1.000000 -0.000000
vn 0.000000 1.000000 -0.000000
vn 0.000000 -1.000000 0.000000
vn 0.000000 -1.000000 0.000000
vn 0.000000 -1.000000 0.000000
vn 0.000000 -1.000000 0.000000
vn -1.000000 0.000000 0.000000
vn -1.000000 0.000000 0.000000
vn -1.000000 0.000000 0.000000
vn -1.000000 0.000000 0.000000
vn 0.000000 0.000000 -1.000000
vn 0.000000 0.000000 -1.000000
vn 0.000000 0.000000 -1.000000
vn 0.000000 0.000000 -1.000000
vn 1.000000 -0.000000 0.000000
vn 1.000000 -0.000000 0.000000
vn 1.000000 -0.000000 0.000000
vn 1.000000 -0.000000 0.000000
vn 0.000000 -0.000000 1.000000
vn 0.000000 -0.000000 1.000000
vn 0.000000 -0.000000 1.000000
vn 0.000000 -0.000000 1.000000
vn 0.000000 1.000000 -0.000000
vn 0.000000 1.000000 -0.000000
vn 0.000000 1.000000 -0.000000
vn 0.000000 1.000000 -0.000000
vn 0.000000 -1.000000 0.000000
vn 0.000000 -1.000000 0.000000
vn 0.000000 -1.000000 0.000000
vn 0.000000 -1.000000 0.000000
vn -1.000000 0.000000 0.000000
vn -1.000000 0.000000 0.000000
vn -1.000000 0.000000 0.000000
vn -1.000000 0.000000 0.000000
vn 0.000000 0.000000 -1.000000
vn 0.000000 0.000000 -1.000000
vn 0.000000 0.000000 -1.000000
vn 0.000000 0.000000 -1.000000
vn 1.000000 -0.000000 0.000000
vn 1.000000 -0.000000 0.000000
vn 1.000000 -0.000000 0.000000
vn 1.000000 -0.000000 0.000000
vn 0.000000 -0.000000 1.000000
vn 0.000000 -0.000000 1.000000
vn 0.000000 -0.000000 1.000000
vn 0.000000 -0.000000 1.000000
vn 0.000000 1.000000 -0.000000
vn 0.000000 1.000000 -0.000000
vn 0.000000 1.000000 -0.000000
vn 0.000000 1.000000 -0.000000
vn 0.000000 -1.000000 0.000000
vn 0.000000 -1.000000 0.000000
vn 0.000000 -1.000000 0.000000
vn 0.000000 -1.000000 0.000000
vn -1.000000 0.000000 0.000000
vn -1.000000 0.000000 0.000000
vn -1.000000 0.000000 0.000000
vn -1.000000 0.000000 0.000000
vn 0.000000 0.000000 -1.000000
vn 0.000000 0.000000 -1.000000
vn 0.000000 0.000000 -1.000000
vn 0.000000 0.000000 -1.000000
vn 1.000000 -0.000000 0.000000
vn 1.000000 -0.000000 0.000000
vn 1.000000 -0.000000 0.000000
vn 1.000000 -0.000000 0.000000
vn 0.000000 -0.000000 1.000000
vn 0.000000 -0.000000 1.000000
vn 0.000000 -0.000000 1.000000
vn 0.000000 -0.000000 1.000000
vn 0.000000 1.000000 -0.000000
vn 0.000000 1.000000 -0.000000
vn 0.000000 1.000000 -0.000000
vn 0.000000 1.000000 -0.000000
vn 0.000000 -1.000000 0.000000
vn 0.000000 -1.000000 0.000000
vn 0.000000 -1.000000 0.000000
vn 0.000000 -1.000000 0.000000
vn -1.000000 0.000000 0.000000
vn -1.000000 0.000000 0.000000
vn -1.000000 0.000000 0.000000
vn -1.000000 0.000000 0.000000
vn 0.000000 0.000000 -1.000000
vn 0.000000 0.000000 -1.000000
vn 0.000000 0.000000 -1.000000
vn 0.000000 0.000000 -1.000000
vn 1.000000 -0.000000 0.000000
vn 1.000000 -0.000000 0.000000
vn 1.000000 -0.000000 0.000000
vn 1.000000 -0.000000 0.000000
vn 0.000000 -0.000000 1.000000
vn 0.000000 -0.000000 1.000000
vn 0.000000 -0.000000 1.000000
vn 0.000000 -0.000000 1.000000
vn 0.000000 1.000000 -0.000000
vn 0.000000 1.000000 -0.000000
vn 0.000000 1.000000 -0.000000
vn 0.000000 1.000000 -0.000000
vn 0.000000 -1.000000 0.000000
vn 0.000000 -1.000000 0.000000
vn 0.000000 -1.000000 0.000000
vn 0.000000 -1.000000 0.000000
f 1/1/1 2/2/2 4/3/3 3/4/4
f 3/5/5 4/6/6 8/7/7 7/8/8
f 7/9/9 8/10/10 6/11/11 5/12/12
f 5/13/13 6/14/14 2/15/15 1/16/16
f 3/17/17 7/18/18 5/19/19 1/20/20
f 8/21/21 4/22/22 2/23/23 6/24/24
f 9/25/25 10/26/26 12/27/27 11/28/28
f 11/29/29 12/30/30 16/31/31 15/32/32
f 15/33/33 16/34/34 14/35/35 13/36/36
f 13/37/37 14/38/38 10/39/39 9/40/40
f 11/41/41 15/42/42 13/43/43 9/44/44
f 16/45/45 12/46/46 10/47/47 14/48/48
f 17/49/49 19/50/50 20/51/51 18/52/52
f 19/53/53 23/54/54 24/55/55 20/56/56
f 23/57/57 21/58/58 22/59/59 24/60/60
f 21/61/61 17/62/62 18/63/63 22/64/64
f 19/65/65 17/66/66 21/67/67 23/68/68
f 24/69/69 22/70/70 18/71/71 20/72/72
f 25/73/73 27/74/74 28/75/75 26/76/76
f 27/77/77 31/78/78 32/79/79 28/80/80
f 31/81/81 29/82/82 30/83/83 32/84/84
f 29/85/85 25/86/86 26/87/87 30/88/88
f 27/89/89 25/90/90 29/91/91 31/92/92
f 32/93/93 30/94/94 26/95/95 28/96/96
f 33/97/97 35/98/98 36/99/99 34/100/100
f 35/101/101 39/102/102 40/103/103 36/104/104
f 39/105/105 37/106/106 38/107/107 40/108/108
f 37/109/109 33/110/110 34/111/111 38/112/112
f 35/113/113 33/114/114 37/115/115 39/116/116
f 40/117/117 38/118/118 34/119/119 36/120/120
f 41/121/121 43/122/122 44/123/123 42/124/124
f 43/125/125 47/126/126 48/127/127 44/128/128
f 47/129/129 45/130/130 46/131/131 48/132/132
f 45/133/133 41/134/134 42/135/135 46/136/136
f 43/137/137 41/138/138 45/139/139 47/140/140
f 48/141/141 46/142/142 42/143/143 44/144/144
f 49/145/145 51/146/146 52/147/147 50/148/148
f 51/149/149 55/150/150 56/151/151 52/152/152
f 55/153/153 53/154/154 54/155/155 56/156/156
f 53/157/157 49/158/158 50/159/159 54/160/160
f 51/161/161 49/162/162 53/163/163 55/164/164
f 56/165/165 54/166/166 50/167/167 52/168/168
