# generated by tools/art/gen_meshes.py
v 0.000000 0.000000 -40.000000
v 2.472136 0.000000 -38.042263
v 4.702282 0.000000 -32.360680
v 6.472136 0.000000 -23.511410
v 7.608452 0.000000 -12.360681
v 8.000000 0.000000 0.000001
v 7.608452 0.000000 12.360681
v 6.472136 0.000000 23.511412
v 4.702282 0.000001 32.360683
v 2.472136 0.000001 38.042263
v 0.000000 0.000001 40.000000
v -2.472136 0.000001 38.042263
v -4.702282 0.000001 32.360683
v -6.472136 0.000000 23.511412
v -7.608452 0.000000 12.360681
v -8.000000 0.000000 0.000001
v -7.608452 0.000000 -12.360681
v -6.472136 0.000000 -23.511410
v -4.702282 0.000000 -32.360680
v -2.472136 0.000000 -38.042263
v 0.000000 50.000000 -0.000003
vt 0.500000 0.000000
vt 0.500000 1.000000
vt 0.654509 0.000000
vt 0.000000 0.024472
vt 1.000000 0.500000
vt 0.000000 0.095492
vt 0.000000 0.095492
vt 1.000000 0.500000
vt 0.000000 0.206107
vt 0.000000 0.206107
vt 1.000000 0.500000
vt 0.000000 0.345491
vt 0.000000 0.345491
vt 1.000000 0.500000
vt 0.000000 0.500000
vt 0.000000 0.500000
vt 1.000000 0.500000
vt 0.000000 0.654509
vt 0.000000 0.654509
vt 1.000000 0.500000
vt 0.000000 0.793893
vt 0.000000 0.793893
vt 1.000000 0.500000
vt 0.000000 0.904509
vt 0.000000 0.904509
vt 1.000000 0.500000
vt 0.000000 0.975528
vt 0.654509 0.000000
vt 0.500000 1.000000
vt 0.500000 0.000000
vt 0.500000 0.000000
vt 0.500000 1.000000
vt 0.345491 0.000000
vt 0.000000 0.975528
vt 1.000000 0.500000
vt 0.000000 0.904509
vt 0.000000 0.904509
vt 1.000000 0.500000
vt 0.000000 0.793893
vt 0.000000 0.793893
vt 1.000000 0.500000
vt 0.000000 0.654509
vt 0.000000 0.654509
vt 1.000000 0.500000
vt 0.000000 0.500000
vt 0.000000 0.500000
vt 1.000000 0.500000
vt 0.000000 0.345491
vt 0.000000 0.345491
vt 1.000000 0.500000
vt 0.000000 0.206107
vt 0.000000 0.206107
vt 1.000000 0.500000
vt 0.000000 0.095492
vt 0.500000 0.000000
vt 0.654509 0.024472
vt 0.793893 0.095492
vt 0.904509 0.206107
vt 0.975528 0.345491
vt 1.000000 0.500000
vt 0.975528 0.654509
vt 0.904509 0.793893
vt 0.793893 0.904509
vt 0.654509 0.975528
vt 0.500000 1.000000
vt 0.345491 0.975528
vt 0.206107 0.904509
vt 0.095491 0.793893
vt 0.024472 0.654509
vt 0.000000 0.500000
vt 0.024472 0.345491
vt 0.095491 0.206107
vt 0.206107 0.095492
vt 0.345491 0.024472
vt 0.000000 0.095492
vt 1.000000 0.500000
vt 0.000000 0.024472
vt 0.345491 0.000000
vt 0.500000 1.000000
vt 0.500000 0.000000
vn 0.000000 -0.336280 -0.941762
vn -0.000000 1.000000 0.000005
vn 0.673776 -0.459647 -0.578577
vn 0.673776 -0.459647 -0.578577
vn -0.000000 1.000000 0.000005
vn 0.774700 -0.580000 -0.251874
vn 0.774700 -0.580000 -0.251874
vn -0.000000 1.000000 0.000005
vn 0.773311 -0.621313 -0.126335
vn 0.773311 -0.621313 -0.126335
vn -0.000000 1.000000 0.000005
vn 0.768824 -0.637073 -0.055204
vn 0.768824 -0.637073 -0.055204
vn -0.000000 1.000000 0.000005
vn 0.767229 -0.641374 0.000000
vn 0.767229 -0.641374 0.000000
vn -0.000000 1.000000 0.000005
vn 0.768824 -0.637073 0.055204
vn 0.768824 -0.637073 0.055204
vn -0.000000 1.000000 0.000005
vn 0.773311 -0.621313 0.126335
vn 0.773311 -0.621313 0.126335
vn -0.000000 1.000000 0.000005
vn 0.774700 -0.580000 0.251874
vn 0.774700 -0.580000 0.251874
vn -0.000000 1.000000 0.000005
vn 0.673776 -0.459647 0.578577
vn 0.673776 -0.459647 0.578577
vn -0.000000 1.000000 0.000005
vn 0.000000 -0.336280 0.941762
vn 0.000000 -0.336280 0.941762
vn -0.000000 1.000000 0.000005
vn -0.673776 -0.459647 0.578577
vn -0.673776 -0.459647 0.578577
vn -0.000000 1.000000 0.000005
vn -0.774700 -0.580000 0.251874
vn -0.774700 -0.580000 0.251874
vn -0.000000 1.000000 0.000005
vn -0.773311 -0.621313 0.126335
vn -0.773311 -0.621313 0.126335
vn -0.000000 1.000000 0.000005
vn -0.768824 -0.637073 0.055204
vn -0.768824 -0.637073 0.055204
vn -0.000000 1.000000 0.000005
vn -0.767229 -0.641374 0.000000
vn -0.767229 -0.641374 0.000000
vn -0.000000 1.000000 0.000005
vn -0.768824 -0.637073 -0.055204
vn -0.768824 -0.637073 -0.055204
vn -0.000000 1.000000 0.000005
vn -0.773311 -0.621313 -0.126335
vn -0.773311 -0.621313 -0.126335
vn -0.000000 1.000000 0.000005
vn -0.774700 -0.580000 -0.251874
vn 0.000000 -0.336280 -0.941762
vn 0.673776 -0.459647 -0.578577
vn 0.774700 -0.580000 -0.251874
vn 0.773311 -0.621313 -0.126335
vn 0.768824 -0.637073 -0.055204
vn 0.767229 -0.641374 0.000000
vn 0.768824 -0.637073 0.055204
vn 0.773311 -0.621313 0.126335
vn 0.774700 -0.580000 0.251874
vn 0.673776 -0.459647 0.578577
vn 0.000000 -0.336280 0.941762
vn -0.673776 -0.459647 0.578577
vn -0.774700 -0.580000 0.251874
vn -0.773311 -0.621313 0.126335
vn -0.768824 -0.637073 0.055204
vn -0.767229 -0.641374 0.000000
vn -0.768824 -0.637073 -0.055204
vn -0.773311 -0.621313 -0.126335
vn -0.774700 -0.580000 -0.251874
vn -0.673776 -0.459647 -0.578577
vn -0.774700 -0.580000 -0.251874
vn -0.000000 1.000000 0.000005
vn -0.673776 -0.459647 -0.578577
vn -0.673776 -0.459647 -0.578577
vn -0.000000 1.000000 0.000005
vn 0.000000 -0.336280 -0.941762
f 1/1/1 21/2/2 2/3/3
f 2/4/4 21/5/5 3/6/6
f 3/7/7 21/8/8 4/9/9
f 4/10/10 21/11/11 5/12/12
f 5/13/13 21/14/14 6/15/15
f 6/16/16 21/17/17 7/18/18
f 7/19/19 21/20/20 8/21/21
f 8/22/22 21/23/23 9/24/24
f 9/25/25 21/26/26 10/27/27
f 10/28/28 21/29/29 11/30/30
f 11/31/31 21/32/32 12/33/33
f 12/34/34 21/35/35 13/36/36
f 13/37/37 21/38/38 14/39/39
f 14/40/40 21/41/41 15/42/42
f 15/43/43 21/44/44 16/45/45
f 16/46/46 21/47/47 17/48/48
f 17/49/49 21/50/50 18/51/51
f 18/52/52 21/53/53 19/54/54
f 1/55/55 2/56/56 3/57/57 4/58/58 5/59/59 6/60/60 7/61/61 8/62/62 9/63/63 10/64/64 11/65/65 12/66/66 13/67/67 14/68/68 15/69/69 16/70/70 17/71/71 18/72/72 19/73/73 20/74/74
f 19/75/75 21/76/76 20/77/77
f 20/78/78 21/79/79 1/80/80
