# generated by tools/art/gen_meshes.py
v -41.000000 -35.355301 -8.000000
v -10.098300 -35.355301 -6.286979
v 17.778524 -35.355301 -1.315595
v 39.901699 -35.355301 6.427517
v 54.105656 -35.355301 16.184404
v 59.000000 -35.355301 27.000000
v 54.105656 -35.355301 37.815594
v 39.901699 -35.355301 47.572487
v 17.778524 -35.355297 55.315598
v -10.098300 -35.355297 60.286980
v -41.000000 -35.355297 62.000000
v -71.901703 -35.355297 60.286980
v -99.778526 -35.355297 55.315598
v -121.901703 -35.355301 47.572487
v -136.105652 -35.355301 37.815594
v -141.000000 -35.355301 27.000000
v -136.105652 -35.355301 16.184404
v -121.901703 -35.355301 6.427517
v -99.778526 -35.355301 -1.315595
v -71.901703 -35.355301 -6.286979
v -41.000000 50.000000 26.999998
vt 0.500000 0.000000
vt 0.500000 1.000000
vt 0.654509 0.000000
vt 0.654509 0.000000
vt 0.500000 1.000000
vt 0.793893 0.000000
vt 0.793893 0.000000
vt 0.500000 1.000000
vt 0.904508 0.000000
vt 0.904508 0.000000
vt 0.500000 1.000000
vt 0.975528 0.000000
vt 0.975528 0.345491
vt 0.500000 0.500000
vt 1.000000 0.500000
vt 1.000000 0.500000
vt 0.500000 0.500000
vt 0.975528 0.654508
vt 0.975528 0.000000
vt 0.500000 1.000000
vt 0.904508 0.000000
vt 0.904508 0.000000
vt 0.500000 1.000000
vt 0.793893 0.000000
vt 0.793893 0.000000
vt 0.500000 1.000000
vt 0.654509 0.000000
vt 0.654509 0.000000
vt 0.500000 1.000000
vt 0.500000 0.000000
vt 0.500000 0.000000
vt 0.500000 1.000000
vt 0.345491 0.000000
vt 0.345491 0.000000
vt 0.500000 1.000000
vt 0.206107 0.000000
vt 0.206107 0.000000
vt 0.500000 1.000000
vt 0.095491 0.000000
vt 0.095491 0.000000
vt 0.500000 1.000000
vt 0.024472 0.000000
vt 0.024472 0.654508
vt 0.500000 0.500000
vt 0.000000 0.500000
vt 0.000000 0.500000
vt 0.500000 0.500000
vt 0.024472 0.345491
vt 0.024472 0.000000
vt 0.500000 1.000000
vt 0.095491 0.000000
vt 0.095491 0.000000
vt 0.500000 1.000000
vt 0.206107 0.000000
vt 0.500000 0.000000
vt 0.654509 0.024472
vt 0.793893 0.095492
vt 0.904508 0.206107
vt 0.975528 0.345491
vt 1.000000 0.500000
vt 0.975528 0.654508
vt 0.904508 0.793893
vt 0.793893 0.904509
vt 0.654509 0.975528
vt 0.500000 1.000000
vt 0.345491 0.975528
vt 0.206107 0.904509
vt 0.095491 0.793893
vt 0.024472 0.654508
vt 0.000000 0.500000
vt 0.024472 0.345491
vt 0.095491 0.206107
vt 0.206107 0.095492
vt 0.345491 0.024472
vt 0.206107 0.000000
vt 0.500000 1.000000
vt 0.345491 0.000000
vt 0.345491 0.000000
vt 0.500000 1.000000
vt 0.500000 0.000000
vn 0.000000 -0.543905 -0.839147
vn 0.000000 1.000000 0.000001
vn 0.106633 -0.534790 -0.838230
vn 0.106633 -0.534790 -0.838230
vn 0.000000 1.000000 0.000001
vn 0.238922 -0.504029 -0.829982
vn 0.238922 -0.504029 -0.829982
vn 0.000000 1.000000 0.000001
vn 0.440640 -0.440642 -0.782094
vn 0.440640 -0.440642 -0.782094
vn 0.000000 1.000000 0.000001
vn 0.756688 -0.341602 -0.557433
vn 0.756688 -0.341602 -0.557433
vn 0.000000 1.000000 0.000001
vn 0.958369 -0.285533 0.000000
vn 0.958369 -0.285533 0.000000
vn 0.000000 1.000000 0.000001
vn 0.756688 -0.341602 0.557433
vn 0.756688 -0.341602 0.557433
vn 0.000000 1.000000 0.000001
vn 0.440640 -0.440642 0.782094
vn 0.440640 -0.440642 0.782094
vn 0.000000 1.000000 0.000001
vn 0.238922 -0.504029 0.829982
vn 0.238922 -0.504029 0.829982
vn 0.000000 1.000000 0.000001
vn 0.106633 -0.534789 0.838230
vn 0.106633 -0.534789 0.838230
vn 0.000000 1.000000 0.000001
vn 0.000000 -0.543905 0.839147
vn 0.000000 -0.543905 0.839147
vn 0.000000 1.000000 0.000001
vn -0.106633 -0.534789 0.838230
vn -0.106633 -0.534789 0.838230
vn 0.000000 1.000000 0.000001
vn -0.238922 -0.504029 0.829982
vn -0.238922 -0.504029 0.829982
vn 0.000000 1.000000 0.000001
vn -0.440640 -0.440642 0.782094
vn -0.440640 -0.440642 0.782094
vn 0.000000 1.000000 0.000001
vn -0.756688 -0.341602 0.557433
vn -0.756688 -0.341602 0.557433
vn 0.000000 1.000000 0.000001
vn -0.958369 -0.285533 0.000000
vn -0.958369 -0.285533 0.000000
vn 0.000000 1.000000 0.000001
vn -0.756688 -0.341602 -0.557433
vn -0.756688 -0.341602 -0.557433
vn 0.000000 1.000000 0.000001
vn -0.440640 -0.440642 -0.782094
vn -0.440640 -0.440642 -0.782094
vn 0.000000 1.000000 0.000001
vn -0.238922 -0.504029 -0.829982
vn 0.000000 -0.543905 -0.839147
vn 0.106633 -0.534790 -0.838230
vn 0.238922 -0.504029 -0.829982
vn 0.440640 -0.440642 -0.782094
vn 0.756688 -0.341602 -0.557433
vn 0.958369 -0.285533 0.000000
vn 0.756688 -0.341602 0.557433
vn 0.440640 -0.440642 0.782094
vn 0.238922 -0.504029 0.829982
vn 0.106633 -0.534789 0.838230
vn 0.000000 -0.543905 0.839147
vn -0.106633 -0.534789 0.838230
vn -0.238922 -0.504029 0.829982
vn -0.440640 -0.440642 0.782094
vn -0.756688 -0.341602 0.557433
vn -0.958369 -0.285533 0.000000
vn -0.756688 -0.341602 -0.557433
vn -0.440640 -0.440642 -0.782094
vn -0.238922 -0.504029 -0.829982
vn -0.106633 -0.534790 -0.838230
vn -0.238922 -0.504029 -0.829982
vn 0.000000 1.000000 0.000001
vn -0.106633 -0.534790 -0.838230
vn -0.106633 -0.534790 -0.838230
vn 0.000000 1.000000 0.000001
vn 0.000000 -0.543905 -0.839147
f 1/1/1 21/2/2 2/3/3
f 2/4/4 21/5/5 3/6/6
f 3/7/7 21/8/8 4/9/9
f 4/10/10 21/11/11 5/12/12
f 5/13/13 21/14/14 6/15/15
f 6/16/16 21/17/17 7/18/18
f 7/19/19 21/20/20 8/21/21
f 8/22/22 21/23/23 9/24/24
f 9/25/25 21/26/26 10/27/27
f 10/28/28 21/29/29 11/30/30
f 11/31/31 21/32/32 12/33/33
f 12/34/34 21/35/35 13/36/36
f 13/37/37 21/38/38 14/39/39
f 14/40/40 21/41/41 15/42/42
f 15/43/43 21/44/44 16/45/45
f 16/46/46 21/47/47 17/48/48
f 17/49/49 21/50/50 18/51/51
f 18/52/52 21/53/53 19/54/54
f 1/55/55 2/56/56 3/57/57 4/58/58 5/59/59 6/60/60 7/61/61 8/62/62 9/63/63 10/64/64 11/65/65 12/66/66 13/67/67 14/68/68 15/69/69 16/70/70 17/71/71 18/72/72 19/73/73 20/74/74
f 19/75/75 21/76/76 20/77/77
f 20/78/78 21/79/79 1/80/80
