# generated by tools/art/gen_meshes.py
v -5.181818 -200.000900 -98.873749
v -5.181818 200.000900 -98.874100
v -3.022727 -200.000900 -88.306656
v -3.022727 200.000900 -88.307007
v -1.442163 -200.000900 -59.436813
v -1.442163 200.000900 -59.437160
v -0.863636 -200.000900 -19.999876
v -0.863636 200.000900 -20.000225
v -1.442163 -200.000900 19.437061
v -1.442163 200.000900 19.436714
v -3.022727 -200.000900 48.306904
v -3.022727 200.000900 48.306553
v -5.181818 -200.000900 58.874001
v -5.181818 200.000900 58.873650
v -7.340909 -200.000900 48.306904
v -7.340909 200.000900 48.306553
v -8.921474 -200.000900 19.437061
v -8.921474 200.000900 19.436714
v -9.500000 -200.000900 -19.999876
v -9.500000 200.000900 -20.000225
v -8.921474 -200.000900 -59.436813
v -8.921474 200.000900 -59.437160
v -7.340909 -200.000900 -88.306656
v -7.340909 200.000900 -88.307007
v 5.181818 -200.000900 -98.873749
v 5.181818 200.000900 -98.874100
v 7.340909 -200.000900 -88.306656
v 7.340909 200.000900 -88.307007
v 8.921474 -200.000900 -59.436813
v 8.921474 200.000900 -59.437160
v 9.500000 -200.000900 -19.999876
v 9.500000 200.000900 -20.000225
v 8.921474 -200.000900 19.437061
v 8.921474 200.000900 19.436714
v 7.340909 -200.000900 48.306904
v 7.340909 200.000900 48.306553
v 5.181818 -200.000900 58.874001
v 5.181818 200.000900 58.873650
v 3.022727 -200.000900 48.306904
v 3.022727 200.000900 48.306553
v 1.442163 -200.000900 19.437061
v 1.442163 200.000900 19.436714
v 0.863636 -200.000900 -19.999876
v 0.863636 200.000900 -20.000225
v 1.442163 -200.000900 -59.436813
v 1.442163 200.000900 -59.437160
v 3.022727 -200.000900 -88.306656
v 3.022727 200.000900 -88.307007
vt 0.000000 0.000002
vt 1.000000 0.000000
vt 1.000000 0.066987
vt 0.000000 0.066989
vt 0.000000 0.066989
vt 1.000000 0.066987
vt 1.000000 0.249999
vt 0.000000 0.250002
vt 0.000000 0.250002
vt 1.000000 0.249999
vt 1.000000 0.499999
vt 0.000000 0.500001
vt 0.000000 0.250002
vt 1.000000 0.249999
vt 1.000000 0.499999
vt 0.000000 0.500001
vt 0.000000 0.500001
vt 1.000000 0.499999
vt 1.000000 0.749998
vt 0.000000 0.750001
vt 0.000000 0.933013
vt 1.000000 0.933011
vt 1.000000 0.999998
vt 0.000000 1.000000
vt 0.000000 0.750001
vt 1.000000 0.749998
vt 1.000000 0.933011
vt 0.000000 0.933013
vt 0.000000 0.066989
vt 1.000000 0.066987
vt 1.000000 0.249999
vt 0.000000 0.250002
vt 0.000000 0.933013
vt 1.000000 0.933011
vt 1.000000 0.999998
vt 0.000000 1.000000
vt 0.000000 1.000000
vt 1.000000 0.999998
vt 1.000000 0.933011
vt 0.000000 0.933013
vt 0.000000 0.750001
vt 1.000000 0.749998
vt 1.000000 0.933011
vt 0.000000 0.933013
vt 0.000000 0.933013
vt 1.000000 0.933011
vt 1.000000 0.749998
vt 0.000000 0.750001
vt 0.000000 0.000002
vt 1.000000 0.000000
vt 1.000000 0.066987
vt 0.000000 0.066989
vt 0.000000 0.750001
vt 1.000000 0.749998
vt 1.000000 0.499999
vt 0.000000 0.500001
vt 0.000000 0.500001
vt 1.000000 0.499999
vt 1.000000 0.249999
vt 0.000000 0.250002
vt 0.340909 0.066987
vt 0.227273 0.000000
vt 0.113636 0.066987
vt 0.030449 0.249999
vt 0.000000 0.499999
vt 0.030449 0.749998
vt 0.113636 0.933011
vt 0.227273 0.999998
vt 0.340909 0.933011
vt 0.424097 0.749998
vt 0.454545 0.499999
vt 0.424097 0.249999
vt 0.000000 0.250002
vt 1.000000 0.249999
vt 1.000000 0.066987
vt 0.000000 0.066989
vt 0.000000 1.000000
vt 1.000000 0.999998
vt 1.000000 0.933011
vt 0.000000 0.933013
vt 0.000000 0.500001
vt 1.000000 0.499999
vt 1.000000 0.749998
vt 0.000000 0.750001
vt 0.000000 0.066989
vt 1.000000 0.066987
vt 1.000000 0.000000
vt 0.000000 0.000002
vt 0.227273 0.000002
vt 0.340909 0.066989
vt 0.424097 0.250002
vt 0.454545 0.500001
vt 0.424097 0.750001
vt 0.340909 0.933013
vt 0.227273 1.000000
vt 0.113636 0.933013
vt 0.030449 0.750001
vt 0.000000 0.500001
vt 0.030449 0.250002
vt 0.113636 0.066989
vt 0.000000 0.933013
vt 1.000000 0.933011
vt 1.000000 0.749998
vt 0.000000 0.750001
vt 0.000000 0.750001
vt 1.000000 0.749998
vt 1.000000 0.499999
vt 0.000000 0.500001
vt 0.000000 0.500001
vt 1.000000 0.499999
vt 1.000000 0.249999
vt 0.000000 0.250002
vt 0.969551 0.749998
vt 1.000000 0.499999
vt 0.969551 0.249999
vt 0.886364 0.066987
vt 0.772727 0.000000
vt 0.659091 0.066987
vt 0.575903 0.249999
vt 0.545455 0.499999
vt 0.575903 0.749998
vt 0.659091 0.933011
vt 0.772727 0.999998
vt 0.886364 0.933011
vt 0.000000 0.250002
vt 1.000000 0.249999
vt 1.000000 0.066987
vt 0.000000 0.066989
vt 0.000000 0.066989
vt 1.000000 0.066987
vt 1.000000 0.000000
vt 0.000000 0.000002
vt 0.659091 0.933013
vt 0.575903 0.750001
vt 0.545455 0.500001
vt 0.575903 0.250002
vt 0.659091 0.066989
vt 0.772727 0.000002
vt 0.886364 0.066989
vt 0.969551 0.250002
vt 1.000000 0.500001
vt 0.969551 0.750001
vt 0.886364 0.933013
vt 0.772727 1.000000
vn 0.000000 -0.539593 -0.841926
vn 0.000000 0.539593 -0.841926
vn 0.716963 0.690966 -0.092364
vn 0.716963 -0.690966 -0.092364
vn 0.716963 -0.690966 -0.092364
vn 0.716963 0.690966 -0.092364
vn 0.711126 0.702632 -0.024672
vn 0.711126 -0.702632 -0.024672
vn 0.711126 -0.702632 -0.024672
vn 0.711126 0.702632 -0.024672
vn 0.710378 0.703821 -0.000000
vn 0.710377 -0.703821 -0.000000
vn 0.711126 -0.702632 -0.024672
vn 0.711126 0.702632 -0.024672
vn 0.710378 0.703821 0.000000
vn 0.710377 -0.703821 -0.000000
vn 0.710377 -0.703821 -0.000000
vn 0.710378 0.703821 0.000000
vn 0.711126 0.702631 0.024673
vn 0.711126 -0.702632 0.024672
vn 0.716963 -0.690966 0.092364
vn 0.716963 0.690966 0.092364
vn 0.000000 0.539594 0.841926
vn 0.000000 -0.539593 0.841926
vn 0.711126 -0.702632 0.024672
vn 0.711126 0.702631 0.024673
vn 0.716963 0.690966 0.092364
vn 0.716963 -0.690966 0.092364
vn 0.716963 -0.690966 -0.092364
vn 0.716963 0.690966 -0.092364
vn 0.711126 0.702632 -0.024672
vn 0.711126 -0.702632 -0.024672
vn 0.716963 -0.690966 0.092364
vn 0.716963 0.690966 0.092364
vn 0.000000 0.539594 0.841926
vn 0.000000 -0.539593 0.841926
vn 0.000000 -0.539593 0.841926
vn 0.000000 0.539594 0.841926
vn -0.716963 0.690966 0.092364
vn -0.716963 -0.690966 0.092364
vn 0.711126 -0.702632 0.024672
vn 0.711126 0.702631 0.024672
vn 0.716963 0.690966 0.092364
vn 0.716963 -0.690966 0.092364
vn -0.716963 -0.690966 0.092364
vn -0.716963 0.690966 0.092364
vn -0.711126 0.702631 0.024673
vn -0.711126 -0.702632 0.024672
vn 0.000000 -0.539593 -0.841926
vn 0.000000 0.539593 -0.841926
vn 0.716963 0.690966 -0.092364
vn 0.716963 -0.690966 -0.092364
vn -0.711126 -0.702632 0.024672
vn -0.711126 0.702631 0.024673
vn -0.710378 0.703821 0.000000
vn -0.710377 -0.703821 -0.000000
vn -0.710377 -0.703821 -0.000000
vn -0.710378 0.703821 0.000000
vn -0.711126 0.702632 -0.024672
vn -0.711126 -0.702632 -0.024672
vn 0.716963 0.690966 -0.092364
vn 0.000000 0.539593 -0.841926
vn -0.716963 0.690966 -0.092364
vn -0.711126 0.702632 -0.024672
vn -0.710378 0.703821 0.000000
vn -0.711126 0.702631 0.024673
vn -0.716963 0.690966 0.092364
vn 0.000000 0.539594 0.841926
vn 0.716963 0.690966 0.092364
vn 0.711126 0.702631 0.024673
vn 0.710378 0.703821 0.000000
vn 0.711126 0.702632 -0.024672
vn -0.711126 -0.702632 -0.024672
vn -0.711126 0.702632 -0.024672
vn -0.716963 0.690966 -0.092364
vn -0.716963 -0.690966 -0.092364
vn 0.000000 -0.539593 0.841926
vn 0.000000 0.539594 0.841926
vn -0.716963 0.690966 0.092364
vn -0.716963 -0.690966 0.092364
vn 0.710377 -0.703821 -0.000000
vn 0.710378 0.703821 -0.000000
vn 0.711126 0.702631 0.024672
vn 0.711126 -0.702632 0.024672
vn -0.716963 -0.690966 -0.092364
vn -0.716963 0.690966 -0.092364
vn 0.000000 0.539593 -0.841926
vn 0.000000 -0.539593 -0.841926
vn 0.000000 -0.539593 -0.841926
vn 0.716963 -0.690966 -0.092364
vn 0.711126 -0.702632 -0.024672
vn 0.710377 -0.703821 -0.000000
vn 0.711126 -0.702632 0.024672
vn 0.716963 -0.690966 0.092364
vn 0.000000 -0.539593 0.841926
vn -0.716963 -0.690966 0.092364
vn -0.711126 -0.702632 0.024672
vn -0.710377 -0.703821 -0.000000
vn -0.711126 -0.702632 -0.024672
vn -0.716963 -0.690966 -0.092364
vn -0.716963 -0.690966 0.092364
vn -0.716963 0.690966 0.092364
vn -0.711126 0.702631 0.024672
vn -0.711126 -0.702632 0.024672
vn -0.711126 -0.702632 0.024672
vn -0.711126 0.702631 0.024672
vn -0.710378 0.703821 -0.000000
vn -0.710377 -0.703821 -0.000000
vn -0.710377 -0.703821 -0.000000
vn -0.710378 0.703821 -0.000000
vn -0.711126 0.702632 -0.024672
vn -0.711126 -0.702632 -0.024672
vn 0.711126 0.702631 0.024672
vn 0.710378 0.703821 -0.000000
vn 0.711126 0.702632 -0.024672
vn 0.716963 0.690966 -0.092364
vn 0.000000 0.539593 -0.841926
vn -0.716963 0.690966 -0.092364
vn -0.711126 0.702632 -0.024672
vn -0.710378 0.703821 -0.000000
vn -0.711126 0.702631 0.024672
vn -0.716963 0.690966 0.092364
vn 0.000000 0.539594 0.841926
vn 0.716963 0.690966 0.092364
vn -0.711126 -0.702632 -0.024672
vn -0.711126 0.702632 -0.024672
vn -0.716963 0.690966 -0.092364
vn -0.716963 -0.690966 -0.092364
vn -0.716963 -0.690966 -0.092364
vn -0.716963 0.690966 -0.092364
vn 0.000000 0.539593 -0.841926
vn 0.000000 -0.539593 -0.841926
vn -0.716963 -0.690966 0.092364
vn -0.711126 -0.702632 0.024672
vn -0.710377 -0.703821 -0.000000
vn -0.711126 -0.702632 -0.024672
vn -0.716963 -0.690966 -0.092364
vn 0.000000 -0.539593 -0.841926
vn 0.716963 -0.690966 -0.092364
vn 0.711126 -0.702632 -0.024672
vn 0.710377 -0.703821 -0.000000
vn 0.711126 -0.702632 0.024672
vn 0.716963 -0.690966 0.092364
vn 0.000000 -0.539593 0.841926
f 1/1/1 2/2/2 4/3/3 3/4/4
f 3/5/5 4/6/6 6/7/7 5/8/8
f 29/9/9 30/10/10 32/11/11 31/12/12
f 5/13/13 6/14/14 8/15/15 7/16/16
f 7/17/17 8/18/18 10/19/19 9/20/20
f 35/21/21 36/22/22 38/23/23 37/24/24
f 9/25/25 10/26/26 12/27/27 11/28/28
f 27/29/29 28/30/30 30/31/31 29/32/32
f 11/33/33 12/34/34 14/35/35 13/36/36
f 13/37/37 14/38/38 16/39/39 15/40/40
f 33/41/41 34/42/42 36/43/43 35/44/44
f 15/45/45 16/46/46 18/47/47 17/48/48
f 25/49/49 26/50/50 28/51/51 27/52/52
f 17/53/53 18/54/54 20/55/55 19/56/56
f 19/57/57 20/58/58 22/59/59 21/60/60
f 4/61/61 2/62/62 24/63/63 22/64/64 20/65/65 18/66/66 16/67/67 14/68/68 12/69/69 10/70/70 8/71/71 6/72/72
f 21/73/73 22/74/74 24/75/75 23/76/76
f 37/77/77 38/78/78 40/79/79 39/80/80
f 31/81/81 32/82/82 34/83/83 33/84/84
f 23/85/85 24/86/86 2/87/87 1/88/88
f 1/89/89 3/90/90 5/91/91 7/92/92 9/93/93 11/94/94 13/95/95 15/96/96 17/97/97 19/98/98 21/99/99 23/100/100
f 39/101/101 40/102/102 42/103/103 41/104/104
f 41/105/105 42/106/106 44/107/107 43/108/108
f 43/109/109 44/110/110 46/111/111 45/112/112
f 34/113/113 32/114/114 30/115/115 28/116/116 26/117/117 48/118/118 46/119/119 44/120/120 42/121/121 40/122/122 38/123/123 36/124/124
f 45/125/125 46/126/126 48/127/127 47/128/128
f 47/129/129 48/130/130 26/131/131 25/132/132
f 39/133/133 41/134/134 43/135/135 45/136/136 47/137/137 25/138/138 27/139/139 29/140/140 31/141/141 33/142/142 35/143/143 37/144/144
