# generated by tools/art/gen_meshes.py
v -0.184150 -63.558601 26.390905
v -0.184150 -0.234130 26.390902
v -0.070633 -63.558601 26.405849
v -0.070633 -0.234130 26.405848
v 0.035148 -63.558601 26.449665
v 0.035148 -0.234130 26.449663
v 0.125985 -63.558601 26.519367
v 0.125985 -0.234130 26.519363
v 0.195686 -63.558601 26.610203
v 0.195686 -0.234130 26.610201
v 0.239502 -63.558601 26.715984
v 0.239502 -0.234130 26.715982
v 0.254447 -63.558601 26.829502
v 0.254447 -0.234130 26.829498
v 0.239502 -63.558601 26.943018
v 0.239502 -0.234130 26.943016
v 0.195686 -63.558601 27.048800
v 0.195686 -0.234130 27.048798
v 0.125985 -63.558601 27.139635
v 0.125985 -0.234130 27.139633
v 0.035148 -63.558601 27.209337
v 0.035148 -0.234130 27.209333
v -0.070633 -63.558601 27.253153
v -0.070633 -0.234130 27.253151
v -0.184150 -63.558601 27.268097
v -0.184150 -0.234130 27.268095
v -0.297667 -63.558601 27.253153
v -0.297667 -0.234130 27.253151
v -0.403448 -63.558601 27.209337
v -0.403448 -0.234130 27.209333
v -0.494285 -63.558601 27.139635
v -0.494285 -0.234130 27.139633
v -0.563986 -63.558601 27.048800
v -0.563986 -0.234130 27.048798
v -0.607802 -63.558601 26.943018
v -0.607802 -0.234130 26.943016
v -0.622746 -63.558601 26.829502
v -0.622746 -0.234130 26.829498
v -0.607802 -63.558601 26.715984
v -0.607802 -0.234130 26.715982
v -0.563986 -63.558601 26.610203
v -0.563986 -0.234130 26.610201
v -0.494285 -63.558601 26.519367
v -0.494285 -0.234130 26.519363
v -0.403448 -63.558601 26.449665
v -0.403448 -0.234130 26.449663
v -0.297667 -63.558601 26.405849
v -0.297667 -0.234130 26.405848
v -0.184150 10.940772 26.443533
v -0.184150 74.265236 26.443531
v -0.084255 10.940772 26.456684
v -0.084255 74.265236 26.456682
v 0.008832 10.940772 26.495243
v 0.008832 74.265236 26.495239
v 0.088768 10.940772 26.556580
v 0.088768 74.265236 26.556578
v 0.150105 10.940772 26.636517
v 0.150105 74.265236 26.636513
v 0.188663 10.940772 26.729603
v 0.188663 74.265236 26.729601
v 0.201815 10.940772 26.829498
v 0.201815 74.265236 26.829494
v 0.188663 10.940772 26.929394
v 0.188663 74.265236 26.929390
v 0.150105 10.940772 27.022480
v 0.150105 74.265236 27.022478
v 0.088768 10.940772 27.102417
v 0.088768 74.265236 27.102413
v 0.008832 10.940772 27.163754
v 0.008832 74.265236 27.163752
v -0.084255 10.940772 27.202312
v -0.084255 74.265236 27.202309
v -0.184150 10.940772 27.215464
v -0.184150 74.265236 27.215460
v -0.284045 10.940772 27.202312
v -0.284045 74.265236 27.202309
v -0.377132 10.940772 27.163754
v -0.377132 74.265236 27.163752
v -0.457068 10.940772 27.102417
v -0.457068 74.265236 27.102413
v -0.518405 10.940772 27.022480
v -0.518405 74.265236 27.022478
v -0.556963 10.940772 26.929394
v -0.556963 74.265236 26.929390
v -0.570115 10.940772 26.829498
v -0.570115 74.265236 26.829494
v -0.556963 10.940772 26.729603
v -0.556963 74.265236 26.729601
v -0.518405 10.940772 26.636517
v -0.518405 74.265236 26.636513
v -0.457068 10.940772 26.556580
v -0.457068 74.265236 26.556578
v -0.377132 10.940772 26.495243
v -0.377132 74.265236 26.495239
v -0.284045 10.940772 26.456684
v -0.284045 74.265236 26.456682
v -0.184150 85.440140 26.496162
v -0.184150 148.764603 26.496159
v -0.097877 85.440140 26.507519
v -0.097877 148.764603 26.507517
v -0.017483 85.440140 26.540819
v -0.017483 148.764603 26.540817
v 0.051552 85.440140 26.593792
v 0.051552 148.764603 26.593790
v 0.104525 85.440140 26.662828
v 0.104525 148.764603 26.662825
v 0.137825 85.440140 26.743221
v 0.137825 148.764603 26.743219
v 0.149183 85.440140 26.829494
v 0.149183 148.764603 26.829493
v 0.137825 85.440140 26.915768
v 0.137825 148.764603 26.915766
v 0.104525 85.440140 26.996162
v 0.104525 148.764603 26.996159
v 0.051552 85.440140 27.065197
v 0.051552 148.764603 27.065195
v -0.017483 85.440140 27.118170
v -0.017483 148.764603 27.118168
v -0.097877 85.440140 27.151470
v -0.097877 148.764603 27.151468
v -0.184150 85.440140 27.162828
v -0.184150 148.764603 27.162825
v -0.270423 85.440140 27.151470
v -0.270423 148.764603 27.151468
v -0.350817 85.440140 27.118170
v -0.350817 148.764603 27.118168
v -0.419852 85.440140 27.065197
v -0.419852 148.764603 27.065195
v -0.472825 85.440140 26.996162
v -0.472825 148.764603 26.996159
v -0.506125 85.440140 26.915768
v -0.506125 148.764603 26.915766
v -0.517483 85.440140 26.829494
v -0.517483 148.764603 26.829493
v -0.506125 85.440140 26.743221
v -0.506125 148.764603 26.743219
v -0.472825 85.440140 26.662828
v -0.472825 148.764603 26.662825
v -0.419852 85.440140 26.593792
v -0.419852 148.764603 26.593790
v -0.350817 85.440140 26.540819
v -0.350817 148.764603 26.540817
v -0.270423 85.440140 26.507519
v -0.270423 148.764603 26.507517
vt 0.500000 0.000000
vt 0.500000 0.298246
vt 0.629410 0.298246
vt 0.629410 0.000000
vt 0.500000 0.701754
vt 0.500000 1.000000
vt 0.401649 1.000000
vt 0.401649 0.701754
vt 0.629410 0.000000
vt 0.629410 0.298246
vt 0.750000 0.298246
vt 0.750000 0.000000
vt 0.690000 0.701754
vt 0.690000 1.000000
vt 0.768701 1.000000
vt 0.768701 0.701754
vt 0.350877 0.499999
vt 0.649123 0.499995
vt 0.649123 0.613875
vt 0.350877 0.613879
vt 0.750000 0.000000
vt 0.750000 0.298246
vt 0.853553 0.298246
vt 0.853553 0.000000
vt 0.000000 0.146450
vt 0.298246 0.146446
vt 0.298246 0.250001
vt 0.000000 0.250003
vt 0.386120 0.350877
vt 0.386120 0.649123
vt 0.280000 0.649123
vt 0.280000 0.350877
vt 0.000000 0.250003
vt 0.298246 0.250001
vt 0.298246 0.370591
vt 0.000000 0.370593
vt 0.350877 0.386118
vt 0.649123 0.386116
vt 0.649123 0.499995
vt 0.350877 0.499999
vt 0.000000 0.370593
vt 0.298246 0.370591
vt 0.298246 0.499999
vt 0.000000 0.500003
vt 0.690000 0.701754
vt 0.690000 1.000000
vt 0.598351 1.000000
vt 0.598351 0.701754
vt 0.701754 0.401643
vt 1.000000 0.401641
vt 1.000000 0.499992
vt 0.701754 0.499995
vt 0.000000 0.500003
vt 0.298246 0.499999
vt 0.298246 0.629409
vt 0.000000 0.629411
vt 0.500000 0.350877
vt 0.500000 0.649123
vt 0.386120 0.649123
vt 0.386120 0.350877
vt 0.000000 0.629411
vt 0.298246 0.629409
vt 0.298246 0.749999
vt 0.000000 0.750002
vt 0.350877 0.280000
vt 0.649123 0.279996
vt 0.649123 0.386116
vt 0.350877 0.386118
vt 0.000000 0.750002
vt 0.298246 0.749999
vt 0.298246 0.853552
vt 0.000000 0.853554
vt 0.853553 0.000000
vt 0.853553 0.298246
vt 0.750000 0.298246
vt 0.750000 0.000000
vt 0.613880 0.350877
vt 0.613880 0.649123
vt 0.500000 0.649123
vt 0.500000 0.350877
vt 0.401649 0.701754
vt 0.401649 1.000000
vt 0.310000 1.000000
vt 0.310000 0.701754
vt 0.750000 0.000000
vt 0.750000 0.298246
vt 0.629410 0.298246
vt 0.629410 0.000000
vt 0.701754 0.231294
vt 1.000000 0.231292
vt 1.000000 0.309991
vt 0.701754 0.309996
vt 0.350877 0.188872
vt 0.649123 0.188870
vt 0.649123 0.279996
vt 0.350877 0.280000
vt 0.629410 0.000000
vt 0.629410 0.298246
vt 0.500000 0.298246
vt 0.500000 0.000000
vt 0.500000 0.000000
vt 0.500000 0.298246
vt 0.370590 0.298246
vt 0.370590 0.000000
vt 0.720000 0.350877
vt 0.720000 0.649123
vt 0.613880 0.649123
vt 0.613880 0.350877
vt 0.370590 0.000000
vt 0.370590 0.298246
vt 0.250000 0.298246
vt 0.250000 0.000000
vt 0.720000 0.350877
vt 0.720000 0.649123
vt 0.811127 0.649123
vt 0.811127 0.350877
vt 0.250000 0.000000
vt 0.250000 0.298246
vt 0.146447 0.298246
vt 0.146447 0.000000
vt 0.598351 0.701754
vt 0.598351 1.000000
vt 0.500000 1.000000
vt 0.500000 0.701754
vt 0.701754 0.499995
vt 1.000000 0.499992
vt 1.000000 0.598344
vt 0.701754 0.598346
vt 0.000000 0.853554
vt 0.298246 0.853552
vt 0.298246 0.749999
vt 0.000000 0.750002
vt 0.811127 0.350877
vt 0.811127 0.649123
vt 0.720000 0.649123
vt 0.720000 0.350877
vt 0.000000 0.750002
vt 0.298246 0.749999
vt 0.298246 0.629409
vt 0.000000 0.629411
vt 0.613880 0.350877
vt 0.613880 0.649123
vt 0.720000 0.649123
vt 0.720000 0.350877
vt 0.000000 0.629411
vt 0.298246 0.629409
vt 0.298246 0.499999
vt 0.000000 0.500003
vt 0.000000 0.500003
vt 0.298246 0.499999
vt 0.298246 0.370591
vt 0.000000 0.370593
vt 0.350877 0.719997
vt 0.649123 0.719995
vt 0.649123 0.811121
vt 0.350877 0.811125
vt 0.000000 0.370593
vt 0.298246 0.370591
vt 0.298246 0.250001
vt 0.000000 0.250003
vt 0.701754 0.309996
vt 1.000000 0.309991
vt 1.000000 0.401641
vt 0.701754 0.401643
vt 0.500000 0.350877
vt 0.500000 0.649123
vt 0.613880 0.649123
vt 0.613880 0.350877
vt 0.000000 0.250003
vt 0.298246 0.250001
vt 0.298246 0.146446
vt 0.000000 0.146450
vt 0.146447 0.000000
vt 0.146447 0.298246
vt 0.250000 0.298246
vt 0.250000 0.000000
vt 0.629410 0.017038
vt 0.500000 0.000000
vt 0.370590 0.017038
vt 0.250000 0.066988
vt 0.146447 0.146446
vt 0.066987 0.250001
vt 0.017037 0.370591
vt 0.000000 0.499999
vt 0.017037 0.629409
vt 0.066987 0.749999
vt 0.146447 0.853552
vt 0.250000 0.933010
vt 0.370590 0.982962
vt 0.500000 0.999998
vt 0.629410 0.982962
vt 0.750000 0.933010
vt 0.853553 0.853552
vt 0.933013 0.749999
vt 0.982963 0.629409
vt 1.000000 0.499999
vt 0.982963 0.370591
vt 0.933013 0.250001
vt 0.853553 0.146446
vt 0.750000 0.066988
vt 0.250000 0.000000
vt 0.250000 0.298246
vt 0.370590 0.298246
vt 0.370590 0.000000
vt 0.280000 0.350877
vt 0.280000 0.649123
vt 0.188873 0.649123
vt 0.188873 0.350877
vt 0.350877 0.613879
vt 0.649123 0.613875
vt 0.649123 0.719995
vt 0.350877 0.719997
vt 0.370590 0.000000
vt 0.370590 0.298246
vt 0.500000 0.298246
vt 0.500000 0.000000
vt 0.500000 0.000004
vt 0.629410 0.017041
vt 0.750000 0.066990
vt 0.853553 0.146450
vt 0.933013 0.250003
vt 0.982963 0.370593
vt 1.000000 0.500003
vt 0.982963 0.629411
vt 0.933013 0.750002
vt 0.853553 0.853554
vt 0.750000 0.933014
vt 0.629410 0.982964
vt 0.500000 1.000000
vt 0.370590 0.982964
vt 0.250000 0.933014
vt 0.146447 0.853554
vt 0.066987 0.750002
vt 0.017037 0.629411
vt 0.000000 0.500003
vt 0.017037 0.370593
vt 0.066987 0.250003
vt 0.146447 0.146450
vt 0.250000 0.066990
vt 0.370590 0.017041
vt 0.350877 0.811125
vt 0.649123 0.811121
vt 0.649123 0.719995
vt 0.350877 0.719997
vt 0.768701 0.701754
vt 0.768701 1.000000
vt 0.690000 1.000000
vt 0.690000 0.701754
vt 0.350877 0.719997
vt 0.649123 0.719995
vt 0.649123 0.613875
vt 0.350877 0.613879
vt 0.598351 0.701754
vt 0.598351 1.000000
vt 0.690000 1.000000
vt 0.690000 0.701754
vt 0.350877 0.613879
vt 0.649123 0.613875
vt 0.649123 0.499995
vt 0.350877 0.499999
vt 0.350877 0.499999
vt 0.649123 0.499995
vt 0.649123 0.386116
vt 0.350877 0.386118
vt 0.701754 0.689995
vt 1.000000 0.689991
vt 1.000000 0.768693
vt 0.701754 0.768695
vt 0.350877 0.386118
vt 0.649123 0.386116
vt 0.649123 0.279996
vt 0.350877 0.280000
vt 0.500000 0.701754
vt 0.500000 1.000000
vt 0.598351 1.000000
vt 0.598351 0.701754
vt 0.350877 0.280000
vt 0.649123 0.279996
vt 0.649123 0.188870
vt 0.350877 0.188872
vt 0.188873 0.350877
vt 0.188873 0.649123
vt 0.280000 0.649123
vt 0.280000 0.350877
vt 0.881051 0.719995
vt 0.925007 0.613875
vt 0.940000 0.499995
vt 0.925007 0.386116
vt 0.881051 0.279996
vt 0.811127 0.188870
vt 0.720000 0.118945
vt 0.613880 0.074990
vt 0.500000 0.059997
vt 0.386120 0.074990
vt 0.280000 0.118945
vt 0.188873 0.188870
vt 0.118949 0.279996
vt 0.074993 0.386116
vt 0.060000 0.499995
vt 0.074993 0.613875
vt 0.118949 0.719995
vt 0.188873 0.811121
vt 0.280000 0.881047
vt 0.386120 0.925002
vt 0.500000 0.939994
vt 0.613880 0.925002
vt 0.720000 0.881047
vt 0.811127 0.811121
vt 0.280000 0.350877
vt 0.280000 0.649123
vt 0.386120 0.649123
vt 0.386120 0.350877
vt 0.310000 0.701754
vt 0.310000 1.000000
vt 0.231299 1.000000
vt 0.231299 0.701754
vt 0.701754 0.598346
vt 1.000000 0.598344
vt 1.000000 0.689991
vt 0.701754 0.689995
vt 0.386120 0.350877
vt 0.386120 0.649123
vt 0.500000 0.649123
vt 0.500000 0.350877
vt 0.188873 0.811125
vt 0.118949 0.719997
vt 0.074993 0.613879
vt 0.060000 0.499999
vt 0.074993 0.386118
vt 0.118949 0.280000
vt 0.188873 0.188872
vt 0.280000 0.118949
vt 0.386120 0.074992
vt 0.500000 0.060000
vt 0.613880 0.074992
vt 0.720000 0.118949
vt 0.811127 0.188872
vt 0.881051 0.280000
vt 0.925007 0.386118
vt 0.940000 0.499999
vt 0.925007 0.613879
vt 0.881051 0.719997
vt 0.811127 0.811125
vt 0.720000 0.881049
vt 0.613880 0.925006
vt 0.500000 0.939998
vt 0.386120 0.925006
vt 0.280000 0.881049
vt 0.701754 0.768695
vt 1.000000 0.768693
vt 1.000000 0.689991
vt 0.701754 0.689995
vt 0.701754 0.689995
vt 1.000000 0.689991
vt 1.000000 0.598344
vt 0.701754 0.598346
vt 0.701754 0.598346
vt 1.000000 0.598344
vt 1.000000 0.499992
vt 0.701754 0.499995
vt 0.701754 0.499995
vt 1.000000 0.499992
vt 1.000000 0.401641
vt 0.701754 0.401643
vt 0.701754 0.401643
vt 1.000000 0.401641
vt 1.000000 0.309991
vt 0.701754 0.309996
vt 0.701754 0.309996
vt 1.000000 0.309991
vt 1.000000 0.231292
vt 0.701754 0.231294
vt 0.231299 0.701754
vt 0.231299 1.000000
vt 0.310000 1.000000
vt 0.310000 0.701754
vt 0.768701 0.231292
vt 0.690000 0.170903
vt 0.598351 0.132941
vt 0.500000 0.119993
vt 0.401649 0.132941
vt 0.310000 0.170903
vt 0.231299 0.231292
vt 0.170910 0.309991
vt 0.132948 0.401641
vt 0.120000 0.499992
vt 0.132948 0.598344
vt 0.170910 0.689991
vt 0.231299 0.768693
vt 0.310000 0.829081
vt 0.401649 0.867044
vt 0.500000 0.879990
vt 0.598351 0.867044
vt 0.690000 0.829081
vt 0.768701 0.768693
vt 0.829090 0.689991
vt 0.867052 0.598344
vt 0.880000 0.499992
vt 0.867052 0.401641
vt 0.829090 0.309991
vt 0.310000 0.701754
vt 0.310000 1.000000
vt 0.401649 1.000000
vt 0.401649 0.701754
vt 0.401649 0.701754
vt 0.401649 1.000000
vt 0.500000 1.000000
vt 0.500000 0.701754
vt 0.690000 0.829084
vt 0.598351 0.867046
vt 0.500000 0.879994
vt 0.401649 0.867046
vt 0.310000 0.829084
vt 0.231299 0.768695
vt 0.170910 0.689995
vt 0.132948 0.598346
vt 0.120000 0.499995
vt 0.132948 0.401643
vt 0.170910 0.309996
vt 0.231299 0.231294
vt 0.310000 0.170906
vt 0.401649 0.132943
vt 0.500000 0.119997
vt 0.598351 0.132943
vt 0.690000 0.170906
vt 0.768701 0.231294
vt 0.829090 0.309996
vt 0.867052 0.401643
vt 0.880000 0.499995
vt 0.867052 0.598346
vt 0.829090 0.689995
vt 0.768701 0.768695
vn 0.000000 -0.678883 -0.734247
vn 0.000000 0.678878 -0.734251
vn 0.190037 0.678882 -0.709229
vn 0.190038 -0.678881 -0.709230
vn 0.000000 -0.678875 0.734253
vn 0.000000 0.678887 0.734242
vn -0.190037 0.678880 0.709230
vn -0.190035 -0.678877 0.709234
vn 0.190038 -0.678881 -0.709230
vn 0.190037 0.678882 -0.709229
vn 0.367124 0.678881 -0.635878
vn 0.367125 -0.678880 -0.635879
vn 0.367127 -0.678884 -0.635873
vn 0.367124 0.678878 -0.635881
vn 0.519190 0.678879 -0.519196
vn 0.519195 -0.678882 -0.519188
vn 0.734249 -0.678880 0.000000
vn 0.734249 0.678880 -0.000004
vn 0.709230 0.678881 0.190034
vn 0.709231 -0.678879 0.190039
vn 0.367125 -0.678880 -0.635879
vn 0.367124 0.678881 -0.635878
vn 0.519194 0.678879 -0.519193
vn 0.519193 -0.678882 -0.519190
vn 0.519193 -0.678882 -0.519190
vn 0.519194 0.678879 -0.519193
vn 0.635878 0.678881 -0.367123
vn 0.635880 -0.678880 -0.367122
vn -0.190037 -0.678878 0.709232
vn -0.190037 0.678883 0.709228
vn -0.367127 0.678879 0.635878
vn -0.367125 -0.678882 0.635877
vn 0.635880 -0.678880 -0.367122
vn 0.635878 0.678881 -0.367123
vn 0.709230 0.678880 -0.190037
vn 0.709230 -0.678880 -0.190035
vn 0.709231 -0.678880 -0.190038
vn 0.709229 0.678880 -0.190041
vn 0.734249 0.678880 -0.000004
vn 0.734249 -0.678880 0.000000
vn 0.709230 -0.678880 -0.190035
vn 0.709230 0.678880 -0.190037
vn 0.734249 0.678880 0.000000
vn 0.734249 -0.678880 0.000002
vn 0.367123 -0.678877 0.635882
vn 0.367126 0.678883 0.635874
vn 0.190037 0.678880 0.709230
vn 0.190035 -0.678877 0.709234
vn 0.709232 -0.678881 -0.190030
vn 0.709229 0.678880 -0.190043
vn 0.734249 0.678880 -0.000006
vn 0.734249 -0.678880 0.000008
vn 0.734249 -0.678880 0.000002
vn 0.734249 0.678880 0.000000
vn 0.709230 0.678880 0.190037
vn 0.709230 -0.678880 0.190039
vn 0.000000 -0.678880 0.734249
vn 0.000000 0.678882 0.734247
vn -0.190037 0.678883 0.709228
vn -0.190037 -0.678878 0.709232
vn 0.709230 -0.678880 0.190039
vn 0.709230 0.678880 0.190037
vn 0.635878 0.678879 0.367126
vn 0.635878 -0.678879 0.367127
vn 0.635877 -0.678882 -0.367123
vn 0.635878 0.678878 -0.367128
vn 0.709229 0.678880 -0.190041
vn 0.709231 -0.678880 -0.190038
vn 0.635878 -0.678879 0.367127
vn 0.635878 0.678879 0.367126
vn 0.519192 0.678880 0.519194
vn 0.519190 -0.678881 0.519194
vn 0.519190 -0.678881 0.519194
vn 0.519192 0.678880 0.519194
vn 0.367125 0.678882 0.635876
vn 0.367126 -0.678878 0.635880
vn 0.190037 -0.678878 0.709232
vn 0.190037 0.678883 0.709228
vn 0.000000 0.678882 0.734247
vn 0.000000 -0.678880 0.734249
vn -0.190035 -0.678877 0.709234
vn -0.190037 0.678880 0.709230
vn -0.367126 0.678883 0.635874
vn -0.367123 -0.678877 0.635882
vn 0.367126 -0.678878 0.635880
vn 0.367125 0.678882 0.635876
vn 0.190038 0.678878 0.709232
vn 0.190037 -0.678879 0.709232
vn 0.519195 -0.678882 -0.519188
vn 0.519190 0.678879 -0.519196
vn 0.635878 0.678877 -0.367130
vn 0.635879 -0.678883 -0.367117
vn 0.519195 -0.678879 -0.519192
vn 0.519191 0.678881 -0.519193
vn 0.635878 0.678878 -0.367128
vn 0.635877 -0.678882 -0.367123
vn 0.190037 -0.678879 0.709232
vn 0.190038 0.678878 0.709232
vn 0.000000 0.678881 0.734248
vn 0.000000 -0.678880 0.734249
vn 0.000000 -0.678880 0.734249
vn 0.000000 0.678881 0.734248
vn -0.190038 0.678878 0.709232
vn -0.190037 -0.678879 0.709232
vn 0.367125 -0.678881 0.635877
vn 0.367128 0.678879 0.635878
vn 0.190037 0.678883 0.709228
vn 0.190037 -0.678878 0.709232
vn -0.190037 -0.678879 0.709232
vn -0.190038 0.678878 0.709232
vn -0.367125 0.678882 0.635876
vn -0.367126 -0.678878 0.635880
vn 0.367125 -0.678882 -0.635876
vn 0.367126 0.678876 -0.635882
vn 0.519191 0.678881 -0.519193
vn 0.519195 -0.678879 -0.519192
vn -0.367126 -0.678878 0.635880
vn -0.367125 0.678882 0.635876
vn -0.519192 0.678880 0.519194
vn -0.519190 -0.678881 0.519194
vn 0.190035 -0.678877 0.709234
vn 0.190037 0.678880 0.709230
vn 0.000000 0.678887 0.734242
vn 0.000000 -0.678875 0.734253
vn 0.734249 -0.678880 0.000008
vn 0.734249 0.678880 -0.000006
vn 0.709232 0.678880 0.190032
vn 0.709229 -0.678880 0.190044
vn -0.519190 -0.678881 0.519194
vn -0.519192 0.678880 0.519194
vn -0.635878 0.678879 0.367126
vn -0.635878 -0.678879 0.367128
vn 0.519194 -0.678878 0.519193
vn 0.519193 0.678883 0.519188
vn 0.367128 0.678879 0.635878
vn 0.367125 -0.678881 0.635877
vn -0.635878 -0.678879 0.367128
vn -0.635878 0.678879 0.367126
vn -0.709230 0.678880 0.190037
vn -0.709230 -0.678880 0.190039
vn 0.190037 -0.678879 -0.709231
vn 0.190036 0.678879 -0.709231
vn 0.367126 0.678876 -0.635882
vn 0.367125 -0.678882 -0.635876
vn -0.709230 -0.678880 0.190039
vn -0.709230 0.678880 0.190037
vn -0.734249 0.678880 0.000000
vn -0.734249 -0.678880 0.000002
vn -0.734249 -0.678880 0.000002
vn -0.734249 0.678880 0.000000
vn -0.709230 0.678880 -0.190037
vn -0.709231 -0.678880 -0.190035
vn 0.635877 -0.678881 0.367125
vn 0.635880 0.678880 0.367122
vn 0.519193 0.678883 0.519188
vn 0.519194 -0.678878 0.519193
vn -0.709231 -0.678880 -0.190035
vn -0.709230 0.678880 -0.190037
vn -0.635878 0.678881 -0.367123
vn -0.635880 -0.678880 -0.367122
vn 0.635879 -0.678883 -0.367117
vn 0.635878 0.678877 -0.367130
vn 0.709229 0.678880 -0.190043
vn 0.709232 -0.678881 -0.190030
vn 0.000000 -0.678881 -0.734248
vn 0.000000 0.678879 -0.734250
vn 0.190036 0.678879 -0.709231
vn 0.190037 -0.678879 -0.709231
vn -0.635880 -0.678880 -0.367122
vn -0.635878 0.678881 -0.367123
vn -0.519194 0.678879 -0.519193
vn -0.519193 -0.678882 -0.519190
vn -0.519193 -0.678882 -0.519190
vn -0.519194 0.678879 -0.519193
vn -0.367124 0.678881 -0.635878
vn -0.367125 -0.678880 -0.635878
vn 0.190037 0.678882 -0.709229
vn 0.000000 0.678878 -0.734251
vn -0.190037 0.678882 -0.709229
vn -0.367124 0.678881 -0.635878
vn -0.519194 0.678879 -0.519193
vn -0.635878 0.678881 -0.367123
vn -0.709230 0.678880 -0.190037
vn -0.734249 0.678880 0.000000
vn -0.709230 0.678880 0.190037
vn -0.635878 0.678879 0.367126
vn -0.519192 0.678880 0.519194
vn -0.367125 0.678882 0.635876
vn -0.190038 0.678878 0.709232
vn 0.000000 0.678881 0.734248
vn 0.190038 0.678878 0.709232
vn 0.367125 0.678882 0.635876
vn 0.519192 0.678880 0.519194
vn 0.635878 0.678879 0.367126
vn 0.709230 0.678880 0.190037
vn 0.734249 0.678880 0.000000
vn 0.709230 0.678880 -0.190037
vn 0.635878 0.678881 -0.367123
vn 0.519194 0.678879 -0.519193
vn 0.367124 0.678881 -0.635878
vn -0.367125 -0.678880 -0.635878
vn -0.367124 0.678881 -0.635878
vn -0.190037 0.678882 -0.709229
vn -0.190038 -0.678881 -0.709230
vn -0.367125 -0.678882 0.635877
vn -0.367127 0.678879 0.635878
vn -0.519193 0.678883 0.519188
vn -0.519194 -0.678879 0.519193
vn 0.709231 -0.678879 0.190039
vn 0.709230 0.678881 0.190034
vn 0.635880 0.678880 0.367122
vn 0.635877 -0.678881 0.367125
vn -0.190038 -0.678881 -0.709230
vn -0.190037 0.678882 -0.709229
vn 0.000000 0.678878 -0.734251
vn 0.000000 -0.678883 -0.734247
vn 0.000000 -0.678883 -0.734247
vn 0.190038 -0.678881 -0.709230
vn 0.367125 -0.678880 -0.635879
vn 0.519193 -0.678882 -0.519190
vn 0.635880 -0.678880 -0.367122
vn 0.709230 -0.678880 -0.190035
vn 0.734249 -0.678880 0.000002
vn 0.709230 -0.678880 0.190039
vn 0.635878 -0.678879 0.367127
vn 0.519190 -0.678881 0.519194
vn 0.367126 -0.678878 0.635880
vn 0.190037 -0.678879 0.709232
vn 0.000000 -0.678880 0.734249
vn -0.190037 -0.678879 0.709232
vn -0.367126 -0.678878 0.635880
vn -0.519190 -0.678881 0.519194
vn -0.635878 -0.678879 0.367128
vn -0.709230 -0.678880 0.190039
vn -0.734249 -0.678880 0.000002
vn -0.709231 -0.678880 -0.190035
vn -0.635880 -0.678880 -0.367122
vn -0.519193 -0.678882 -0.519190
vn -0.367125 -0.678880 -0.635878
vn -0.190038 -0.678881 -0.709230
vn -0.519194 -0.678879 0.519193
vn -0.519193 0.678883 0.519188
vn -0.635880 0.678880 0.367122
vn -0.635877 -0.678881 0.367125
vn 0.519190 -0.678878 0.519198
vn 0.519194 0.678881 0.519189
vn 0.367126 0.678883 0.635874
vn 0.367123 -0.678877 0.635882
vn -0.635877 -0.678881 0.367125
vn -0.635880 0.678880 0.367122
vn -0.709230 0.678881 0.190034
vn -0.709231 -0.678879 0.190038
vn 0.190037 -0.678881 -0.709229
vn 0.190035 0.678878 -0.709233
vn 0.367124 0.678878 -0.635881
vn 0.367127 -0.678884 -0.635873
vn -0.709231 -0.678879 0.190038
vn -0.709230 0.678881 0.190034
vn -0.734249 0.678880 -0.000004
vn -0.734249 -0.678880 0.000000
vn -0.734249 -0.678880 0.000000
vn -0.734249 0.678880 -0.000004
vn -0.709229 0.678880 -0.190041
vn -0.709231 -0.678880 -0.190038
vn 0.635878 -0.678877 0.367132
vn 0.635879 0.678883 0.367119
vn 0.519194 0.678881 0.519189
vn 0.519190 -0.678878 0.519198
vn -0.709231 -0.678880 -0.190038
vn -0.709229 0.678880 -0.190041
vn -0.635878 0.678878 -0.367128
vn -0.635878 -0.678882 -0.367123
vn 0.000000 -0.678888 -0.734242
vn 0.000000 0.678876 -0.734253
vn 0.190035 0.678878 -0.709233
vn 0.190037 -0.678881 -0.709229
vn -0.635878 -0.678882 -0.367123
vn -0.635878 0.678878 -0.367128
vn -0.519191 0.678881 -0.519193
vn -0.519195 -0.678879 -0.519192
vn -0.519195 -0.678879 -0.519192
vn -0.519191 0.678881 -0.519193
vn -0.367126 0.678876 -0.635882
vn -0.367125 -0.678882 -0.635876
vn 0.635880 0.678880 0.367122
vn 0.709230 0.678881 0.190034
vn 0.734249 0.678880 -0.000004
vn 0.709229 0.678880 -0.190041
vn 0.635878 0.678878 -0.367128
vn 0.519191 0.678881 -0.519193
vn 0.367126 0.678876 -0.635882
vn 0.190036 0.678879 -0.709231
vn 0.000000 0.678879 -0.734250
vn -0.190036 0.678879 -0.709231
vn -0.367126 0.678876 -0.635882
vn -0.519191 0.678881 -0.519193
vn -0.635878 0.678878 -0.367128
vn -0.709229 0.678880 -0.190041
vn -0.734249 0.678880 -0.000004
vn -0.709230 0.678881 0.190034
vn -0.635880 0.678880 0.367122
vn -0.519193 0.678883 0.519188
vn -0.367127 0.678879 0.635878
vn -0.190037 0.678883 0.709228
vn 0.000000 0.678882 0.734247
vn 0.190037 0.678883 0.709228
vn 0.367128 0.678879 0.635878
vn 0.519193 0.678883 0.519188
vn -0.367125 -0.678882 -0.635876
vn -0.367126 0.678876 -0.635882
vn -0.190036 0.678879 -0.709231
vn -0.190037 -0.678879 -0.709231
vn -0.367123 -0.678877 0.635882
vn -0.367126 0.678883 0.635874
vn -0.519194 0.678881 0.519189
vn -0.519190 -0.678878 0.519198
vn 0.709229 -0.678880 0.190044
vn 0.709232 0.678880 0.190032
vn 0.635879 0.678883 0.367119
vn 0.635878 -0.678877 0.367132
vn -0.190037 -0.678879 -0.709231
vn -0.190036 0.678879 -0.709231
vn 0.000000 0.678879 -0.734250
vn 0.000000 -0.678881 -0.734248
vn -0.519194 -0.678879 0.519193
vn -0.635877 -0.678881 0.367125
vn -0.709231 -0.678879 0.190038
vn -0.734249 -0.678880 0.000000
vn -0.709231 -0.678880 -0.190038
vn -0.635878 -0.678882 -0.367123
vn -0.519195 -0.678879 -0.519192
vn -0.367125 -0.678882 -0.635876
vn -0.190037 -0.678879 -0.709231
vn 0.000000 -0.678881 -0.734248
vn 0.190037 -0.678879 -0.709231
vn 0.367125 -0.678882 -0.635876
vn 0.519195 -0.678879 -0.519192
vn 0.635877 -0.678882 -0.367123
vn 0.709231 -0.678880 -0.190038
vn 0.734249 -0.678880 0.000000
vn 0.709231 -0.678879 0.190039
vn 0.635877 -0.678881 0.367125
vn 0.519194 -0.678878 0.519193
vn 0.367125 -0.678881 0.635877
vn 0.190037 -0.678878 0.709232
vn 0.000000 -0.678880 0.734249
vn -0.190037 -0.678878 0.709232
vn -0.367125 -0.678882 0.635877
vn -0.519190 -0.678878 0.519198
vn -0.519194 0.678881 0.519189
vn -0.635879 0.678883 0.367119
vn -0.635878 -0.678877 0.367132
vn -0.635878 -0.678877 0.367132
vn -0.635879 0.678883 0.367119
vn -0.709231 0.678880 0.190032
vn -0.709229 -0.678880 0.190045
vn -0.709229 -0.678880 0.190045
vn -0.709231 0.678880 0.190032
vn -0.734249 0.678880 -0.000006
vn -0.734249 -0.678880 0.000008
vn -0.734249 -0.678880 0.000008
vn -0.734249 0.678880 -0.000006
vn -0.709229 0.678880 -0.190043
vn -0.709232 -0.678881 -0.190030
vn -0.709232 -0.678881 -0.190030
vn -0.709229 0.678880 -0.190043
vn -0.635878 0.678877 -0.367130
vn -0.635879 -0.678883 -0.367117
vn -0.635879 -0.678883 -0.367117
vn -0.635878 0.678877 -0.367130
vn -0.519190 0.678879 -0.519197
vn -0.519195 -0.678882 -0.519188
vn -0.519195 -0.678882 -0.519188
vn -0.519190 0.678879 -0.519197
vn -0.367124 0.678878 -0.635881
vn -0.367127 -0.678884 -0.635873
vn 0.519190 0.678879 -0.519196
vn 0.367124 0.678878 -0.635881
vn 0.190035 0.678878 -0.709233
vn 0.000000 0.678876 -0.734253
vn -0.190035 0.678878 -0.709233
vn -0.367124 0.678878 -0.635881
vn -0.519190 0.678879 -0.519197
vn -0.635878 0.678877 -0.367130
vn -0.709229 0.678880 -0.190043
vn -0.734249 0.678880 -0.000006
vn -0.709231 0.678880 0.190032
vn -0.635879 0.678883 0.367119
vn -0.519194 0.678881 0.519189
vn -0.367126 0.678883 0.635874
vn -0.190037 0.678880 0.709230
vn 0.000000 0.678887 0.734242
vn 0.190037 0.678880 0.709230
vn 0.367126 0.678883 0.635874
vn 0.519194 0.678881 0.519189
vn 0.635879 0.678883 0.367119
vn 0.709232 0.678880 0.190032
vn 0.734249 0.678880 -0.000006
vn 0.709229 0.678880 -0.190043
vn 0.635878 0.678877 -0.367130
vn -0.367127 -0.678884 -0.635873
vn -0.367124 0.678878 -0.635881
vn -0.190035 0.678878 -0.709233
vn -0.190037 -0.678881 -0.709229
vn -0.190037 -0.678881 -0.709229
vn -0.190035 0.678878 -0.709233
vn 0.000000 0.678876 -0.734253
vn 0.000000 -0.678888 -0.734242
vn 0.367123 -0.678877 0.635882
vn 0.190035 -0.678877 0.709234
vn 0.000000 -0.678875 0.734253
vn -0.190035 -0.678877 0.709234
vn -0.367123 -0.678877 0.635882
vn -0.519190 -0.678878 0.519198
vn -0.635878 -0.678877 0.367132
vn -0.709229 -0.678880 0.190045
vn -0.734249 -0.678880 0.000008
vn -0.709232 -0.678881 -0.190030
vn -0.635879 -0.678883 -0.367117
vn -0.519195 -0.678882 -0.519188
vn -0.367127 -0.678884 -0.635873
vn -0.190037 -0.678881 -0.709229
vn 0.000000 -0.678888 -0.734242
vn 0.190037 -0.678881 -0.709229
vn 0.367127 -0.678884 -0.635873
vn 0.519195 -0.678882 -0.519188
vn 0.635879 -0.678883 -0.367117
vn 0.709232 -0.678881 -0.190030
vn 0.734249 -0.678880 0.000008
vn 0.709229 -0.678880 0.190044
vn 0.635878 -0.678877 0.367132
vn 0.519190 -0.678878 0.519198
f 1/1/1 2/2/2 4/3/3 3/4/4
f 121/5/5 122/6/6 124/7/7 123/8/8
f 3/9/9 4/10/10 6/11/11 5/12/12
f 101/13/13 102/14/14 104/15/15 103/16/16
f 61/17/17 62/18/18 64/19/19 63/20/20
f 5/21/21 6/22/22 8/23/23 7/24/24
f 7/25/25 8/26/26 10/27/27 9/28/28
f 75/29/29 76/30/30 78/31/31 77/32/32
f 9/33/33 10/34/34 12/35/35 11/36/36
f 59/37/37 60/38/38 62/39/39 61/40/40
f 11/41/41 12/42/42 14/43/43 13/44/44
f 117/45/45 118/46/46 120/47/47 119/48/48
f 107/49/49 108/50/50 110/51/51 109/52/52
f 13/53/53 14/54/54 16/55/55 15/56/56
f 73/57/57 74/58/58 76/59/59 75/60/60
f 15/61/61 16/62/62 18/63/63 17/64/64
f 57/65/65 58/66/66 60/67/67 59/68/68
f 17/69/69 18/70/70 20/71/71 19/72/72
f 19/73/73 20/74/74 22/75/75 21/76/76
f 71/77/77 72/78/78 74/79/79 73/80/80
f 123/81/81 124/82/82 126/83/83 125/84/84
f 21/85/85 22/86/86 24/87/87 23/88/88
f 103/89/89 104/90/90 106/91/91 105/92/92
f 55/93/93 56/94/94 58/95/95 57/96/96
f 23/97/97 24/98/98 26/99/99 25/100/100
f 25/101/101 26/102/102 28/103/103 27/104/104
f 69/105/105 70/106/106 72/107/107 71/108/108
f 27/109/109 28/110/110 30/111/111 29/112/112
f 53/113/113 54/114/114 56/115/115 55/116/116
f 29/117/117 30/118/118 32/119/119 31/120/120
f 119/121/121 120/122/122 122/123/123 121/124/124
f 109/125/125 110/126/126 112/127/127 111/128/128
f 31/129/129 32/130/130 34/131/131 33/132/132
f 67/133/133 68/134/134 70/135/135 69/136/136
f 33/137/137 34/138/138 36/139/139 35/140/140
f 51/141/141 52/142/142 54/143/143 53/144/144
f 35/145/145 36/146/146 38/147/147 37/148/148
f 37/149/149 38/150/150 40/151/151 39/152/152
f 65/153/153 66/154/154 68/155/155 67/156/156
f 39/157/157 40/158/158 42/159/159 41/160/160
f 105/161/161 106/162/162 108/163/163 107/164/164
f 49/165/165 50/166/166 52/167/167 51/168/168
f 41/169/169 42/170/170 44/171/171 43/172/172
f 43/173/173 44/174/174 46/175/175 45/176/176
f 4/177/177 2/178/178 48/179/179 46/180/180 44/181/181 42/182/182 40/183/183 38/184/184 36/185/185 34/186/186 32/187/187 30/188/188 28/189/189 26/190/190 24/191/191 22/192/192 20/193/193 18/194/194 16/195/195 14/196/196 12/197/197 10/198/198 8/199/199 6/200/200
f 45/201/201 46/202/202 48/203/203 47/204/204
f 77/205/205 78/206/206 80/207/207 79/208/208
f 63/209/209 64/210/210 66/211/211 65/212/212
f 47/213/213 48/214/214 2/215/215 1/216/216
f 1/217/217 3/218/218 5/219/219 7/220/220 9/221/221 11/222/222 13/223/223 15/224/224 17/225/225 19/226/226 21/227/227 23/228/228 25/229/229 27/230/230 29/231/231 31/232/232 33/233/233 35/234/234 37/235/235 39/236/236 41/237/237 43/238/238 45/239/239 47/240/240
f 79/241/241 80/242/242 82/243/243 81/244/244
f 115/245/245 116/246/246 118/247/247 117/248/248
f 81/249/249 82/250/250 84/251/251 83/252/252
f 99/253/253 100/254/254 102/255/255 101/256/256
f 83/257/257 84/258/258 86/259/259 85/260/260
f 85/261/261 86/262/262 88/263/263 87/264/264
f 113/265/265 114/266/266 116/267/267 115/268/268
f 87/269/269 88/270/270 90/271/271 89/272/272
f 97/273/273 98/274/274 100/275/275 99/276/276
f 89/277/277 90/278/278 92/279/279 91/280/280
f 91/281/281 92/282/282 94/283/283 93/284/284
f 66/285/285 64/286/286 62/287/287 60/288/288 58/289/289 56/290/290 54/291/291 52/292/292 50/293/293 96/294/294 94/295/295 92/296/296 90/297/297 88/298/298 86/299/299 84/300/300 82/301/301 80/302/302 78/303/303 76/304/304 74/305/305 72/306/306 70/307/307 68/308/308
f 93/309/309 94/310/310 96/311/311 95/312/312
f 125/313/313 126/314/314 128/315/315 127/316/316
f 111/317/317 112/318/318 114/319/319 113/320/320
f 95/321/321 96/322/322 50/323/323 49/324/324
f 79/325/325 81/326/326 83/327/327 85/328/328 87/329/329 89/330/330 91/331/331 93/332/332 95/333/333 49/334/334 51/335/335 53/336/336 55/337/337 57/338/338 59/339/339 61/340/340 63/341/341 65/342/342 67/343/343 69/344/344 71/345/345 73/346/346 75/347/347 77/348/348
f 127/349/349 128/350/350 130/351/351 129/352/352
f 129/353/353 130/354/354 132/355/355 131/356/356
f 131/357/357 132/358/358 134/359/359 133/360/360
f 133/361/361 134/362/362 136/363/363 135/364/364
f 135/365/365 136/366/366 138/367/367 137/368/368
f 137/369/369 138/370/370 140/371/371 139/372/372
f 139/373/373 140/374/374 142/375/375 141/376/376
f 104/377/377 102/378/378 100/379/379 98/380/380 144/381/381 142/382/382 140/383/383 138/384/384 136/385/385 134/386/386 132/387/387 130/388/388 128/389/389 126/390/390 124/391/391 122/392/392 120/393/393 118/394/394 116/395/395 114/396/396 112/397/397 110/398/398 108/399/399 106/400/400
f 141/401/401 142/402/402 144/403/403 143/404/404
f 143/405/405 144/406/406 98/407/407 97/408/408
f 117/409/409 119/410/410 121/411/411 123/412/412 125/413/413 127/414/414 129/415/415 131/416/416 133/417/417 135/418/418 137/419/419 139/420/420 141/421/421 143/422/422 97/423/423 99/424/424 101/425/425 103/426/426 105/427/427 107/428/428 109/429/429 111/430/430 113/431/431 115/432/432
