# generated by tools/art/gen_meshes.py
v -2.291628 -0.124199 19.374029
v -2.291628 -0.104327 19.393900
v -2.311500 -0.104327 19.374029
v -2.291628 -0.118379 19.388081
v -2.303101 -0.115800 19.385502
v -2.305680 -0.104327 19.388081
v -2.305680 -0.118379 19.374029
v -2.291628 0.104328 19.393900
v -2.291628 0.124200 19.374029
v -2.311500 0.104328 19.374029
v -2.291628 0.118380 19.388081
v -2.303101 0.115801 19.385502
v -2.305680 0.118380 19.374029
v -2.305680 0.104328 19.388081
v -2.291628 -0.124200 0.032372
v -2.311500 -0.104328 0.032372
v -2.291628 -0.104328 0.012500
v -2.305680 -0.118380 0.032372
v -2.303102 -0.115801 0.020899
v -2.305680 -0.104328 0.018320
v -2.291628 -0.118380 0.018320
v -2.291628 0.124199 0.032372
v -2.291628 0.104327 0.012500
v -2.311500 0.104327 0.032372
v -2.291628 0.118379 0.018320
v -2.303101 0.115800 0.020899
v -2.305680 0.104327 0.018320
v -2.305680 0.118379 0.032372
v 3.013528 -0.124199 19.374029
v 3.033400 -0.104327 19.374029
v 3.013528 -0.104327 19.393900
v 3.027580 -0.118379 19.374029
v 3.025002 -0.115800 19.385502
v 3.027580 -0.104327 19.388081
v 3.013528 -0.118379 19.388081
v 3.013528 0.124200 19.374029
v 3.013528 0.104328 19.393900
v 3.033400 0.104328 19.374029
v 3.013528 0.118380 19.388081
v 3.025001 0.115801 19.385502
v 3.027580 0.104328 19.388081
v 3.027580 0.118380 19.374029
v 3.013528 -0.124200 0.032372
v 3.013528 -0.104328 0.012500
v 3.033400 -0.104328 0.032372
v 3.013528 -0.118380 0.018320
v 3.025001 -0.115801 0.020899
v 3.027580 -0.104328 0.018320
v 3.027580 -0.118380 0.032372
v 3.013528 0.124199 0.032372
v 3.033400 0.104327 0.032372
v 3.013528 0.104327 0.012500
v 3.027580 0.118379 0.032372
v 3.025002 0.115800 0.020899
v 3.027580 0.104327 0.018320
v 3.013528 0.118379 0.018320
vt 0.003718 0.998975
vt 0.003718 0.999700
vt 0.001571 0.999567
vt 0.001089 0.998975
vt 0.003718 0.080003
vt 0.001089 0.080003
vt 0.001571 0.033815
vt 0.003718 0.023435
vt 0.080003 0.998975
vt 0.023435 0.998975
vt 0.033815 0.999567
vt 0.080003 0.999700
vt 0.003718 0.920000
vt 0.003718 0.976569
vt 0.001571 0.966188
vt 0.001089 0.920000
vt 0.003718 0.998975
vt 0.001089 0.998975
vt 0.001571 0.999567
vt 0.003718 0.999700
vt 0.920000 0.998975
vt 0.920000 0.999700
vt 0.966188 0.999567
vt 0.976569 0.998975
vt 0.003718 0.001025
vt 0.001089 0.001025
vt 0.001571 0.000433
vt 0.003718 0.000300
vt 0.080000 0.001025
vt 0.080000 0.000300
vt 0.033812 0.000433
vt 0.023431 0.001025
vt 0.003718 0.080000
vt 0.003718 0.023431
vt 0.001571 0.033812
vt 0.001089 0.080000
vt 0.003718 0.001025
vt 0.003718 0.000300
vt 0.001571 0.000433
vt 0.001089 0.001025
vt 0.003718 0.919997
vt 0.001089 0.919997
vt 0.001571 0.966185
vt 0.003718 0.976565
vt 0.919997 0.001025
vt 0.976565 0.001025
vt 0.966185 0.000433
vt 0.919997 0.000300
vt 0.996282 0.998975
vt 0.998911 0.998975
vt 0.998429 0.999567
vt 0.996282 0.999700
vt 0.080003 0.998975
vt 0.080003 0.999700
vt 0.033815 0.999567
vt 0.023435 0.998975
vt 0.996282 0.080003
vt 0.996282 0.023435
vt 0.998429 0.033815
vt 0.998911 0.080003
vt 0.996282 0.998975
vt 0.996282 0.999700
vt 0.998429 0.999567
vt 0.998911 0.998975
vt 0.996282 0.920000
vt 0.998911 0.920000
vt 0.998429 0.966188
vt 0.996282 0.976569
vt 0.920000 0.998975
vt 0.976569 0.998975
vt 0.966188 0.999567
vt 0.920000 0.999700
vt 0.996282 0.001025
vt 0.996282 0.000300
vt 0.998429 0.000433
vt 0.998911 0.001025
vt 0.996282 0.080000
vt 0.998911 0.080000
vt 0.998429 0.033812
vt 0.996282 0.023431
vt 0.080000 0.001025
vt 0.023431 0.001025
vt 0.033812 0.000433
vt 0.080000 0.000300
vt 0.996282 0.001025
vt 0.998911 0.001025
vt 0.998429 0.000433
vt 0.996282 0.000300
vt 0.919997 0.001025
vt 0.919997 0.000300
vt 0.966185 0.000433
vt 0.976565 0.001025
vt 0.996282 0.919997
vt 0.996282 0.976565
vt 0.998429 0.966185
vt 0.998911 0.919997
vt 0.003718 0.001025
vt 0.003718 0.998975
vt 0.001089 0.998975
vt 0.001089 0.001025
vt 0.023431 0.001025
vt 0.023435 0.998975
vt 0.080003 0.998975
vt 0.080000 0.001025
vt 0.003718 0.080003
vt 0.003718 0.920000
vt 0.001089 0.920000
vt 0.001089 0.080003
vt 0.080003 0.999700
vt 0.920000 0.999700
vt 0.920000 0.998975
vt 0.080003 0.998975
vt 0.003718 0.998975
vt 0.003718 0.001025
vt 0.001089 0.001025
vt 0.001089 0.998975
vt 0.976569 0.998975
vt 0.976565 0.001025
vt 0.919997 0.001025
vt 0.920000 0.998975
vt 0.003718 0.919997
vt 0.003718 0.080000
vt 0.001089 0.080000
vt 0.001089 0.919997
vt 0.919997 0.000300
vt 0.080000 0.000300
vt 0.080000 0.001025
vt 0.919997 0.001025
vt 0.996282 0.001025
vt 0.003718 0.001025
vt 0.003718 0.000300
vt 0.996282 0.000300
vt 0.996282 0.023431
vt 0.003718 0.023431
vt 0.003718 0.080000
vt 0.996282 0.080000
vt 0.003718 0.001025
vt 0.996282 0.001025
vt 0.996282 0.000300
vt 0.003718 0.000300
vt 0.003718 0.976565
vt 0.996282 0.976565
vt 0.996282 0.919997
vt 0.003718 0.919997
vt 0.919997 0.001025
vt 0.080000 0.001025
vt 0.080000 0.000300
vt 0.919997 0.000300
vt 0.998911 0.919997
vt 0.998911 0.080000
vt 0.996282 0.080000
vt 0.996282 0.919997
vt 0.996282 0.998975
vt 0.996282 0.001025
vt 0.998911 0.001025
vt 0.998911 0.998975
vt 0.023435 0.998975
vt 0.023431 0.001025
vt 0.080000 0.001025
vt 0.080003 0.998975
vt 0.996282 0.001025
vt 0.996282 0.998975
vt 0.998911 0.998975
vt 0.998911 0.001025
vt 0.976565 0.001025
vt 0.976569 0.998975
vt 0.920000 0.998975
vt 0.919997 0.001025
vt 0.996282 0.920000
vt 0.996282 0.080003
vt 0.998911 0.080003
vt 0.998911 0.920000
vt 0.920000 0.999700
vt 0.080003 0.999700
vt 0.080003 0.998975
vt 0.920000 0.998975
vt 0.003718 0.998975
vt 0.996282 0.998975
vt 0.996282 0.999700
vt 0.003718 0.999700
vt 0.003718 0.023435
vt 0.996282 0.023435
vt 0.996282 0.080003
vt 0.003718 0.080003
vt 0.996282 0.998975
vt 0.003718 0.998975
vt 0.003718 0.999700
vt 0.996282 0.999700
vt 0.996282 0.976569
vt 0.003718 0.976569
vt 0.003718 0.920000
vt 0.996282 0.920000
vt 0.003718 0.001025
vt 0.996282 0.001025
vt 0.996282 0.998975
vt 0.003718 0.998975
vt 0.080003 0.998975
vt 0.920000 0.998975
vt 0.919997 0.001025
vt 0.080000 0.001025
vt 0.996282 0.080003
vt 0.996282 0.920000
vt 0.003718 0.920000
vt 0.003718 0.080003
vt 0.996282 0.001025
vt 0.003718 0.001025
vt 0.003718 0.998975
vt 0.996282 0.998975
vt 0.003718 0.080000
vt 0.003718 0.919997
vt 0.996282 0.919997
vt 0.996282 0.080000
vt 0.080000 0.001025
vt 0.919997 0.001025
vt 0.920000 0.998975
vt 0.080003 0.998975
vn -0.325058 -0.888072 0.325063
vn -0.325058 -0.888072 0.325063
vn -0.325058 -0.888072 0.325063
vn -0.325058 -0.888072 0.325063
vn -0.325030 -0.325033 0.888093
vn -0.325030 -0.325033 0.888093
vn -0.325030 -0.325033 0.888093
vn -0.325030 -0.325033 0.888093
vn -0.888073 -0.325057 0.325060
vn -0.888073 -0.325057 0.325060
vn -0.888073 -0.325057 0.325060
vn -0.888073 -0.325057 0.325060
vn -0.325030 0.325033 0.888093
vn -0.325030 0.325033 0.888093
vn -0.325030 0.325033 0.888093
vn -0.325030 0.325033 0.888093
vn -0.325058 0.888072 0.325063
vn -0.325058 0.888072 0.325063
vn -0.325058 0.888072 0.325063
vn -0.325058 0.888072 0.325063
vn -0.888073 0.325057 0.325060
vn -0.888073 0.325057 0.325060
vn -0.888073 0.325057 0.325060
vn -0.888073 0.325057 0.325060
vn -0.325055 -0.888074 -0.325061
vn -0.325055 -0.888074 -0.325061
vn -0.325055 -0.888074 -0.325061
vn -0.325055 -0.888074 -0.325061
vn -0.888078 -0.325050 -0.325053
vn -0.888078 -0.325050 -0.325053
vn -0.888078 -0.325050 -0.325053
vn -0.888078 -0.325050 -0.325053
vn -0.325057 -0.325059 -0.888074
vn -0.325057 -0.325059 -0.888074
vn -0.325057 -0.325059 -0.888074
vn -0.325057 -0.325059 -0.888074
vn -0.325058 0.888072 -0.325063
vn -0.325058 0.888072 -0.325063
vn -0.325058 0.888072 -0.325063
vn -0.325058 0.888072 -0.325063
vn -0.325060 0.325062 -0.888072
vn -0.325060 0.325062 -0.888072
vn -0.325060 0.325062 -0.888072
vn -0.325060 0.325062 -0.888072
vn -0.888073 0.325057 -0.325060
vn -0.888073 0.325057 -0.325060
vn -0.888073 0.325057 -0.325060
vn -0.888073 0.325057 -0.325060
vn 0.325055 -0.888074 0.325061
vn 0.325055 -0.888074 0.325061
vn 0.325055 -0.888074 0.325061
vn 0.325055 -0.888074 0.325061
vn 0.888078 -0.325050 0.325053
vn 0.888078 -0.325050 0.325053
vn 0.888078 -0.325050 0.325053
vn 0.888078 -0.325050 0.325053
vn 0.325028 -0.325030 0.888095
vn 0.325028 -0.325030 0.888095
vn 0.325028 -0.325030 0.888095
vn 0.325028 -0.325030 0.888095
vn 0.325058 0.888072 0.325063
vn 0.325058 0.888072 0.325063
vn 0.325058 0.888072 0.325063
vn 0.325058 0.888072 0.325063
vn 0.325030 0.325033 0.888093
vn 0.325030 0.325033 0.888093
vn 0.325030 0.325033 0.888093
vn 0.325030 0.325033 0.888093
vn 0.888073 0.325057 0.325060
vn 0.888073 0.325057 0.325060
vn 0.888073 0.325057 0.325060
vn 0.888073 0.325057 0.325060
vn 0.325058 -0.888072 -0.325063
vn 0.325058 -0.888072 -0.325063
vn 0.325058 -0.888072 -0.325063
vn 0.325058 -0.888072 -0.325063
vn 0.325060 -0.325062 -0.888072
vn 0.325060 -0.325062 -0.888072
vn 0.325060 -0.325062 -0.888072
vn 0.325060 -0.325062 -0.888072
vn 0.888073 -0.325057 -0.325060
vn 0.888073 -0.325057 -0.325060
vn 0.888073 -0.325057 -0.325060
vn 0.888073 -0.325057 -0.325060
vn 0.325055 0.888074 -0.325061
vn 0.325055 0.888074 -0.325061
vn 0.325055 0.888074 -0.325061
vn 0.325055 0.888074 -0.325061
vn 0.888078 0.325050 -0.325053
vn 0.888078 0.325050 -0.325053
vn 0.888078 0.325050 -0.325053
vn 0.888078 0.325050 -0.325053
vn 0.325057 0.325059 -0.888074
vn 0.325057 0.325059 -0.888074
vn 0.325057 0.325059 -0.888074
vn 0.325057 0.325059 -0.888074
vn -0.382679 -0.923882 0.000000
vn -0.382679 -0.923882 0.000000
vn -0.382679 -0.923882 0.000000
vn -0.382679 -0.923882 0.000000
vn -0.923884 -0.382672 0.000000
vn -0.923884 -0.382672 0.000000
vn -0.923884 -0.382672 0.000000
vn -0.923884 -0.382672 0.000000
vn -0.382623 0.000000 0.923904
vn -0.382623 0.000000 0.923904
vn -0.382623 0.000000 0.923904
vn -0.382623 0.000000 0.923904
vn -0.923880 0.000000 0.382682
vn -0.923880 0.000000 0.382682
vn -0.923880 0.000000 0.382682
vn -0.923880 0.000000 0.382682
vn -0.382681 0.923880 -0.000000
vn -0.382681 0.923880 -0.000000
vn -0.382681 0.923880 -0.000000
vn -0.382681 0.923880 -0.000000
vn -0.923881 0.382679 -0.000000
vn -0.923881 0.382679 -0.000000
vn -0.923881 0.382679 -0.000000
vn -0.923881 0.382679 -0.000000
vn -0.382674 0.000000 -0.923883
vn -0.382674 0.000000 -0.923883
vn -0.382674 0.000000 -0.923883
vn -0.382674 0.000000 -0.923883
vn -0.923883 0.000001 -0.382676
vn -0.923883 0.000001 -0.382676
vn -0.923883 0.000001 -0.382676
vn -0.923883 0.000001 -0.382676
vn 0.000000 -0.923878 -0.382687
vn 0.000000 -0.923878 -0.382687
vn 0.000000 -0.923878 -0.382687
vn 0.000000 -0.923878 -0.382687
vn 0.000000 -0.382679 -0.923881
vn 0.000000 -0.382679 -0.923881
vn 0.000000 -0.382679 -0.923881
vn 0.000000 -0.382679 -0.923881
vn 0.000000 0.923878 -0.382687
vn 0.000000 0.923878 -0.382687
vn 0.000000 0.923878 -0.382687
vn 0.000000 0.923878 -0.382687
vn 0.000000 0.382679 -0.923881
vn 0.000000 0.382679 -0.923881
vn 0.000000 0.382679 -0.923881
vn 0.000000 0.382679 -0.923881
vn 0.923883 -0.000001 -0.382676
vn 0.923883 -0.000001 -0.382676
vn 0.923883 -0.000001 -0.382676
vn 0.923883 -0.000001 -0.382676
vn 0.382674 -0.000000 -0.923883
vn 0.382674 -0.000000 -0.923883
vn 0.382674 -0.000000 -0.923883
vn 0.382674 -0.000000 -0.923883
vn 0.382679 -0.923882 0.000000
vn 0.382679 -0.923882 0.000000
vn 0.382679 -0.923882 0.000000
vn 0.382679 -0.923882 0.000000
vn 0.923884 -0.382672 0.000000
vn 0.923884 -0.382672 0.000000
vn 0.923884 -0.382672 0.000000
vn 0.923884 -0.382672 0.000000
vn 0.382679 0.923882 -0.000000
vn 0.382679 0.923882 -0.000000
vn 0.382679 0.923882 -0.000000
vn 0.382679 0.923882 -0.000000
vn 0.923884 0.382672 -0.000000
vn 0.923884 0.382672 -0.000000
vn 0.923884 0.382672 -0.000000
vn 0.923884 0.382672 -0.000000
vn 0.382620 0.000000 0.923906
vn 0.382620 0.000000 0.923906
vn 0.382620 0.000000 0.923906
vn 0.382620 0.000000 0.923906
vn 0.923883 0.000001 0.382676
vn 0.923883 0.000001 0.382676
vn 0.923883 0.000001 0.382676
vn 0.923883 0.000001 0.382676
vn 0.000000 -0.923878 0.382687
vn 0.000000 -0.923878 0.382687
vn 0.000000 -0.923878 0.382687
vn 0.000000 -0.923878 0.382687
vn 0.000000 -0.382625 0.923904
vn 0.000000 -0.382625 0.923904
vn 0.000000 -0.382625 0.923904
vn 0.000000 -0.382625 0.923904
vn 0.000000 0.923878 0.382687
vn 0.000000 0.923878 0.382687
vn 0.000000 0.923878 0.382687
vn 0.000000 0.923878 0.382687
vn 0.000000 0.382625 0.923904
vn 0.000000 0.382625 0.923904
vn 0.000000 0.382625 0.923904
vn 0.000000 0.382625 0.923904
vn 0.000000 -1.000000 0.000000
vn 0.000000 -1.000000 0.000000
vn 0.000000 -1.000000 0.000000
vn 0.000000 -1.000000 0.000000
vn -1.000000 0.000000 0.000000
vn -1.000000 0.000000 0.000000
vn -1.000000 0.000000 0.000000
vn -1.000000 0.000000 0.000000
vn -0.000000 0.000000 1.000000
vn -0.000000 0.000000 1.000000
vn -0.000000 0.000000 1.000000
vn -0.000000 0.000000 1.000000
vn 0.000000 1.000000 -0.000000
vn 0.000000 1.000000 -0.000000
vn 0.000000 1.000000 -0.000000
vn 0.000000 1.000000 -0.000000
vn -0.000000 0.000000 -1.000000
vn -0.000000 0.000000 -1.000000
vn -0.000000 0.000000 -1.000000
vn -0.000000 0.000000 -1.000000
vn 1.000000 0.000000 0.000000
vn 1.000000 0.000000 0.000000
vn 1.000000 0.000000 0.000000
vn 1.000000 0.000000 0.000000
f 1/1/1 4/2/2 5/3/3 7/4/4
f 2/5/5 6/6/6 5/7/7 4/8/8
f 3/9/9 7/10/10 5/11/11 6/12/12
f 8/13/13 11/14/14 12/15/15 14/16/16
f 9/17/17 13/18/18 12/19/19 11/20/20
f 10/21/21 14/22/22 12/23/23 13/24/24
f 15/25/25 18/26/26 19/27/27 21/28/28
f 16/29/29 20/30/30 19/31/31 18/32/32
f 17/33/33 21/34/34 19/35/35 20/36/36
f 22/37/37 25/38/38 26/39/39 28/40/40
f 23/41/41 27/42/42 26/43/43 25/44/44
f 24/45/45 28/46/46 26/47/47 27/48/48
f 29/49/49 32/50/50 33/51/51 35/52/52
f 30/53/53 34/54/54 33/55/55 32/56/56
f 31/57/57 35/58/58 33/59/59 34/60/60
f 36/61/61 39/62/62 40/63/63 42/64/64
f 37/65/65 41/66/66 40/67/67 39/68/68
f 38/69/69 42/70/70 40/71/71 41/72/72
f 43/73/73 46/74/74 47/75/75 49/76/76
f 44/77/77 48/78/78 47/79/79 46/80/80
f 45/81/81 49/82/82 47/83/83 48/84/84
f 50/85/85 53/86/86 54/87/87 56/88/88
f 51/89/89 55/90/90 54/91/91 53/92/92
f 52/93/93 56/94/94 54/95/95 55/96/96
f 15/97/97 1/98/98 7/99/99 18/100/100
f 18/101/101 7/102/102 3/103/103 16/104/104
f 2/105/105 8/106/106 14/107/107 6/108/108
f 6/109/109 14/110/110 10/111/111 3/112/112
f 9/113/113 22/114/114 28/115/115 13/116/116
f 13/117/117 28/118/118 24/119/119 10/120/120
f 23/121/121 17/122/122 20/123/123 27/124/124
f 27/125/125 20/126/126 16/127/127 24/128/128
f 43/129/129 15/130/130 21/131/131 46/132/132
f 46/133/133 21/134/134 17/135/135 44/136/136
f 22/137/137 50/138/138 56/139/139 25/140/140
f 25/141/141 56/142/142 52/143/143 23/144/144
f 51/145/145 45/146/146 48/147/147 55/148/148
f 55/149/149 48/150/150 44/151/151 52/152/152
f 29/153/153 43/154/154 49/155/155 32/156/156
f 32/157/157 49/158/158 45/159/159 30/160/160
f 50/161/161 36/162/162 42/163/163 53/164/164
f 53/165/165 42/166/166 38/167/167 51/168/168
f 37/169/169 31/170/170 34/171/171 41/172/172
f 41/173/173 34/174/174 30/175/175 38/176/176
f 1/177/177 29/178/178 35/179/179 4/180/180
f 4/181/181 35/182/182 31/183/183 2/184/184
f 36/185/185 9/186/186 11/187/187 39/188/188
f 39/189/189 11/190/190 8/191/191 37/192/192
f 15/193/193 43/194/194 29/195/195 1/196/196
f 3/197/197 10/198/198 24/199/199 16/200/200
f 31/201/201 37/202/202 8/203/203 2/204/204
f 50/205/205 22/206/206 9/207/207 36/208/208
f 17/209/209 23/210/210 52/211/211 44/212/212
f 45/213/213 51/214/214 38/215/215 30/216/216
