# generated by tools/art/gen_meshes.py
v -0.213182 4.797591 3.404799
v -0.213182 5.158700 3.404799
v -0.213182 4.797591 -3.404800
v -0.213182 5.158700 -3.404800
v 0.009782 4.797591 3.404799
v 0.009782 5.158700 3.404799
v 0.009782 4.797591 -3.404800
v 0.009782 5.158700 -3.404800
v -0.213182 -5.158700 3.404800
v -0.213182 -4.797591 3.404800
v -0.213182 -5.158700 -3.404799
v -0.213182 -4.797591 -3.404799
v 0.009782 -5.158700 3.404800
v 0.009782 -4.797591 3.404800
v 0.009782 -5.158700 -3.404799
v 0.009782 -4.797591 -3.404799
v -0.254200 -4.797591 3.404800
v -0.254200 4.797591 3.404799
v -0.254200 -4.797591 -3.404799
v -0.254200 4.797591 -3.404800
v 0.009782 -4.797591 3.404800
v 0.009782 4.797591 3.404799
v 0.009782 -4.797591 -3.404799
v 0.009782 4.797591 -3.404800
v -0.213182 -4.797591 3.404800
v -0.213182 4.797591 3.404799
v -0.213182 -4.797591 -3.404799
v -0.213182 4.797591 -3.404800
v 0.050800 -4.797591 3.404800
v 0.050800 4.797591 3.404799
v 0.050800 -4.797591 -3.404799
v 0.050800 4.797591 -3.404800
vt 0.965000 1.000000
vt 1.000000 1.000000
vt 1.000000 0.000000
vt 0.965000 0.000000
vt 0.134484 0.965000
vt 0.134484 1.000000
vt 0.865516 1.000000
vt 0.865516 0.965000
vt 0.965000 0.000000
vt 1.000000 0.000000
vt 1.000000 1.000000
vt 0.965000 1.000000
vt 0.865516 0.965000
vt 0.865516 1.000000
vt 0.134484 1.000000
vt 0.134484 0.965000
vt 0.134484 0.000000
vt 0.865516 0.000000
vt 0.865516 1.000000
vt 0.134484 1.000000
vt 0.865516 0.000000
vt 0.134484 0.000000
vt 0.134484 1.000000
vt 0.865516 1.000000
vt 0.000000 1.000000
vt 0.035000 1.000000
vt 0.035000 0.000000
vt 0.000000 0.000000
vt 0.134484 0.000000
vt 0.134484 0.035000
vt 0.865516 0.035000
vt 0.865516 0.000000
vt 0.000000 0.000000
vt 0.035000 0.000000
vt 0.035000 1.000000
vt 0.000000 1.000000
vt 0.865516 0.000000
vt 0.865516 0.035000
vt 0.134484 0.035000
vt 0.134484 0.000000
vt 0.134484 0.000000
vt 0.865516 0.000000
vt 0.865516 1.000000
vt 0.134484 1.000000
vt 0.865516 0.000000
vt 0.134484 0.000000
vt 0.134484 1.000000
vt 0.865516 1.000000
vt 0.035000 1.000000
vt 0.965000 1.000000
vt 0.965000 0.000000
vt 0.035000 0.000000
vt 0.000000 0.035000
vt 0.000000 0.965000
vt 0.865516 0.965000
vt 0.865516 0.035000
vt 0.035000 0.000000
vt 0.965000 0.000000
vt 0.965000 1.000000
vt 0.035000 1.000000
vt 0.865516 0.035000
vt 0.865516 0.965000
vt 0.000000 0.965000
vt 0.000000 0.035000
vt 0.000000 0.000000
vt 0.865516 0.000000
vt 0.865516 1.000000
vt 0.000000 1.000000
vt 0.865516 0.000000
vt 0.000000 0.000000
vt 0.000000 1.000000
vt 0.865516 1.000000
vt 0.035000 1.000000
vt 0.965000 1.000000
vt 0.965000 0.000000
vt 0.035000 0.000000
vt 0.134484 0.035000
vt 0.134484 0.965000
vt 1.000000 0.965000
vt 1.000000 0.035000
vt 0.035000 0.000000
vt 0.965000 0.000000
vt 0.965000 1.000000
vt 0.035000 1.000000
vt 1.000000 0.035000
vt 1.000000 0.965000
vt 0.134484 0.965000
vt 0.134484 0.035000
vt 0.134484 0.000000
vt 1.000000 0.000000
vt 1.000000 1.000000
vt 0.134484 1.000000
vt 1.000000 0.000000
vt 0.134484 0.000000
vt 0.134484 1.000000
vt 1.000000 1.000000
vn -1.000000 0.000000 0.000000
vn -1.000000 0.000000 0.000000
vn -1.000000 0.000000 0.000000
vn -1.000000 0.000000 0.000000
vn -0.000000 0.000000 -1.000000
vn -0.000000 0.000000 -1.000000
vn -0.000000 0.000000 -1.000000
vn -0.000000 0.000000 -1.000000
vn 1.000000 0.000000 0.000000
vn 1.000000 0.000000 0.000000
vn 1.000000 0.000000 0.000000
vn 1.000000 0.000000 0.000000
vn -0.000000 0.000000 1.000000
vn -0.000000 0.000000 1.000000
vn -0.000000 0.000000 1.000000
vn -0.000000 0.000000 1.000000
vn 0.000000 -1.000000 -0.000000
vn 0.000000 -1.000000 -0.000000
vn 0.000000 -1.000000 -0.000000
vn 0.000000 -1.000000 -0.000000
vn 0.000000 1.000000 0.000000
vn 0.000000 1.000000 0.000000
vn 0.000000 1.000000 0.000000
vn 0.000000 1.000000 0.000000
vn -1.000000 0.000000 0.000000
vn -1.000000 0.000000 0.000000
vn -1.000000 0.000000 0.000000
vn -1.000000 0.000000 0.000000
vn -0.000000 0.000000 -1.000000
vn -0.000000 0.000000 -1.000000
vn -0.000000 0.000000 -1.000000
vn -0.000000 0.000000 -1.000000
vn 1.000000 0.000000 0.000000
vn 1.000000 0.000000 0.000000
vn 1.000000 0.000000 0.000000
vn 1.000000 0.000000 0.000000
vn -0.000000 0.000000 1.000000
vn -0.000000 0.000000 1.000000
vn -0.000000 0.000000 1.000000
vn -0.000000 0.000000 1.000000
vn 0.000000 -1.000000 -0.000000
vn 0.000000 -1.000000 -0.000000
vn 0.000000 -1.000000 -0.000000
vn 0.000000 -1.000000 -0.000000
vn 0.000000 1.000000 0.000000
vn 0.000000 1.000000 0.000000
vn 0.000000 1.000000 0.000000
vn 0.000000 1.000000 0.000000
vn -1.000000 0.000000 0.000000
vn -1.000000 0.000000 0.000000
vn -1.000000 0.000000 0.000000
vn -1.000000 0.000000 0.000000
vn 0.000000 -0.000000 -1.000000
vn 0.000000 -0.000000 -1.000000
vn 0.000000 -0.000000 -1.000000
vn 0.000000 -0.000000 -1.000000
vn 1.000000 0.000000 0.000000
vn 1.000000 0.000000 0.000000
vn 1.000000 0.000000 0.000000
vn 1.000000 0.000000 0.000000
vn 0.000000 0.000000 1.000000
vn 0.000000 0.000000 1.000000
vn 0.000000 0.000000 1.000000
vn 0.000000 0.000000 1.000000
vn 0.000000 -1.000000 -0.000000
vn 0.000000 -1.000000 -0.000000
vn 0.000000 -1.000000 -0.000000
vn 0.000000 -1.000000 -0.000000
vn 0.000000 1.000000 0.000000
vn 0.000000 1.000000 0.000000
vn 0.000000 1.000000 0.000000
vn 0.000000 1.000000 0.000000
vn -1.000000 0.000000 0.000000
vn -1.000000 0.000000 0.000000
vn -1.000000 0.000000 0.000000
vn -1.000000 0.000000 0.000000
vn 0.000000 -0.000000 -1.000000
vn 0.000000 -0.000000 -1.000000
vn 0.000000 -0.000000 -1.000000
vn 0.000000 -0.000000 -1.000000
vn 1.000000 0.000000 0.000000
vn 1.000000 0.000000 0.000000
vn 1.000000 0.000000 0.000000
vn 1.000000 0.000000 0.000000
vn 0.000000 0.000000 1.000000
vn 0.000000 0.000000 1.000000
vn 0.000000 0.000000 1.000000
vn 0.000000 0.000000 1.000000
vn 0.000000 -1.000000 -0.000000
vn 0.000000 -1.000000 -0.000000
vn 0.000000 -1.000000 -0.000000
vn 0.000000 -1.000000 -0.000000
vn 0.000000 1.000000 0.000000
vn 0.000000 1.000000 0.000000
vn 0.000000 1.000000 0.000000
vn 0.000000 1.000000 0.000000
f 1/1/1 2/2/2 4/3/3 3/4/4
f 3/5/5 4/6/6 8/7/7 7/8/8
f 7/9/9 8/10/10 6/11/11 5/12/12
f 5/13/13 6/14/14 2/15/15 1/16/16
f 3/17/17 7/18/18 5/19/19 1/20/20
f 8/21/21 4/22/22 2/23/23 6/24/24
f 9/25/25 10/26/26 12/27/27 11/28/28
f 11/29/29 12/30/30 16/31/31 15/32/32
f 15/33/33 16/34/34 14/35/35 13/36/36
f 13/37/37 14/38/38 10/39/39 9/40/40
f 11/41/41 15/42/42 13/43/43 9/44/44
f 16/45/45 12/46/46 10/47/47 14/48/48
f 17/49/49 18/50/50 20/51/51 19/52/52
f 19/53/53 20/54/54 24/55/55 23/56/56
f 23/57/57 24/58/58 22/59/59 21/60/60
f 21/61/61 22/62/62 18/63/63 17/64/64
f 19/65/65 23/66/66 21/67/67 17/68/68
f 24/69/69 20/70/70 18/71/71 22/72/72
f 25/73/73 26/74/74 28/75/75 27/76/76
f 27/77/77 28/78/78 32/79/79 31/80/80
f 31/81/81 32/82/82 30/83/83 29/84/84
f 29/85/85 30/86/86 26/87/87 25/88/88
f 27/89/89 31/90/90 29/91/91 25/92/92
f 32/93/93 28/94/94 26/95/95 30/96/96
