# generated by tools/art/gen_meshes.py
v -32.500000 -127.500000 41.500000
v -32.500000 -24.852947 41.499996
v -32.500000 -127.500000 16.500004
v -32.500000 -24.852947 16.500000
v -23.500000 -127.500000 41.500000
v -23.500000 -24.852947 41.499996
v -23.500000 -127.500000 16.500004
v -23.500000 -24.852947 16.500000
v -31.150000 -24.852943 37.749996
v -31.150000 23.049013 37.749992
v -31.150000 -24.852943 20.250000
v -31.150000 23.049013 20.249998
v -24.850000 -24.852943 37.749996
v -24.850000 23.049013 37.749992
v -24.850000 -24.852943 20.250000
v -24.850000 23.049013 20.249998
v -29.799999 23.049013 33.999996
v -29.799999 47.000000 33.999992
v -29.799999 23.049013 23.999996
v -29.799999 47.000000 23.999996
v -26.200001 23.049013 33.999996
v -26.200001 47.000000 33.999992
v -26.200001 23.049013 23.999996
v -26.200001 47.000000 23.999996
vt 0.000000 1.000000
vt 0.588235 1.000000
vt 0.588235 0.000000
vt 0.000000 0.000000
vt 0.000000 0.000000
vt 0.000000 0.588235
vt 1.000000 0.588235
vt 1.000000 0.000000
vt 0.000000 0.000000
vt 0.588235 0.000000
vt 0.588235 1.000000
vt 0.000000 1.000000
vt 1.000000 0.000000
vt 1.000000 0.588235
vt 0.000000 0.588235
vt 0.000000 0.000000
vt 0.000000 0.000000
vt 1.000000 0.000000
vt 1.000000 1.000000
vt 0.000000 1.000000
vt 1.000000 0.000000
vt 0.000000 0.000000
vt 0.000000 1.000000
vt 1.000000 1.000000
vt 0.588235 0.850000
vt 0.862745 0.850000
vt 0.862745 0.150000
vt 0.588235 0.150000
vt 0.150000 0.588235
vt 0.150000 0.862745
vt 0.850000 0.862745
vt 0.850000 0.588235
vt 0.588235 0.150000
vt 0.862745 0.150000
vt 0.862745 0.850000
vt 0.588235 0.850000
vt 0.850000 0.588235
vt 0.850000 0.862745
vt 0.150000 0.862745
vt 0.150000 0.588235
vt 0.150000 0.150000
vt 0.850000 0.150000
vt 0.850000 0.850000
vt 0.150000 0.850000
vt 0.850000 0.150000
vt 0.150000 0.150000
vt 0.150000 0.850000
vt 0.850000 0.850000
vt 0.862745 0.700000
vt 1.000000 0.700000
vt 1.000000 0.300000
vt 0.862745 0.300000
vt 0.300000 0.862745
vt 0.300000 1.000000
vt 0.700000 1.000000
vt 0.700000 0.862745
vt 0.862745 0.300000
vt 1.000000 0.300000
vt 1.000000 0.700000
vt 0.862745 0.700000
vt 0.700000 0.862745
vt 0.700000 1.000000
vt 0.300000 1.000000
vt 0.300000 0.862745
vt 0.300000 0.300000
vt 0.700000 0.300000
vt 0.700000 0.700000
vt 0.300000 0.700000
vt 0.700000 0.300000
vt 0.300000 0.300000
vt 0.300000 0.700000
vt 0.700000 0.700000
vn -1.000000 0.000000 0.000000
vn -1.000000 0.000000 0.000000
vn -1.000000 0.000000 0.000000
vn -1.000000 0.000000 0.000000
vn 0.000000 -0.000000 -1.000000
vn 0.000000 -0.000000 -1.000000
vn 0.000000 -0.000000 -1.000000
vn 0.000000 -0.000000 -1.000000
vn 1.000000 0.000000 0.000000
vn 1.000000 0.000000 0.000000
vn 1.000000 0.000000 0.000000
vn 1.000000 0.000000 0.000000
vn 0.000000 0.000000 1.000000
vn 0.000000 0.000000 1.000000
vn 0.000000 0.000000 1.000000
vn 0.000000 0.000000 1.000000
vn 0.000000 -1.000000 -0.000000
vn 0.000000 -1.000000 -0.000000
vn 0.000000 -1.000000 -0.000000
vn 0.000000 -1.000000 -0.000000
vn 0.000000 1.000000 0.000000
vn 0.000000 1.000000 0.000000
vn 0.000000 1.000000 0.000000
vn 0.000000 1.000000 0.000000
vn -1.000000 0.000000 0.000000
vn -1.000000 0.000000 0.000000
vn -1.000000 0.000000 0.000000
vn -1.000000 0.000000 0.000000
vn 0.000000 -0.000000 -1.000000
vn 0.000000 -0.000000 -1.000000
vn 0.000000 -0.000000 -1.000000
vn 0.000000 -0.000000 -1.000000
vn 1.000000 0.000000 0.000000
vn 1.000000 0.000000 0.000000
vn 1.000000 0.000000 0.000000
vn 1.000000 0.000000 0.000000
vn 0.000000 0.000000 1.000000
vn 0.000000 0.000000 1.000000
vn 0.000000 0.000000 1.000000
vn 0.000000 0.000000 1.000000
vn 0.000000 -1.000000 -0.000000
vn 0.000000 -1.000000 -0.000000
vn 0.000000 -1.000000 -0.000000
vn 0.000000 -1.000000 -0.000000
vn 0.000000 1.000000 0.000000
vn 0.000000 1.000000 0.000000
vn 0.000000 1.000000 0.000000
vn 0.000000 1.000000 0.000000
vn -1.000000 0.000000 0.000000
vn -1.000000 0.000000 0.000000
vn -1.000000 0.000000 0.000000
vn -1.000000 0.000000 0.000000
vn -0.000000 0.000000 -1.000000
vn -0.000000 0.000000 -1.000000
vn -0.000000 0.000000 -1.000000
vn -0.000000 0.000000 -1.000000
vn 1.000000 0.000000 0.000000
vn 1.000000 0.000000 0.000000
vn 1.000000 0.000000 0.000000
vn 1.000000 0.000000 0.000000
vn 0.000000 0.000000 1.000000
vn 0.000000 0.000000 1.000000
vn 0.000000 0.000000 1.000000
vn 0.000000 0.000000 1.000000
vn 0.000000 -1.000000 -0.000000
vn 0.000000 -1.000000 -0.000000
vn 0.000000 -1.000000 -0.000000
vn 0.000000 -1.000000 -0.000000
vn 0.000000 1.000000 0.000000
vn 0.000000 1.000000 0.000000
vn 0.000000 1.000000 0.000000
vn 0.000000 1.000000 0.000000
f 1/1/1 2/2/2 4/3/3 3/4/4
f 3/5/5 4/6/6 8/7/7 7/8/8
f 7/9/9 8/10/10 6/11/11 5/12/12
f 5/13/13 6/14/14 2/15/15 1/16/16
f 3/17/17 7/18/18 5/19/19 1/20/20
f 8/21/21 4/22/22 2/23/23 6/24/24
f 9/25/25 10/26/26 12/27/27 11/28/28
f 11/29/29 12/30/30 16/31/31 15/32/32
f 15/33/33 16/34/34 14/35/35 13/36/36
f 13/37/37 14/38/38 10/39/39 9/40/40
f 11/41/41 15/42/42 13/43/43 9/44/44
f 16/45/45 12/46/46 10/47/47 14/48/48
f 17/49/49 18/50/50 20/51/51 19/52/52
f 19/53/53 20/54/54 24/55/55 23/56/56
f 23/57/57 24/58/58 22/59/59 21/60/60
f 21/61/61 22/62/62 18/63/63 17/64/64
f 19/65/65 23/66/66 21/67/67 17/68/68
f 24/69/69 20/70/70 18/71/71 22/72/72
