# generated by tools/art/gen_meshes.py
v -0.009050 -0.258300 0.000000
v 0.206003 -0.108386 0.124912
v -0.091191 -0.108386 0.202114
v -0.274869 -0.108385 0.000000
v -0.091191 -0.108386 -0.202114
v 0.206003 -0.108386 -0.124912
v 0.073091 0.134186 0.202114
v -0.224103 0.134186 0.124912
v -0.224103 0.134186 -0.124912
v 0.073091 0.134186 -0.202114
v 0.256769 0.134185 -0.000000
v -0.009050 0.284100 -0.000000
v -0.057331 -0.217797 0.118799
v 0.117354 -0.217797 0.073421
v 0.069073 -0.129680 0.192221
v 0.243759 -0.129680 0.000000
v 0.117354 -0.217797 -0.073421
v -0.165294 -0.217797 0.000000
v -0.213577 -0.129680 0.118799
v -0.057331 -0.217797 -0.118799
v -0.213577 -0.129680 -0.118799
v 0.069073 -0.129680 -0.192221
v 0.273600 0.012900 0.073421
v 0.273600 0.012900 -0.073421
v -0.009050 0.012900 0.237600
v 0.165637 0.012900 0.192222
v -0.291700 0.012900 0.073421
v -0.183737 0.012900 0.192222
v -0.183737 0.012900 -0.192222
v -0.291700 0.012900 -0.073421
v 0.165637 0.012900 -0.192222
v -0.009050 0.012900 -0.237600
v 0.195477 0.155480 0.118799
v -0.087173 0.155480 0.192221
v -0.261859 0.155480 -0.000000
v -0.087173 0.155480 -0.192221
v 0.195477 0.155480 -0.118799
v 0.039231 0.243597 0.118799
v 0.147194 0.243597 -0.000000
v -0.135454 0.243597 0.073421
v -0.135454 0.243597 -0.073421
v 0.039231 0.243597 -0.118799
vt 0.500000 0.500000
vt 0.723605 0.654506
vt 0.414592 0.749998
vt 0.880422 0.762863
vt 0.723605 0.654506
vt 0.947211 0.500000
vt 0.500000 0.500000
vt 0.414592 0.749998
vt 0.223608 0.500000
vt 0.500000 0.500000
vt 0.223608 0.500000
vt 0.414592 0.250002
vt 0.500000 0.500000
vt 0.414592 0.250002
vt 0.723605 0.345494
vt 0.276390 0.762863
vt 0.237132 0.500000
vt 0.500000 0.654506
vt 0.354694 0.276390
vt 0.638198 0.237131
vt 0.500000 0.500000
vt 0.276392 0.500000
vt 0.237132 0.749998
vt 0.500000 0.654506
vt 0.354694 0.276390
vt 0.138198 0.237132
vt 0.190983 0.500000
vt 0.880422 0.276390
vt 0.638198 0.237131
vt 0.809017 0.500000
vt 0.276390 0.762863
vt 0.500000 0.654506
vt 0.500000 0.904508
vt 0.354694 0.276390
vt 0.500000 0.500000
vt 0.190983 0.500000
vt 0.276392 0.500000
vt 0.500000 0.654506
vt 0.500000 0.345494
vt 0.354694 0.276390
vt 0.190983 0.500000
vt 0.500000 0.500000
vt 0.276390 0.237137
vt 0.500000 0.095492
vt 0.500000 0.345494
vt 0.645306 0.723610
vt 0.861802 0.762868
vt 0.585408 0.925327
vt 0.119578 0.723610
vt 0.361802 0.762869
vt 0.276395 0.925327
vt 0.119578 0.237137
vt 0.052789 0.500000
vt 0.276395 0.345494
vt 0.645306 0.723610
vt 0.361802 0.762869
vt 0.585408 0.925327
vt 0.970227 0.500000
vt 0.861802 0.250002
vt 0.776392 0.500000
vt 0.776392 0.500000
vt 0.585408 0.250002
vt 0.500000 0.500000
vt 0.776392 0.500000
vt 0.861802 0.250002
vt 0.585408 0.250002
vt 0.861802 0.762868
vt 0.645306 0.723610
vt 0.585408 0.925327
vt 0.585408 0.250002
vt 0.276395 0.345494
vt 0.500000 0.500000
vt 0.585408 0.250002
vt 0.361802 0.095494
vt 0.276395 0.345494
vt 0.361802 0.762869
vt 0.119578 0.723610
vt 0.276395 0.925327
vt 0.276395 0.345494
vt 0.276395 0.654506
vt 0.500000 0.500000
vt 0.276395 0.345494
vt 0.052789 0.500000
vt 0.276395 0.654506
vt 0.052789 0.500000
vt 0.119578 0.762863
vt 0.276395 0.654506
vt 0.276395 0.654506
vt 0.585408 0.749998
vt 0.500000 0.500000
vt 0.276395 0.654506
vt 0.361802 0.904506
vt 0.585408 0.749998
vt 0.361802 0.762869
vt 0.645306 0.723610
vt 0.585408 0.925327
vt 0.585408 0.749998
vt 0.776392 0.500000
vt 0.500000 0.500000
vt 0.585408 0.749998
vt 0.861802 0.749998
vt 0.776392 0.500000
vt 0.861802 0.749998
vt 0.970227 0.500000
vt 0.776392 0.500000
vt 0.500000 0.345494
vt 0.762868 0.250002
vt 0.723608 0.500000
vt 0.500000 0.345494
vt 0.500000 0.095492
vt 0.762868 0.250002
vt 0.809017 0.500000
vt 0.645306 0.723610
vt 0.861802 0.762868
vt 0.500000 0.500000
vt 0.361802 0.762869
vt 0.645306 0.723610
vt 0.500000 0.500000
vt 0.190983 0.500000
vt 0.361802 0.762869
vt 0.190983 0.500000
vt 0.119578 0.723610
vt 0.361802 0.762869
vt 0.500000 0.345494
vt 0.762868 0.500000
vt 0.723610 0.237137
vt 0.500000 0.345494
vt 0.500000 0.654506
vt 0.762868 0.500000
vt 0.500000 0.654506
vt 0.723610 0.762863
vt 0.762868 0.500000
vt 0.190983 0.500000
vt 0.361802 0.762869
vt 0.119578 0.723610
vt 0.190983 0.500000
vt 0.500000 0.500000
vt 0.361802 0.762869
vt 0.500000 0.500000
vt 0.645306 0.723610
vt 0.361802 0.762869
vt 0.809017 0.500000
vt 0.861802 0.762868
vt 0.645306 0.723610
vt 0.500000 0.904508
vt 0.500000 0.654506
vt 0.762868 0.749998
vt 0.500000 0.654506
vt 0.723608 0.500000
vt 0.762868 0.749998
vt 0.809017 0.500000
vt 0.500000 0.500000
vt 0.645306 0.723610
vt 0.809017 0.500000
vt 0.638198 0.237131
vt 0.500000 0.500000
vt 0.638198 0.237131
vt 0.354694 0.276390
vt 0.500000 0.500000
vt 0.500000 0.095492
vt 0.500000 0.345494
vt 0.723610 0.237137
vt 0.500000 0.095492
vt 0.237132 0.250002
vt 0.500000 0.345494
vt 0.237132 0.250002
vt 0.276392 0.500000
vt 0.500000 0.345494
vt 0.500000 0.654506
vt 0.500000 0.904508
vt 0.723610 0.762863
vt 0.500000 0.654506
vt 0.237132 0.749998
vt 0.500000 0.904508
vt 0.138198 0.237132
vt 0.354694 0.276390
vt 0.190983 0.500000
vt 0.500000 0.500000
vt 0.809017 0.500000
vt 0.645306 0.723610
vt 0.500000 0.500000
vt 0.638198 0.237131
vt 0.809017 0.500000
vt 0.638198 0.237131
vt 0.880422 0.276390
vt 0.809017 0.500000
vt 0.500000 0.654506
vt 0.500000 0.345494
vt 0.723608 0.500000
vt 0.500000 0.654506
vt 0.237132 0.500000
vt 0.500000 0.345494
vt 0.237132 0.500000
vt 0.276390 0.237137
vt 0.500000 0.345494
vt 0.723605 0.074673
vt 0.638198 0.237131
vt 0.880422 0.276390
vt 0.723605 0.345494
vt 0.414592 0.250002
vt 0.638198 0.095494
vt 0.414592 0.074673
vt 0.354694 0.276390
vt 0.638198 0.237131
vt 0.414592 0.074673
vt 0.138198 0.237132
vt 0.354694 0.276390
vt 0.414592 0.250002
vt 0.223608 0.500000
vt 0.138198 0.250002
vt 0.223608 0.500000
vt 0.029773 0.500000
vt 0.138198 0.250002
vt 0.223608 0.500000
vt 0.138198 0.749998
vt 0.029773 0.500000
vt 0.223608 0.500000
vt 0.414592 0.749998
vt 0.138198 0.749998
vt 0.414592 0.074673
vt 0.354694 0.276390
vt 0.138198 0.237132
vt 0.947211 0.500000
vt 0.723605 0.345494
vt 0.880422 0.237137
vt 0.947211 0.500000
vt 0.723605 0.654506
vt 0.723605 0.345494
vt 0.723605 0.654506
vt 0.500000 0.500000
vt 0.723605 0.345494
vt 0.414592 0.074673
vt 0.638198 0.237131
vt 0.354694 0.276390
vt 0.414592 0.749998
vt 0.723605 0.654506
vt 0.638198 0.904506
vt 0.723605 0.074673
vt 0.880422 0.276390
vt 0.638198 0.237131
vn 0.000745 -1.000000 0.000000
vn 0.396686 -0.852264 0.341007
vn -0.148046 -0.828111 0.540661
vn 0.674472 -0.449464 0.585721
vn 0.396686 -0.852264 0.341007
vn 0.833796 -0.552073 0.000000
vn 0.000745 -1.000000 0.000000
vn -0.148046 -0.828111 0.540661
vn -0.497292 -0.867583 0.000000
vn 0.000745 -1.000000 0.000000
vn -0.497292 -0.867583 0.000000
vn -0.148046 -0.828111 -0.540661
vn 0.000745 -1.000000 0.000000
vn -0.148046 -0.828111 -0.540661
vn 0.396686 -0.852264 -0.341007
vn 0.674472 -0.449464 0.585721
vn 0.833796 -0.552073 0.000000
vn 0.933751 -0.001880 0.357917
vn -0.237319 -0.414668 0.878482
vn 0.226490 -0.492693 0.840212
vn 0.000000 -0.000000 1.000000
vn -0.880893 -0.473316 0.000000
vn -0.640734 -0.527930 0.557450
vn -0.933751 0.001880 0.357918
vn -0.237319 -0.414668 -0.878481
vn -0.640734 -0.527930 -0.557450
vn -0.519870 -0.002254 -0.854242
vn 0.674472 -0.449464 -0.585721
vn 0.226490 -0.492693 -0.840212
vn 0.519870 0.002254 -0.854242
vn 0.674472 -0.449464 0.585721
vn 0.933751 -0.001880 0.357917
vn 0.519870 0.002254 0.854242
vn -0.237319 -0.414668 0.878482
vn 0.000000 -0.000000 1.000000
vn -0.519870 -0.002254 0.854242
vn -0.880893 -0.473316 0.000000
vn -0.933751 0.001880 0.357918
vn -0.933751 0.001880 -0.357917
vn -0.237319 -0.414668 -0.878481
vn -0.519870 -0.002254 -0.854242
vn 0.000000 0.000000 -1.000000
vn 0.674472 -0.449464 -0.585721
vn 0.519870 0.002254 -0.854242
vn 0.933751 -0.001880 -0.357917
vn 0.237319 0.414668 0.878481
vn 0.640734 0.527930 0.557449
vn 0.148046 0.828111 0.540661
vn -0.674472 0.449464 0.585721
vn -0.226490 0.492693 0.840212
vn -0.396686 0.852264 0.341007
vn -0.674472 0.449463 -0.585721
vn -0.833796 0.552073 -0.000000
vn -0.396686 0.852264 -0.341007
vn 0.237319 0.414668 -0.878482
vn -0.226490 0.492693 -0.840212
vn 0.148046 0.828111 -0.540661
vn 0.880893 0.473316 -0.000000
vn 0.640734 0.527930 -0.557449
vn 0.497292 0.867583 -0.000000
vn 0.497292 0.867583 -0.000000
vn 0.148046 0.828111 -0.540661
vn -0.000745 1.000000 0.000000
vn 0.497292 0.867583 -0.000000
vn 0.640734 0.527930 -0.557449
vn 0.148046 0.828111 -0.540661
vn 0.640734 0.527930 -0.557449
vn 0.237319 0.414668 -0.878482
vn 0.148046 0.828111 -0.540661
vn 0.148046 0.828111 -0.540661
vn -0.396686 0.852264 -0.341007
vn -0.000745 1.000000 0.000000
vn 0.148046 0.828111 -0.540661
vn -0.226490 0.492693 -0.840212
vn -0.396686 0.852264 -0.341007
vn -0.226490 0.492693 -0.840212
vn -0.674472 0.449463 -0.585721
vn -0.396686 0.852264 -0.341007
vn -0.396686 0.852264 -0.341007
vn -0.396686 0.852264 0.341007
vn -0.000745 1.000000 0.000000
vn -0.396686 0.852264 -0.341007
vn -0.833796 0.552073 -0.000000
vn -0.396686 0.852264 0.341007
vn -0.833796 0.552073 -0.000000
vn -0.674472 0.449464 0.585721
vn -0.396686 0.852264 0.341007
vn -0.396686 0.852264 0.341007
vn 0.148046 0.828111 0.540661
vn -0.000745 1.000000 0.000000
vn -0.396686 0.852264 0.341007
vn -0.226490 0.492693 0.840212
vn 0.148046 0.828111 0.540661
vn -0.226490 0.492693 0.840212
vn 0.237319 0.414668 0.878481
vn 0.148046 0.828111 0.540661
vn 0.148046 0.828111 0.540661
vn 0.497292 0.867583 -0.000000
vn -0.000745 1.000000 0.000000
vn 0.148046 0.828111 0.540661
vn 0.640734 0.527930 0.557449
vn 0.497292 0.867583 -0.000000
vn 0.640734 0.527930 0.557449
vn 0.880893 0.473316 -0.000000
vn 0.497292 0.867583 -0.000000
vn 0.933751 -0.001880 -0.357917
vn 0.640734 0.527930 -0.557449
vn 0.880893 0.473316 -0.000000
vn 0.933751 -0.001880 -0.357917
vn 0.519870 0.002254 -0.854242
vn 0.640734 0.527930 -0.557449
vn 0.519870 0.002254 -0.854242
vn 0.237319 0.414668 -0.878482
vn 0.640734 0.527930 -0.557449
vn 0.000000 0.000000 -1.000000
vn -0.226490 0.492693 -0.840212
vn 0.237319 0.414668 -0.878482
vn 0.000000 0.000000 -1.000000
vn -0.519870 -0.002254 -0.854242
vn -0.226490 0.492693 -0.840212
vn -0.519870 -0.002254 -0.854242
vn -0.674472 0.449463 -0.585721
vn -0.226490 0.492693 -0.840212
vn -0.933751 0.001880 -0.357917
vn -0.833796 0.552073 -0.000000
vn -0.674472 0.449463 -0.585721
vn -0.933751 0.001880 -0.357917
vn -0.933751 0.001880 0.357918
vn -0.833796 0.552073 -0.000000
vn -0.933751 0.001880 0.357918
vn -0.674472 0.449464 0.585721
vn -0.833796 0.552073 -0.000000
vn -0.519870 -0.002254 0.854242
vn -0.226490 0.492693 0.840212
vn -0.674472 0.449464 0.585721
vn -0.519870 -0.002254 0.854242
vn 0.000000 -0.000000 1.000000
vn -0.226490 0.492693 0.840212
vn 0.000000 -0.000000 1.000000
vn 0.237319 0.414668 0.878481
vn -0.226490 0.492693 0.840212
vn 0.519870 0.002254 0.854242
vn 0.640734 0.527930 0.557449
vn 0.237319 0.414668 0.878481
vn 0.519870 0.002254 0.854242
vn 0.933751 -0.001880 0.357917
vn 0.640734 0.527930 0.557449
vn 0.933751 -0.001880 0.357917
vn 0.880893 0.473316 -0.000000
vn 0.640734 0.527930 0.557449
vn 0.519870 0.002254 -0.854242
vn 0.000000 0.000000 -1.000000
vn 0.237319 0.414668 -0.878482
vn 0.519870 0.002254 -0.854242
vn 0.226490 -0.492693 -0.840212
vn 0.000000 0.000000 -1.000000
vn 0.226490 -0.492693 -0.840212
vn -0.237319 -0.414668 -0.878481
vn 0.000000 0.000000 -1.000000
vn -0.519870 -0.002254 -0.854242
vn -0.933751 0.001880 -0.357917
vn -0.674472 0.449463 -0.585721
vn -0.519870 -0.002254 -0.854242
vn -0.640734 -0.527930 -0.557450
vn -0.933751 0.001880 -0.357917
vn -0.640734 -0.527930 -0.557450
vn -0.880893 -0.473316 0.000000
vn -0.933751 0.001880 -0.357917
vn -0.933751 0.001880 0.357918
vn -0.519870 -0.002254 0.854242
vn -0.674472 0.449464 0.585721
vn -0.933751 0.001880 0.357918
vn -0.640734 -0.527930 0.557450
vn -0.519870 -0.002254 0.854242
vn -0.640734 -0.527930 0.557450
vn -0.237319 -0.414668 0.878482
vn -0.519870 -0.002254 0.854242
vn 0.000000 -0.000000 1.000000
vn 0.519870 0.002254 0.854242
vn 0.237319 0.414668 0.878481
vn 0.000000 -0.000000 1.000000
vn 0.226490 -0.492693 0.840212
vn 0.519870 0.002254 0.854242
vn 0.226490 -0.492693 0.840212
vn 0.674472 -0.449464 0.585721
vn 0.519870 0.002254 0.854242
vn 0.933751 -0.001880 0.357917
vn 0.933751 -0.001880 -0.357917
vn 0.880893 0.473316 -0.000000
vn 0.933751 -0.001880 0.357917
vn 0.833796 -0.552073 0.000000
vn 0.933751 -0.001880 -0.357917
vn 0.833796 -0.552073 0.000000
vn 0.674472 -0.449464 -0.585721
vn 0.933751 -0.001880 -0.357917
vn 0.396686 -0.852264 -0.341007
vn 0.226490 -0.492693 -0.840212
vn 0.674472 -0.449464 -0.585721
vn 0.396686 -0.852264 -0.341007
vn -0.148046 -0.828111 -0.540661
vn 0.226490 -0.492693 -0.840212
vn -0.148046 -0.828111 -0.540661
vn -0.237319 -0.414668 -0.878481
vn 0.226490 -0.492693 -0.840212
vn -0.148046 -0.828111 -0.540661
vn -0.640734 -0.527930 -0.557450
vn -0.237319 -0.414668 -0.878481
vn -0.148046 -0.828111 -0.540661
vn -0.497292 -0.867583 0.000000
vn -0.640734 -0.527930 -0.557450
vn -0.497292 -0.867583 0.000000
vn -0.880893 -0.473316 0.000000
vn -0.640734 -0.527930 -0.557450
vn -0.497292 -0.867583 0.000000
vn -0.640734 -0.527930 0.557450
vn -0.880893 -0.473316 0.000000
vn -0.497292 -0.867583 0.000000
vn -0.148046 -0.828111 0.540661
vn -0.640734 -0.527930 0.557450
vn -0.148046 -0.828111 0.540661
vn -0.237319 -0.414668 0.878482
vn -0.640734 -0.527930 0.557450
vn 0.833796 -0.552073 0.000000
vn 0.396686 -0.852264 -0.341007
vn 0.674472 -0.449464 -0.585721
vn 0.833796 -0.552073 0.000000
vn 0.396686 -0.852264 0.341007
vn 0.396686 -0.852264 -0.341007
vn 0.396686 -0.852264 0.341007
vn 0.000745 -1.000000 0.000000
vn 0.396686 -0.852264 -0.341007
vn -0.148046 -0.828111 0.540661
vn 0.226490 -0.492693 0.840212
vn -0.237319 -0.414668 0.878482
vn -0.148046 -0.828111 0.540661
vn 0.396686 -0.852264 0.341007
vn 0.226490 -0.492693 0.840212
vn 0.396686 -0.852264 0.341007
vn 0.674472 -0.449464 0.585721
vn 0.226490 -0.492693 0.840212
f 1/1/1 14/2/2 13/3/3
f 2/4/4 14/5/5 16/6/6
f 1/7/7 13/8/8 18/9/9
f 1/10/10 18/11/11 20/12/12
f 1/13/13 20/14/14 17/15/15
f 2/16/16 16/17/17 23/18/18
f 3/19/19 15/20/20 25/21/21
f 4/22/22 19/23/23 27/24/24
f 5/25/25 21/26/26 29/27/27
f 6/28/28 22/29/29 31/30/30
f 2/31/31 23/32/32 26/33/33
f 3/34/34 25/35/35 28/36/36
f 4/37/37 27/38/38 30/39/39
f 5/40/40 29/41/41 32/42/42
f 6/43/43 31/44/44 24/45/45
f 7/46/46 33/47/47 38/48/48
f 8/49/49 34/50/50 40/51/51
f 9/52/52 35/53/53 41/54/54
f 10/55/55 36/56/56 42/57/57
f 11/58/58 37/59/59 39/60/60
f 39/61/61 42/62/62 12/63/63
f 39/64/64 37/65/65 42/66/66
f 37/67/67 10/68/68 42/69/69
f 42/70/70 41/71/71 12/72/72
f 42/73/73 36/74/74 41/75/75
f 36/76/76 9/77/77 41/78/78
f 41/79/79 40/80/80 12/81/81
f 41/82/82 35/83/83 40/84/84
f 35/85/85 8/86/86 40/87/87
f 40/88/88 38/89/89 12/90/90
f 40/91/91 34/92/92 38/93/93
f 34/94/94 7/95/95 38/96/96
f 38/97/97 39/98/98 12/99/99
f 38/100/100 33/101/101 39/102/102
f 33/103/103 11/104/104 39/105/105
f 24/106/106 37/107/107 11/108/108
f 24/109/109 31/110/110 37/111/111
f 31/112/112 10/113/113 37/114/114
f 32/115/115 36/116/116 10/117/117
f 32/118/118 29/119/119 36/120/120
f 29/121/121 9/122/122 36/123/123
f 30/124/124 35/125/125 9/126/126
f 30/127/127 27/128/128 35/129/129
f 27/130/130 8/131/131 35/132/132
f 28/133/133 34/134/134 8/135/135
f 28/136/136 25/137/137 34/138/138
f 25/139/139 7/140/140 34/141/141
f 26/142/142 33/143/143 7/144/144
f 26/145/145 23/146/146 33/147/147
f 23/148/148 11/149/149 33/150/150
f 31/151/151 32/152/152 10/153/153
f 31/154/154 22/155/155 32/156/156
f 22/157/157 5/158/158 32/159/159
f 29/160/160 30/161/161 9/162/162
f 29/163/163 21/164/164 30/165/165
f 21/166/166 4/167/167 30/168/168
f 27/169/169 28/170/170 8/171/171
f 27/172/172 19/173/173 28/174/174
f 19/175/175 3/176/176 28/177/177
f 25/178/178 26/179/179 7/180/180
f 25/181/181 15/182/182 26/183/183
f 15/184/184 2/185/185 26/186/186
f 23/187/187 24/188/188 11/189/189
f 23/190/190 16/191/191 24/192/192
f 16/193/193 6/194/194 24/195/195
f 17/196/196 22/197/197 6/198/198
f 17/199/199 20/200/200 22/201/201
f 20/202/202 5/203/203 22/204/204
f 20/205/205 21/206/206 5/207/207
f 20/208/208 18/209/209 21/210/210
f 18/211/211 4/212/212 21/213/213
f 18/214/214 19/215/215 4/216/216
f 18/217/217 13/218/218 19/219/219
f 13/220/220 3/221/221 19/222/222
f 16/223/223 17/224/224 6/225/225
f 16/226/226 14/227/227 17/228/228
f 14/229/229 1/230/230 17/231/231
f 13/232/232 15/233/233 3/234/234
f 13/235/235 14/236/236 15/237/237
f 14/238/238 2/239/239 15/240/240
