# generated by tools/art/gen_meshes.py
v -1.340000 -112.750000 0.840000
v -1.340000 -112.589996 1.000000
v -1.500000 -112.589996 0.840000
v -1.340000 -112.703133 0.953137
v -1.432376 -112.682373 0.932376
v -1.453137 -112.589996 0.953137
v -1.453137 -112.703133 0.840000
v -1.340000 -0.155000 0.999995
v -1.340000 0.005000 0.839996
v -1.500000 -0.155000 0.839996
v -1.340000 -0.041864 0.953132
v -1.432376 -0.062623 0.932371
v -1.453137 -0.041864 0.839996
v -1.453137 -0.155000 0.953132
v -1.340000 -112.750000 -0.839996
v -1.500000 -112.589996 -0.839996
v -1.340000 -112.589996 -0.999995
v -1.453137 -112.703133 -0.839996
v -1.432376 -112.682373 -0.932371
v -1.453137 -112.589996 -0.953132
v -1.340000 -112.703133 -0.953132
v -1.340000 0.005000 -0.840000
v -1.340000 -0.155000 -1.000000
v -1.500000 -0.155000 -0.840000
v -1.340000 -0.041864 -0.953137
v -1.432376 -0.062623 -0.932376
v -1.453137 -0.155000 -0.953137
v -1.453137 -0.041864 -0.840000
v 1.340000 -112.750000 0.840000
v 1.500000 -112.589996 0.840000
v 1.340000 -112.589996 1.000000
v 1.453137 -112.703133 0.840000
v 1.432376 -112.682373 0.932376
v 1.453137 -112.589996 0.953137
v 1.340000 -112.703133 0.953137
v 1.340000 0.005000 0.839996
v 1.340000 -0.155000 0.999995
v 1.500000 -0.155000 0.839996
v 1.340000 -0.041864 0.953132
v 1.432376 -0.062623 0.932371
v 1.453137 -0.155000 0.953132
v 1.453137 -0.041864 0.839996
v 1.340000 -112.750000 -0.839996
v 1.340000 -112.589996 -0.999995
v 1.500000 -112.589996 -0.839996
v 1.340000 -112.703133 -0.953132
v 1.432376 -112.682373 -0.932371
v 1.453137 -112.589996 -0.953132
v 1.453137 -112.703133 -0.839996
v 1.340000 0.005000 -0.840000
v 1.500000 -0.155000 -0.840000
v 1.340000 -0.155000 -1.000000
v 1.453137 -0.041864 -0.840000
v 1.432376 -0.062623 -0.932376
v 1.453137 -0.155000 -0.953137
v 1.340000 -0.041864 -0.953137
vt 0.053333 0.920000
vt 0.053333 0.976569
vt 0.022541 0.966188
vt 0.015621 0.920000
vt 0.053333 0.001419
vt 0.015621 0.001419
vt 0.022541 0.000600
vt 0.053333 0.000416
vt 0.001419 0.920000
vt 0.000416 0.920000
vt 0.000600 0.966188
vt 0.001419 0.976569
vt 0.053333 0.998581
vt 0.053333 0.999584
vt 0.022541 0.999400
vt 0.015621 0.998581
vt 0.053333 0.919998
vt 0.015621 0.919998
vt 0.022541 0.966186
vt 0.053333 0.976566
vt 0.998581 0.919998
vt 0.998581 0.976566
vt 0.999400 0.966186
vt 0.999584 0.919998
vt 0.053333 0.080002
vt 0.015621 0.080002
vt 0.022541 0.033814
vt 0.053333 0.023434
vt 0.001419 0.080002
vt 0.001419 0.023434
vt 0.000600 0.033814
vt 0.000416 0.080002
vt 0.053333 0.001419
vt 0.053333 0.000416
vt 0.022541 0.000600
vt 0.015621 0.001419
vt 0.053333 0.080000
vt 0.053333 0.023431
vt 0.022541 0.033812
vt 0.015621 0.080000
vt 0.053333 0.998581
vt 0.015621 0.998581
vt 0.022541 0.999400
vt 0.053333 0.999584
vt 0.998581 0.080000
vt 0.999584 0.080000
vt 0.999400 0.033812
vt 0.998581 0.023431
vt 0.946667 0.920000
vt 0.984379 0.920000
vt 0.977459 0.966188
vt 0.946667 0.976569
vt 0.001419 0.920000
vt 0.001419 0.976569
vt 0.000600 0.966188
vt 0.000416 0.920000
vt 0.946667 0.001419
vt 0.946667 0.000416
vt 0.977459 0.000600
vt 0.984379 0.001419
vt 0.946667 0.919998
vt 0.946667 0.976566
vt 0.977459 0.966186
vt 0.984379 0.919998
vt 0.946667 0.998581
vt 0.984379 0.998581
vt 0.977459 0.999400
vt 0.946667 0.999584
vt 0.998581 0.919998
vt 0.999584 0.919998
vt 0.999400 0.966186
vt 0.998581 0.976566
vt 0.946667 0.080002
vt 0.946667 0.023434
vt 0.977459 0.033814
vt 0.984379 0.080002
vt 0.946667 0.001419
vt 0.984379 0.001419
vt 0.977459 0.000600
vt 0.946667 0.000416
vt 0.001419 0.080002
vt 0.000416 0.080002
vt 0.000600 0.033814
vt 0.001419 0.023434
vt 0.946667 0.080000
vt 0.984379 0.080000
vt 0.977459 0.033812
vt 0.946667 0.023431
vt 0.998581 0.080000
vt 0.998581 0.023431
vt 0.999400 0.033812
vt 0.999584 0.080000
vt 0.946667 0.998581
vt 0.946667 0.999584
vt 0.977459 0.999400
vt 0.984379 0.998581
vt 0.053333 0.080002
vt 0.053333 0.920000
vt 0.015621 0.920000
vt 0.015621 0.080002
vt 0.000416 0.080002
vt 0.000416 0.920000
vt 0.001419 0.920000
vt 0.001419 0.080002
vt 0.053333 0.001419
vt 0.053333 0.998581
vt 0.015621 0.998581
vt 0.015621 0.001419
vt 0.001419 0.976569
vt 0.998581 0.976566
vt 0.998581 0.919998
vt 0.001419 0.920000
vt 0.053333 0.919998
vt 0.053333 0.080000
vt 0.015621 0.080000
vt 0.015621 0.919998
vt 0.999584 0.919998
vt 0.999584 0.080000
vt 0.998581 0.080000
vt 0.998581 0.919998
vt 0.053333 0.998581
vt 0.053333 0.001419
vt 0.015621 0.001419
vt 0.015621 0.998581
vt 0.998581 0.023431
vt 0.001419 0.023434
vt 0.001419 0.080002
vt 0.998581 0.080000
vt 0.946667 0.080002
vt 0.053333 0.080002
vt 0.053333 0.023434
vt 0.946667 0.023434
vt 0.946667 0.000416
vt 0.053333 0.000416
vt 0.053333 0.001419
vt 0.946667 0.001419
vt 0.053333 0.080000
vt 0.946667 0.080000
vt 0.946667 0.023431
vt 0.053333 0.023431
vt 0.053333 0.999584
vt 0.946667 0.999584
vt 0.946667 0.998581
vt 0.053333 0.998581
vt 0.998581 0.080000
vt 0.001419 0.080002
vt 0.001419 0.023434
vt 0.998581 0.023431
vt 0.984379 0.998581
vt 0.984379 0.001419
vt 0.946667 0.001419
vt 0.946667 0.998581
vt 0.946667 0.920000
vt 0.946667 0.080002
vt 0.984379 0.080002
vt 0.984379 0.920000
vt 0.000416 0.920000
vt 0.000416 0.080002
vt 0.001419 0.080002
vt 0.001419 0.920000
vt 0.946667 0.080000
vt 0.946667 0.919998
vt 0.984379 0.919998
vt 0.984379 0.080000
vt 0.999584 0.080000
vt 0.999584 0.919998
vt 0.998581 0.919998
vt 0.998581 0.080000
vt 0.946667 0.998581
vt 0.946667 0.001419
vt 0.984379 0.001419
vt 0.984379 0.998581
vt 0.998581 0.976566
vt 0.001419 0.976569
vt 0.001419 0.920000
vt 0.998581 0.919998
vt 0.053333 0.920000
vt 0.946667 0.920000
vt 0.946667 0.976569
vt 0.053333 0.976569
vt 0.053333 0.000416
vt 0.946667 0.000416
vt 0.946667 0.001419
vt 0.053333 0.001419
vt 0.946667 0.919998
vt 0.053333 0.919998
vt 0.053333 0.976566
vt 0.946667 0.976566
vt 0.946667 0.999584
vt 0.053333 0.999584
vt 0.053333 0.998581
vt 0.946667 0.998581
vt 0.053333 0.080002
vt 0.946667 0.080002
vt 0.946667 0.920000
vt 0.053333 0.920000
vt 0.001419 0.920000
vt 0.998581 0.919998
vt 0.998581 0.080000
vt 0.001419 0.080002
vt 0.946667 0.001419
vt 0.946667 0.998581
vt 0.053333 0.998581
vt 0.053333 0.001419
vt 0.946667 0.080000
vt 0.053333 0.080000
vt 0.053333 0.919998
vt 0.946667 0.919998
vt 0.053333 0.001419
vt 0.053333 0.998581
vt 0.946667 0.998581
vt 0.946667 0.001419
vt 0.001419 0.080002
vt 0.998581 0.080000
vt 0.998581 0.919998
vt 0.001419 0.920000
vn -0.325069 -0.888065 0.325070
vn -0.325069 -0.888065 0.325070
vn -0.325069 -0.888065 0.325070
vn -0.325069 -0.888065 0.325070
vn -0.325055 -0.325057 0.888075
vn -0.325055 -0.325057 0.888075
vn -0.325055 -0.325057 0.888075
vn -0.325055 -0.325057 0.888075
vn -0.888075 -0.325057 0.325056
vn -0.888075 -0.325057 0.325056
vn -0.888075 -0.325057 0.325056
vn -0.888075 -0.325057 0.325056
vn -0.325055 0.325057 0.888075
vn -0.325055 0.325057 0.888075
vn -0.325055 0.325057 0.888075
vn -0.325055 0.325057 0.888075
vn -0.325054 0.888076 0.325055
vn -0.325054 0.888076 0.325055
vn -0.325054 0.888076 0.325055
vn -0.325054 0.888076 0.325055
vn -0.888075 0.325057 0.325056
vn -0.888075 0.325057 0.325056
vn -0.888075 0.325057 0.325056
vn -0.888075 0.325057 0.325056
vn -0.325069 -0.888065 -0.325070
vn -0.325069 -0.888065 -0.325070
vn -0.325069 -0.888065 -0.325070
vn -0.325069 -0.888065 -0.325070
vn -0.888075 -0.325057 -0.325056
vn -0.888075 -0.325057 -0.325056
vn -0.888075 -0.325057 -0.325056
vn -0.888075 -0.325057 -0.325056
vn -0.325055 -0.325057 -0.888075
vn -0.325055 -0.325057 -0.888075
vn -0.325055 -0.325057 -0.888075
vn -0.325055 -0.325057 -0.888075
vn -0.325054 0.888076 -0.325055
vn -0.325054 0.888076 -0.325055
vn -0.325054 0.888076 -0.325055
vn -0.325054 0.888076 -0.325055
vn -0.325055 0.325057 -0.888075
vn -0.325055 0.325057 -0.888075
vn -0.325055 0.325057 -0.888075
vn -0.325055 0.325057 -0.888075
vn -0.888075 0.325057 -0.325056
vn -0.888075 0.325057 -0.325056
vn -0.888075 0.325057 -0.325056
vn -0.888075 0.325057 -0.325056
vn 0.325069 -0.888065 0.325070
vn 0.325069 -0.888065 0.325070
vn 0.325069 -0.888065 0.325070
vn 0.325069 -0.888065 0.325070
vn 0.888075 -0.325057 0.325056
vn 0.888075 -0.325057 0.325056
vn 0.888075 -0.325057 0.325056
vn 0.888075 -0.325057 0.325056
vn 0.325055 -0.325057 0.888075
vn 0.325055 -0.325057 0.888075
vn 0.325055 -0.325057 0.888075
vn 0.325055 -0.325057 0.888075
vn 0.325054 0.888076 0.325055
vn 0.325054 0.888076 0.325055
vn 0.325054 0.888076 0.325055
vn 0.325054 0.888076 0.325055
vn 0.325055 0.325057 0.888075
vn 0.325055 0.325057 0.888075
vn 0.325055 0.325057 0.888075
vn 0.325055 0.325057 0.888075
vn 0.888075 0.325057 0.325056
vn 0.888075 0.325057 0.325056
vn 0.888075 0.325057 0.325056
vn 0.888075 0.325057 0.325056
vn 0.325069 -0.888065 -0.325070
vn 0.325069 -0.888065 -0.325070
vn 0.325069 -0.888065 -0.325070
vn 0.325069 -0.888065 -0.325070
vn 0.325055 -0.325057 -0.888075
vn 0.325055 -0.325057 -0.888075
vn 0.325055 -0.325057 -0.888075
vn 0.325055 -0.325057 -0.888075
vn 0.888075 -0.325057 -0.325056
vn 0.888075 -0.325057 -0.325056
vn 0.888075 -0.325057 -0.325056
vn 0.888075 -0.325057 -0.325056
vn 0.325054 0.888076 -0.325055
vn 0.325054 0.888076 -0.325055
vn 0.325054 0.888076 -0.325055
vn 0.325054 0.888076 -0.325055
vn 0.888075 0.325057 -0.325056
vn 0.888075 0.325057 -0.325056
vn 0.888075 0.325057 -0.325056
vn 0.888075 0.325057 -0.325056
vn 0.325055 0.325057 -0.888075
vn 0.325055 0.325057 -0.888075
vn 0.325055 0.325057 -0.888075
vn 0.325055 0.325057 -0.888075
vn -0.382714 -0.923867 0.000000
vn -0.382714 -0.923867 0.000000
vn -0.382714 -0.923867 0.000000
vn -0.382714 -0.923867 0.000000
vn -0.923879 -0.382685 0.000000
vn -0.923879 -0.382685 0.000000
vn -0.923879 -0.382685 0.000000
vn -0.923879 -0.382685 0.000000
vn -0.382683 0.000000 0.923880
vn -0.382683 0.000000 0.923880
vn -0.382683 0.000000 0.923880
vn -0.382683 0.000000 0.923880
vn -0.923879 0.000000 0.382684
vn -0.923879 0.000000 0.382684
vn -0.923879 0.000000 0.382684
vn -0.923879 0.000000 0.382684
vn -0.382688 0.923878 0.000000
vn -0.382688 0.923878 0.000000
vn -0.382688 0.923878 0.000000
vn -0.382688 0.923878 0.000000
vn -0.923879 0.382685 0.000000
vn -0.923879 0.382685 0.000000
vn -0.923879 0.382685 0.000000
vn -0.923879 0.382685 0.000000
vn -0.382683 -0.000000 -0.923880
vn -0.382683 -0.000000 -0.923880
vn -0.382683 -0.000000 -0.923880
vn -0.382683 -0.000000 -0.923880
vn -0.923879 -0.000000 -0.382684
vn -0.923879 -0.000000 -0.382684
vn -0.923879 -0.000000 -0.382684
vn -0.923879 -0.000000 -0.382684
vn 0.000000 -0.923866 -0.382715
vn 0.000000 -0.923866 -0.382715
vn 0.000000 -0.923866 -0.382715
vn 0.000000 -0.923866 -0.382715
vn 0.000000 -0.382685 -0.923879
vn 0.000000 -0.382685 -0.923879
vn 0.000000 -0.382685 -0.923879
vn 0.000000 -0.382685 -0.923879
vn 0.000000 0.923877 -0.382689
vn 0.000000 0.923877 -0.382689
vn 0.000000 0.923877 -0.382689
vn 0.000000 0.923877 -0.382689
vn 0.000000 0.382685 -0.923879
vn 0.000000 0.382685 -0.923879
vn 0.000000 0.382685 -0.923879
vn 0.000000 0.382685 -0.923879
vn 0.923879 -0.000000 -0.382684
vn 0.923879 -0.000000 -0.382684
vn 0.923879 -0.000000 -0.382684
vn 0.923879 -0.000000 -0.382684
vn 0.382683 -0.000000 -0.923880
vn 0.382683 -0.000000 -0.923880
vn 0.382683 -0.000000 -0.923880
vn 0.382683 -0.000000 -0.923880
vn 0.382714 -0.923867 0.000000
vn 0.382714 -0.923867 0.000000
vn 0.382714 -0.923867 0.000000
vn 0.382714 -0.923867 0.000000
vn 0.923879 -0.382685 0.000000
vn 0.923879 -0.382685 0.000000
vn 0.923879 -0.382685 0.000000
vn 0.923879 -0.382685 0.000000
vn 0.382688 0.923878 0.000000
vn 0.382688 0.923878 0.000000
vn 0.382688 0.923878 0.000000
vn 0.382688 0.923878 0.000000
vn 0.923879 0.382685 0.000000
vn 0.923879 0.382685 0.000000
vn 0.923879 0.382685 0.000000
vn 0.923879 0.382685 0.000000
vn 0.382683 0.000000 0.923880
vn 0.382683 0.000000 0.923880
vn 0.382683 0.000000 0.923880
vn 0.382683 0.000000 0.923880
vn 0.923879 0.000000 0.382684
vn 0.923879 0.000000 0.382684
vn 0.923879 0.000000 0.382684
vn 0.923879 0.000000 0.382684
vn 0.000000 -0.923866 0.382715
vn 0.000000 -0.923866 0.382715
vn 0.000000 -0.923866 0.382715
vn 0.000000 -0.923866 0.382715
vn 0.000000 -0.382685 0.923879
vn 0.000000 -0.382685 0.923879
vn 0.000000 -0.382685 0.923879
vn 0.000000 -0.382685 0.923879
vn 0.000000 0.923877 0.382689
vn 0.000000 0.923877 0.382689
vn 0.000000 0.923877 0.382689
vn 0.000000 0.923877 0.382689
vn 0.000000 0.382685 0.923879
vn 0.000000 0.382685 0.923879
vn 0.000000 0.382685 0.923879
vn 0.000000 0.382685 0.923879
vn 0.000000 -1.000000 -0.000000
vn 0.000000 -1.000000 -0.000000
vn 0.000000 -1.000000 -0.000000
vn 0.000000 -1.000000 -0.000000
vn -1.000000 0.000000 0.000000
vn -1.000000 0.000000 0.000000
vn -1.000000 0.000000 0.000000
vn -1.000000 0.000000 0.000000
vn 0.000000 0.000000 1.000000
vn 0.000000 0.000000 1.000000
vn 0.000000 0.000000 1.000000
vn 0.000000 0.000000 1.000000
vn 0.000000 1.000000 0.000000
vn 0.000000 1.000000 0.000000
vn 0.000000 1.000000 0.000000
vn 0.000000 1.000000 0.000000
vn 0.000000 -0.000000 -1.000000
vn 0.000000 -0.000000 -1.000000
vn 0.000000 -0.000000 -1.000000
vn 0.000000 -0.000000 -1.000000
vn 1.000000 0.000000 0.000000
vn 1.000000 0.000000 0.000000
vn 1.000000 0.000000 0.000000
vn 1.000000 0.000000 0.000000
f 1/1/1 4/2/2 5/3/3 7/4/4
f 2/5/5 6/6/6 5/7/7 4/8/8
f 3/9/9 7/10/10 5/11/11 6/12/12
f 8/13/13 11/14/14 12/15/15 14/16/16
f 9/17/17 13/18/18 12/19/19 11/20/20
f 10/21/21 14/22/22 12/23/23 13/24/24
f 15/25/25 18/26/26 19/27/27 21/28/28
f 16/29/29 20/30/30 19/31/31 18/32/32
f 17/33/33 21/34/34 19/35/35 20/36/36
f 22/37/37 25/38/38 26/39/39 28/40/40
f 23/41/41 27/42/42 26/43/43 25/44/44
f 24/45/45 28/46/46 26/47/47 27/48/48
f 29/49/49 32/50/50 33/51/51 35/52/52
f 30/53/53 34/54/54 33/55/55 32/56/56
f 31/57/57 35/58/58 33/59/59 34/60/60
f 36/61/61 39/62/62 40/63/63 42/64/64
f 37/65/65 41/66/66 40/67/67 39/68/68
f 38/69/69 42/70/70 40/71/71 41/72/72
f 43/73/73 46/74/74 47/75/75 49/76/76
f 44/77/77 48/78/78 47/79/79 46/80/80
f 45/81/81 49/82/82 47/83/83 48/84/84
f 50/85/85 53/86/86 54/87/87 56/88/88
f 51/89/89 55/90/90 54/91/91 53/92/92
f 52/93/93 56/94/94 54/95/95 55/96/96
f 15/97/97 1/98/98 7/99/99 18/100/100
f 18/101/101 7/102/102 3/103/103 16/104/104
f 2/105/105 8/106/106 14/107/107 6/108/108
f 6/109/109 14/110/110 10/111/111 3/112/112
f 9/113/113 22/114/114 28/115/115 13/116/116
f 13/117/117 28/118/118 24/119/119 10/120/120
f 23/121/121 17/122/122 20/123/123 27/124/124
f 27/125/125 20/126/126 16/127/127 24/128/128
f 43/129/129 15/130/130 21/131/131 46/132/132
f 46/133/133 21/134/134 17/135/135 44/136/136
f 22/137/137 50/138/138 56/139/139 25/140/140
f 25/141/141 56/142/142 52/143/143 23/144/144
f 51/145/145 45/146/146 48/147/147 55/148/148
f 55/149/149 48/150/150 44/151/151 52/152/152
f 29/153/153 43/154/154 49/155/155 32/156/156
f 32/157/157 49/158/158 45/159/159 30/160/160
f 50/161/161 36/162/162 42/163/163 53/164/164
f 53/165/165 42/166/166 38/167/167 51/168/168
f 37/169/169 31/170/170 34/171/171 41/172/172
f 41/173/173 34/174/174 30/175/175 38/176/176
f 1/177/177 29/178/178 35/179/179 4/180/180
f 4/181/181 35/182/182 31/183/183 2/184/184
f 36/185/185 9/186/186 11/187/187 39/188/188
f 39/189/189 11/190/190 8/191/191 37/192/192
f 15/193/193 43/194/194 29/195/195 1/196/196
f 3/197/197 10/198/198 24/199/199 16/200/200
f 31/201/201 37/202/202 8/203/203 2/204/204
f 50/205/205 22/206/206 9/207/207 36/208/208
f 17/209/209 23/210/210 52/211/211 44/212/212
f 45/213/213 51/214/214 38/215/215 30/216/216
