# generated by tools/art/gen_meshes.py
v -0.150000 0.042000 -0.005000
v 0.000000 -0.048000 0.005000
v 0.150000 0.042000 -0.005000
v 0.000000 0.007800 -0.001200
v -0.150000 0.042000 -0.005000
v 0.000000 0.007800 -0.001200
v 0.000000 -0.048000 0.005000
v 0.150000 0.042000 -0.005000
vt 0.000000 1.000000
vt 0.500000 0.000000
vt 0.500000 0.620000
vt 0.500000 0.000000
vt 1.000000 1.000000
vt 0.500000 0.620000
vt 0.000000 1.000000
vt 0.500000 0.620000
vt 0.500000 0.000000
vt 0.500000 0.000000
vt 0.500000 0.620000
vt 1.000000 1.000000
vt 1.000000 0.000000
vt 0.000000 1.000000
vt 0.000000 1.000000
vt 1.000000 0.000000
vt 0.000000 1.000000
vt 1.000000 0.000000
vt 1.000000 0.000000
vt 0.000000 1.000000
vt 0.620000 0.380000
vt 1.000000 0.000000
vt 1.000000 0.000000
vt 0.620000 0.380000
vt 1.000000 0.000000
vt 0.620000 0.380000
vt 0.620000 0.380000
vt 1.000000 0.000000
vn 0.000000 0.110432 0.993884
vn 0.000000 0.110432 0.993884
vn 0.000000 0.110432 0.993884
vn 0.000000 0.110432 0.993884
vn 0.000000 0.110432 0.993884
vn 0.000000 0.110432 0.993884
vn 0.000000 -0.110432 -0.993884
vn 0.000000 -0.110432 -0.993884
vn 0.000000 -0.110432 -0.993884
vn -0.000000 -0.110432 -0.993884
vn -0.000000 -0.110432 -0.993884
vn -0.000000 -0.110432 -0.993884
vn 0.000000 0.000000 0.000000
vn 0.000000 0.000000 0.000000
vn 0.000000 0.000000 0.000000
vn 0.000000 0.000000 0.000000
vn 0.000000 0.000000 0.000000
vn 0.000000 0.000000 0.000000
vn 0.000000 0.000000 0.000000
vn 0.000000 0.000000 0.000000
vn 0.000000 0.000000 0.000000
vn 0.000000 0.000000 0.000000
vn 0.000000 0.000000 0.000000
vn 0.000000 0.000000 0.000000
vn 0.000000 0.000000 0.000000
vn 0.000000 0.000000 0.000000
vn 0.000000 0.000000 0.000000
vn 0.000000 0.000000 0.000000
f 1/1/1 2/2/2 4/3/3
f 2/4/4 3/5/5 4/6/6
f 5/7/7 6/8/8 7/9/9
f 7/10/10 6/11/11 8/12/12
f 3/13/13 2/14/14 7/15/15 8/16/16
f 2/17/17 1/18/18 5/19/19 7/20/20
f 4/21/21 3/22/22 8/23/23 6/24/24
f 1/25/25 4/26/26 6/27/27 5/28/28
