# generated by tools/art/gen_meshes.py
v -0.192972 -0.247400 0.192972
v -0.192972 -0.192972 0.247400
v -0.247400 -0.192972 0.192972
v -0.192972 -0.240129 0.220150
v -0.220150 -0.240129 0.192972
v -0.219000 -0.233065 0.219000
v -0.220150 -0.192972 0.240129
v -0.192972 -0.220150 0.240129
v -0.219000 -0.219000 0.233065
v -0.240129 -0.220150 0.192972
v -0.240129 -0.192972 0.220150
v -0.233065 -0.219000 0.219000
v -0.192972 0.192972 0.247400
v -0.192972 0.247400 0.192972
v -0.247400 0.192972 0.192972
v -0.192972 0.220150 0.240129
v -0.220150 0.192972 0.240129
v -0.219000 0.219000 0.233065
v -0.220150 0.240129 0.192972
v -0.192972 0.240129 0.220150
v -0.219000 0.233065 0.219000
v -0.240129 0.192972 0.220150
v -0.240129 0.220150 0.192972
v -0.233065 0.219000 0.219000
v -0.192972 -0.247400 -0.192972
v -0.247400 -0.192972 -0.192972
v -0.192972 -0.192972 -0.247400
v -0.220150 -0.240129 -0.192972
v -0.192972 -0.240129 -0.220150
v -0.219000 -0.233065 -0.219000
v -0.240129 -0.192972 -0.220150
v -0.240129 -0.220150 -0.192972
v -0.233065 -0.219000 -0.219000
v -0.192972 -0.220150 -0.240129
v -0.220150 -0.192972 -0.240129
v -0.219000 -0.219000 -0.233065
v -0.192972 0.247400 -0.192972
v -0.192972 0.192972 -0.247400
v -0.247400 0.192972 -0.192972
v -0.192972 0.240129 -0.220150
v -0.220150 0.240129 -0.192972
v -0.219000 0.233065 -0.219000
v -0.220150 0.192972 -0.240129
v -0.192972 0.220150 -0.240129
v -0.219000 0.219000 -0.233065
v -0.240129 0.220150 -0.192972
v -0.240129 0.192972 -0.220150
v -0.233065 0.219000 -0.219000
v 0.192972 -0.247400 0.192972
v 0.247400 -0.192972 0.192972
v 0.192972 -0.192972 0.247400
v 0.220150 -0.240129 0.192972
v 0.192972 -0.240129 0.220150
v 0.219000 -0.233065 0.219000
v 0.240129 -0.192972 0.220150
v 0.240129 -0.220150 0.192972
v 0.233065 -0.219000 0.219000
v 0.192972 -0.220150 0.240129
v 0.220150 -0.192972 0.240129
v 0.219000 -0.219000 0.233065
v 0.192972 0.247400 0.192972
v 0.192972 0.192972 0.247400
v 0.247400 0.192972 0.192972
v 0.192972 0.240129 0.220150
v 0.220150 0.240129 0.192972
v 0.219000 0.233065 0.219000
v 0.220150 0.192972 0.240129
v 0.192972 0.220150 0.240129
v 0.219000 0.219000 0.233065
v 0.240129 0.220150 0.192972
v 0.240129 0.192972 0.220150
v 0.233065 0.219000 0.219000
v 0.192972 -0.247400 -0.192972
v 0.192972 -0.192972 -0.247400
v 0.247400 -0.192972 -0.192972
v 0.192972 -0.240129 -0.220150
v 0.220150 -0.240129 -0.192972
v 0.219000 -0.233065 -0.219000
v 0.220150 -0.192972 -0.240129
v 0.192972 -0.220150 -0.240129
v 0.219000 -0.219000 -0.233065
v 0.240129 -0.220150 -0.192972
v 0.240129 -0.192972 -0.220150
v 0.233065 -0.219000 -0.219000
v 0.192972 0.247400 -0.192972
v 0.247400 0.192972 -0.192972
v 0.192972 0.192972 -0.247400
v 0.220150 0.240129 -0.192972
v 0.192972 0.240129 -0.220150
v 0.219000 0.233065 -0.219000
v 0.240129 0.192972 -0.220150
v 0.240129 0.220150 -0.192972
v 0.233065 0.219000 -0.219000
v 0.192972 0.220150 -0.240129
v 0.220150 0.192972 -0.240129
v 0.219000 0.219000 -0.233065
vt 0.110000 0.890000
vt 0.110000 0.944928
vt 0.057397 0.942603
vt 0.055072 0.890000
vt 0.110000 0.944928
vt 0.110000 0.985304
vt 0.057397 0.971030
vt 0.057397 0.942603
vt 0.110000 0.110000
vt 0.055072 0.110000
vt 0.057397 0.057397
vt 0.110000 0.055072
vt 0.110000 0.985304
vt 0.110000 0.944928
vt 0.057397 0.942603
vt 0.057397 0.971030
vt 0.110000 0.890000
vt 0.055072 0.890000
vt 0.057397 0.942603
vt 0.110000 0.944928
vt 0.055072 0.890000
vt 0.014696 0.890000
vt 0.028970 0.942603
vt 0.057397 0.942603
vt 0.028970 0.942603
vt 0.057397 0.971030
vt 0.057397 0.942603
vt 0.110000 0.890000
vt 0.110000 0.944928
vt 0.057397 0.942603
vt 0.055072 0.890000
vt 0.110000 0.985304
vt 0.110000 0.944928
vt 0.057397 0.942603
vt 0.057397 0.971030
vt 0.110000 0.890000
vt 0.055072 0.890000
vt 0.057397 0.942603
vt 0.110000 0.944928
vt 0.985304 0.890000
vt 0.944928 0.890000
vt 0.942603 0.942603
vt 0.971030 0.942603
vt 0.890000 0.890000
vt 0.890000 0.944928
vt 0.942603 0.942603
vt 0.944928 0.890000
vt 0.890000 0.944928
vt 0.890000 0.985304
vt 0.942603 0.971030
vt 0.942603 0.942603
vt 0.942603 0.971030
vt 0.971030 0.942603
vt 0.942603 0.942603
vt 0.110000 0.110000
vt 0.055072 0.110000
vt 0.057397 0.057397
vt 0.110000 0.055072
vt 0.014696 0.110000
vt 0.055072 0.110000
vt 0.057397 0.057397
vt 0.028970 0.057397
vt 0.110000 0.110000
vt 0.110000 0.055072
vt 0.057397 0.057397
vt 0.055072 0.110000
vt 0.110000 0.055072
vt 0.110000 0.014696
vt 0.057397 0.028970
vt 0.057397 0.057397
vt 0.110000 0.110000
vt 0.110000 0.055072
vt 0.057397 0.057397
vt 0.055072 0.110000
vt 0.110000 0.014696
vt 0.110000 0.055072
vt 0.057397 0.057397
vt 0.057397 0.028970
vt 0.028970 0.057397
vt 0.057397 0.057397
vt 0.057397 0.028970
vt 0.110000 0.110000
vt 0.110000 0.055072
vt 0.057397 0.057397
vt 0.055072 0.110000
vt 0.110000 0.055072
vt 0.110000 0.014696
vt 0.057397 0.028970
vt 0.057397 0.057397
vt 0.110000 0.890000
vt 0.055072 0.890000
vt 0.057397 0.942603
vt 0.110000 0.944928
vt 0.890000 0.014696
vt 0.890000 0.055072
vt 0.942603 0.057397
vt 0.942603 0.028970
vt 0.890000 0.110000
vt 0.944928 0.110000
vt 0.942603 0.057397
vt 0.890000 0.055072
vt 0.944928 0.110000
vt 0.985304 0.110000
vt 0.971030 0.057397
vt 0.942603 0.057397
vt 0.971030 0.057397
vt 0.942603 0.028970
vt 0.942603 0.057397
vt 0.890000 0.890000
vt 0.944928 0.890000
vt 0.942603 0.942603
vt 0.890000 0.944928
vt 0.014696 0.890000
vt 0.055072 0.890000
vt 0.057397 0.942603
vt 0.028970 0.942603
vt 0.110000 0.890000
vt 0.110000 0.944928
vt 0.057397 0.942603
vt 0.055072 0.890000
vt 0.110000 0.944928
vt 0.110000 0.985304
vt 0.057397 0.971030
vt 0.057397 0.942603
vt 0.890000 0.110000
vt 0.890000 0.055072
vt 0.942603 0.057397
vt 0.944928 0.110000
vt 0.890000 0.985304
vt 0.890000 0.944928
vt 0.942603 0.942603
vt 0.942603 0.971030
vt 0.028970 0.942603
vt 0.057397 0.942603
vt 0.057397 0.971030
vt 0.890000 0.890000
vt 0.890000 0.944928
vt 0.942603 0.942603
vt 0.944928 0.890000
vt 0.890000 0.944928
vt 0.890000 0.985304
vt 0.942603 0.971030
vt 0.942603 0.942603
vt 0.890000 0.890000
vt 0.944928 0.890000
vt 0.942603 0.942603
vt 0.890000 0.944928
vt 0.890000 0.985304
vt 0.890000 0.944928
vt 0.942603 0.942603
vt 0.942603 0.971030
vt 0.890000 0.890000
vt 0.944928 0.890000
vt 0.942603 0.942603
vt 0.890000 0.944928
vt 0.944928 0.890000
vt 0.985304 0.890000
vt 0.971030 0.942603
vt 0.942603 0.942603
vt 0.971030 0.942603
vt 0.942603 0.971030
vt 0.942603 0.942603
vt 0.890000 0.110000
vt 0.890000 0.055072
vt 0.942603 0.057397
vt 0.944928 0.110000
vt 0.890000 0.055072
vt 0.890000 0.014696
vt 0.942603 0.028970
vt 0.942603 0.057397
vt 0.890000 0.110000
vt 0.944928 0.110000
vt 0.942603 0.057397
vt 0.890000 0.055072
vt 0.110000 0.014696
vt 0.110000 0.055072
vt 0.057397 0.057397
vt 0.057397 0.028970
vt 0.110000 0.110000
vt 0.055072 0.110000
vt 0.057397 0.057397
vt 0.110000 0.055072
vt 0.055072 0.110000
vt 0.014696 0.110000
vt 0.028970 0.057397
vt 0.057397 0.057397
vt 0.028970 0.057397
vt 0.057397 0.028970
vt 0.057397 0.057397
vt 0.890000 0.110000
vt 0.944928 0.110000
vt 0.942603 0.057397
vt 0.890000 0.055072
vt 0.985304 0.110000
vt 0.944928 0.110000
vt 0.942603 0.057397
vt 0.971030 0.057397
vt 0.890000 0.110000
vt 0.890000 0.055072
vt 0.942603 0.057397
vt 0.944928 0.110000
vt 0.890000 0.055072
vt 0.890000 0.014696
vt 0.942603 0.028970
vt 0.942603 0.057397
vt 0.890000 0.890000
vt 0.890000 0.944928
vt 0.942603 0.942603
vt 0.944928 0.890000
vt 0.890000 0.014696
vt 0.890000 0.055072
vt 0.942603 0.057397
vt 0.942603 0.028970
vt 0.971030 0.057397
vt 0.942603 0.057397
vt 0.942603 0.028970
vt 0.110000 0.110000
vt 0.110000 0.890000
vt 0.055072 0.890000
vt 0.055072 0.110000
vt 0.014696 0.110000
vt 0.014696 0.890000
vt 0.055072 0.890000
vt 0.055072 0.110000
vt 0.055072 0.110000
vt 0.055072 0.890000
vt 0.110000 0.890000
vt 0.110000 0.110000
vt 0.110000 0.110000
vt 0.110000 0.890000
vt 0.055072 0.890000
vt 0.055072 0.110000
vt 0.110000 0.985304
vt 0.890000 0.985304
vt 0.890000 0.944928
vt 0.110000 0.944928
vt 0.110000 0.944928
vt 0.890000 0.944928
vt 0.890000 0.890000
vt 0.110000 0.890000
vt 0.110000 0.890000
vt 0.110000 0.110000
vt 0.055072 0.110000
vt 0.055072 0.890000
vt 0.985304 0.890000
vt 0.985304 0.110000
vt 0.944928 0.110000
vt 0.944928 0.890000
vt 0.944928 0.890000
vt 0.944928 0.110000
vt 0.890000 0.110000
vt 0.890000 0.890000
vt 0.110000 0.890000
vt 0.110000 0.110000
vt 0.055072 0.110000
vt 0.055072 0.890000
vt 0.890000 0.014696
vt 0.110000 0.014696
vt 0.110000 0.055072
vt 0.890000 0.055072
vt 0.890000 0.055072
vt 0.110000 0.055072
vt 0.110000 0.110000
vt 0.890000 0.110000
vt 0.890000 0.110000
vt 0.110000 0.110000
vt 0.110000 0.055072
vt 0.890000 0.055072
vt 0.890000 0.055072
vt 0.110000 0.055072
vt 0.110000 0.014696
vt 0.890000 0.014696
vt 0.890000 0.055072
vt 0.110000 0.055072
vt 0.110000 0.110000
vt 0.890000 0.110000
vt 0.110000 0.110000
vt 0.890000 0.110000
vt 0.890000 0.055072
vt 0.110000 0.055072
vt 0.110000 0.055072
vt 0.890000 0.055072
vt 0.890000 0.014696
vt 0.110000 0.014696
vt 0.110000 0.944928
vt 0.890000 0.944928
vt 0.890000 0.890000
vt 0.110000 0.890000
vt 0.890000 0.110000
vt 0.110000 0.110000
vt 0.110000 0.055072
vt 0.890000 0.055072
vt 0.890000 0.055072
vt 0.110000 0.055072
vt 0.110000 0.014696
vt 0.890000 0.014696
vt 0.944928 0.890000
vt 0.944928 0.110000
vt 0.890000 0.110000
vt 0.890000 0.890000
vt 0.890000 0.890000
vt 0.890000 0.110000
vt 0.944928 0.110000
vt 0.944928 0.890000
vt 0.014696 0.890000
vt 0.014696 0.110000
vt 0.055072 0.110000
vt 0.055072 0.890000
vt 0.055072 0.890000
vt 0.055072 0.110000
vt 0.110000 0.110000
vt 0.110000 0.890000
vt 0.890000 0.110000
vt 0.890000 0.890000
vt 0.944928 0.890000
vt 0.944928 0.110000
vt 0.985304 0.110000
vt 0.985304 0.890000
vt 0.944928 0.890000
vt 0.944928 0.110000
vt 0.944928 0.110000
vt 0.944928 0.890000
vt 0.890000 0.890000
vt 0.890000 0.110000
vt 0.890000 0.890000
vt 0.890000 0.110000
vt 0.944928 0.110000
vt 0.944928 0.890000
vt 0.890000 0.985304
vt 0.110000 0.985304
vt 0.110000 0.944928
vt 0.890000 0.944928
vt 0.890000 0.944928
vt 0.110000 0.944928
vt 0.110000 0.890000
vt 0.890000 0.890000
vt 0.110000 0.890000
vt 0.890000 0.890000
vt 0.890000 0.944928
vt 0.110000 0.944928
vt 0.110000 0.944928
vt 0.890000 0.944928
vt 0.890000 0.985304
vt 0.110000 0.985304
vt 0.110000 0.055072
vt 0.890000 0.055072
vt 0.890000 0.110000
vt 0.110000 0.110000
vt 0.890000 0.890000
vt 0.110000 0.890000
vt 0.110000 0.944928
vt 0.890000 0.944928
vt 0.890000 0.944928
vt 0.110000 0.944928
vt 0.110000 0.985304
vt 0.890000 0.985304
vt 0.890000 0.944928
vt 0.110000 0.944928
vt 0.110000 0.890000
vt 0.890000 0.890000
vt 0.110000 0.110000
vt 0.890000 0.110000
vt 0.890000 0.890000
vt 0.110000 0.890000
vt 0.110000 0.890000
vt 0.890000 0.890000
vt 0.890000 0.110000
vt 0.110000 0.110000
vt 0.890000 0.110000
vt 0.890000 0.890000
vt 0.110000 0.890000
vt 0.110000 0.110000
vt 0.890000 0.110000
vt 0.110000 0.110000
vt 0.110000 0.890000
vt 0.890000 0.890000
vt 0.110000 0.110000
vt 0.110000 0.890000
vt 0.890000 0.890000
vt 0.890000 0.110000
vt 0.110000 0.110000
vt 0.890000 0.110000
vt 0.890000 0.890000
vt 0.110000 0.890000
vn -0.129593 -0.983062 0.129593
vn -0.121574 -0.862323 0.491547
vn -0.447349 -0.774440 0.447349
vn -0.491547 -0.862323 0.121574
vn -0.121574 -0.862323 0.491547
vn -0.121574 -0.491547 0.862323
vn -0.447349 -0.447349 0.774440
vn -0.447349 -0.774440 0.447349
vn -0.129593 -0.129593 0.983062
vn -0.491547 -0.121574 0.862323
vn -0.447349 -0.447349 0.774440
vn -0.121574 -0.491547 0.862323
vn -0.491547 -0.121574 0.862323
vn -0.862323 -0.121574 0.491547
vn -0.774440 -0.447349 0.447349
vn -0.447349 -0.447349 0.774440
vn -0.983062 -0.129593 0.129593
vn -0.862323 -0.491547 0.121574
vn -0.774440 -0.447349 0.447349
vn -0.862323 -0.121574 0.491547
vn -0.862323 -0.491547 0.121574
vn -0.491547 -0.862323 0.121574
vn -0.447349 -0.774440 0.447349
vn -0.774440 -0.447349 0.447349
vn -0.447349 -0.774440 0.447349
vn -0.447349 -0.447349 0.774440
vn -0.774440 -0.447349 0.447349
vn -0.129593 0.129593 0.983062
vn -0.121574 0.491547 0.862323
vn -0.447349 0.447349 0.774440
vn -0.491547 0.121574 0.862323
vn -0.121574 0.491547 0.862323
vn -0.121574 0.862323 0.491547
vn -0.447349 0.774440 0.447349
vn -0.447349 0.447349 0.774440
vn -0.129593 0.983062 0.129593
vn -0.491547 0.862323 0.121574
vn -0.447349 0.774440 0.447349
vn -0.121574 0.862323 0.491547
vn -0.491547 0.862323 0.121574
vn -0.862323 0.491547 0.121574
vn -0.774440 0.447349 0.447349
vn -0.447349 0.774440 0.447349
vn -0.983062 0.129593 0.129593
vn -0.862323 0.121574 0.491547
vn -0.774440 0.447349 0.447349
vn -0.862323 0.491547 0.121574
vn -0.862323 0.121574 0.491547
vn -0.491547 0.121574 0.862323
vn -0.447349 0.447349 0.774440
vn -0.774440 0.447349 0.447349
vn -0.447349 0.447349 0.774440
vn -0.447349 0.774440 0.447349
vn -0.774440 0.447349 0.447349
vn -0.129593 -0.983062 -0.129593
vn -0.491547 -0.862323 -0.121574
vn -0.447349 -0.774440 -0.447349
vn -0.121574 -0.862323 -0.491547
vn -0.491547 -0.862323 -0.121574
vn -0.862323 -0.491547 -0.121574
vn -0.774440 -0.447349 -0.447349
vn -0.447349 -0.774440 -0.447349
vn -0.983062 -0.129593 -0.129593
vn -0.862323 -0.121574 -0.491547
vn -0.774440 -0.447349 -0.447349
vn -0.862323 -0.491547 -0.121574
vn -0.862323 -0.121574 -0.491547
vn -0.491547 -0.121574 -0.862323
vn -0.447349 -0.447349 -0.774440
vn -0.774440 -0.447349 -0.447349
vn -0.129593 -0.129593 -0.983062
vn -0.121574 -0.491547 -0.862323
vn -0.447349 -0.447349 -0.774440
vn -0.491547 -0.121574 -0.862323
vn -0.121574 -0.491547 -0.862323
vn -0.121574 -0.862323 -0.491547
vn -0.447349 -0.774440 -0.447349
vn -0.447349 -0.447349 -0.774440
vn -0.447349 -0.774440 -0.447349
vn -0.774440 -0.447349 -0.447349
vn -0.447349 -0.447349 -0.774440
vn -0.129593 0.983062 -0.129593
vn -0.121574 0.862323 -0.491547
vn -0.447349 0.774440 -0.447349
vn -0.491547 0.862323 -0.121574
vn -0.121574 0.862323 -0.491547
vn -0.121574 0.491547 -0.862323
vn -0.447349 0.447349 -0.774440
vn -0.447349 0.774440 -0.447349
vn -0.129593 0.129593 -0.983062
vn -0.491547 0.121574 -0.862323
vn -0.447349 0.447349 -0.774440
vn -0.121574 0.491547 -0.862323
vn -0.491547 0.121574 -0.862323
vn -0.862323 0.121574 -0.491547
vn -0.774440 0.447349 -0.447349
vn -0.447349 0.447349 -0.774440
vn -0.983062 0.129593 -0.129593
vn -0.862323 0.491547 -0.121574
vn -0.774440 0.447349 -0.447349
vn -0.862323 0.121574 -0.491547
vn -0.862323 0.491547 -0.121574
vn -0.491547 0.862323 -0.121574
vn -0.447349 0.774440 -0.447349
vn -0.774440 0.447349 -0.447349
vn -0.447349 0.774440 -0.447349
vn -0.447349 0.447349 -0.774440
vn -0.774440 0.447349 -0.447349
vn 0.129593 -0.983062 0.129593
vn 0.491547 -0.862323 0.121574
vn 0.447349 -0.774440 0.447349
vn 0.121574 -0.862323 0.491547
vn 0.491547 -0.862323 0.121574
vn 0.862323 -0.491547 0.121574
vn 0.774440 -0.447349 0.447349
vn 0.447349 -0.774440 0.447349
vn 0.983062 -0.129593 0.129593
vn 0.862323 -0.121574 0.491547
vn 0.774440 -0.447349 0.447349
vn 0.862323 -0.491547 0.121574
vn 0.862323 -0.121574 0.491547
vn 0.491547 -0.121574 0.862323
vn 0.447349 -0.447349 0.774440
vn 0.774440 -0.447349 0.447349
vn 0.129593 -0.129593 0.983062
vn 0.121574 -0.491547 0.862323
vn 0.447349 -0.447349 0.774440
vn 0.491547 -0.121574 0.862323
vn 0.121574 -0.491547 0.862323
vn 0.121574 -0.862323 0.491547
vn 0.447349 -0.774440 0.447349
vn 0.447349 -0.447349 0.774440
vn 0.447349 -0.774440 0.447349
vn 0.774440 -0.447349 0.447349
vn 0.447349 -0.447349 0.774440
vn 0.129593 0.983062 0.129593
vn 0.121574 0.862323 0.491547
vn 0.447349 0.774440 0.447349
vn 0.491547 0.862323 0.121574
vn 0.121574 0.862323 0.491547
vn 0.121574 0.491547 0.862323
vn 0.447349 0.447349 0.774440
vn 0.447349 0.774440 0.447349
vn 0.129593 0.129593 0.983062
vn 0.491547 0.121574 0.862323
vn 0.447349 0.447349 0.774440
vn 0.121574 0.491547 0.862323
vn 0.491547 0.121574 0.862323
vn 0.862323 0.121574 0.491547
vn 0.774440 0.447349 0.447349
vn 0.447349 0.447349 0.774440
vn 0.983062 0.129593 0.129593
vn 0.862323 0.491547 0.121574
vn 0.774440 0.447349 0.447349
vn 0.862323 0.121574 0.491547
vn 0.862323 0.491547 0.121574
vn 0.491547 0.862323 0.121574
vn 0.447349 0.774440 0.447349
vn 0.774440 0.447349 0.447349
vn 0.447349 0.774440 0.447349
vn 0.447349 0.447349 0.774440
vn 0.774440 0.447349 0.447349
vn 0.129593 -0.983062 -0.129593
vn 0.121574 -0.862323 -0.491547
vn 0.447349 -0.774440 -0.447349
vn 0.491547 -0.862323 -0.121574
vn 0.121574 -0.862323 -0.491547
vn 0.121574 -0.491547 -0.862323
vn 0.447349 -0.447349 -0.774440
vn 0.447349 -0.774440 -0.447349
vn 0.129593 -0.129593 -0.983062
vn 0.491547 -0.121574 -0.862323
vn 0.447349 -0.447349 -0.774440
vn 0.121574 -0.491547 -0.862323
vn 0.491547 -0.121574 -0.862323
vn 0.862323 -0.121574 -0.491547
vn 0.774440 -0.447349 -0.447349
vn 0.447349 -0.447349 -0.774440
vn 0.983062 -0.129593 -0.129593
vn 0.862323 -0.491547 -0.121574
vn 0.774440 -0.447349 -0.447349
vn 0.862323 -0.121574 -0.491547
vn 0.862323 -0.491547 -0.121574
vn 0.491547 -0.862323 -0.121574
vn 0.447349 -0.774440 -0.447349
vn 0.774440 -0.447349 -0.447349
vn 0.447349 -0.774440 -0.447349
vn 0.447349 -0.447349 -0.774440
vn 0.774440 -0.447349 -0.447349
vn 0.129593 0.983062 -0.129593
vn 0.491547 0.862323 -0.121574
vn 0.447349 0.774440 -0.447349
vn 0.121574 0.862323 -0.491547
vn 0.491547 0.862323 -0.121574
vn 0.862323 0.491547 -0.121574
vn 0.774440 0.447349 -0.447349
vn 0.447349 0.774440 -0.447349
vn 0.983062 0.129593 -0.129593
vn 0.862323 0.121574 -0.491547
vn 0.774440 0.447349 -0.447349
vn 0.862323 0.491547 -0.121574
vn 0.862323 0.121574 -0.491547
vn 0.491547 0.121574 -0.862323
vn 0.447349 0.447349 -0.774440
vn 0.774440 0.447349 -0.447349
vn 0.129593 0.129593 -0.983062
vn 0.121574 0.491547 -0.862323
vn 0.447349 0.447349 -0.774440
vn 0.491547 0.121574 -0.862323
vn 0.121574 0.491547 -0.862323
vn 0.121574 0.862323 -0.491547
vn 0.447349 0.774440 -0.447349
vn 0.447349 0.447349 -0.774440
vn 0.447349 0.774440 -0.447349
vn 0.774440 0.447349 -0.447349
vn 0.447349 0.447349 -0.774440
vn -0.129593 -0.983062 -0.129593
vn -0.129593 -0.983062 0.129593
vn -0.491547 -0.862323 0.121574
vn -0.491547 -0.862323 -0.121574
vn -0.491547 -0.862323 -0.121574
vn -0.491547 -0.862323 0.121574
vn -0.862323 -0.491547 0.121574
vn -0.862323 -0.491547 -0.121574
vn -0.862323 -0.491547 -0.121574
vn -0.862323 -0.491547 0.121574
vn -0.983062 -0.129593 0.129593
vn -0.983062 -0.129593 -0.129593
vn -0.129593 -0.129593 0.983062
vn -0.129593 0.129593 0.983062
vn -0.491547 0.121574 0.862323
vn -0.491547 -0.121574 0.862323
vn -0.491547 -0.121574 0.862323
vn -0.491547 0.121574 0.862323
vn -0.862323 0.121574 0.491547
vn -0.862323 -0.121574 0.491547
vn -0.862323 -0.121574 0.491547
vn -0.862323 0.121574 0.491547
vn -0.983062 0.129593 0.129593
vn -0.983062 -0.129593 0.129593
vn -0.129593 0.983062 0.129593
vn -0.129593 0.983062 -0.129593
vn -0.491547 0.862323 -0.121574
vn -0.491547 0.862323 0.121574
vn -0.491547 0.862323 0.121574
vn -0.491547 0.862323 -0.121574
vn -0.862323 0.491547 -0.121574
vn -0.862323 0.491547 0.121574
vn -0.862323 0.491547 0.121574
vn -0.862323 0.491547 -0.121574
vn -0.983062 0.129593 -0.129593
vn -0.983062 0.129593 0.129593
vn -0.129593 0.129593 -0.983062
vn -0.129593 -0.129593 -0.983062
vn -0.491547 -0.121574 -0.862323
vn -0.491547 0.121574 -0.862323
vn -0.491547 0.121574 -0.862323
vn -0.491547 -0.121574 -0.862323
vn -0.862323 -0.121574 -0.491547
vn -0.862323 0.121574 -0.491547
vn -0.862323 0.121574 -0.491547
vn -0.862323 -0.121574 -0.491547
vn -0.983062 -0.129593 -0.129593
vn -0.983062 0.129593 -0.129593
vn 0.129593 -0.983062 -0.129593
vn -0.129593 -0.983062 -0.129593
vn -0.121574 -0.862323 -0.491547
vn 0.121574 -0.862323 -0.491547
vn 0.121574 -0.862323 -0.491547
vn -0.121574 -0.862323 -0.491547
vn -0.121574 -0.491547 -0.862323
vn 0.121574 -0.491547 -0.862323
vn 0.121574 -0.491547 -0.862323
vn -0.121574 -0.491547 -0.862323
vn -0.129593 -0.129593 -0.983062
vn 0.129593 -0.129593 -0.983062
vn -0.129593 0.983062 -0.129593
vn 0.129593 0.983062 -0.129593
vn 0.121574 0.862323 -0.491547
vn -0.121574 0.862323 -0.491547
vn -0.121574 0.862323 -0.491547
vn 0.121574 0.862323 -0.491547
vn 0.121574 0.491547 -0.862323
vn -0.121574 0.491547 -0.862323
vn -0.121574 0.491547 -0.862323
vn 0.121574 0.491547 -0.862323
vn 0.129593 0.129593 -0.983062
vn -0.129593 0.129593 -0.983062
vn 0.983062 0.129593 -0.129593
vn 0.983062 -0.129593 -0.129593
vn 0.862323 -0.121574 -0.491547
vn 0.862323 0.121574 -0.491547
vn 0.862323 0.121574 -0.491547
vn 0.862323 -0.121574 -0.491547
vn 0.491547 -0.121574 -0.862323
vn 0.491547 0.121574 -0.862323
vn 0.491547 0.121574 -0.862323
vn 0.491547 -0.121574 -0.862323
vn 0.129593 -0.129593 -0.983062
vn 0.129593 0.129593 -0.983062
vn 0.129593 -0.983062 0.129593
vn 0.129593 -0.983062 -0.129593
vn 0.491547 -0.862323 -0.121574
vn 0.491547 -0.862323 0.121574
vn 0.491547 -0.862323 0.121574
vn 0.491547 -0.862323 -0.121574
vn 0.862323 -0.491547 -0.121574
vn 0.862323 -0.491547 0.121574
vn 0.862323 -0.491547 0.121574
vn 0.862323 -0.491547 -0.121574
vn 0.983062 -0.129593 -0.129593
vn 0.983062 -0.129593 0.129593
vn 0.129593 0.983062 -0.129593
vn 0.129593 0.983062 0.129593
vn 0.491547 0.862323 0.121574
vn 0.491547 0.862323 -0.121574
vn 0.491547 0.862323 -0.121574
vn 0.491547 0.862323 0.121574
vn 0.862323 0.491547 0.121574
vn 0.862323 0.491547 -0.121574
vn 0.862323 0.491547 -0.121574
vn 0.862323 0.491547 0.121574
vn 0.983062 0.129593 0.129593
vn 0.983062 0.129593 -0.129593
vn 0.129593 0.129593 0.983062
vn 0.129593 -0.129593 0.983062
vn 0.491547 -0.121574 0.862323
vn 0.491547 0.121574 0.862323
vn 0.491547 0.121574 0.862323
vn 0.491547 -0.121574 0.862323
vn 0.862323 -0.121574 0.491547
vn 0.862323 0.121574 0.491547
vn 0.862323 0.121574 0.491547
vn 0.862323 -0.121574 0.491547
vn 0.983062 -0.129593 0.129593
vn 0.983062 0.129593 0.129593
vn -0.129593 -0.983062 0.129593
vn 0.129593 -0.983062 0.129593
vn 0.121574 -0.862323 0.491547
vn -0.121574 -0.862323 0.491547
vn -0.121574 -0.862323 0.491547
vn 0.121574 -0.862323 0.491547
vn 0.121574 -0.491547 0.862323
vn -0.121574 -0.491547 0.862323
vn -0.121574 -0.491547 0.862323
vn 0.121574 -0.491547 0.862323
vn 0.129593 -0.129593 0.983062
vn -0.129593 -0.129593 0.983062
vn 0.129593 0.983062 0.129593
vn -0.129593 0.983062 0.129593
vn -0.121574 0.862323 0.491547
vn 0.121574 0.862323 0.491547
vn 0.121574 0.862323 0.491547
vn -0.121574 0.862323 0.491547
vn -0.121574 0.491547 0.862323
vn 0.121574 0.491547 0.862323
vn 0.121574 0.491547 0.862323
vn -0.121574 0.491547 0.862323
vn -0.129593 0.129593 0.983062
vn 0.129593 0.129593 0.983062
vn -0.129593 -0.983062 -0.129593
vn 0.129593 -0.983062 -0.129593
vn 0.129593 -0.983062 0.129593
vn -0.129593 -0.983062 0.129593
vn -0.983062 -0.129593 0.129593
vn -0.983062 0.129593 0.129593
vn -0.983062 0.129593 -0.129593
vn -0.983062 -0.129593 -0.129593
vn 0.129593 -0.129593 0.983062
vn 0.129593 0.129593 0.983062
vn -0.129593 0.129593 0.983062
vn -0.129593 -0.129593 0.983062
vn 0.129593 0.983062 -0.129593
vn -0.129593 0.983062 -0.129593
vn -0.129593 0.983062 0.129593
vn 0.129593 0.983062 0.129593
vn -0.129593 -0.129593 -0.983062
vn -0.129593 0.129593 -0.983062
vn 0.129593 0.129593 -0.983062
vn 0.129593 -0.129593 -0.983062
vn 0.983062 -0.129593 -0.129593
vn 0.983062 0.129593 -0.129593
vn 0.983062 0.129593 0.129593
vn 0.983062 -0.129593 0.129593
f 1/1/1 4/2/2 6/3/3 5/4/4
f 4/5/5 8/6/6 9/7/7 6/8/8
f 2/9/9 7/10/10 9/11/11 8/12/12
f 7/13/13 11/14/14 12/15/15 9/16/16
f 3/17/17 10/18/18 12/19/19 11/20/20
f 10/21/21 5/22/22 6/23/23 12/24/24
f 6/25/25 9/26/26 12/27/27
f 13/28/28 16/29/29 18/30/30 17/31/31
f 16/32/32 20/33/33 21/34/34 18/35/35
f 14/36/36 19/37/37 21/38/38 20/39/39
f 19/40/40 23/41/41 24/42/42 21/43/43
f 15/44/44 22/45/45 24/46/46 23/47/47
f 22/48/48 17/49/49 18/50/50 24/51/51
f 18/52/52 21/53/53 24/54/54
f 25/55/55 28/56/56 30/57/57 29/58/58
f 28/59/59 32/60/60 33/61/61 30/62/62
f 26/63/63 31/64/64 33/65/65 32/66/66
f 31/67/67 35/68/68 36/69/69 33/70/70
f 27/71/71 34/72/72 36/73/73 35/74/74
f 34/75/75 29/76/76 30/77/77 36/78/78
f 30/79/79 33/80/80 36/81/81
f 37/82/82 40/83/83 42/84/84 41/85/85
f 40/86/86 44/87/87 45/88/88 42/89/89
f 38/90/90 43/91/91 45/92/92 44/93/93
f 43/94/94 47/95/95 48/96/96 45/97/97
f 39/98/98 46/99/99 48/100/100 47/101/101
f 46/102/102 41/103/103 42/104/104 48/105/105
f 42/106/106 45/107/107 48/108/108
f 49/109/109 52/110/110 54/111/111 53/112/112
f 52/113/113 56/114/114 57/115/115 54/116/116
f 50/117/117 55/118/118 57/119/119 56/120/120
f 55/121/121 59/122/122 60/123/123 57/124/124
f 51/125/125 58/126/126 60/127/127 59/128/128
f 58/129/129 53/130/130 54/131/131 60/132/132
f 54/133/133 57/134/134 60/135/135
f 61/136/136 64/137/137 66/138/138 65/139/139
f 64/140/140 68/141/141 69/142/142 66/143/143
f 62/144/144 67/145/145 69/146/146 68/147/147
f 67/148/148 71/149/149 72/150/150 69/151/151
f 63/152/152 70/153/153 72/154/154 71/155/155
f 70/156/156 65/157/157 66/158/158 72/159/159
f 66/160/160 69/161/161 72/162/162
f 73/163/163 76/164/164 78/165/165 77/166/166
f 76/167/167 80/168/168 81/169/169 78/170/170
f 74/171/171 79/172/172 81/173/173 80/174/174
f 79/175/175 83/176/176 84/177/177 81/178/178
f 75/179/179 82/180/180 84/181/181 83/182/182
f 82/183/183 77/184/184 78/185/185 84/186/186
f 78/187/187 81/188/188 84/189/189
f 85/190/190 88/191/191 90/192/192 89/193/193
f 88/194/194 92/195/195 93/196/196 90/197/197
f 86/198/198 91/199/199 93/200/200 92/201/201
f 91/202/202 95/203/203 96/204/204 93/205/205
f 87/206/206 94/207/207 96/208/208 95/209/209
f 94/210/210 89/211/211 90/212/212 96/213/213
f 90/214/214 93/215/215 96/216/216
f 25/217/217 1/218/218 5/219/219 28/220/220
f 28/221/221 5/222/222 10/223/223 32/224/224
f 32/225/225 10/226/226 3/227/227 26/228/228
f 2/229/229 13/230/230 17/231/231 7/232/232
f 7/233/233 17/234/234 22/235/235 11/236/236
f 11/237/237 22/238/238 15/239/239 3/240/240
f 14/241/241 37/242/242 41/243/243 19/244/244
f 19/245/245 41/246/246 46/247/247 23/248/248
f 23/249/249 46/250/250 39/251/251 15/252/252
f 38/253/253 27/254/254 35/255/255 43/256/256
f 43/257/257 35/258/258 31/259/259 47/260/260
f 47/261/261 31/262/262 26/263/263 39/264/264
f 73/265/265 25/266/266 29/267/267 76/268/268
f 76/269/269 29/270/270 34/271/271 80/272/272
f 80/273/273 34/274/274 27/275/275 74/276/276
f 37/277/277 85/278/278 89/279/279 40/280/280
f 40/281/281 89/282/282 94/283/283 44/284/284
f 44/285/285 94/286/286 87/287/287 38/288/288
f 86/289/289 75/290/290 83/291/291 91/292/292
f 91/293/293 83/294/294 79/295/295 95/296/296
f 95/297/297 79/298/298 74/299/299 87/300/300
f 49/301/301 73/302/302 77/303/303 52/304/304
f 52/305/305 77/306/306 82/307/307 56/308/308
f 56/309/309 82/310/310 75/311/311 50/312/312
f 85/313/313 61/314/314 65/315/315 88/316/316
f 88/317/317 65/318/318 70/319/319 92/320/320
f 92/321/321 70/322/322 63/323/323 86/324/324
f 62/325/325 51/326/326 59/327/327 67/328/328
f 67/329/329 59/330/330 55/331/331 71/332/332
f 71/333/333 55/334/334 50/335/335 63/336/336
f 1/337/337 49/338/338 53/339/339 4/340/340
f 4/341/341 53/342/342 58/343/343 8/344/344
f 8/345/345 58/346/346 51/347/347 2/348/348
f 61/349/349 14/350/350 20/351/351 64/352/352
f 64/353/353 20/354/354 16/355/355 68/356/356
f 68/357/357 16/358/358 13/359/359 62/360/360
f 25/361/361 73/362/362 49/363/363 1/364/364
f 3/365/365 15/366/366 39/367/367 26/368/368
f 51/369/369 62/370/370 13/371/371 2/372/372
f 85/373/373 37/374/374 14/375/375 61/376/376
f 27/377/377 38/378/378 87/379/379 74/380/380
f 75/381/381 86/382/382 63/383/383 50/384/384
