# generated by tools/art/gen_meshes.py
v 0.000000 -0.995000 -0.017800
v 0.000000 -0.000000 -0.017800
v 0.007922 -0.995000 -0.016037
v 0.007922 -0.000000 -0.016037
v 0.014274 -0.995000 -0.011098
v 0.014274 0.000000 -0.011098
v 0.017800 -0.995000 -0.003961
v 0.017800 0.000000 -0.003961
v 0.017800 -0.995000 0.003961
v 0.017800 0.000000 0.003961
v 0.014274 -0.995000 0.011098
v 0.014274 0.000000 0.011098
v 0.007922 -0.995000 0.016037
v 0.007922 0.000000 0.016037
v 0.000000 -0.995000 0.017800
v 0.000000 0.000000 0.017800
v -0.007922 -0.995000 0.016037
v -0.007922 0.000000 0.016037
v -0.014274 -0.995000 0.011098
v -0.014274 0.000000 0.011098
v -0.017800 -0.995000 0.003961
v -0.017800 0.000000 0.003961
v -0.017800 -0.995000 -0.003961
v -0.017800 0.000000 -0.003961
v -0.014274 -0.995000 -0.011098
v -0.014274 0.000000 -0.011098
v -0.007922 -0.995000 -0.016037
v -0.007922 -0.000000 -0.016037
vt 0.500000 0.000000
vt 0.500000 1.000000
vt 0.722521 1.000000
vt 0.722521 0.000000
vt 0.722521 0.000000
vt 0.722521 1.000000
vt 0.900969 1.000000
vt 0.900969 0.000000
vt 0.000000 0.188255
vt 1.000000 0.188255
vt 1.000000 0.388740
vt 0.000000 0.388740
vt 0.000000 0.388740
vt 1.000000 0.388740
vt 1.000000 0.611260
vt 0.000000 0.611260
vt 0.000000 0.611260
vt 1.000000 0.611260
vt 1.000000 0.811745
vt 0.000000 0.811745
vt 0.900969 0.000000
vt 0.900969 1.000000
vt 0.722521 1.000000
vt 0.722521 0.000000
vt 0.722521 0.000000
vt 0.722521 1.000000
vt 0.500000 1.000000
vt 0.500000 0.000000
vt 0.500000 0.000000
vt 0.500000 1.000000
vt 0.277479 1.000000
vt 0.277479 0.000000
vt 0.277479 0.000000
vt 0.277479 1.000000
vt 0.099031 1.000000
vt 0.099031 0.000000
vt 0.000000 0.811745
vt 1.000000 0.811745
vt 1.000000 0.611260
vt 0.000000 0.611260
vt 0.000000 0.611260
vt 1.000000 0.611260
vt 1.000000 0.388740
vt 0.000000 0.388740
vt 0.000000 0.388740
vt 1.000000 0.388740
vt 1.000000 0.188255
vt 0.000000 0.188255
vt 0.722521 0.049516
vt 0.500000 0.000000
vt 0.277479 0.049516
vt 0.099031 0.188255
vt 0.000000 0.388740
vt 0.000000 0.611260
vt 0.099031 0.811745
vt 0.277479 0.950484
vt 0.500000 1.000000
vt 0.722521 0.950484
vt 0.900969 0.811745
vt 1.000000 0.611260
vt 1.000000 0.388740
vt 0.900969 0.188255
vt 0.099031 0.000000
vt 0.099031 1.000000
vt 0.277479 1.000000
vt 0.277479 0.000000
vt 0.277479 0.000000
vt 0.277479 1.000000
vt 0.500000 1.000000
vt 0.500000 0.000000
vt 0.500000 0.000000
vt 0.722521 0.049516
vt 0.900969 0.188255
vt 1.000000 0.388740
vt 1.000000 0.611260
vt 0.900969 0.811745
vt 0.722521 0.950484
vt 0.500000 1.000000
vt 0.277479 0.950484
vt 0.099031 0.811745
vt 0.000000 0.611260
vt 0.000000 0.388740
vt 0.099031 0.188255
vt 0.277479 0.049516
vn 0.000000 -0.661332 -0.750093
vn 0.000000 0.661332 -0.750093
vn 0.319575 0.660947 -0.678985
vn 0.319574 -0.660948 -0.678985
vn 0.319574 -0.660948 -0.678985
vn 0.319575 0.660947 -0.678985
vn 0.582051 0.660062 -0.474905
vn 0.582051 -0.660062 -0.474905
vn 0.582051 -0.660062 -0.474905
vn 0.582051 0.660062 -0.474905
vn 0.732158 0.659329 -0.170968
vn 0.732158 -0.659329 -0.170968
vn 0.732158 -0.659329 -0.170968
vn 0.732158 0.659329 -0.170968
vn 0.732158 0.659329 0.170967
vn 0.732158 -0.659329 0.170968
vn 0.732158 -0.659329 0.170968
vn 0.732158 0.659329 0.170967
vn 0.582051 0.660062 0.474905
vn 0.582050 -0.660063 0.474905
vn 0.582050 -0.660063 0.474905
vn 0.582051 0.660062 0.474905
vn 0.319574 0.660948 0.678985
vn 0.319575 -0.660947 0.678986
vn 0.319575 -0.660947 0.678986
vn 0.319574 0.660948 0.678985
vn 0.000000 0.661332 0.750093
vn 0.000000 -0.661332 0.750093
vn 0.000000 -0.661332 0.750093
vn 0.000000 0.661332 0.750093
vn -0.319574 0.660948 0.678985
vn -0.319575 -0.660947 0.678986
vn -0.319575 -0.660947 0.678986
vn -0.319574 0.660948 0.678985
vn -0.582051 0.660062 0.474905
vn -0.582050 -0.660063 0.474905
vn -0.582050 -0.660063 0.474905
vn -0.582051 0.660062 0.474905
vn -0.732158 0.659329 0.170967
vn -0.732158 -0.659329 0.170968
vn -0.732158 -0.659329 0.170968
vn -0.732158 0.659329 0.170967
vn -0.732158 0.659329 -0.170968
vn -0.732158 -0.659329 -0.170968
vn -0.732158 -0.659329 -0.170968
vn -0.732158 0.659329 -0.170968
vn -0.582051 0.660062 -0.474905
vn -0.582051 -0.660062 -0.474905
vn 0.319575 0.660947 -0.678985
vn 0.000000 0.661332 -0.750093
vn -0.319575 0.660947 -0.678985
vn -0.582051 0.660062 -0.474905
vn -0.732158 0.659329 -0.170968
vn -0.732158 0.659329 0.170967
vn -0.582051 0.660062 0.474905
vn -0.319574 0.660948 0.678985
vn 0.000000 0.661332 0.750093
vn 0.319574 0.660948 0.678985
vn 0.582051 0.660062 0.474905
vn 0.732158 0.659329 0.170967
vn 0.732158 0.659329 -0.170968
vn 0.582051 0.660062 -0.474905
vn -0.582051 -0.660062 -0.474905
vn -0.582051 0.660062 -0.474905
vn -0.319575 0.660947 -0.678985
vn -0.319574 -0.660948 -0.678985
vn -0.319574 -0.660948 -0.678985
vn -0.319575 0.660947 -0.678985
vn 0.000000 0.661332 -0.750093
vn 0.000000 -0.661332 -0.750093
vn 0.000000 -0.661332 -0.750093
vn 0.319574 -0.660948 -0.678985
vn 0.582051 -0.660062 -0.474905
vn 0.732158 -0.659329 -0.170968
vn 0.732158 -0.659329 0.170968
vn 0.582050 -0.660063 0.474905
vn 0.319575 -0.660947 0.678986
vn 0.000000 -0.661332 0.750093
vn -0.319575 -0.660947 0.678986
vn -0.582050 -0.660063 0.474905
vn -0.732158 -0.659329 0.170968
vn -0.732158 -0.659329 -0.170968
vn -0.582051 -0.660062 -0.474905
vn -0.319574 -0.660948 -0.678985
f 1/1/1 2/2/2 4/3/3 3/4/4
f 3/5/5 4/6/6 6/7/7 5/8/8
f 5/9/9 6/10/10 8/11/11 7/12/12
f 7/13/13 8/14/14 10/15/15 9/16/16
f 9/17/17 10/18/18 12/19/19 11/20/20
f 11/21/21 12/22/22 14/23/23 13/24/24
f 13/25/25 14/26/26 16/27/27 15/28/28
f 15/29/29 16/30/30 18/31/31 17/32/32
f 17/33/33 18/34/34 20/35/35 19/36/36
f 19/37/37 20/38/38 22/39/39 21/40/40
f 21/41/41 22/42/42 24/43/43 23/44/44
f 23/45/45 24/46/46 26/47/47 25/48/48
f 4/49/49 2/50/50 28/51/51 26/52/52 24/53/53 22/54/54 20/55/55 18/56/56 16/57/57 14/58/58 12/59/59 10/60/60 8/61/61 6/62/62
f 25/63/63 26/64/64 28/65/65 27/66/66
f 27/67/67 28/68/68 2/69/69 1/70/70
f 1/71/71 3/72/72 5/73/73 7/74/74 9/75/75 11/76/76 13/77/77 15/78/78 17/79/79 19/80/80 21/81/81 23/82/82 25/83/83 27/84/84
